<svg width="18" height="17" viewBox="0 0 18 17" fill="none" xmlns="http://www.w3.org/2000/svg">
<path d="M8.21973 4.51855C8.75879 4.51855 9.23926 4.61816 9.66113 4.81738C10.0889 5.0166 10.3994 5.25391 10.5928 5.5293H10.7686L10.8652 4.66797H12.79V8.8252C12.79 9.86816 13.2031 10.3896 14.0293 10.3896C15.0488 10.3896 15.5586 9.47266 15.5586 7.63867C15.5586 5.93359 14.9932 4.61523 13.8623 3.68359C12.7373 2.75195 11.082 2.28613 8.89648 2.28613C6.73438 2.28613 5.04102 2.81348 3.81641 3.86816C2.59766 4.91699 1.98828 6.40234 1.98828 8.32422C1.98828 10.2402 2.60059 11.7256 3.8252 12.7803C5.0498 13.8291 6.74023 14.3535 8.89648 14.3535C10.6719 14.3535 12.251 14.1602 13.6338 13.7734V15.4521C12.4561 15.8975 10.877 16.1172 8.89648 16.1113C6.13672 16.1113 3.97168 15.417 2.40137 14.0283C0.831055 12.6455 0.0458984 10.7441 0.0458984 8.32422C0.0458984 5.89844 0.831055 3.99414 2.40137 2.61133C3.97168 1.22266 6.13672 0.52832 8.89648 0.52832C11.6328 0.52832 13.751 1.16406 15.251 2.43555C16.751 3.70703 17.501 5.44727 17.501 7.65625C17.501 9.23828 17.167 10.3955 16.499 11.1279C15.8369 11.8604 14.9287 12.2266 13.7744 12.2266C12.4678 12.2266 11.5566 11.8252 11.041 11.0225H10.7158C10.5107 11.333 10.1855 11.5938 9.74023 11.8047C9.30078 12.0156 8.80566 12.1211 8.25488 12.1211C7.1416 12.1211 6.23926 11.7695 5.54785 11.0664C4.85645 10.3633 4.51074 9.44922 4.51074 8.32422C4.51074 7.21094 4.85352 6.2998 5.53906 5.59082C6.22461 4.87598 7.11816 4.51855 8.21973 4.51855ZM8.65039 6.33789C8.0293 6.33789 7.54004 6.51953 7.18262 6.88281C6.8252 7.24023 6.64648 7.7207 6.64648 8.32422C6.64648 8.92188 6.82227 9.40234 7.17383 9.76562C7.53125 10.123 8.02344 10.3018 8.65039 10.3018C9.30078 10.3018 9.80762 10.123 10.1709 9.76562C10.5342 9.40234 10.7158 8.92188 10.7158 8.32422C10.7158 7.7207 10.5342 7.24023 10.1709 6.88281C9.80762 6.51953 9.30078 6.33789 8.65039 6.33789Z" fill="#6369F4"/>
</svg>
