<?xml version="1.0" encoding="UTF-8" standalone="no"?>
<svg
   xmlns:dc="http://purl.org/dc/elements/1.1/"
   xmlns:cc="http://creativecommons.org/ns#"
   xmlns:rdf="http://www.w3.org/1999/02/22-rdf-syntax-ns#"
   xmlns:svg="http://www.w3.org/2000/svg"
   xmlns="http://www.w3.org/2000/svg"
   xmlns:sodipodi="http://sodipodi.sourceforge.net/DTD/sodipodi-0.dtd"
   xmlns:inkscape="http://www.inkscape.org/namespaces/inkscape"
   width="14"
   height="17"
   viewBox="0 0 14 17"
   fill="none"
   version="1.1"
   id="svg4"
   sodipodi:docname="location.svg"
   inkscape:version="1.0.1 (3bc2e813f5, 2020-09-07)">
  <metadata
     id="metadata10">
    <rdf:RDF>
      <cc:Work
         rdf:about="">
        <dc:format>image/svg+xml</dc:format>
        <dc:type
           rdf:resource="http://purl.org/dc/dcmitype/StillImage" />
      </cc:Work>
    </rdf:RDF>
  </metadata>
  <defs
     id="defs8" />
  <sodipodi:namedview
     pagecolor="#ffffff"
     bordercolor="#666666"
     borderopacity="1"
     objecttolerance="10"
     gridtolerance="10"
     guidetolerance="10"
     inkscape:pageopacity="0"
     inkscape:pageshadow="2"
     inkscape:window-width="1920"
     inkscape:window-height="1001"
     id="namedview6"
     showgrid="false"
     inkscape:zoom="48.823529"
     inkscape:cx="7"
     inkscape:cy="8.5"
     inkscape:window-x="-9"
     inkscape:window-y="-9"
     inkscape:window-maximized="1"
     inkscape:current-layer="svg4" />
  <path
     style="color:#000000;font-style:normal;font-variant:normal;font-weight:normal;font-stretch:normal;font-size:medium;line-height:normal;font-family:sans-serif;font-variant-ligatures:normal;font-variant-position:normal;font-variant-caps:normal;font-variant-numeric:normal;font-variant-alternates:normal;font-variant-east-asian:normal;font-feature-settings:normal;font-variation-settings:normal;text-indent:0;text-align:start;text-decoration:none;text-decoration-line:none;text-decoration-style:solid;text-decoration-color:#000000;letter-spacing:normal;word-spacing:normal;text-transform:none;writing-mode:lr-tb;direction:ltr;text-orientation:mixed;dominant-baseline:auto;baseline-shift:baseline;text-anchor:start;white-space:normal;shape-padding:0;shape-margin:0;inline-size:0;clip-rule:nonzero;display:inline;overflow:visible;visibility:visible;isolation:auto;mix-blend-mode:normal;color-interpolation:sRGB;color-interpolation-filters:linearRGB;solid-color:#000000;solid-opacity:1;vector-effect:none;fill:#6369f4;fill-opacity:1;fill-rule:nonzero;stroke:none;stroke-width:2;stroke-linecap:butt;stroke-linejoin:miter;stroke-miterlimit:4;stroke-dasharray:none;stroke-dashoffset:0;stroke-opacity:1;color-rendering:auto;image-rendering:auto;shape-rendering:auto;text-rendering:auto;enable-background:accumulate;stop-color:#000000;stop-opacity:1;opacity:1"
     d="M 7 0 C 3.1311431 0 0 3.0365606 0 6.7285156 C 1.6671155e-16 9.5124897 1.2716065 12.049903 2.8085938 13.945312 C 3.5721068 14.886875 4.3793899 15.641433 5.1289062 16.175781 C 5.503944 16.443179 5.8466412 16.644553 6.1699219 16.787109 C 6.5101751 16.937152 6.6464975 17 7 17 C 7.3535025 17 7.4898249 16.937152 7.8300781 16.787109 C 8.1533588 16.644553 8.496056 16.443179 8.8710938 16.175781 C 9.6206101 15.641433 10.427871 14.886863 11.191406 13.945312 C 12.728358 12.049907 14 9.5124897 14 6.7285156 C 14 3.036567 10.868882 0 7 0 z M 7 2 C 9.8337178 2 12 4.1658442 12 6.7285156 C 12 8.8885415 10.957967 11.056152 9.6367188 12.685547 C 8.9807945 13.494397 8.281628 14.138623 7.7089844 14.546875 C 7.4225822 14.751077 7.1809168 14.887588 7.0234375 14.957031 C 6.8579907 15.029989 6.7187575 15 7 15 C 7.2812425 15 7.1420093 15.029989 6.9765625 14.957031 C 6.8190832 14.887588 6.5774178 14.751077 6.2910156 14.546875 C 5.718372 14.138623 5.0191682 13.494385 4.3632812 12.685547 C 3.0420085 11.056156 2 8.8885415 2 6.7285156 C 2 4.1658506 4.1663169 2 7 2 z "
     id="path14" />
</svg>
