<svg width="17" height="18" viewBox="0 0 17 18" fill="none" xmlns="http://www.w3.org/2000/svg">
<path d="M13.3564 10.6908C12.8254 10.1665 12.1624 10.1665 11.6347 10.6908C11.2322 11.0899 10.8314 11.4891 10.4339 11.895C10.3257 12.0066 10.2343 12.0303 10.1024 11.9558C9.84196 11.8138 9.56459 11.6988 9.31428 11.5432C8.1473 10.8092 7.16974 9.86547 6.3038 8.80337C5.87422 8.27571 5.49198 7.71083 5.22476 7.07493C5.17064 6.94808 5.18248 6.86352 5.28565 6.75698C5.68817 6.36799 6.08055 5.96886 6.47631 5.56973C7.02598 5.015 7.02598 4.36556 6.47293 3.80746C6.15835 3.4895 5.84377 3.17832 5.52919 2.86036C5.20447 2.53565 4.88312 2.20754 4.55671 1.8879C4.02564 1.37038 3.36266 1.37038 2.83498 1.89128C2.42907 2.29041 2.04008 2.69969 1.62741 3.09206C1.24687 3.45399 1.05237 3.8954 1.01178 4.41461C0.947512 5.25685 1.15385 6.05173 1.44475 6.82463C2.03839 8.42792 2.94322 9.85236 4.04256 11.1576C5.5275 12.9232 7.29827 14.3202 9.37348 15.3282C10.3071 15.7814 11.2762 16.1315 12.3265 16.1873C13.0503 16.2296 13.6795 16.0453 14.1835 15.4804C14.5285 15.0948 14.9175 14.743 15.2828 14.3743C15.824 13.8247 15.8274 13.1634 15.2896 12.6222C14.6469 11.9761 14.002 11.3323 13.3548 10.6908H13.3564Z" stroke="#6369F4" stroke-width="2"/>
</svg>
