<svg width="19" height="128" viewBox="0 0 19 128" fill="none" xmlns="http://www.w3.org/2000/svg">
<path fill-rule="evenodd" clip-rule="evenodd" d="M17.94 20.27C18.2288 22.3523 17.6863 24.4645 16.43 26.15C16.6567 26.15 16.8867 26.17 17.12 26.21C17.9 26.27 17.88 26.6 17.94 27.03C18.1102 28.2556 17.9938 29.5039 17.5999 30.6769C17.206 31.8499 16.5454 32.9155 15.67 33.79C14.261 35.2346 12.347 36.0769 10.33 36.14C9.88556 36.149 9.44105 36.1256 9.00001 36.07C8.64143 36.1116 8.28096 36.135 7.92001 36.14C6.86945 36.1426 5.82888 35.9362 4.85888 35.5327C3.88888 35.1293 3.00884 34.5369 2.27001 33.79C0.490008 32 0.210008 29.54 8.23859e-06 27C0.0345306 26.7951 0.13205 26.606 0.279009 26.459C0.425968 26.312 0.615064 26.2145 0.820008 26.18C1.05334 26.18 1.28334 26.16 1.51001 26.12C0.270008 24.48 0.160008 22.39 8.23859e-06 20.27C0.0600082 20.06 0.390008 19.51 0.820008 19.45C1.04001 19.45 1.28001 19.45 1.51001 19.39C0.270008 17.72 0.160008 15.64 8.23859e-06 13.52C0.0345306 13.3151 0.13205 13.126 0.279009 12.979C0.425968 12.832 0.615064 12.7345 0.820008 12.7C1.18463 12.6514 1.55217 12.628 1.92001 12.63C3.0882 12.6277 4.24244 12.8838 5.30001 13.38C5.23986 12.9895 5.20977 12.5951 5.21001 12.2C5.16976 11.0104 5.4411 9.8309 5.99714 8.77846C6.55318 7.72602 7.37461 6.83717 8.38001 6.2C8.72001 5.57 9.20001 5.57 9.54001 6.2C10.5473 6.83595 11.3707 7.72427 11.9285 8.77679C12.4863 9.82932 12.7592 11.0094 12.72 12.2C12.7169 12.5953 12.6835 12.9898 12.62 13.38C13.7388 12.8658 14.9589 12.6095 16.19 12.63C16.4978 12.6345 16.8051 12.6579 17.11 12.7C17.89 12.76 17.87 13.09 17.93 13.52C18.2227 15.5994 17.6797 17.71 16.42 19.39L17.11 19.45C17.91 19.51 17.88 20.06 17.94 20.27ZM9.00001 30.36C9.13089 30.0181 9.32799 29.7055 9.58001 29.44C9.39128 29.3782 9.19706 29.3347 9.00001 29.31C8.77214 29.3253 8.54708 29.369 8.33001 29.44C8.57918 29.727 8.80334 30.0348 9.00001 30.36ZM9.58001 22.61C9.38582 22.6055 9.19211 22.5888 9.00001 22.56C8.75001 22.56 8.54001 22.56 8.33001 22.61C8.56001 22.93 8.77001 23.26 9.00001 23.61C9.15648 23.2524 9.35812 22.9163 9.60001 22.61H9.58001ZM3.58001 32.44C4.14208 33.0081 4.81199 33.4582 5.5504 33.7639C6.28881 34.0696 7.08084 34.2246 7.88001 34.22H8.40001C8.07222 32.5843 7.30866 31.0676 6.19001 29.83C5.61738 29.2509 4.93284 28.7944 4.17811 28.4884C3.42338 28.1824 2.61425 28.0332 1.80001 28.05C1.82001 29.69 2.85001 31.26 3.63001 32.44H3.58001ZM3.58001 25.69C4.14627 26.2553 4.81836 26.7034 5.55789 27.0089C6.29742 27.3143 7.08989 27.471 7.89001 27.47H8.40001C8.07653 25.8328 7.31241 24.315 6.19001 23.08C5.62019 22.5111 4.94322 22.0609 4.19826 21.7554C3.45331 21.4498 2.65517 21.2951 1.85001 21.3C1.97967 22.9111 2.60102 24.4435 3.63001 25.69H3.58001ZM1.85001 14.54C1.97776 16.1516 2.59933 17.6845 3.63001 18.93C4.26398 19.5477 5.02063 20.0253 5.85095 20.3319C6.68127 20.6386 7.56674 20.7674 8.45001 20.71C8.14529 19.0988 7.37727 17.6114 6.24001 16.43C5.68827 15.8165 5.01013 15.3298 4.25227 15.0036C3.49442 14.6773 2.67485 14.5191 1.85001 14.54ZM9.00001 7.84C8.41794 8.40821 7.95539 9.0871 7.63958 9.83673C7.32378 10.5864 7.16108 11.3916 7.16108 12.205C7.16108 13.0184 7.32378 13.8236 7.63958 14.5733C7.95539 15.3229 8.41794 16.0018 9.00001 16.57C9.5856 16.0028 10.0511 15.3237 10.369 14.5729C10.6868 13.8222 10.8504 13.0152 10.85 12.2C10.8536 11.3858 10.6915 10.5793 10.3734 9.82973C10.0554 9.08017 9.58808 8.40318 9.00001 7.84ZM16.23 14.54C15.3897 14.5139 14.5537 14.6692 13.7789 14.9954C13.0041 15.3215 12.3087 15.8109 11.74 16.43C11.1575 16.977 10.6977 17.6413 10.3909 18.3791C10.084 19.1168 9.93719 19.9113 9.96001 20.71H10.34C11.8523 20.6516 13.2843 20.0144 14.34 18.93C14.9149 18.3543 15.3686 17.6692 15.6743 16.9152C15.9801 16.1612 16.1316 15.3535 16.12 14.54H16.23ZM11.74 23.08C11.1609 23.6526 10.7044 24.3372 10.3984 25.0919C10.0924 25.8466 9.94323 26.6558 9.96001 27.47C10.7799 27.5267 11.6018 27.3949 12.3628 27.0846C13.1238 26.7743 13.8036 26.2938 14.35 25.68C14.9197 25.104 15.368 24.4196 15.6686 23.6672C15.9692 22.9149 16.1159 22.11 16.1 21.3C15.2865 21.289 14.4791 21.4408 13.7252 21.7465C12.9712 22.0521 12.2861 22.5056 11.71 23.08H11.74ZM11.74 29.83C11.1637 30.4047 10.7091 31.0896 10.4033 31.8439C10.0975 32.5981 9.9467 33.4062 9.96001 34.22H10.35C11.8623 34.1616 13.2943 33.5244 14.35 32.44C14.9245 31.8639 15.3779 31.1788 15.6836 30.4248C15.9892 29.6709 16.141 28.8635 16.13 28.05C15.3101 28.0243 14.4939 28.1692 13.733 28.4757C12.9721 28.7821 12.2832 29.2433 11.71 29.83H11.74ZM17 11C16.47 11 16.34 10.57 16.34 10V7.78C16.34 7.25 16.47 7.23 17 7.23C17.53 7.23 18 7.23 18 7.78V10C18.0161 10.1352 18.0013 10.2723 17.9567 10.4009C17.9121 10.5296 17.839 10.6464 17.7427 10.7427C17.6464 10.839 17.5296 10.9121 17.4009 10.9567C17.2723 11.0013 17.1352 11.0161 17 11ZM9.00001 3.91C8.47001 3.91 8.47001 3.48 8.47001 2.91V0.7C8.47001 0.17 8.47001 0 9.00001 0C9.77001 0 10 0.17 10 0.7V3C9.93001 3.48 9.74001 3.91 9.00001 3.91ZM1.09001 11C0.951322 11.0125 0.811546 10.996 0.679634 10.9514C0.547721 10.9067 0.42658 10.8351 0.323969 10.7409C0.221358 10.6468 0.13954 10.5323 0.0837533 10.4047C0.027967 10.2771 -0.000556982 10.1393 8.23859e-06 10V7.78C8.23859e-06 7.25 0.430008 7.23 1.09001 7.23C1.75001 7.23 1.91001 7.23 1.91001 7.78V10C1.91001 10.56 1.86001 11 1.09001 11ZM8.16001 115.44V39.29C8.15993 39.1811 8.18184 39.0732 8.22441 38.9729C8.26698 38.8727 8.32934 38.782 8.40776 38.7064C8.48618 38.6307 8.57905 38.5717 8.68081 38.5328C8.78258 38.4939 8.89114 38.476 9.00001 38.48C9.21576 38.48 9.42283 38.565 9.57633 38.7166C9.72983 38.8682 9.81738 39.0743 9.82001 39.29V115.44C9.82001 115.548 9.7988 115.654 9.75759 115.754C9.71638 115.853 9.65598 115.944 9.57984 116.02C9.50369 116.096 9.4133 116.156 9.31381 116.198C9.21432 116.239 9.10769 116.26 9.00001 116.26C8.89065 116.263 8.78187 116.243 8.68006 116.203C8.57826 116.163 8.48548 116.103 8.40721 116.027C8.32893 115.951 8.26674 115.859 8.22428 115.758C8.18183 115.658 8.15998 115.549 8.16001 115.44ZM4.07001 116.35C4.1453 116.274 4.23488 116.214 4.33357 116.173C4.43225 116.132 4.5381 116.111 4.64501 116.111C4.75191 116.111 4.85776 116.132 4.95645 116.173C5.05514 116.214 5.14471 116.274 5.22001 116.35L9.00001 120.1L12.75 116.35C12.9066 116.218 13.1069 116.149 13.3115 116.158C13.5162 116.166 13.7103 116.251 13.8557 116.395C14.0011 116.539 14.0874 116.732 14.0974 116.937C14.1075 117.141 14.0406 117.342 13.91 117.5L9.58001 121.83C9.50471 121.906 9.41514 121.966 9.31645 122.007C9.21776 122.048 9.11191 122.069 9.00501 122.069C8.8981 122.069 8.79225 122.048 8.69357 122.007C8.59488 121.966 8.50531 121.906 8.43001 121.83L4.07001 117.5C3.99412 117.425 3.93388 117.335 3.89278 117.236C3.85168 117.138 3.83051 117.032 3.83051 116.925C3.83051 116.818 3.85168 116.712 3.89278 116.614C3.93388 116.515 3.99412 116.425 4.07001 116.35ZM4.07001 121.49C4.1453 121.414 4.23488 121.354 4.33357 121.313C4.43225 121.272 4.5381 121.251 4.64501 121.251C4.75191 121.251 4.85776 121.272 4.95645 121.313C5.05514 121.354 5.14471 121.414 5.22001 121.49L8.97001 125.49L12.72 121.49C12.7926 121.402 12.8827 121.331 12.9845 121.28C13.0863 121.229 13.1977 121.2 13.3114 121.194C13.4251 121.188 13.5388 121.206 13.6451 121.247C13.7514 121.288 13.8481 121.35 13.9289 121.431C14.0098 121.511 14.0731 121.607 14.1147 121.713C14.1564 121.819 14.1756 121.932 14.171 122.046C14.1664 122.16 14.1381 122.271 14.088 122.374C14.0379 122.476 13.9671 122.567 13.88 122.64L9.55001 127C9.47383 127.076 9.3834 127.137 9.28388 127.178C9.18436 127.219 9.07771 127.24 8.97001 127.24C8.86383 127.24 8.75874 127.219 8.66088 127.177C8.56302 127.136 8.47434 127.076 8.40001 127L4.07001 122.67C3.98949 122.594 3.92533 122.503 3.88147 122.401C3.83761 122.3 3.81499 122.191 3.81499 122.08C3.81499 121.969 3.83761 121.86 3.88147 121.759C3.92533 121.657 3.98949 121.566 4.07001 121.49Z" fill="#C6C8F7"/>
</svg>
