<svg width="86" height="121" viewBox="0 0 86 121" fill="none" xmlns="http://www.w3.org/2000/svg">
<path d="M0 0.0285645V120.092H85.9343V0.0285645H0ZM2.42307 118.444C2.42874 118.42 2.42874 118.395 2.42307 118.371C5.95662 112.852 11.3998 108.828 17.7127 107.068C18.1125 107.637 18.5365 108.182 18.9242 108.716C14.2896 110.168 10.2456 113.074 7.39037 117.002C7.23788 117.224 7.17786 117.496 7.22313 117.76C7.2684 118.025 7.41537 118.262 7.63268 118.42L2.42307 118.444ZM13.4117 106.523V98.6961C14.1923 101.028 15.2584 103.254 16.5859 105.323C15.4961 105.657 14.4279 106.057 13.3875 106.523H13.4117ZM14.2113 118.323C14.2702 118.372 14.3354 118.413 14.4052 118.444H8.7473C8.87065 118.38 8.97821 118.289 9.0623 118.178C11.8968 114.337 15.9713 111.593 20.5961 110.412C21.1171 110.945 21.6502 111.466 22.2196 111.962C19.12 112.816 16.3209 114.52 14.1386 116.881C14.0469 116.979 13.9753 117.094 13.9281 117.219C13.8808 117.345 13.8588 117.478 13.8633 117.612C13.8678 117.746 13.8987 117.878 13.9543 118C14.0099 118.122 14.089 118.232 14.1871 118.323H14.2113ZM63.957 56.5346L61.9216 58.0491L55.864 51.9914L57.3905 49.9681L63.957 56.5346ZM58.7232 48.2356L60.2497 46.2123L67.7491 53.7118L65.7138 55.2262L58.7232 48.2356ZM57.3178 89.9731L56.7847 89.2461L55.8034 87.9377L56.3849 87.3561L61.8611 81.88L63.8843 83.4065L57.3178 89.9731ZM65.629 84.7392L67.6401 86.2658L63.1574 90.7484L60.1407 93.7652L58.6384 91.7298L65.629 84.7392ZM43.4578 91.4148C41.8308 91.418 40.2716 92.0666 39.1223 93.2182C37.9729 94.3698 37.3274 95.9303 37.3274 97.5573V104.754C34.4404 103.988 31.4699 103.581 28.4832 103.542C28.4901 103.482 28.4901 103.421 28.4832 103.361L30.2884 93.8379L31.1486 92.7111C31.2269 92.6669 31.3001 92.6141 31.3667 92.5536C31.5004 92.426 31.5932 92.2616 31.6332 92.0811L42.2463 78.1242C42.4031 77.9135 42.4795 77.6536 42.4617 77.3915C42.444 77.1294 42.3332 76.8823 42.1494 76.6946L37.3759 71.9212C37.1902 71.7383 36.9452 71.6279 36.6851 71.6101C36.4251 71.5923 36.1673 71.6683 35.9584 71.8242L34.1169 73.1933L35.1346 67.8746L35.7403 68.335C35.9492 68.4909 36.207 68.5669 36.467 68.5491C36.7271 68.5313 36.9721 68.421 37.1578 68.2381L41.9434 63.3919H45.6992L50.1213 67.8746L50.8845 71.5092C50.7382 71.5527 50.605 71.6318 50.4969 71.7394L45.7234 76.5129C45.5405 76.6986 45.4302 76.9436 45.4124 77.2037C45.3946 77.4637 45.4705 77.7215 45.6265 77.9304L54.7857 90.2396L58.2749 107.044C55.2814 107.428 52.3595 108.244 49.6003 109.467V97.5573C49.6003 95.9282 48.9532 94.3658 47.8012 93.2139C46.6493 92.0619 45.0869 91.4148 43.4578 91.4148ZM47.6619 97.5573V109.551C45.0934 107.721 42.2571 106.299 39.2538 105.335V97.5573C39.2538 96.4423 39.6967 95.373 40.4851 94.5846C41.2735 93.7962 42.3428 93.3532 43.4578 93.3532C44.5728 93.3532 45.6421 93.7962 46.4305 94.5846C47.2189 95.373 47.6619 96.4423 47.6619 97.5573ZM39.0115 78.7785L35.2678 75.0348L36.4794 74.0898L39.9807 77.5669L39.0115 78.7785ZM35.0498 65.0517L35.8009 64.3006L36.6732 63.4283L38.7692 61.3081L39.7142 62.5196L38.854 63.3798L36.3461 66.0089L35.5828 65.4516L35.0498 65.0517ZM54.5192 86.1809L53.7438 85.1269L53.0047 84.1456L53.4409 83.7094L55.2703 81.88L58.1538 79.0208L60.177 80.5473L54.5192 86.1809ZM54.7494 79.3358L52.8957 81.2015L51.6842 82.4131L50.1697 80.3777L54.3495 76.1979L56.3728 77.7244L54.7494 79.3358ZM51.7811 75.7011L48.8855 78.5967L47.9405 77.3852L51.357 73.9323L52.5686 74.8652L51.7811 75.7011ZM51.3086 66.0089L49.3096 63.9614L48.7765 63.4283L47.8436 62.4954L48.7886 61.2839L51.5145 63.9977L52.5322 65.0154L51.8295 65.5485L51.3086 66.0089ZM50.097 59.5756L51.6236 57.5644L56.3365 62.1804L54.3011 63.6827L50.097 59.5756ZM52.9805 55.7593L54.5192 53.7239L60.1407 59.3939L58.1538 60.8719L52.9805 55.7593ZM57.548 46.1639L56.6515 47.3754C56.5756 47.4127 56.506 47.4618 56.4455 47.5208C56.3094 47.6465 56.2161 47.8118 56.179 47.9933L46.0384 61.2596H41.4709L28.4953 43.8256L28.3863 43.7045V31.262C28.3863 29.3472 28.7635 27.4512 29.4962 25.6821C30.229 23.9131 31.303 22.3057 32.6569 20.9518C34.0109 19.5978 35.6183 18.5238 37.3873 17.791C39.1563 17.0583 41.0524 16.6811 42.9672 16.6811C44.8819 16.6811 46.778 17.0583 48.547 17.791C50.316 18.5238 51.9234 19.5978 53.2774 20.9518C54.6313 22.3057 55.7053 23.9131 56.4381 25.6821C57.1709 27.4512 57.548 29.3472 57.548 31.262V46.1639ZM29.0769 48.1629L22.0257 55.1535L20.0146 53.627L26.9809 46.6606L27.514 46.1275L27.9017 46.6606L29.0769 48.1629ZM30.2884 49.9196L31.7907 51.955L25.733 58.0127L23.7704 56.4862L30.2884 49.9196ZM33.1113 53.7118L34.6621 55.7593L29.5494 60.8841L27.5261 59.3939L33.1113 53.7118ZM35.9221 57.516L37.4365 59.5514L34.9771 62.0592L33.7655 63.2708L33.2809 63.7554L31.2577 62.2167L35.9221 57.516ZM33.5111 76.3554L37.6909 80.5352L36.1644 82.5584L31.5 77.8819L33.5111 76.3554ZM32.5055 81.9648L34.8317 84.2909L33.3051 86.3142L31.9482 84.9573L30.0946 83.1036L27.6715 80.6806L29.7069 79.1661L30.6519 80.1111L32.5055 81.9648ZM29.61 85.6842L31.5 87.5621L31.9967 88.0588L31.2092 89.1007L30.4702 90.0821L29.0769 88.6888L23.9036 83.5156L25.939 82.0011L29.61 85.6842ZM28.568 91.2694L29.1132 91.8146L28.2652 92.9292L27.5867 93.8257L20.0873 86.3263L22.1227 84.8361L28.568 91.2694ZM46.3292 111.114C45.4933 111.603 44.6844 112.137 43.9061 112.714C43.8398 112.567 43.7402 112.439 43.6153 112.338C37.7487 108.179 30.4765 106.507 23.3827 107.686C22.5059 107.819 21.6365 107.997 20.7779 108.219C20.3175 107.698 19.8692 107.165 19.4452 106.607C19.9298 106.486 20.4144 106.377 20.9111 106.28C29.9977 104.451 39.484 106.256 46.3292 111.114ZM20.7294 118.384H15.3502C15.4576 118.337 15.553 118.267 15.6288 118.178C17.8944 115.767 20.8617 114.131 24.1096 113.501C24.8164 114.085 25.5567 114.627 26.3267 115.125C24.3935 115.291 22.5361 115.954 20.9354 117.051C20.7254 117.21 20.5862 117.445 20.5477 117.705C20.5092 117.966 20.5744 118.231 20.7294 118.444V118.384ZM22.5588 118.384C24.1306 117.479 25.9124 117.003 27.726 117.003C29.5396 117.003 31.3214 117.479 32.8932 118.384H22.5588ZM34.4682 116.942C33.1141 116.007 31.5643 115.394 29.9371 115.149C28.7932 114.583 27.6918 113.935 26.6417 113.21C27.0657 113.21 27.5019 113.21 27.938 113.21C30.0559 113.15 32.1645 113.514 34.1393 114.282C36.114 115.05 37.9149 116.205 39.4355 117.681C39.4116 117.805 39.4116 117.932 39.4355 118.056C37.7506 117.86 36.0877 117.507 34.4682 117.002V116.942ZM40.5259 115.876C37.0872 112.701 32.5436 110.997 27.8653 111.126C26.6457 111.144 25.4297 111.265 24.2307 111.49C23.6398 111.01 23.0737 110.501 22.5346 109.963C22.9465 109.879 23.3584 109.782 23.7461 109.709C30.2843 108.619 36.9885 110.151 42.4038 113.974C41.7285 114.59 41.0856 115.241 40.4774 115.924L40.5259 115.876ZM45.9657 118.032C44.98 118.14 43.989 118.192 42.9974 118.19C42.428 118.19 41.8707 118.19 41.3134 118.19C45.9415 112.29 53.9134 108.776 62.6728 108.776C63.327 108.776 63.9692 108.776 64.6113 108.776C64.0845 109.359 63.5264 109.913 62.9393 110.436H62.6365C59.5947 110.354 56.567 110.877 53.7285 111.973C50.8899 113.068 48.2967 114.716 46.099 116.821C45.9328 116.984 45.8268 117.198 45.7982 117.429C45.7696 117.66 45.8201 117.894 45.9415 118.093L45.9657 118.032ZM60.2376 112.701C56.6394 115.3 52.4959 117.045 48.1222 117.802C51.4952 114.824 55.7504 113.033 60.2376 112.701ZM52.399 118.468L52.7624 118.347L52.399 118.468ZM54.5919 118.468C57.0533 117.11 59.8189 116.397 62.6304 116.397C65.4419 116.397 68.2075 117.11 70.6689 118.468H54.5919ZM72.4136 118.468C72.4883 118.356 72.54 118.231 72.5658 118.099C72.5917 117.967 72.591 117.831 72.564 117.699C72.537 117.567 72.484 117.442 72.4083 117.331C72.3326 117.22 72.2355 117.124 72.1228 117.051C68.6789 114.902 64.6116 113.976 60.5768 114.422C61.4155 113.85 62.2243 113.235 62.9999 112.58C68.4455 112.518 73.7005 114.583 77.6474 118.335C77.7 118.386 77.7616 118.427 77.8291 118.456L72.4136 118.468ZM78.9922 118.468C79.0479 118.442 79.1007 118.409 79.1497 118.371C79.3421 118.178 79.4501 117.917 79.4501 117.645C79.4501 117.372 79.3421 117.111 79.1497 116.918C75.3617 113.25 70.4035 111.032 65.1443 110.654C65.6411 110.145 66.1378 109.624 66.5982 109.079C69.98 109.403 73.2648 110.39 76.2646 111.985C79.2645 113.579 81.9205 115.749 84.0807 118.371C84.1065 118.41 84.1394 118.443 84.1776 118.468H78.9922ZM72.8376 108.34C71.2977 107.81 69.7176 107.405 68.1126 107.128C70.1969 104.315 71.7904 101.169 72.8255 97.8238V108.073C72.8197 108.162 72.8238 108.252 72.8376 108.34ZM84.2987 115.427C81.5013 112.5 78.0753 110.246 74.2793 108.837C74.3446 108.608 74.3772 108.372 74.3763 108.134V72.1513C74.3813 71.8502 74.332 71.5506 74.2309 71.2669C74.0855 70.8913 73.8674 70.649 73.613 70.649C73.3586 70.649 72.8376 71.3396 72.8376 72.1877V75.4952L72.5953 75.3983V88.7252C72.6045 95.365 70.367 101.813 66.2468 107.019C65.0399 106.886 63.8264 106.822 62.6122 106.826C61.8732 106.826 61.1463 106.826 60.4193 106.91L57.8388 94.3104L59.1472 96.0671C59.2399 96.1917 59.3581 96.295 59.4939 96.3702C59.6297 96.4454 59.78 96.4908 59.9347 96.5032H60.0195C60.303 96.5019 60.5755 96.3937 60.7828 96.2003L70.1722 87.029C70.2824 86.9184 70.3675 86.7855 70.4218 86.6392C70.4762 86.4929 70.4985 86.3366 70.4872 86.1809C70.4804 86.0245 70.4387 85.8716 70.3654 85.7333C70.292 85.595 70.1888 85.4748 70.0632 85.3813L66.5013 82.6796C66.464 82.6037 66.4149 82.5342 66.3559 82.4736C66.2302 82.3375 66.0649 82.2443 65.8834 82.2071L53.3076 72.7208L52.3142 67.8746L70.0268 54.7052C70.1514 54.6126 70.2548 54.4944 70.33 54.3586C70.4052 54.2228 70.4505 54.0725 70.463 53.9177C70.4759 53.7619 70.4543 53.6052 70.3999 53.4586C70.3455 53.3121 70.2595 53.1793 70.148 53.0696L60.9888 43.6439C60.8778 43.5341 60.7448 43.4491 60.5986 43.3945C60.4523 43.3399 60.2961 43.317 60.1404 43.3273C59.9846 43.3377 59.8328 43.3809 59.695 43.4543C59.5572 43.5277 59.4366 43.6294 59.3411 43.7529L59.1957 43.9468V31.0681C59.0802 26.8408 57.3197 22.8254 54.2889 19.8763C51.258 16.9271 47.196 15.277 42.9672 15.277C38.7383 15.277 34.6763 16.9271 31.6454 19.8763C28.6146 22.8254 26.8541 26.8408 26.7386 31.0681V43.8256L26.3025 44.2618L17.4825 52.8637C17.2675 53.0932 17.1502 53.3973 17.1554 53.7118C17.1677 53.8682 17.2129 54.0204 17.288 54.1581C17.3632 54.2959 17.4666 54.4163 17.5915 54.5114L21.1292 57.201C21.178 57.2794 21.2349 57.3524 21.2988 57.4191C21.4264 57.5527 21.5909 57.6455 21.7713 57.6856L33.2082 66.3844L31.5848 75.1438L17.7854 85.345C17.6608 85.4376 17.5574 85.5558 17.4822 85.6916C17.407 85.8274 17.3617 85.9777 17.3492 86.1325C17.3372 86.2872 17.3579 86.4427 17.4101 86.5889C17.4623 86.735 17.5448 86.8685 17.6521 86.9806L26.8234 96.37C27.0208 96.5666 27.2841 96.6832 27.5625 96.6971L26.3509 102.973C26.3152 103.176 26.3361 103.386 26.4115 103.579C24.4128 103.651 22.4234 103.886 20.4629 104.281C19.6754 104.439 18.9 104.621 18.1488 104.839C15.2496 100.47 13.576 95.403 13.3027 90.1669V72.115C13.3158 71.9699 13.3158 71.8239 13.3027 71.6788C13.2806 71.5303 13.2441 71.3842 13.1936 71.2427C13.0604 70.8671 12.8181 70.6127 12.5636 70.6127C12.3092 70.6127 11.7883 71.279 11.7883 72.115L11.7156 72.9873C11.7156 72.8298 11.7156 73.8112 11.7156 73.6173V88.6404C11.7156 89.5611 11.7156 90.4577 11.8367 91.3542V107.262C7.77134 109.265 4.26633 112.246 1.63557 115.936V1.67625H32.9659C26.7751 3.77414 21.3966 7.75792 17.5854 13.0684C13.7742 18.379 11.7215 24.7496 11.7156 31.2862V64.9427C11.9564 64.8555 12.2105 64.8104 12.4667 64.8094C12.7711 64.8066 13.0726 64.8685 13.3511 64.9912V31.2862C13.5079 23.5353 16.697 16.1547 22.2341 10.7285C27.7711 5.3024 35.2146 2.26318 42.9672 2.26318C50.7197 2.26318 58.1632 5.3024 63.7003 10.7285C69.2373 16.1547 72.4264 23.5353 72.5832 31.2862V64.9912C72.8574 64.8684 73.155 64.8064 73.4555 64.8094C73.7156 64.8104 73.9737 64.8555 74.2188 64.9427V31.2862C74.2137 24.7477 72.16 18.3751 68.3462 13.0641C64.5325 7.75301 59.1503 3.7705 52.9563 1.67625H84.2987V115.427Z" fill="#C6C8F7"/>
<path d="M41.7133 35.8658H38.7693V35.7204L39.8718 34.8965C40.3603 34.5621 40.7937 34.1533 41.156 33.685C41.4224 33.2882 41.558 32.8179 41.5437 32.3402C41.5437 30.8863 40.635 30.1594 38.8056 30.1594C37.9931 30.161 37.1823 30.2339 36.3825 30.3775V31.7223C37.1458 31.7223 37.8606 31.6617 38.5027 31.6617C38.8534 31.6309 39.2057 31.698 39.5204 31.8556C39.6233 31.9203 39.7062 32.0123 39.7597 32.1215C39.8132 32.2306 39.8352 32.3525 39.8233 32.4735C39.8124 32.8047 39.6785 33.12 39.4477 33.3579C39.1022 33.6913 38.7293 33.9952 38.3331 34.2665L36.1523 35.89V37.3317H41.7133V35.8658Z" fill="#C6C8F7"/>
<path d="M47.0805 30.196C46.6285 30.1741 46.1772 30.2516 45.7585 30.4233C45.3398 30.595 44.9639 30.8565 44.6575 31.1895C44.048 31.9305 43.7369 32.8723 43.7852 33.8306C43.7399 34.7848 44.0508 35.7218 44.6575 36.4597C45.3034 37.096 46.1738 37.4527 47.0805 37.4527C47.9873 37.4527 48.8576 37.096 49.5036 36.4597C50.1018 35.7178 50.4078 34.7826 50.3638 33.8306C50.4097 32.8747 50.1037 31.9351 49.5036 31.1895C49.1971 30.8565 48.8212 30.595 48.4025 30.4233C47.9838 30.2516 47.5325 30.1741 47.0805 30.196ZM48.183 35.3693C48.0516 35.5379 47.8835 35.6744 47.6914 35.7682C47.4993 35.8621 47.2883 35.9108 47.0745 35.9108C46.8607 35.9108 46.6497 35.8621 46.4576 35.7682C46.2655 35.6744 46.0973 35.5379 45.9659 35.3693C45.6959 34.8992 45.5539 34.3666 45.5539 33.8246C45.5539 33.2825 45.6959 32.7499 45.9659 32.2799C46.0921 32.1039 46.26 31.9619 46.4545 31.8668C46.649 31.7716 46.8641 31.7262 47.0805 31.7347C47.2964 31.7294 47.5105 31.7761 47.7045 31.871C47.8985 31.9659 48.0668 32.1062 48.1951 32.2799C48.4887 32.7417 48.6287 33.2845 48.595 33.8306C48.6294 34.3747 48.4847 34.9152 48.183 35.3693Z" fill="#C6C8F7"/>
<path d="M39.497 38.6039C39.0447 38.5793 38.5926 38.6558 38.1735 38.8276C37.7544 38.9994 37.3788 39.2623 37.0739 39.5973C36.4685 40.3353 36.1616 41.2733 36.2137 42.2264C36.1674 43.1787 36.4737 44.1146 37.0739 44.8554C37.7199 45.4917 38.5902 45.8484 39.497 45.8484C40.4037 45.8484 41.2741 45.4917 41.92 44.8554C42.5275 44.1132 42.8383 43.1722 42.7924 42.2142C42.8399 41.2597 42.5288 40.322 41.92 39.5852C41.6151 39.2511 41.2391 38.9895 40.8198 38.8196C40.4005 38.6498 39.9485 38.5761 39.497 38.6039ZM40.6116 43.7771C40.4847 43.9523 40.3167 44.0937 40.1223 44.1888C39.9279 44.2838 39.7132 44.3297 39.497 44.3223C39.2806 44.3308 39.0655 44.2854 38.8709 44.1902C38.6764 44.0951 38.5085 43.9531 38.3824 43.7771C38.0888 43.3153 37.9488 42.7725 37.9826 42.2264C37.9489 41.684 38.0889 41.1451 38.3824 40.6877C38.5056 40.5078 38.6725 40.3623 38.8675 40.2648C39.0625 40.1673 39.2792 40.121 39.497 40.1304C39.7144 40.1233 39.9303 40.1705 40.1249 40.2678C40.3195 40.3651 40.4868 40.5095 40.6116 40.6877C40.9184 41.1395 41.0635 41.6817 41.0235 42.2264C41.0536 42.7738 40.9094 43.3168 40.6116 43.7771Z" fill="#C6C8F7"/>
<path d="M44.5615 40.2274H48.0265V40.3849L45.3127 45.7399H47.2269L49.9892 40.2274V38.7251H44.5615V40.2274Z" fill="#C6C8F7"/>
<path d="M47.5173 70.0916C47.5173 69.3728 47.3041 68.6701 46.9047 68.0724C46.5054 67.4747 45.9377 67.0088 45.2736 66.7337C44.6094 66.4586 43.8786 66.3866 43.1736 66.5269C42.4685 66.6671 41.8209 67.0133 41.3126 67.5216C40.8043 68.0299 40.4581 68.6775 40.3179 69.3826C40.1776 70.0876 40.2496 70.8184 40.5247 71.4825C40.7998 72.1467 41.2657 72.7143 41.8634 73.1137C42.4611 73.5131 43.1638 73.7263 43.8827 73.7263C44.8466 73.7263 45.7711 73.3433 46.4527 72.6617C47.1343 71.9801 47.5173 71.0556 47.5173 70.0916ZM43.8827 71.5213C43.5999 71.5213 43.3235 71.4374 43.0884 71.2803C42.8533 71.1232 42.6701 70.9 42.5619 70.6387C42.4537 70.3775 42.4254 70.0901 42.4805 69.8127C42.5357 69.5354 42.6718 69.2807 42.8718 69.0808C43.0717 68.8808 43.3264 68.7447 43.6038 68.6895C43.8811 68.6343 44.1685 68.6626 44.4297 68.7709C44.691 68.8791 44.9142 69.0623 45.0713 69.2974C45.2284 69.5325 45.3123 69.8089 45.3123 70.0916C45.3092 70.4625 45.1622 70.8176 44.9023 71.0821C44.6423 71.3466 44.2897 71.4997 43.919 71.5091L43.8827 71.5213Z" fill="#C6C8F7"/>
<path d="M75.4549 82.8856C75.5568 82.8869 75.6578 82.8671 75.7516 82.8275C75.8454 82.7878 75.93 82.7293 76.0001 82.6554L77.2117 81.4439C77.2963 81.3755 77.3656 81.2902 77.4151 81.1933C77.4646 81.0965 77.4931 80.9903 77.4989 80.8817C77.5046 80.7731 77.4875 80.6645 77.4486 80.563C77.4096 80.4614 77.3498 80.3692 77.2729 80.2923C77.196 80.2154 77.1037 80.1555 77.0022 80.1166C76.9007 80.0777 76.792 80.0605 76.6834 80.0663C76.5748 80.072 76.4687 80.1006 76.3718 80.1501C76.275 80.1996 76.1896 80.2689 76.1213 80.3535L74.9098 81.565C74.8372 81.6361 74.7796 81.7209 74.7403 81.8145C74.7009 81.9081 74.6807 82.0087 74.6807 82.1102C74.6807 82.2118 74.7009 82.3123 74.7403 82.4059C74.7796 82.4995 74.8372 82.5843 74.9098 82.6554C74.9799 82.7293 75.0645 82.7878 75.1583 82.8275C75.2521 82.8671 75.3531 82.8869 75.4549 82.8856Z" fill="#C6C8F7"/>
<path d="M75.455 79.9899C75.6583 79.9915 75.854 79.9132 76.0002 79.7719L77.2117 78.5603C77.2963 78.492 77.3656 78.4066 77.4151 78.3098C77.4646 78.213 77.4931 78.1068 77.4989 77.9982C77.5047 77.8896 77.4875 77.781 77.4486 77.6794C77.4096 77.5779 77.3498 77.4856 77.2729 77.4087C77.196 77.3318 77.1038 77.272 77.0022 77.233C76.9007 77.1941 76.7921 77.177 76.6835 77.1827C76.5749 77.1885 76.4687 77.2171 76.3718 77.2665C76.275 77.316 76.1896 77.3853 76.1213 77.4699L74.9098 78.6815C74.8066 78.7904 74.7372 78.927 74.71 79.0746C74.6829 79.2222 74.6992 79.3745 74.7569 79.513C74.8146 79.6515 74.9113 79.7703 75.0352 79.855C75.1591 79.9396 75.3049 79.9865 75.455 79.9899Z" fill="#C6C8F7"/>
<path d="M75.4549 77.1307C75.5568 77.132 75.6578 77.1122 75.7516 77.0726C75.8454 77.033 75.93 76.9744 76.0001 76.9005L77.2117 75.689C77.2963 75.6207 77.3656 75.5353 77.4151 75.4385C77.4646 75.3416 77.4931 75.2354 77.4989 75.1268C77.5046 75.0182 77.4875 74.9096 77.4486 74.8081C77.4096 74.7065 77.3498 74.6143 77.2729 74.5374C77.196 74.4605 77.1037 74.4006 77.0022 74.3617C76.9007 74.3228 76.792 74.3056 76.6834 74.3114C76.5748 74.3172 76.4687 74.3457 76.3718 74.3952C76.275 74.4447 76.1896 74.514 76.1213 74.5986L74.9098 75.8101C74.8372 75.8812 74.7796 75.966 74.7403 76.0596C74.7009 76.1533 74.6807 76.2538 74.6807 76.3553C74.6807 76.4569 74.7009 76.5574 74.7403 76.651C74.7796 76.7446 74.8372 76.8295 74.9098 76.9005C74.9799 76.9744 75.0645 77.033 75.1583 77.0726C75.2521 77.1122 75.3531 77.132 75.4549 77.1307Z" fill="#C6C8F7"/>
<path d="M75.4548 74.2593C75.6426 74.2445 75.8188 74.1628 75.9515 74.0291L77.1631 72.8176C77.3074 72.6704 77.3882 72.4725 77.3882 72.2663C77.3882 72.0602 77.3074 71.8623 77.1631 71.7151C77.0164 71.5744 76.8211 71.4958 76.6179 71.4958C76.4147 71.4958 76.2193 71.5744 76.0727 71.7151L75.9273 71.8605L74.8248 72.9751C74.7523 73.0462 74.6946 73.131 74.6553 73.2246C74.616 73.3182 74.5957 73.4187 74.5957 73.5203C74.5957 73.6218 74.616 73.7223 74.6553 73.816C74.6946 73.9096 74.7523 73.9944 74.8248 74.0655C74.9096 74.1414 75.0098 74.198 75.1185 74.2315C75.2273 74.2649 75.342 74.2744 75.4548 74.2593Z" fill="#C6C8F7"/>
<path d="M75.6132 71.3761C75.7556 71.3772 75.8951 71.3349 76.013 71.2549C76.0669 71.2266 76.116 71.1898 76.1583 71.1459L77.3699 69.9343C77.4901 69.7854 77.551 69.5973 77.5409 69.4061C77.5307 69.215 77.4502 69.0343 77.3149 68.899C77.1795 68.7636 76.9989 68.6831 76.8077 68.673C76.6166 68.6628 76.4284 68.7237 76.2795 68.844L75.068 70.0555C74.9954 70.1266 74.9378 70.2114 74.8985 70.305C74.8591 70.3986 74.8389 70.4991 74.8389 70.6007C74.8389 70.7022 74.8591 70.8028 74.8985 70.8964C74.9378 70.99 74.9954 71.0748 75.068 71.1459C75.1381 71.2197 75.2227 71.2783 75.3165 71.3179C75.4103 71.3575 75.5113 71.3773 75.6132 71.3761Z" fill="#C6C8F7"/>
<path d="M73.4544 66.5906C73.2488 66.5906 73.0516 66.6723 72.9062 66.8177C72.7607 66.9631 72.679 67.1603 72.679 67.366V69.0864C72.6733 69.2822 72.7418 69.4729 72.871 69.6203C73.0001 69.7676 73.1802 69.8606 73.3751 69.8806C73.57 69.9005 73.7653 69.846 73.9216 69.7278C74.0779 69.6097 74.1837 69.4368 74.2177 69.2439C74.2237 69.1915 74.2237 69.1387 74.2177 69.0864V67.366C74.2237 67.3136 74.2237 67.2608 74.2177 67.2085C74.1813 67.0332 74.0855 66.8759 73.9463 66.7633C73.8072 66.6507 73.6334 66.5897 73.4544 66.5906Z" fill="#C6C8F7"/>
<path d="M70.7302 80.3171C70.5813 80.1969 70.3932 80.136 70.202 80.1461C70.0109 80.1563 69.8302 80.2368 69.6949 80.3721C69.5595 80.5075 69.479 80.6881 69.4689 80.8793C69.4587 81.0704 69.5196 81.2586 69.6399 81.4075L70.8514 82.619C70.9225 82.6916 71.0073 82.7492 71.1009 82.7885C71.1945 82.8279 71.295 82.8481 71.3966 82.8481C71.4981 82.8481 71.5987 82.8279 71.6923 82.7885C71.7859 82.7492 71.8707 82.6916 71.9418 82.619C72.0143 82.548 72.0719 82.4631 72.1113 82.3695C72.1506 82.2759 72.1709 82.1754 72.1709 82.0738C72.1709 81.9723 72.1506 81.8718 72.1113 81.7782C72.0719 81.6845 72.0143 81.5997 71.9418 81.5286L70.7302 80.3171Z" fill="#C6C8F7"/>
<path d="M70.7302 77.4336C70.5813 77.3133 70.3932 77.2524 70.202 77.2626C70.0109 77.2727 69.8302 77.3532 69.6949 77.4886C69.5595 77.6239 69.479 77.8046 69.4689 77.9957C69.4587 78.1869 69.5196 78.375 69.6399 78.5239L70.8514 79.7355C70.9982 79.8768 71.1949 79.9547 71.3987 79.9522C71.6025 79.9497 71.7971 79.867 71.9404 79.7221C72.0838 79.5772 72.1643 79.3816 72.1645 79.1778C72.1648 78.974 72.0848 78.7783 71.9418 78.633L70.7302 77.4336Z" fill="#C6C8F7"/>
<path d="M70.7293 74.5622C70.6609 74.4776 70.5756 74.4083 70.4787 74.3588C70.3819 74.3093 70.2757 74.2808 70.1671 74.275C70.0585 74.2692 69.9499 74.2864 69.8484 74.3253C69.7468 74.3643 69.6546 74.4241 69.5777 74.501C69.5008 74.5779 69.4409 74.6702 69.402 74.7717C69.363 74.8732 69.3459 74.9818 69.3517 75.0905C69.3574 75.1991 69.386 75.3052 69.4355 75.4021C69.485 75.4989 69.5543 75.5843 69.6389 75.6526L70.8504 76.8641C70.9215 76.9367 71.0063 76.9943 71.0999 77.0336C71.1935 77.073 71.2941 77.0932 71.3956 77.0932C71.4972 77.0932 71.5977 77.073 71.6913 77.0336C71.7849 76.9943 71.8697 76.9367 71.9408 76.8641C72.0133 76.7931 72.071 76.7082 72.1103 76.6146C72.1496 76.521 72.1699 76.4205 72.1699 76.319C72.1699 76.2174 72.1496 76.1169 72.1103 76.0233C72.071 75.9297 72.0133 75.8448 71.9408 75.7738L70.7293 74.5622Z" fill="#C6C8F7"/>
<path d="M70.8992 71.8483L70.7296 71.6787C70.5829 71.538 70.3876 71.4595 70.1844 71.4595C69.9812 71.4595 69.7858 71.538 69.6392 71.6787C69.4949 71.8259 69.4141 72.0238 69.4141 72.23C69.4141 72.4361 69.4949 72.634 69.6392 72.7812L70.8507 73.9927C70.9911 74.1367 71.1827 74.2194 71.3838 74.2229C71.5885 74.22 71.7841 74.1374 71.929 73.9927C72.0015 73.9217 72.0591 73.8369 72.0985 73.7432C72.1378 73.6496 72.1581 73.5491 72.1581 73.4476C72.1581 73.346 72.1378 73.2455 72.0985 73.1519C72.0591 73.0583 72.0015 72.9734 71.929 72.9024L70.8992 71.8483Z" fill="#C6C8F7"/>
<path d="M70.8992 68.8198C70.7503 68.6995 70.5621 68.6386 70.371 68.6488C70.1798 68.659 69.9992 68.7395 69.8638 68.8748C69.7285 69.0102 69.648 69.1908 69.6378 69.3819C69.6277 69.5731 69.6886 69.7612 69.8088 69.9102L70.9113 71.0127L71.0567 71.1581C71.1277 71.2308 71.2124 71.2886 71.3061 71.3281C71.3997 71.3677 71.5003 71.3881 71.6019 71.3883C71.7037 71.3895 71.8047 71.3697 71.8985 71.3301C71.9923 71.2905 72.077 71.2319 72.1471 71.1581C72.2196 71.087 72.2772 71.0022 72.3166 70.9086C72.3559 70.8149 72.3762 70.7144 72.3762 70.6129C72.3762 70.5113 72.3559 70.4108 72.3166 70.3172C72.2772 70.2236 72.2196 70.1387 72.1471 70.0677L70.8992 68.8198Z" fill="#C6C8F7"/>
<path d="M15.1672 80.3171L13.9557 81.5286C13.8831 81.5997 13.8255 81.6845 13.7862 81.7782C13.7468 81.8718 13.7266 81.9723 13.7266 82.0738C13.7266 82.1754 13.7468 82.2759 13.7862 82.3695C13.8255 82.4631 13.8831 82.548 13.9557 82.619C14.0267 82.6916 14.1115 82.7492 14.2052 82.7885C14.2988 82.8279 14.3993 82.8481 14.5008 82.8481C14.6024 82.8481 14.7029 82.8279 14.7965 82.7885C14.8901 82.7492 14.975 82.6916 15.046 82.619L16.2576 81.4075C16.3778 81.2586 16.4387 81.0704 16.4286 80.8793C16.4184 80.6881 16.3379 80.5075 16.2026 80.3721C16.0672 80.2368 15.8866 80.1563 15.6954 80.1461C15.5043 80.136 15.3161 80.1969 15.1672 80.3171Z" fill="#C6C8F7"/>
<path d="M15.1677 77.4337L13.9561 78.6452C13.8132 78.7905 13.7331 78.9862 13.7334 79.19C13.7337 79.3939 13.8142 79.5894 13.9575 79.7343C14.1008 79.8792 14.2954 79.9619 14.4993 79.9644C14.7031 79.9669 14.8997 79.889 15.0465 79.7477L16.2581 78.5362C16.3783 78.3872 16.4392 78.1991 16.429 78.0079C16.4189 77.8168 16.3384 77.6361 16.203 77.5008C16.0677 77.3654 15.887 77.2849 15.6959 77.2748C15.5048 77.2646 15.3166 77.3255 15.1677 77.4458V77.4337Z" fill="#C6C8F7"/>
<path d="M15.1672 74.5622L13.9557 75.7738C13.8831 75.8448 13.8255 75.9297 13.7862 76.0233C13.7468 76.1169 13.7266 76.2174 13.7266 76.319C13.7266 76.4205 13.7468 76.521 13.7862 76.6146C13.8255 76.7082 13.8831 76.7931 13.9557 76.8641C14.0267 76.9367 14.1115 76.9943 14.2052 77.0336C14.2988 77.073 14.3993 77.0932 14.5008 77.0932C14.6024 77.0932 14.7029 77.073 14.7965 77.0336C14.8901 76.9943 14.975 76.9367 15.046 76.8641L16.2576 75.6526C16.3422 75.5843 16.4115 75.4989 16.461 75.4021C16.5105 75.3052 16.539 75.1991 16.5448 75.0905C16.5505 74.9818 16.5334 74.8732 16.4945 74.7717C16.4555 74.6702 16.3957 74.5779 16.3188 74.501C16.2419 74.4241 16.1496 74.3643 16.0481 74.3253C15.9465 74.2864 15.8379 74.2692 15.7293 74.275C15.6207 74.2808 15.5146 74.3093 15.4177 74.3588C15.3209 74.4083 15.2355 74.4776 15.1672 74.5622Z" fill="#C6C8F7"/>
<path d="M15.1684 71.6788L15.023 71.8242L13.9205 72.9388C13.848 73.0099 13.7903 73.0947 13.751 73.1883C13.7117 73.2819 13.6914 73.3824 13.6914 73.484C13.6914 73.5855 13.7117 73.686 13.751 73.7797C13.7903 73.8733 13.848 73.9581 13.9205 74.0292C14.0654 74.1739 14.2609 74.2564 14.4657 74.2594C14.6535 74.2445 14.8297 74.1628 14.9624 74.0292L16.174 72.8176C16.3182 72.6704 16.3991 72.4725 16.3991 72.2664C16.3991 72.0603 16.3182 71.8623 16.174 71.7151C16.0369 71.5927 15.8614 71.522 15.6777 71.5154C15.4941 71.5088 15.3139 71.5666 15.1684 71.6788Z" fill="#C6C8F7"/>
<path d="M15.3266 68.8077L15.0237 69.0863L14.0787 70.0313C14.0062 70.1024 13.9485 70.1872 13.9092 70.2808C13.8699 70.3745 13.8496 70.475 13.8496 70.5765C13.8496 70.6781 13.8699 70.7786 13.9092 70.8722C13.9485 70.9658 14.0062 71.0506 14.0787 71.1217C14.1488 71.1956 14.2334 71.2541 14.3272 71.2938C14.4211 71.3334 14.5221 71.3532 14.6239 71.3519C14.7664 71.353 14.9058 71.3107 15.0237 71.2307C15.0777 71.2024 15.1268 71.1656 15.1691 71.1217L16.3806 69.9102C16.4652 69.8419 16.5345 69.7565 16.584 69.6596C16.6335 69.5628 16.6621 69.4566 16.6678 69.348C16.6736 69.2394 16.6565 69.1308 16.6175 69.0293C16.5786 68.9277 16.5187 68.8355 16.4418 68.7586C16.3649 68.6817 16.2727 68.6218 16.1711 68.5829C16.0696 68.544 15.961 68.5268 15.8524 68.5326C15.7438 68.5384 15.6376 68.5669 15.5408 68.6164C15.4439 68.6659 15.3586 68.7352 15.2902 68.8198L15.3266 68.8077Z" fill="#C6C8F7"/>
<path d="M12.4675 66.5904C12.4197 66.5786 12.3698 66.5786 12.3221 66.5904C12.2145 66.6108 12.1125 66.6537 12.0227 66.7163C11.9329 66.779 11.8574 66.8599 11.8011 66.9539C11.7607 67.0125 11.732 67.0783 11.7163 67.1477C11.7104 67.2122 11.7104 67.2771 11.7163 67.3416V69.0862V69.28C11.7632 69.4631 11.8753 69.6228 12.0316 69.729C12.188 69.8352 12.3777 69.8807 12.5652 69.8569C12.7526 69.8331 12.925 69.7416 13.0498 69.5997C13.1746 69.4578 13.2432 69.2752 13.2429 69.0862V67.3658C13.2429 67.1601 13.1612 66.9629 13.0158 66.8175C12.8703 66.6721 12.6731 66.5904 12.4675 66.5904Z" fill="#C6C8F7"/>
<path d="M9.69314 80.3171C9.5442 80.1969 9.35605 80.136 9.16491 80.1461C8.97376 80.1563 8.79312 80.2368 8.65777 80.3721C8.52242 80.5075 8.44191 80.6881 8.43176 80.8793C8.4216 81.0704 8.48251 81.2586 8.60275 81.4075L9.81429 82.619C9.88536 82.6916 9.97018 82.7492 10.0638 82.7885C10.1574 82.8279 10.2579 82.8481 10.3595 82.8481C10.461 82.8481 10.5616 82.8279 10.6552 82.7885C10.7488 82.7492 10.8336 82.6916 10.9047 82.619C10.9772 82.548 11.0348 82.4631 11.0742 82.3695C11.1135 82.2759 11.1338 82.1754 11.1338 82.0738C11.1338 81.9723 11.1135 81.8718 11.0742 81.7782C11.0348 81.6845 10.9772 81.5997 10.9047 81.5286L9.69314 80.3171Z" fill="#C6C8F7"/>
<path d="M9.69314 77.4336C9.5442 77.3133 9.35605 77.2524 9.16491 77.2626C8.97376 77.2727 8.79312 77.3532 8.65777 77.4886C8.52242 77.6239 8.44191 77.8046 8.43176 77.9957C8.4216 78.1869 8.48251 78.375 8.60275 78.5239L9.81429 79.7355C9.88633 79.8087 9.9722 79.8669 10.0669 79.9066C10.1616 79.9463 10.2633 79.9669 10.366 79.967C10.4687 79.9671 10.5704 79.9468 10.6652 79.9073C10.76 79.8678 10.846 79.8099 10.9182 79.7369C10.9905 79.6638 11.0475 79.5772 11.0859 79.482C11.1244 79.3867 11.1435 79.2848 11.1423 79.1821C11.141 79.0794 11.1194 78.978 11.0786 78.8837C11.0378 78.7894 10.9787 78.7042 10.9047 78.633L9.69314 77.4336Z" fill="#C6C8F7"/>
<path d="M9.69216 74.5622C9.62384 74.4776 9.53848 74.4083 9.44163 74.3588C9.34478 74.3093 9.23861 74.2808 9.13 74.275C9.0214 74.2692 8.9128 74.2864 8.81125 74.3253C8.7097 74.3643 8.61748 74.4241 8.54058 74.501C8.46368 74.5779 8.40381 74.6702 8.36488 74.7717C8.32594 74.8732 8.3088 74.9818 8.31457 75.0905C8.32034 75.1991 8.34889 75.3052 8.39837 75.4021C8.44785 75.4989 8.51715 75.5843 8.60177 75.6526L9.81331 76.8641C9.88438 76.9367 9.9692 76.9943 10.0628 77.0336C10.1564 77.073 10.257 77.0932 10.3585 77.0932C10.46 77.0932 10.5606 77.073 10.6542 77.0336C10.7478 76.9943 10.8326 76.9367 10.9037 76.8641C10.9762 76.7931 11.0338 76.7082 11.0732 76.6146C11.1125 76.521 11.1328 76.4205 11.1328 76.319C11.1328 76.2174 11.1125 76.1169 11.0732 76.0233C11.0338 75.9297 10.9762 75.8448 10.9037 75.7738L9.69216 74.5622Z" fill="#C6C8F7"/>
<path d="M9.9115 71.8483L9.69343 71.6787C9.54679 71.538 9.35144 71.4595 9.14823 71.4595C8.94502 71.4595 8.74968 71.538 8.60304 71.6787C8.45875 71.8259 8.37793 72.0238 8.37793 72.23C8.37793 72.4361 8.45875 72.634 8.60304 72.7812L9.81458 73.9927C9.95501 74.1367 10.1466 74.2194 10.3477 74.2229C10.5524 74.22 10.748 74.1374 10.8928 73.9927C10.9654 73.9217 11.023 73.8369 11.0623 73.7432C11.1017 73.6496 11.1219 73.5491 11.1219 73.4476C11.1219 73.346 11.1017 73.2455 11.0623 73.1519C11.023 73.0583 10.9654 72.9734 10.8928 72.9024L9.9115 71.8483Z" fill="#C6C8F7"/>
<path d="M9.91188 68.8198C9.84356 68.7352 9.7582 68.6659 9.66136 68.6164C9.56451 68.5669 9.45833 68.5384 9.34973 68.5326C9.24113 68.5268 9.13252 68.544 9.03098 68.5829C8.92943 68.6218 8.83721 68.6817 8.76031 68.7586C8.6834 68.8355 8.62354 68.9277 8.5846 69.0293C8.54566 69.1308 8.52852 69.2394 8.5343 69.348C8.54007 69.4566 8.56862 69.5628 8.6181 69.6596C8.66758 69.7565 8.73688 69.8419 8.8215 69.9102L9.924 71.0127L10.0694 71.1581C10.1404 71.2306 10.2253 71.2882 10.3189 71.3276C10.4125 71.3669 10.513 71.3872 10.6146 71.3872C10.7161 71.3872 10.8166 71.3669 10.9103 71.3276C11.0039 71.2882 11.0887 71.2306 11.1598 71.1581C11.2323 71.087 11.2899 71.0022 11.3293 70.9086C11.3686 70.8149 11.3889 70.7144 11.3889 70.6129C11.3889 70.5113 11.3686 70.4108 11.3293 70.3172C11.2899 70.2236 11.2323 70.1387 11.1598 70.0677L9.91188 68.8198Z" fill="#C6C8F7"/>
<path d="M38.8773 28.0029H37.0236V27.3487H38.7319V26.6944H37.0236V26.0644H38.8773V25.386H36.2119V28.6814H38.8773V28.0029Z" fill="#C6C8F7"/>
<path d="M41.8099 26.6821H41.4343C41.2599 26.6736 41.0881 26.6368 40.9255 26.5731C40.8823 26.5499 40.8467 26.5146 40.8231 26.4716C40.7994 26.4286 40.7887 26.3797 40.7922 26.3308C40.7888 26.2819 40.8011 26.2333 40.8272 26.1919C40.8534 26.1505 40.892 26.1185 40.9376 26.1006C41.0934 26.0477 41.2582 26.0271 41.4222 26.04H42.5611V25.4706C42.1926 25.3788 41.814 25.334 41.4343 25.3373C40.4288 25.3373 39.9199 25.6766 39.9199 26.355C39.9199 27.0335 40.247 27.2637 40.9134 27.3364H41.289C41.4618 27.3556 41.6323 27.3922 41.7978 27.4454C41.842 27.4707 41.878 27.508 41.9016 27.5531C41.9253 27.5982 41.9355 27.6491 41.9311 27.6998C41.9316 27.7529 41.9155 27.8047 41.8851 27.8482C41.8547 27.8916 41.8115 27.9245 41.7615 27.9421C41.5982 27.9992 41.4253 28.0238 41.2526 28.0148H40.0411V28.6085C40.4368 28.7089 40.8445 28.7538 41.2526 28.7418C42.2945 28.7418 42.8034 28.3904 42.8034 27.6998C42.8174 27.5702 42.803 27.4391 42.7611 27.3157C42.7193 27.1922 42.651 27.0794 42.5611 26.985C42.3528 26.8009 42.0876 26.6939 41.8099 26.6821Z" fill="#C6C8F7"/>
<path d="M44.6447 28.6814H45.4564V26.0887H46.5347V25.386H43.5664V26.0887H44.6447V28.6814Z" fill="#C6C8F7"/>
<path d="M49.6739 27.058C49.7662 26.9664 49.8386 26.8567 49.8865 26.7358C49.9345 26.6149 49.9569 26.4854 49.9525 26.3554C49.9592 26.2251 49.9378 26.0949 49.8897 25.9737C49.8417 25.8524 49.768 25.7429 49.6739 25.6527C49.5712 25.559 49.4507 25.4872 49.3195 25.4414C49.1883 25.3956 49.0492 25.3768 48.9106 25.3861H48.002V27.3125H48.9106C49.1883 27.3293 49.4618 27.2382 49.6739 27.058ZM48.5714 26.8279V25.8829H48.8743C48.938 25.8783 49.002 25.8866 49.0623 25.9074C49.1227 25.9283 49.1783 25.9611 49.2256 26.004C49.3099 26.101 49.3534 26.227 49.3468 26.3554C49.3528 26.48 49.3092 26.6019 49.2256 26.6946C49.1789 26.7391 49.1237 26.7738 49.0634 26.7967C49.003 26.8195 48.9387 26.8302 48.8743 26.8279H48.5714Z" fill="#C6C8F7"/>
<path d="M49.9504 28.3665H48.0361V28.8874H49.9504V28.3665Z" fill="#C6C8F7"/>
<path d="M20.451 34.1575C20.2336 34.1345 20.015 34.1887 19.8335 34.3105C19.6519 34.4323 19.5188 34.614 19.4576 34.8238H19.3849C19.3147 34.6372 19.1857 34.4784 19.0175 34.3714C18.8493 34.2643 18.6508 34.2148 18.452 34.2302C17.5797 34.2302 17.1436 34.8238 17.1436 35.999V38.6644H21.808V35.999C21.808 34.7754 21.3839 34.1575 20.451 34.1575ZM18.9609 37.2469H18.1734V36.2413C18.1597 36.0986 18.1892 35.9551 18.2582 35.8294C18.2936 35.78 18.3413 35.7406 18.3965 35.7151C18.4517 35.6897 18.5126 35.6789 18.5732 35.684C18.6321 35.6786 18.6914 35.6893 18.7447 35.7149C18.798 35.7405 18.8434 35.7801 18.8761 35.8294C18.9495 35.9581 18.9832 36.1056 18.973 36.2535L18.9609 37.2469ZM20.8024 37.2469H19.9786V36.1929C19.9676 36.0425 19.9968 35.892 20.0634 35.7567C20.1007 35.7063 20.1505 35.6664 20.2078 35.641C20.2651 35.6155 20.328 35.6053 20.3905 35.6113C20.4509 35.6074 20.5114 35.6186 20.5664 35.644C20.6215 35.6694 20.6692 35.7082 20.7055 35.7567C20.7768 35.8906 20.8103 36.0414 20.8024 36.1929V37.2469Z" fill="#C6C8F7"/>
<path d="M17.4941 30.8014L21.8436 33.2245L22.1222 31.807L21.262 31.3587L21.6134 29.5293L22.5705 29.4202L22.8491 27.9785L17.9182 28.6085L17.4941 30.8014ZM18.9116 29.7958L20.4624 29.6262L20.2322 30.8377L18.8632 30.1229L18.9116 29.7958Z" fill="#C6C8F7"/>
<path d="M20.7773 20.6128L20.1473 22.0545L21.274 23.8961L21.0802 24.3564L19.4567 23.6538L18.8994 24.9501L23.2367 26.828L23.8061 25.5316L22.1584 24.8168L22.3523 24.3564L24.4967 23.9203L25.1388 22.4543L22.2554 23.0722L20.7773 20.6128Z" fill="#C6C8F7"/>
<path d="M25.6606 19.7038L25.067 19.2798L26.4118 17.414L25.5758 16.7961L24.2189 18.6619L23.6495 18.25L25.1397 16.2025L24.231 15.5361L21.917 18.7346L25.7454 21.509L28.0595 18.3227L27.1508 17.6563L25.6606 19.7038Z" fill="#C6C8F7"/>
<path d="M29.4639 11.5138C28.7802 11.5023 28.1192 11.7589 27.6223 12.2286L25.9141 13.6582L28.955 17.2928L30.6512 15.8632C31.2028 15.4541 31.5724 14.8453 31.681 14.1671C31.7188 13.8495 31.6863 13.5275 31.5858 13.224C31.4853 12.9204 31.3192 12.6426 31.0994 12.4103C30.9066 12.1528 30.6609 11.9395 30.3788 11.7849C30.0966 11.6303 29.7847 11.5378 29.4639 11.5138ZM29.8273 14.9788L29.2579 15.4634L27.7677 13.6703L28.3371 13.1978C28.5735 12.9887 28.8821 12.88 29.1973 12.8949C29.5036 12.9398 29.781 13.1002 29.9727 13.3432C30.0794 13.4557 30.1615 13.5893 30.2136 13.7353C30.2658 13.8813 30.2869 14.0366 30.2756 14.1913C30.2617 14.347 30.2145 14.4979 30.1371 14.6338C30.0598 14.7697 29.9541 14.8873 29.8273 14.9788Z" fill="#C6C8F7"/>
<path d="M41.2768 9.8298L41.0587 9.87826L39.52 6.71615L37.521 7.11596L37.3029 10.6294L37.0848 10.6658L35.5947 7.49153L34.165 7.7823L36.3579 12.1681L38.4539 11.7561L38.672 8.23057L38.8416 8.19422L40.3802 11.3685L42.5004 10.9444L42.8396 6.0498L41.4464 6.32846L41.2768 9.8298Z" fill="#C6C8F7"/>
<path d="M44.8857 11.2959L46.2911 11.5019L46.9696 6.82535L45.5642 6.61938L44.8857 11.2959Z" fill="#C6C8F7"/>
<path d="M53.2825 8.81239L49.2238 7.24951L48.7998 8.35201L50.1567 8.87297L48.8846 12.1805L50.2173 12.7014L51.4894 9.38182L52.8585 9.91489L53.2825 8.81239Z" fill="#C6C8F7"/>
<path d="M57.9587 11.9137L56.8926 13.3191L55.4872 12.253L56.5533 10.8476L55.4266 9.99951L52.5674 13.7674L53.6941 14.6276L54.7724 13.198L56.1778 14.2641L55.0995 15.6937L56.2262 16.5539L59.0855 12.7739L57.9587 11.9137Z" fill="#C6C8F7"/>
<path d="M63.3515 17.8382L62.5762 16.6509L58.6387 19.2799L60.7467 22.442L61.7281 21.7878L60.4075 19.8009L63.3515 17.8382Z" fill="#C6C8F7"/>
<path d="M65.3377 27.2639C65.6493 27.1569 65.9347 26.9849 66.1749 26.7593C66.4151 26.5338 66.6046 26.2597 66.7309 25.9554C66.8652 25.635 66.9344 25.2911 66.9344 24.9438C66.9344 24.5964 66.8652 24.2525 66.7309 23.9321C66.505 23.2677 66.0261 22.7191 65.3982 22.4056C64.7875 22.1575 64.1048 22.1538 63.4914 22.3951C62.878 22.6364 62.3809 23.1043 62.1029 23.7019C61.9686 24.0223 61.8994 24.3662 61.8994 24.7136C61.8994 25.061 61.9686 25.4048 62.1029 25.7252C62.3247 26.3882 62.7993 26.9368 63.4234 27.2517C63.7236 27.3887 64.0493 27.4606 64.3793 27.4627C64.7092 27.4648 65.0358 27.397 65.3377 27.2639ZM63.8596 25.9433C63.575 25.8098 63.3534 25.5708 63.2417 25.2769C63.1786 25.1338 63.146 24.9791 63.146 24.8226C63.146 24.6662 63.1786 24.5115 63.2417 24.3683C63.3134 24.2227 63.4136 24.0929 63.5364 23.9868C63.6592 23.8807 63.802 23.8003 63.9565 23.7504C64.1043 23.6888 64.2628 23.657 64.4229 23.657C64.5831 23.657 64.7416 23.6888 64.8894 23.7504C65.1775 23.8805 65.4033 24.1179 65.5188 24.4122C65.6342 24.7064 65.6301 25.0342 65.5073 25.3254C65.3424 25.6027 65.0892 25.8167 64.7883 25.9331C64.4874 26.0495 64.1561 26.0617 63.8475 25.9675L63.8596 25.9433Z" fill="#C6C8F7"/>
<path d="M65.0111 31.4317L64.9747 31.1894L68.2459 29.6387L68.0157 28.1848L63.5693 30.4019L63.9207 32.6069L68.8274 33.3702L68.5972 31.9163L65.0111 31.4317Z" fill="#C6C8F7"/>
<path d="M64.0908 39.2944H65.2176V36.7623H65.9445V39.0642H66.9985V36.7623H67.6891V39.2944H68.8158V35.3569H64.0908V39.2944Z" fill="#C6C8F7"/>
</svg>
