<?xml version="1.0" encoding="UTF-8" standalone="no"?>
<svg
   width="38"
   height="19"
   viewBox="0 0 38 19"
   fill="none"
   version="1.1"
   id="svg19"
   sodipodi:docname="ear.svg"
   inkscape:version="1.1 (c68e22c387, 2021-05-23)"
   xmlns:inkscape="http://www.inkscape.org/namespaces/inkscape"
   xmlns:sodipodi="http://sodipodi.sourceforge.net/DTD/sodipodi-0.dtd"
   xmlns="http://www.w3.org/2000/svg"
   xmlns:svg="http://www.w3.org/2000/svg">
  <defs
     id="defs23">
    <clipPath
       clipPathUnits="userSpaceOnUse"
       id="clipPath739">
      <path
         id="path741"
         style="fill:#ff0000;fill-opacity:1;fill-rule:nonzero;stroke:none"
         d="M 21.300781,2.6855469 V 16.166016 h 16.0625 c -0.353793,-0.760665 -0.571934,-1.753206 -0.634765,-3.060547 -0.02266,-0.923635 -0.0023,-1.819702 0.06641,-2.744141 0.0073,-0.09838 0.01052,-0.198539 0.03906,-0.292969 0.0077,-0.02537 0.02309,0.100628 0.02539,0.07422 0.01421,-0.1645398 0.02029,-0.3292232 0.0293,-0.4941405 -0.17162,-0.6664068 -0.174202,-1.0642675 0.0039,-1.2617187 -0.08449,-0.9018371 -0.006,-1.5865761 0.220703,-2.1445313 0.112915,-1.3563678 0.388267,-2.5418039 0.783203,-3.5566406 z m 15.744141,7.5722651 c -0.0069,-0.0091 -0.0098,0.261215 -0.01563,0.359376 0.0044,0.09257 0.0081,0.173667 0.01367,0.255859 -1.09e-4,-0.03101 1.09e-4,-0.03643 0,-0.07031 -5e-4,-0.174351 0.01964,-0.349634 0.0059,-0.523437 -0.0011,-0.014 -0.0029,-0.02017 -0.0039,-0.02149 z m 0.4375,1.1875 c -0.05898,0.158527 -0.102776,0.274042 -0.148438,0.402344 0.03285,0.05778 0.06643,0.117785 0.107422,0.181641 0.155638,0.242443 0.333353,0.46808 0.517578,0.689453 -0.177557,-0.464398 -0.336818,-0.891352 -0.476562,-1.273438 z" />
    </clipPath>
    <clipPath
       clipPathUnits="userSpaceOnUse"
       id="clipPath865">
      <path
         id="path867"
         style="fill:#ff0000;fill-opacity:1;fill-rule:nonzero;stroke:none"
         d="m 0,0 v 18.015625 h 39.191406 c -1.446693,-0.675105 -2.325042,-2.041936 -2.46289,-4.910156 -0.02266,-0.923635 -0.0023,-1.819702 0.06641,-2.744141 0.0073,-0.09838 0.01052,-0.198539 0.03906,-0.292969 0.0077,-0.02537 0.02309,0.10062 0.02539,0.07422 0.01421,-0.164539 0.02029,-0.3292232 0.0293,-0.4941405 C 36.729953,9.0322275 36.76697,8.703431 36.90625,8.4921875 36.77929,7.2835772 36.931506,6.4523979 37.337891,5.8007812 37.649492,3.2961686 38.374429,1.2429726 39.541016,0 Z m 61.357422,0 c -0.01115,0.1171732 -0.02358,0.27279648 -0.03516,0.40820312 0.193802,0.0222061 0.09347,0.0168574 0.40039,0.0507813 C 61.743728,0.31612578 61.764854,0.17879278 61.791016,0 Z m 6.175781,0 c -0.04252,0.33403811 -0.08935,0.67351715 -0.138672,1.0019531 0.209964,0.018653 0.431585,0.041881 0.638672,0.060547 3.533713,0.3041619 2.840609,0.2729375 6.742188,0.4746094 0.787404,0.040701 1.576021,0.054251 2.363281,0.097656 1.211927,0.066819 2.42386,0.1491194 3.634766,0.2324219 0.778598,0.053563 1.557621,0.098064 2.333984,0.1777344 1.367877,0.1403718 2.732002,0.3218609 4.097656,0.4824219 0.937278,0.1277563 1.871202,0.2712714 2.810547,0.3828124 1.357931,0.1612457 2.719563,0.297793 4.080078,0.4355469 0.789867,0.079975 1.581541,0.1394171 2.371094,0.2207031 -0.04119,-0.7903435 0.570264,-0.906886 2.316406,-1.1308593 -0.01773,-0.1648836 0.247188,-0.091807 0.462891,-0.0625 0.0604,-0.00779 0.08969,-0.0133 0.152344,-0.021484 0.347389,-0.041633 0.697402,-0.057469 1.046872,-0.060547 0.34344,-0.035512 0.68697,-0.073926 1.03125,-0.099609 1.37179,-0.102335 2.74508,-0.1966007 4.11914,-0.2617187 1.46385,-0.069373 2.92785,-0.095348 4.39258,-0.1425781 2.66111,0.026764 5.32459,-0.00777 7.98438,0.080078 2.3856,0.078795 4.76643,0.2672111 7.14843,0.4199219 1.60858,0.1031258 3.21589,0.2211828 4.82422,0.328125 0.26848,-0.6746943 0.55651,-1.3401186 0.90039,-1.9824219 0.0475,-0.0887176 0.14216,-0.14054084 0.27149,-0.16015625 0.90531,-0.1373079 3.54745,1.23608995 4.17187,1.54687495 0.71146,0.3541038 1.35561,0.7307492 1.93555,1.125 1.50799,0.1307799 3.01565,0.2652297 4.52344,0.3984376 7.89409,0.697414 5.22658,0.4592209 10.08789,0.8945312 0.20177,0.016011 0.40379,0.031357 0.60547,0.048828 1.85193,0.036098 3.70434,0.093206 5.55468,0.1855469 0.25382,-0.00924 0.70417,-0.2106247 0.70899,0.027344 0.0969,0.00551 0.19408,0.00591 0.29101,0.011719 -0.01,0.1651985 -0.0143,0.3308455 -0.0234,0.4960937 1.2178,-0.054312 2.43593,-0.1032792 3.65234,-0.1816406 0.61365,-0.039531 1.22665,-0.092615 1.83984,-0.1386718 0.64015,-0.176969 1.36213,-0.1900477 2.13086,-0.1601563 0.628,-0.049773 1.25661,-0.095122 1.88477,-0.1425781 0.12862,-0.01169 0.1298,-0.012526 0.25,-0.023437 0.13313,-0.0218 0.0438,-0.011556 0.25976,-0.044922 0.65176,-0.1006921 1.30319,-0.1990014 1.95704,-0.2851562 0.0774,-0.010195 0.15501,-0.019347 0.23242,-0.029297 0.85218,-0.4283354 1.64661,-0.7775695 2.19336,-0.2695313 1.22376,-0.1506518 2.44534,-0.3167866 3.65234,-0.578125 1.21239,-0.1412749 2.42057,-0.3197244 3.63672,-0.4238281 0.74954,-0.064162 1.50196,-0.082082 2.25391,-0.1074219 C 183.67351,1.3568815 185.16684,0.29152716 187.20117,0 Z M 173.37305,3.9316406 c -0.73101,0.089991 -1.46314,0.1756726 -2.19336,0.2695313 -0.103,0.051768 -0.20427,0.1021175 -0.3086,0.1542969 0.72589,-0.065968 2.06807,-0.1998274 2.65039,-0.2558594 -0.0469,-0.063975 -0.097,-0.1201467 -0.14843,-0.1679688 z M 189.49414,0 c 1.4659,0.18071725 3.09635,0.68661283 4.86328,1.6503906 0.0904,0.049297 0.17793,0.1063656 0.26563,0.1621094 0.12836,0.00252 0.25693,0.00123 0.38476,0.00977 1.73221,0.115708 3.448,0.3109732 5.16016,0.5878906 0.47484,0.00751 0.93396,0.029627 1.35156,0.080078 0.50479,0.060984 1.46244,-0.1795718 1.49024,0.328125 0.009,0.1647002 -0.008,0.3311887 0,0.4960937 1.84859,0.1950378 3.70097,0.3522881 5.54492,0.5253907 3.39906,0.3043509 6.80608,0.6249111 10.2207,0.6894531 1.26159,0.023847 2.52334,0.025507 3.78516,0.029297 0.92722,0.00278 1.85426,0.011102 2.78125,-0.00977 0.70219,-0.01579 1.40389,-0.066344 2.10547,-0.099609 0.18013,-0.023606 0.36076,-0.037457 0.53906,-0.072266 0.41298,-0.080622 0.82234,-0.1811166 1.23242,-0.2753906 0.38182,-0.087778 0.75796,-0.2058563 1.14453,-0.2695313 1.97146,-0.3247306 3.79642,-0.5491706 5.76758,-0.71875 0.90489,-0.077848 1.81102,-0.1325987 2.7168,-0.1992187 0.53448,-0.029093 1.06854,-0.06992 1.60351,-0.087891 2.97405,-0.099903 7.10256,-0.1892535 10.14258,-0.2578125 4.31711,-0.09736 8.63349,-0.1852573 12.95117,-0.2539063 1.28026,-0.017646 2.55951,-0.042302 3.83985,-0.052734 3.38529,-0.027588 3.57661,-0.013163 6.3789,0.00391 2.03758,0.012393 4.07611,-0.00927 6.11328,0.033203 0.76107,0.015866 1.52056,0.05698 2.28125,0.085937 2.58111,0.2161433 5.16518,0.4113448 7.74805,0.6054688 2.05045,0.1520259 2.07114,0.1114251 4.28516,0.484375 0.482,0.081193 0.9545,0.2160532 1.43554,0.3027344 0.74494,0.1342311 1.50359,0.2017133 2.25782,0.2832031 0.42508,-0.097263 0.85154,-0.1874039 1.27734,-0.28125 2.09568,-0.1347186 4.1772,-0.4396588 6.25586,-0.7265625 2.44474,-0.3374317 1.44779,-0.1450305 3.30078,-0.5664063 -0.0594,0.00336 -0.23779,0.022837 -0.17969,0.00977 0.61855,-0.1394708 1.23595,-0.2964159 1.86328,-0.3886719 0.5572,-0.081943 2.51397,-0.1321824 3.06446,-0.1464844 2.04529,0.011762 4.09137,0.018615 6.13672,0.015625 0.28205,-5.9e-4 0.56364,-0.0015 0.8457,-0.00195 0.36283,-5.859e-4 0.72561,-0.019954 1.08789,0 0.81071,-0.026126 1.60717,0.1434181 2.41211,0.1894531 0.28372,0.016229 0.56936,0.00752 0.85351,0.011719 0.89548,-0.00138 1.79019,-0.017454 2.68555,-0.03125 0.4262,-0.498016 1.48341,-0.4756943 3.55274,0.3730469 0.27302,0.1119799 0.86543,0.044624 0.81836,0.3359375 -0.08,0.4950168 -0.2115,0.6952936 -0.30079,1.1503906 0.1992,0.017256 0.39822,0.03843 0.59766,0.042969 1.13418,0.025809 2.26787,0.019427 3.40234,0.023437 4.13811,0.014625 5.16068,-0.020386 10.19532,-0.099609 7.25576,-0.1141735 5.54547,-0.1011932 14.34375,-0.3828125 6.3041,-0.2402796 6.20094,-0.2328741 12.57617,-0.4863281 3.11177,-0.1237118 6.2238,-0.2598362 9.32617,-0.5429687 0.90223,-0.08234 1.80386,-0.1845988 2.70508,-0.2773438 5.21921,-0.5714275 10.44223,-1.1853459 15.68945,-1.4296875 0.7161,-0.0333461 1.43358,-0.0288755 2.15039,-0.0390625 1.71406,-0.0243596 3.42848,-0.042827 5.14258,-0.0644531 1.39923,-0.016887 2.79821,-0.0228099 4.19727,-0.0507813 2.36077,-0.0471983 4.72163,-0.11050862 7.08203,-0.17382812 3.48192,-0.0934055 6.96266,-0.2221244 10.44531,-0.21484375 1.16088,0.002427 2.32141,0.0199954 3.48242,0.0585938 0.88929,0.22887494 1.75574,0.58238564 2.66797,0.68749997 0.51458,0.059294 1.02338,-0.22208917 1.54102,-0.20312497 1.19793,0.0438875 2.38159,0.29077997 3.57617,0.39062497 2.27631,0.1902589 4.55651,0.3322025 6.83593,0.4804687 2.1065,0.1370162 3.02705,0.089541 4.0293,0.1386719 1.63907,-0.322413 3.11932,-0.5754124 3.99805,-0.6816406 C 459.57738,0.69194044 463.62635,0.31055079 467.67969,0 Z m 137.99414,2.1445312 c -0.0274,0.032055 -0.0657,0.055418 -0.0879,0.091797 0.38374,-0.061569 0.861,-0.091048 1.58789,-0.1054687 0.017,0.607431 0.0338,1.2148482 0.0508,1.8222656 0.0978,-0.00479 0.20909,0.0049 0.3086,0.00195 -0.002,-0.6106902 0.005,-1.2214689 -0.002,-1.8320312 -7.2e-4,-0.061494 -0.12209,-6.941e-4 -0.18359,0 -0.25371,0.00286 -0.50802,0.00802 -0.76172,0.011719 -0.30409,0.00443 -0.60801,0.00508 -0.91211,0.00977 z M 515.56445,0 c 0.82913,0.01955089 1.72193,0.03335862 2.53125,0.05273437 C 518.0831,0.03499722 518.07496,0.017691 518.0625,0 Z m 71.14844,0 c 1.22271,0.07460765 2.45202,0.17633108 3.77539,0.25976562 2.81939,0.14586215 5.63019,0.39235242 8.44727,0.57226563 1.6536,0.10560726 3.30887,0.19620285 4.96289,0.29492185 1.35035,0.073818 1.93552,0.065383 2.58398,0.099609 4.12914,-0.041989 5.34376,-0.06687 9.22266,-0.097656 0.0489,2.638e-4 0.0976,-0.0066 0.14648,-0.00586 0.0157,2.387e-4 0.0312,0.00357 0.0469,0.00391 5.3889,-0.042598 10.52639,-0.079946 12.08008,-0.091797 0.46611,-0.0379473 0.93028,-0.0948082 1.39648,-0.13281245 0.52336,-0.0404294 1.04565,-0.10484445 1.57031,-0.12109375 2.63987,-0.0817587 2.92854,-0.0183577 5.27344,0.03125 1.03852,0.0219706 2.07661,0.0382041 3.11523,0.0546875 0.73133,0.0116064 1.46462,-0.003172 2.19532,0.0292969 1.28205,0.0569681 2.56111,0.1538164 3.84179,0.234375 2.84189,0.017656 5.68345,0.038134 8.52539,0.054687 -3.3e-4,-0.014305 3.5e-4,-0.028664 0,-0.042969 1.85536,-0.042032 3.70928,0.00518 5.5625,0.080078 0.69788,0.00336 1.39592,0.01062 2.09375,0.013672 0.0257,1.125e-4 0.0909,-1.101e-4 0.11719,0 C 661.55202,0.76253259 661.55849,0.28375721 661.64258,0 Z m 75.34375,0 c 0.084,0.17941349 0.15531,0.83757874 0.23633,1.234375 0.63911,0.00211 1.69317,-0.00675 2.54687,-0.00586 0.13899,-0.65770704 0.21148,-0.44937155 0.26758,0 4.26723,0.00369 9.9331,0.00647 12.48047,-0.027344 1.86245,-0.024722 3.72033,-0.23245727 5.58399,-0.22265628 0.0936,2.6003e-4 0.14495,-1.58e-6 0.23437,0 0.41162,-0.12688648 0.83918,-0.27660233 0.89258,0.003906 1.89212,0.003707 2.60035,0.11334448 2.60156,1.31445308 3.41667,-0.061549 6.83413,-0.1852555 10.25195,-0.1347656 0.65149,0.00962 1.30223,0.042771 1.95313,0.070312 1.75067,-1.47341944 4.66156,-2.27090034 8.61133,-1.58398436 0.60577,0.10535157 1.20425,0.25668199 1.8164,0.31445312 1.92475,0.18164844 9.0336,0.60256594 11.08594,0.70703124 6.46873,0.3292625 12.94377,0.5398283 19.41602,0.7832031 11.14094,0.4190948 5.93928,0.2637245 22.82031,0.5507812 4.4861,0.076285 8.97235,0.1589598 13.45898,0.1972657 31.1865,0.2662057 1.82598,-0.040669 21.6211,-0.021484 4.34564,0.00421 8.69155,0.053767 13.03711,0.080078 0.21751,0.00257 0.30621,0.00356 0.51562,0.00586 1.19799,-0.8196736 2.70273,-1.5110664 4.6211,-1.9394531 C 820.68835,0.30364324 821.72906,0.14230388 823.625,0 Z M 201.25781,2.5761719 c -0.0552,0.0021 -0.0814,0.00391 -0.13476,0.00586 0.34689,0.073794 0.50953,0.1126667 0.13476,-0.00586 z m 96.4668,1.5195312 c -0.1088,-2.031e-4 -0.22149,-0.00703 -0.31836,0.00977 -0.30407,0.052728 -0.60795,0.1103201 -0.90625,0.1894531 -0.15135,0.040152 -0.59317,0.1977757 -0.43945,0.1679687 0.55768,-0.1081334 1.11013,-0.2409227 1.66406,-0.3671875 z M 38.423828,4.4511719 c -0.09361,0.086256 -0.21077,0.2831804 -0.33789,0.5195312 0.160158,-0.1349902 0.334038,-0.2673051 0.523437,-0.3964843 -0.0015,-0.00779 -0.0024,-0.015649 -0.0039,-0.023438 -0.03136,-0.1631995 -0.09628,-0.1782711 -0.181641,-0.099609 z m -1.378906,5.8066401 c -0.0069,-0.0091 -0.0098,0.26121 -0.01563,0.359376 0.0044,0.09257 0.0081,0.173667 0.01367,0.255859 -1.09e-4,-0.03101 1.09e-4,-0.03643 0,-0.07031 -5e-4,-0.174351 0.01932,-0.349634 0.0059,-0.523437 -0.0011,-0.014 -0.0029,-0.02017 -0.0039,-0.02149 z m 0.4375,1.1875 c -0.05898,0.158527 -0.102776,0.274042 -0.148438,0.402344 0.03285,0.05778 0.06643,0.117785 0.107422,0.181641 0.155638,0.242443 0.333353,0.46808 0.517578,0.689453 -0.177557,-0.464398 -0.336818,-0.891352 -0.476562,-1.273438 z m 392.449218,1.103516 c -0.85537,-0.109357 1.67575,0.40762 2.51367,0.611328 -4.38625,-0.16625 -8.77954,0.04106 -13.16406,0.158203 -2.4139,0.06449 -4.82791,0.129515 -7.24219,0.177735 -1.39674,0.0279 -2.79449,0.03392 -4.1914,0.05078 -1.70365,0.02149 -3.40767,0.0436 -5.11133,0.06445 -0.52646,0.0064 -1.05216,-0.0059 -1.57813,0.01758 -3.78412,0.169065 -4.27939,0.262273 -8.20117,0.652344 -1.7128,0.170358 -3.42501,0.336712 -5.13672,0.517578 -0.60573,0.064 -1.20961,0.144897 -1.81445,0.216797 -1.00828,0.102321 -2.01605,0.215411 -3.02539,0.306641 -3.26093,0.294728 -6.53405,0.440289 -9.80469,0.570312 -6.45293,0.256534 -6.26765,0.246463 -12.66992,0.490234 -8.85848,0.282317 -7.27715,0.272786 -14.57422,0.386719 -4.89523,0.07643 -9.79191,0.16939 -14.6875,0.04492 -0.36955,-0.0094 -0.73869,-0.05374 -1.10742,-0.08008 -2.52606,-0.180433 -4.48726,-0.847072 -5.94531,-1.771484 -0.49499,-0.01767 -0.98969,-0.03043 -1.48438,-0.05859 -1.92334,-0.10951 0.20747,-0.02484 -1.17187,-0.128906 -0.63417,-0.04785 -1.27962,0.04385 -1.91407,0.002 -1.9917,0.0029 -3.98299,-0.0016 -5.97461,-0.01758 -0.15624,-0.0033 -0.31256,-0.01459 -0.46875,-0.0098 -0.40947,0.01317 -0.80451,0.08521 -1.21484,0.07813 -0.18948,0.06118 -0.38013,0.117062 -0.57031,0.175781 -0.69867,0.143718 -1.39283,0.310392 -2.0957,0.431641 -0.71437,0.123224 -1.43616,0.201951 -2.1543,0.300781 -2.19898,0.302622 -4.40268,0.622668 -6.61914,0.769531 0.32485,-0.152044 0.6787,-0.252395 0.97461,-0.455078 0.23894,-0.163661 -0.5248,0.248098 -0.80078,0.335938 -1.30519,0.415428 -2.51567,0.61629 -3.88672,0.439453 -1.32803,-0.152772 -2.64545,-0.314901 -3.96289,-0.552734 -0.18999,-0.0343 -0.37274,-0.105045 -0.5625,-0.140626 -1.63251,-0.306081 -1.534,-0.245154 -3.33789,-0.378906 -2.43233,-0.183001 -4.86795,-0.357562 -7.29688,-0.578125 -0.6136,-0.02565 -1.22583,-0.06348 -1.83984,-0.07617 -2.04395,-0.04222 -4.08847,-0.02254 -6.13282,-0.03516 -2.70163,-0.01663 -2.81317,-0.03079 -6.11523,-0.0039 -1.27139,0.01033 -2.54314,0.03522 -3.81445,0.05273 -4.288,0.06799 -8.5739,0.155323 -12.86133,0.251953 -2.74679,0.06191 -7.06776,0.158001 -9.74805,0.244141 -0.4542,0.0146 -0.90752,0.04632 -1.36133,0.07031 -2.073,0.148865 -2.36758,0.151447 -4.3164,0.361328 -0.72742,0.07834 -1.45776,0.135228 -2.17969,0.253906 -1.31721,0.216533 -2.57115,0.754684 -3.92187,0.808594 -0.44296,0.06954 -0.89364,0.08893 -1.33985,0.132812 -0.87787,0.03751 -1.75435,0.09205 -2.63281,0.111328 -0.97875,0.0215 -1.95851,0.01369 -2.9375,0.0098 -1.39346,-0.0058 -2.78651,-0.01031 -4.17969,-0.03906 -3.64628,-0.07525 -7.28599,-0.408325 -10.91601,-0.734375 -2.22333,-0.209955 -4.44281,-0.410421 -6.65625,-0.664062 -0.0105,0.07616 -0.0206,0.15242 -0.0312,0.228516 0.006,0.06301 0.007,0.126245 0.0117,0.189453 0.0207,0.0068 0.0305,0.01519 0.006,0.0293 -0.001,6.54e-4 -0.003,-4.7e-4 -0.004,0 0.0155,0.22744 0.0408,0.45429 0.0391,0.68164 -0.004,0.51337 -0.0215,0.695291 -0.0332,0.966797 H 434.797 c -1.19761,-1.135569 -0.73523,-2.817595 0.5,-4.558594 -0.20608,-0.121027 -0.64096,-0.304211 -5.36524,-0.908203 z m 9.08203,1.382813 c 1.17628,2.014644 1.74588,3.299826 2.30469,4.083984 h 4.88476 c 0.18224,-1.340792 0.30472,-2.524023 0.375,-3.568359 -3.0291,-0.201101 -6.27547,-0.395835 -7.2832,-0.480469 -0.27742,-0.0233 -0.0451,-0.01477 -0.28125,-0.03516 z m -369.421873,0.07031 c 0.01668,0.108034 0.03534,0.215833 0.04883,0.324219 0.06761,0.543397 0.114925,1.088195 0.171875,1.632812 0.04172,0.68531 0.0669,1.370825 0.08594,2.056641 h 36.244138 c -3.46217,-0.627502 -6.9181,-1.242724 -10.41406,-1.662109 -0.996656,-0.119562 -1.999453,-0.179138 -2.998047,-0.28125 -1.483132,-0.151658 -2.966781,-0.302891 -4.447266,-0.478516 -0.865578,-0.102681 -1.728221,-0.237131 -2.591797,-0.355469 -1.187475,-0.143148 -2.370884,-0.306027 -3.560547,-0.429687 -0.724614,-0.07532 -1.452925,-0.117419 -2.179687,-0.167969 -1.115963,-0.07762 -2.232641,-0.155307 -3.34961,-0.216797 -0.857815,-0.04723 -1.716295,-0.06414 -2.574218,-0.109375 -2.573428,-0.135671 -3.382839,-0.226285 -4.435547,-0.3125 z m 377.353513,0.46875 c 0.0897,0.209992 0.1831,0.422701 0.26953,0.634766 -0.0115,-0.193334 -0.0363,-0.420466 -0.0508,-0.619141 -0.0895,-0.0058 -0.12855,-0.0097 -0.21875,-0.01563 z m -134.20703,0.117188 c -0.2321,0.06122 -0.45886,0.139576 -0.6875,0.21289 0.1174,-0.01015 0.16341,-0.01399 0.24219,-0.03516 0.15427,-0.04145 0.59976,-0.218474 0.44531,-0.177734 z m 413.85352,0.15625 c 0.0462,0.374318 0.0658,0.754699 0.12109,1.126953 -0.28386,0.02222 -0.56771,0.04417 -0.85156,0.06641 v 0.002 c -0.11556,0.718686 -1.40937,0.150564 -2.16602,0.167969 -5.71414,0.44843 -11.42758,0.899451 -17.14258,1.33789 -2.50734,0.192358 -5.01568,0.377358 -7.52343,0.570313 h 67.42773 c -0.9841,-0.709399 -1.94059,-1.466338 -2.91015,-2.201172 -0.31183,-0.0054 -0.62374,-0.0083 -0.93555,-0.01367 -17.04816,-0.291408 -11.85378,-0.133263 -23.05664,-0.554687 -4.32073,-0.162471 -8.64241,-0.323522 -12.96289,-0.501953 z M 185.12109,15.72656 c -0.61144,0.08899 -1.22094,0.192721 -1.83398,0.269532 -0.76937,0.0964 -1.54253,0.162325 -2.31445,0.236328 0.79755,0.524601 1.59445,1.000789 2.29101,1.302734 0.62114,-0.0416 1.24206,-0.08264 1.86328,-0.123047 0.0417,-0.104623 0.0723,-0.225936 0.084,-0.373047 0.036,-0.454567 -0.004,-0.889579 -0.0898,-1.3125 z m 0.006,1.685547 c -0.23973,0.601242 -0.95882,0.515111 -1.86328,0.123047 -0.34119,0.02285 -0.6823,0.04477 -1.02344,0.06836 -2.99541,0.207136 -3.42489,0.303652 -6.7832,0.40625 -0.21482,0.0066 -0.43787,0.0033 -0.65625,0.0059 h 12.87305 c 0.0235,-0.0064 0.0468,-0.01315 0.0703,-0.01953 0.0148,-0.04155 0.0322,-0.0814 0.0469,-0.123047 0.17666,-0.499497 0.15675,-0.314008 0.15039,-0.644531 -0.23051,0.01376 -0.46099,0.02849 -0.69141,0.04297 -0.70779,0.04672 -1.41521,0.09459 -2.12305,0.140625 z M 842.42983,16.29492 c -0.0905,0.0065 -0.18096,0.0149 -0.27149,0.02148 2.5e-4,0.0013 -2.4e-4,0.0026 0,0.0039 0.0172,0.08929 0.36219,-0.03199 0.27149,-0.02539 z m -656.10742,0.232422 c -0.41105,0.0342 -0.49424,-0.0389 -0.40039,0.164062 0.1595,-0.05102 0.26032,-0.110537 0.40039,-0.164062 z m 651.45117,0.138672 c -5.82962,0.461992 -11.65754,0.956916 -17.49219,1.349609 h 28.05469 c -1.42954,-0.122789 -2.82459,-0.255926 -4.66797,-0.490234 -5.56605,-0.70749 -4.19904,0.05257 -5.89453,-0.859375 z m 39.46679,0.220703 c -0.37496,0.141439 -0.76469,0.274529 -1.09765,0.423828 -1.02716,0.460579 -2.17642,0.611012 -3.33399,0.705078 h 4.43164 z m -395.44921,0.134765 c -4.60652,0.209932 -1.69241,0.0052 -13.14649,0.650391 -1.85171,0.104305 -3.70206,0.225769 -5.55273,0.34375 h 31.14258 c -3.78781,-0.292994 -7.57686,-0.610217 -11.3711,-0.798828 -0.41092,-0.02043 -0.68936,-0.150081 -1.07226,-0.195313 z m 384.74414,0.01367 c -0.56385,-0.04498 -0.85503,0.219351 -0.70704,0.980469 h 3.5 c -1.0425,-0.449876 -2.10412,-0.92552 -2.79296,-0.980469 z m -676.36133,0.259766 c 0.13279,-0.0569 -0.29035,0.04753 -0.41797,0.115234 -0.0363,0.01928 -0.0773,0.03664 -0.11524,0.05469 0.17842,-0.05448 0.36184,-0.09648 0.53321,-0.169922 z m -23.34375,0.248047 c -1.18657,0.0927 -2.37286,0.189061 -3.56055,0.265625 -1.39105,0.08967 -2.78336,0.14575 -4.17578,0.207031 h 14.51953 c -1.45293,-0.02433 -2.93366,-0.110827 -4.31445,-0.208984 -0.14768,-0.0105 -0.28897,-0.06403 -0.4336,-0.0957 0.34016,-0.191654 0.11025,-0.03569 -0.55468,-0.06641 -0.49377,-0.02281 -1.08766,0.195331 -1.48047,-0.101562 z" />
    </clipPath>
    <clipPath
       clipPathUnits="userSpaceOnUse"
       id="clipPath880">
      <path
         id="path882"
         style="fill:#ff0000;fill-opacity:1;fill-rule:nonzero;stroke:none"
         d="m -12.958984,-10.587891 v 37.294922 h 56.416015 v -7.68164 c -0.157071,-0.09805 -0.31093,-0.212412 -0.460937,-0.341797 -3.660408,-0.168359 -6.033829,-0.714461 -6.267578,-5.578125 -0.02266,-0.923635 -0.0023,-1.819702 0.06641,-2.744141 0.0073,-0.09838 0.01052,-0.198539 0.03906,-0.292969 0.0077,-0.02537 0.02309,0.100626 0.02539,0.07422 0.01421,-0.1645396 0.02029,-0.3292232 0.0293,-0.4941405 -0.171628,-0.6664088 -0.174202,-1.0642677 0.0039,-1.2617187 -0.08596,-0.9174609 -0.0034,-1.6106041 0.232422,-2.1738282 0.380036,-4.4416128 2.490956,-7.04049403 4.890625,-7.8046875 0.03468,-1.601643 0.09343,-3.20315 0.173828,-4.8027343 0.0028,-0.092246 0.0073,-0.1441843 0.0098,-0.2246094 -0.01273,-0.1626888 -0.132223,-0.4311585 0.01367,-0.4296875 0,0 0.002,0 0.002,0 0.03207,-0.4593173 0.115141,-0.6192433 0.449218,-0.6132813 0.173422,0.00309 0.445497,0.05432 0.792969,0.1230469 V -10.587891 Z M 38.535156,4.4101562 C 38.43765,4.3652475 38.271518,4.627962 38.087891,4.96875 c 0.159584,-0.1343567 0.332917,-0.2659198 0.521484,-0.3945312 -0.0015,-0.00779 -0.0024,-0.015652 -0.0039,-0.023438 -0.01568,-0.0816 -0.03957,-0.1264678 -0.07031,-0.140625 z m -1.490234,5.8476558 c -0.0069,-0.0091 -0.0098,0.261215 -0.01563,0.359376 0.0044,0.09257 0.0081,0.173667 0.01367,0.255859 -1.09e-4,-0.03101 1.09e-4,-0.03643 0,-0.07031 -5e-4,-0.174351 0.01956,-0.349634 0.0059,-0.523437 -0.0011,-0.014 -0.0029,-0.02017 -0.0039,-0.02149 z m 0.4375,1.1875 c -0.05898,0.158527 -0.102776,0.274042 -0.148438,0.402344 0.03285,0.05778 0.06643,0.117785 0.107422,0.181641 0.155638,0.242443 0.333353,0.46808 0.517578,0.689453 -0.177557,-0.464398 -0.336818,-0.891351 -0.476562,-1.273438 z" />
    </clipPath>
  </defs>
  <sodipodi:namedview
     id="namedview21"
     pagecolor="#ffffff"
     bordercolor="#666666"
     borderopacity="1.0"
     inkscape:pageshadow="2"
     inkscape:pageopacity="0.0"
     inkscape:pagecheckerboard="0"
     showgrid="false"
     inkscape:zoom="6.3280182"
     inkscape:cx="-6.400108"
     inkscape:cy="-33.738841"
     inkscape:window-width="2400"
     inkscape:window-height="1271"
     inkscape:window-x="2391"
     inkscape:window-y="-9"
     inkscape:window-maximized="1"
     inkscape:current-layer="svg19" />
  <path
     fill-rule="evenodd"
     clip-rule="evenodd"
     d="m 20.27,0.0761042 c 2.0823,-0.2887722 4.1945,0.2536598 5.88,1.5099958 0,-0.22666 0.02,-0.45666 0.06,-0.689996 0.06,-0.780001 0.39,-0.760001 0.82,-0.8200001 1.2256,-0.1701756 2.4739,-0.0537453 3.6469,0.3401391 1.173,0.393885 2.2386,1.054477 3.1131,1.929857 1.4446,1.409 2.2869,3.32303 2.35,5.34 0.009,0.44445 -0.0144,0.88896 -0.07,1.33 0.0416,0.35858 0.065,0.71905 0.07,1.08 0.0026,1.0506 -0.2038,2.0911 -0.6073,3.0611 -0.4034,0.97 -0.9958,1.8501 -1.7427,2.5889 -1.79,1.78 -4.25,2.06 -6.79,2.27 -0.2049,-0.0345 -0.394,-0.132 -0.541,-0.279 -0.147,-0.147 -0.2445,-0.3361 -0.279,-0.541 0,-0.2333 -0.02,-0.4633 -0.06,-0.69 -1.64,1.24 -3.73,1.35 -5.85,1.51 -0.21,-0.06 -0.76,-0.39 -0.82,-0.82 0,-0.22 0,-0.46 -0.06,-0.69 -1.67,1.24 -3.75,1.35 -5.87,1.51 -0.2049,-0.0345 -0.394,-0.132 -0.541,-0.279 -0.147,-0.147 -0.2445,-0.3361 -0.279,-0.541 -0.0486,-0.3646 -0.072,-0.7322 -0.07,-1.1 -0.0023,-1.1682 0.2538,-2.3224 0.75,-3.38 -0.3905,0.0602 -0.7849,0.0902 -1.18,0.09 C 11.0104,12.8464 9.8309,12.575 8.77846,12.019 7.72602,11.4629 6.83717,10.6415 6.2,9.6361 5.57,9.2961 5.57,8.8161 6.2,8.4761 6.83595,7.46885 7.72427,6.64544 8.77679,6.0876 9.82932,5.52977 11.0094,5.2569 12.2,5.2961 c 0.3953,0.00308 0.7898,0.03651 1.18,0.1 -0.5142,-1.1188 -0.7705,-2.33884 -0.75,-3.57 0.0045,-0.30781 0.0279,-0.61505 0.07,-0.919996 0.06,-0.78 0.39,-0.76 0.82,-0.8199992 C 15.5994,-0.20657 17.71,0.336368 19.39,1.5961 l 0.06,-0.689996 c 0.06,-0.799999 0.61,-0.77 0.82,-0.8299998 z M 30.36,9.0161 c -0.3419,-0.13087 -0.6545,-0.32798 -0.92,-0.58 -0.0618,0.18873 -0.1053,0.38295 -0.13,0.58 0.0153,0.22787 0.059,0.45293 0.13,0.67 0.287,-0.24917 0.5948,-0.47332 0.92,-0.67 z m -7.75,-0.58 c -0.0045,0.19419 -0.0212,0.3879 -0.05,0.58 0,0.25 0,0.46 0.05,0.67 0.32,-0.23 0.65,-0.44 1,-0.67 -0.3576,-0.15647 -0.6937,-0.35811 -1,-0.6 z m 9.83,6 c 0.5681,-0.5621 1.0182,-1.232 1.3239,-1.9704 0.3057,-0.7384 0.4607,-1.5304 0.4561,-2.3296 v -0.52 c -1.6357,0.32779 -3.1524,1.0914 -4.39,2.21 -0.5791,0.5726 -1.0356,1.2572 -1.3416,2.0119 -0.306,0.7547 -0.4552,1.5639 -0.4384,2.3781 1.64,-0.02 3.21,-1.05 4.39,-1.83 z m -6.75,0 c 0.5653,-0.5663 1.0134,-1.2384 1.3189,-1.9779 0.3054,-0.7395 0.4621,-1.532 0.4611,-2.3321 v -0.51 c -1.6372,0.32349 -3.155,1.0876 -4.39,2.21 -0.5689,0.5698 -1.0191,1.2468 -1.3246,1.9917 -0.3056,0.745 -0.4603,1.5431 -0.4554,2.3483 1.6111,-0.1297 3.1435,-0.751 4.39,-1.78 z m -11.15,1.73 c 1.6116,-0.1277 3.1445,-0.7493 4.39,-1.78 0.6177,-0.634 1.0953,-1.3906 1.4019,-2.2209 0.3067,-0.8304 0.4355,-1.7158 0.3781,-2.5991 -1.6112,0.30472 -3.0986,1.0727 -4.28,2.21 -0.6135,0.5517 -1.1002,1.2299 -1.4264,1.9877 -0.3263,0.7579 -0.4845,1.5775 -0.4636,2.4023 z m -6.7,-7.15 c 0.56821,0.58207 1.2471,1.0446 1.99673,1.3604 0.74967,0.3158 1.55487,0.4785 2.36827,0.4785 0.8134,0 1.6186,-0.1627 2.3683,-0.4785 C 15.3229,10.0607 16.0018,9.59817 16.57,9.0161 16.0028,8.43051 15.3237,7.96497 14.5729,7.64715 13.8222,7.32934 13.0152,7.16575 12.2,7.1661 11.3858,7.16249 10.5793,7.32464 9.82973,7.64269 9.08017,7.96074 8.40318,8.42803 7.84,9.0161 Z m 6.7,-7.22999 c -0.0261,0.84026 0.1292,1.67627 0.4554,2.45109 0.3261,0.77482 0.8155,1.47024 1.4346,2.0389 0.547,0.58247 1.2113,1.0423 1.9491,1.34913 0.7377,0.30684 1.5322,0.45369 2.3309,0.43087 v -0.38 C 20.6516,6.16383 20.0144,4.7318 18.93,3.6761 18.3543,3.1012 17.6692,2.64749 16.9152,2.34176 16.1612,2.03604 15.3535,1.88451 14.54,1.8961 Z m 8.54,4.48999 c 0.5726,0.57911 1.2572,1.03557 2.0119,1.34159 C 25.8466,7.92371 26.6558,8.07288 27.47,8.0561 27.5267,7.23625 27.3949,6.41429 27.0846,5.6533 26.7743,4.89232 26.2938,4.21253 25.68,3.6661 25.104,3.09644 24.4196,2.64807 23.6672,2.34748 22.9149,2.0469 22.11,1.90022 21.3,1.9161 c -0.011,0.81347 0.1408,1.62093 0.4464,2.37485 0.3057,0.75392 0.7592,1.43908 1.3336,2.01515 z m 6.75,0 c 0.5747,0.57629 1.2596,1.03091 2.0139,1.33673 0.7542,0.30582 1.5623,0.45658 2.3761,0.44327 v -0.39 C 34.1616,6.15382 33.5244,4.7218 32.44,3.6661 31.8639,3.09166 31.1788,2.63824 30.4248,2.33255 29.6709,2.02686 28.8635,1.87507 28.05,1.88611 c -0.0257,0.81985 0.1192,1.63611 0.4257,2.39699 0.3064,0.76088 0.7676,1.44978 1.3543,2.023 z M 11,1.01611 c 0,0.53 -0.43,0.66 -1,0.66 H 7.78 c -0.53,0 -0.55,-0.13 -0.55,-0.66 0,-0.530005 0,-1.0000047 0.55,-1.0000047 l 2.22,-10e-8 C 10.1352,2.43525e-5 10.2723,0.0148254 10.4009,0.0593944 10.5296,0.103963 10.6464,0.177139 10.7427,0.27341 10.839,0.369682 10.9121,0.486539 10.9567,0.615184 11.0013,0.743829 11.0161,0.88091 11,1.01611 Z M 3.91,9.0161 c 0,0.53 -0.43,0.53 -1,0.53 H 0.699999 c -0.53,0 -0.699999370236,0 -0.699999393403,-0.53 C -4.27061e-7,8.24611 0.169999,8.0161 0.699999,8.0161 H 3 c 0.48,0.07 0.91,0.26 0.91,1 z m 7.09,7.91 c 0.0125,0.1387 -0.004,0.2785 -0.0486,0.4104 -0.0447,0.1319 -0.1163,0.253 -0.2105,0.3556 -0.0941,0.1027 -0.2086,0.1845 -0.3362,0.2403 C 10.2771,17.9881 10.1393,18.0167 10,18.0161 H 7.78 c -0.53,0 -0.55,-0.43 -0.55,-1.09 0,-0.66 0,-0.82 0.55,-0.82 H 10 c 0.56,0 1,0.05 1,0.82 z M 865.44,9.85607 39.29,9.8561 C 39.1811,9.85618 39.0732,9.83427 38.9729,9.79171 38.8727,9.74914 38.782,9.68677 38.7064,9.60835 38.6307,9.52993 38.5717,9.43706 38.5328,9.3353 38.4939,9.23354 38.476,9.12497 38.48,9.0161 38.48,8.80035 38.565,8.59328 38.7166,8.43978 38.8682,8.28629 39.0743,8.19873 39.29,8.1961 l 826.15,-3e-5 c 0.108,0 0.214,0.02121 0.314,0.06242 0.099,0.04121 0.19,0.10161 0.266,0.17775 0.076,0.07614 0.136,0.16654 0.178,0.26603 0.041,0.09948 0.062,0.20611 0.062,0.3138 0.003,0.10935 -0.017,0.21814 -0.057,0.31994 -0.04,0.10181 -0.1,0.19458 -0.176,0.27286 -0.076,0.07827 -0.168,0.14047 -0.269,0.18292 -0.1,0.04246 -0.209,0.06431 -0.318,0.06428 z m 0.91,4.09003 c -0.076,-0.0753 -0.136,-0.1649 -0.177,-0.2636 -0.041,-0.0987 -0.063,-0.2045 -0.063,-0.3114 0,-0.1069 0.022,-0.2128 0.063,-0.3115 0.041,-0.0986 0.101,-0.1882 0.177,-0.2635 l 3.75,-3.78003 -3.75,-3.75 c -0.132,-0.15661 -0.201,-0.35692 -0.192,-0.56153 0.008,-0.20462 0.093,-0.39874 0.237,-0.54417 0.144,-0.14543 0.337,-0.23165 0.542,-0.2417 0.204,-0.01005 0.405,0.0568 0.563,0.1874 l 4.33,4.33 c 0.076,0.07529 0.136,0.16487 0.177,0.26356 0.041,0.09868 0.062,0.20453 0.062,0.31144 0,0.1069 -0.021,0.21275 -0.062,0.31144 -0.041,0.09869 -0.101,0.18826 -0.177,0.26356 l -4.33,4.36003 c -0.075,0.0759 -0.165,0.1361 -0.264,0.1772 -0.098,0.0411 -0.204,0.0623 -0.311,0.0623 -0.107,0 -0.213,-0.0212 -0.311,-0.0623 -0.099,-0.0411 -0.189,-0.1013 -0.264,-0.1772 z m 5.14,0 c -0.076,-0.0753 -0.136,-0.1649 -0.177,-0.2636 -0.041,-0.0987 -0.063,-0.2045 -0.063,-0.3114 0,-0.1069 0.022,-0.2128 0.063,-0.3115 0.041,-0.0986 0.101,-0.1882 0.177,-0.2635 l 4,-3.75003 -4,-3.75 c -0.088,-0.07262 -0.159,-0.1627 -0.21,-0.26452 -0.051,-0.10182 -0.08,-0.21313 -0.086,-0.32686 -0.006,-0.11373 0.012,-0.22737 0.053,-0.33369 0.041,-0.10633 0.103,-0.203 0.184,-0.28386 0.08,-0.08086 0.176,-0.14414 0.282,-0.18581 0.106,-0.04167 0.219,-0.06081 0.333,-0.05621 0.114,0.0046 0.225,0.03285 0.328,0.08294 0.102,0.05009 0.193,0.12093 0.266,0.20801 l 4.36,4.33 c 0.076,0.07617 0.137,0.1666 0.178,0.26612 0.041,0.09952 0.062,0.20617 0.062,0.31388 0,0.10618 -0.021,0.21126 -0.063,0.30913 -0.041,0.09786 -0.101,0.18654 -0.177,0.26087 l -4.33,4.33003 c -0.076,0.0805 -0.167,0.1447 -0.269,0.1885 -0.101,0.0439 -0.21,0.0665 -0.321,0.0665 -0.111,0 -0.22,-0.0226 -0.321,-0.0665 -0.102,-0.0438 -0.193,-0.108 -0.269,-0.1885 z"
     fill="#c6c8f7"
     id="path17"
     clip-path="url(#clipPath865)" />
  <rect
     id="rect127"
     width="16.784594"
     height="13.479635"
     x="21.299999"
     y="2.686465"
     clip-path="url(#clipPath739)" />
  <rect
     id="rect129"
     width="9.7976961"
     height="0.94816417"
     x="57.521957"
     y="15.170627"
     clip-path="url(#clipPath749)" />
  <rect
     id="rect131"
     width="2.6677179"
     height="20.236042"
     x="30.360001"
     y="-11.219942" />
  <rect
     id="rect133"
     width="127.21202"
     height="3.4766018"
     x="-80.435928"
     y="-18.805256" />
  <rect
     id="rect135"
     width="56.415768"
     height="37.294456"
     x="-12.958243"
     y="-10.587833"
     clip-path="url(#clipPath880)" />
</svg>
