<svg width="131" height="25" viewBox="0 0 131 25" fill="none" xmlns="http://www.w3.org/2000/svg">
<g clip-path="url(#clip0_1_433)">
<path d="M1.52862 5.54428C0.688756 5.54428 0.00683594 4.86236 0.00683594 4.02227C0.00683594 3.18252 0.688756 2.50049 1.52862 2.50049H19.5035C20.3432 2.50049 21.0253 3.18252 21.0253 4.02227C21.0253 4.86236 20.3433 5.54428 19.5035 5.54428H1.52862ZM18.4632 17.8975C19.0729 17.3235 20.0341 17.3521 20.608 17.9622C21.1819 18.5723 21.1534 19.5331 20.5433 20.107C19.1378 21.4264 17.549 22.4774 15.8365 23.1915C14.1613 23.8891 12.3698 24.2675 10.5162 24.2675C8.6622 24.2675 6.8708 23.8891 5.19544 23.1915C3.48301 22.4774 1.89431 21.4264 0.488691 20.107C-0.121376 19.5331 -0.149956 18.5723 0.423954 17.9622C0.997864 17.3521 1.95905 17.3235 2.56877 17.8975C3.70856 18.9676 4.98815 19.8158 6.36025 20.3875C7.66176 20.9293 9.06015 21.2241 10.5162 21.2241C11.9718 21.2241 13.3702 20.9293 14.6717 20.3875C16.0438 19.8159 17.3235 18.9676 18.4632 17.8975ZM18.8612 10.1385C19.6183 9.78386 20.5218 10.1121 20.8765 10.8696C21.2312 11.6267 20.9029 12.5303 20.1458 12.8849C18.7639 13.5333 17.2171 14.0474 15.562 14.3913C13.9625 14.7245 12.2621 14.9054 10.5162 14.9054C8.76999 14.9054 7.0696 14.7245 5.47 14.3913C3.81519 14.0473 2.26678 13.532 0.886296 12.8849C0.129194 12.5303 -0.199083 11.6267 0.155479 10.8696C0.510155 10.1121 1.41372 9.78386 2.17117 10.1385C3.33563 10.6851 4.65757 11.1224 6.08822 11.4195C7.46388 11.7059 8.95467 11.8618 10.5162 11.8618C12.0773 11.8618 13.5681 11.7059 14.9438 11.4195C16.3744 11.1223 17.6973 10.6838 18.8612 10.1385Z" fill="#FB4247"/>
<path d="M41.8866 9.85119C41.244 9.46139 40.538 9.1501 39.7685 8.9164C38.9993 8.68282 38.2637 8.56563 37.5625 8.56563C36.7445 8.56563 36.0869 8.71634 35.5904 9.01856C35.0936 9.32055 34.8453 9.78324 34.8453 10.4063C34.8453 11.0297 35.1229 11.5021 35.678 11.8233C36.2331 12.145 37.0758 12.4711 38.2051 12.8023C39.2766 13.114 40.1531 13.4257 40.8348 13.7371C41.5167 14.0488 42.0962 14.5063 42.5733 15.1105C43.0505 15.7144 43.289 16.5128 43.289 17.5061C43.289 18.9669 42.7389 20.0775 41.6385 20.8369C40.5381 21.5966 39.1693 21.9766 37.5333 21.9766C36.3841 21.9766 35.2688 21.7915 34.1879 21.4212C33.107 21.0513 32.1963 20.5255 31.4561 19.8435L32.4786 17.8568C33.1212 18.4411 33.9151 18.9088 34.86 19.2591C35.8046 19.6098 36.725 19.7852 37.6208 19.7852C38.5171 19.7852 39.2375 19.6196 39.7828 19.2883C40.3285 18.9572 40.6011 18.4509 40.6011 17.7692C40.6011 17.0676 40.3138 16.5419 39.7392 16.1912C39.1646 15.8407 38.2926 15.49 37.1242 15.1397C36.0919 14.8471 35.2495 14.5501 34.5967 14.2485C33.9444 13.9465 33.389 13.5034 32.9315 12.9191C32.4737 12.3347 32.2446 11.5753 32.2446 10.6399C32.2446 9.19842 32.7708 8.11763 33.8223 7.39692C34.8741 6.6762 36.189 6.31579 37.7667 6.31579C38.7018 6.31579 39.6222 6.44721 40.5277 6.71006C41.4336 6.97291 42.2177 7.32897 42.8799 7.77662L41.8866 9.85119ZM60.2357 9.76338C60.742 8.65321 61.4627 7.81082 62.3974 7.23588C63.3325 6.66162 64.443 6.36457 65.7281 6.34506V8.97471C64.1505 8.91652 62.8746 9.32514 61.9008 10.2017C60.927 11.0783 60.3719 12.2568 60.2356 13.7371V21.8888H57.5181V6.43263H60.2356V9.76338H60.2357ZM109.614 6.43263H112.331V21.8888H109.614V6.43263ZM110.957 0.267578C111.444 0.267578 111.849 0.433553 112.17 0.764699C112.491 1.09562 112.652 1.51434 112.652 2.02064C112.652 2.52729 112.491 2.94636 112.17 3.27716C111.849 3.60842 111.444 3.77371 110.957 3.77371C110.47 3.77371 110.066 3.60842 109.745 3.27716C109.423 2.94625 109.263 2.52718 109.263 2.02064C109.263 1.51434 109.423 1.09562 109.745 0.764699C110.066 0.433553 110.47 0.267578 110.957 0.267578ZM128.459 10.5524C127.232 9.36417 125.761 8.7704 124.047 8.7704C123.034 8.7704 122.133 8.99422 121.344 9.44233C120.556 9.89044 119.937 10.5236 119.489 11.3412C119.041 12.1595 118.817 13.104 118.817 14.1755C118.817 15.2465 119.036 16.1914 119.474 17.0098C119.913 17.8277 120.517 18.4658 121.286 18.9233C122.055 19.3814 122.937 19.6102 123.93 19.6102C124.923 19.6102 125.82 19.4446 126.618 19.1136C127.417 18.7821 128.079 18.3051 128.605 17.6816L130.153 19.2593C129.452 20.1358 128.561 20.8077 127.48 21.2752C126.399 21.7431 125.177 21.9766 123.813 21.9766C122.313 21.9766 120.979 21.6452 119.811 20.983C118.642 20.3209 117.731 19.4004 117.079 18.2219C116.426 17.0434 116.1 15.6947 116.1 14.1753C116.1 12.6558 116.426 11.3023 117.079 10.114C117.731 8.92581 118.642 8.00079 119.811 7.33838C120.979 6.6762 122.313 6.34506 123.813 6.34506C125.118 6.34506 126.292 6.54489 127.334 6.9441C128.376 7.34332 129.248 7.92285 129.949 8.68282L128.459 10.5524ZM54.2164 20.8666C53.0285 21.626 51.8403 22.006 50.6521 22.006C49.4053 22.006 48.3973 21.5772 47.6282 20.7201C46.8587 19.863 46.4738 18.6264 46.4738 17.0097V2.80966H49.1913V6.95868H53.9537V9.03325H49.1913V16.5128C49.1913 18.4998 49.8342 19.4929 51.1194 19.4929C51.8403 19.4929 52.6293 19.2499 53.4861 18.7627L54.2164 20.8666ZM83.0546 6.43263V21.8888H80.3371V18.8795C79.7528 19.8921 78.9739 20.6713 77.9997 21.2169C77.0259 21.7622 75.8865 22.0348 74.581 22.0348C73.1204 22.0348 71.8301 21.6991 70.7098 21.0269C69.5899 20.355 68.7185 19.4203 68.0948 18.2219C67.4718 17.0243 67.16 15.6557 67.16 14.1171C67.16 12.5976 67.4718 11.2487 68.0948 10.0702C68.7185 8.89172 69.5951 7.97152 70.7245 7.30911C71.8542 6.64693 73.1399 6.31579 74.581 6.31579C75.8865 6.31579 77.0259 6.58392 77.9997 7.11938C78.9739 7.65495 79.7528 8.42927 80.3371 9.44222V6.43263H83.0546ZM75.1365 19.6974C76.5778 19.6974 77.7709 19.2448 78.7158 18.3391C79.66 17.4332 80.2008 16.2498 80.3371 14.789V13.6203C80.2008 12.1593 79.66 10.9715 78.7158 10.0558C77.7709 9.14034 76.5778 8.68282 75.1365 8.68282C74.1236 8.68282 73.2226 8.92099 72.4337 9.39837C71.645 9.87564 71.0265 10.5332 70.5785 11.3708C70.1308 12.2082 69.9067 13.1531 69.9067 14.2048C69.9067 15.2566 70.1308 16.2012 70.5785 17.0387C71.0265 17.8762 71.645 18.5289 72.4337 18.9964C73.2227 19.4638 74.1236 19.6974 75.1365 19.6974ZM95.6766 20.8666C94.4884 21.626 93.3001 22.006 92.1123 22.006C90.8655 22.006 89.8575 21.5772 89.088 20.7201C88.3185 19.863 87.934 18.6264 87.934 17.0097V2.80966H90.6511V6.95868H95.4134V9.03325H90.6511V16.5128C90.6511 18.4998 91.294 19.4929 92.5795 19.4929C93.3003 19.4929 94.0893 19.2499 94.9459 18.7627L95.6766 20.8666ZM106.312 20.8666C105.124 21.626 103.935 22.006 102.748 22.006C101.501 22.006 100.493 21.5772 99.7232 20.7201C98.9537 19.863 98.5692 18.6264 98.5692 17.0097V2.80966H101.286V6.95868H106.049V9.03325H101.286V16.5128C101.286 18.4998 101.929 19.4929 103.215 19.4929C103.936 19.4929 104.725 19.2499 105.581 18.7627L106.312 20.8666Z" fill="white"/>
</g>
<defs>
<clipPath id="clip0_1_433">
<rect width="130.147" height="24" fill="white" transform="translate(0.00683594 0.267578)"/>
</clipPath>
</defs>
</svg>
