<svg width="79" height="76" viewBox="0 0 79 76" fill="none" xmlns="http://www.w3.org/2000/svg">
<g clip-path="url(#clip0_14:3)">
<path d="M58.5848 76H18.4821C15.1297 75.9981 11.915 74.6466 9.54381 72.2424C7.17263 69.8382 5.83874 66.5776 5.83496 63.1766C5.92008 62.4754 6.25498 61.8301 6.77659 61.3621C7.2982 60.8941 7.97051 60.6357 8.66684 60.6357C9.36317 60.6357 10.0355 60.8941 10.5571 61.3621C11.0787 61.8301 11.4136 62.4754 11.4987 63.1766C11.5006 65.055 12.2369 66.8559 13.5462 68.1841C14.8554 69.5124 16.6306 70.2593 18.4821 70.2612H58.5848C60.4364 70.2593 62.2115 69.5124 63.5208 68.1841C64.83 66.8559 65.5664 65.055 65.5683 63.1766C65.5146 62.7678 65.5476 62.352 65.6652 61.9572C65.7828 61.5624 65.9821 61.1977 66.2499 60.8874C66.5177 60.5772 66.8478 60.3285 67.218 60.1582C67.5882 59.9879 67.99 59.8997 68.3965 59.8997C68.803 59.8997 69.2048 59.9879 69.5751 60.1582C69.9453 60.3285 70.2754 60.5772 70.5432 60.8874C70.811 61.1977 71.0103 61.5624 71.1279 61.9572C71.2454 62.352 71.2785 62.7678 71.2249 63.1766C71.2211 66.5764 69.8882 69.8358 67.5185 72.2398C65.1489 74.6439 61.936 75.9962 58.5848 76Z" fill="white"/>
<path d="M7.15458 57.4885C6.98345 57.5578 6.79882 57.5858 6.6152 57.5704C6.43158 57.555 6.25398 57.4967 6.09636 57.3999C5.93874 57.3031 5.80539 57.1705 5.70681 57.0126C5.60823 56.8547 5.5471 56.6758 5.52822 56.4899L0.049917 33.3324C-0.156945 32.464 0.256787 31.885 1.28397 31.6534C4.87909 30.8091 8.50038 30.0854 12.1478 29.4824C15.3934 28.8817 19.281 28.7587 22.2127 30.4159C24.6665 31.7837 25.8792 34.8014 26.1074 37.5224C26.3357 40.2434 25.7437 43.3118 23.7606 45.2367C21.5208 47.4077 18.2039 48.1314 15.2507 48.7031C14.1522 48.8841 13.6101 48.9781 12.5116 49.1807L13.5174 54.782C13.5751 54.9592 13.5914 55.1476 13.5648 55.3323C13.5383 55.517 13.4696 55.6929 13.3644 55.846C13.2592 55.9992 13.1202 56.1253 12.9586 56.2144C12.7969 56.3035 12.617 56.3532 12.4331 56.3596C10.6712 56.7286 8.90221 57.0688 7.15458 57.4885ZM14.0595 42.0598C15.0109 41.9905 15.9122 41.6008 16.6203 40.9526C16.8698 40.614 17.0431 40.2241 17.1281 39.8102C17.2132 39.3964 17.2078 38.9688 17.1125 38.5572C17.0977 38.1295 16.9857 37.711 16.7852 37.3345C16.5848 36.9579 16.3013 36.6334 15.9569 36.3862C15.0613 35.9776 14.0557 35.8883 13.1037 36.133C11.9695 36.3284 11.3988 36.4296 10.2504 36.6395L11.3132 42.5302C12.4117 42.342 12.961 42.2552 14.0595 42.0598Z" fill="white"/>
<path d="M43.8334 27.2028C44.2337 27.1733 44.6324 27.2796 44.9668 27.5049C45.3012 27.7302 45.5523 28.0618 45.6809 28.4476C48.3844 36.408 50.7312 44.4335 52.7213 52.6037C52.7947 52.7915 52.8213 52.9947 52.7989 53.1953C52.7765 53.396 52.7058 53.588 52.5929 53.7543C52.4702 53.8977 52.3133 54.0069 52.1373 54.0715C51.9612 54.1361 51.7719 54.1539 51.5871 54.1234C49.704 53.9715 47.8137 53.8556 45.9305 53.7905C45.5536 53.8089 45.183 53.6876 44.8877 53.4493C44.5924 53.211 44.3926 52.8719 44.3256 52.4952C44.026 51.3373 43.869 50.7511 43.5623 49.6005C41.1228 49.5426 38.6832 49.5426 36.2437 49.6005C35.9512 50.7584 35.8085 51.3445 35.5304 52.4952C35.4714 52.8766 35.2773 53.223 34.9844 53.4695C34.6915 53.7161 34.32 53.8456 33.9396 53.8339C32.0565 53.9063 30.1662 54.0293 28.283 54.1885C28.0983 54.219 27.9089 54.2012 27.7329 54.1366C27.5568 54.072 27.4 53.9628 27.2773 53.8195C27.1627 53.654 27.0903 53.4623 27.0666 53.2615C27.043 53.0607 27.0688 52.857 27.1417 52.6688C29.1105 44.501 31.4312 36.4417 34.1037 28.4909C34.2317 28.1058 34.4815 27.7742 34.8143 27.5478C35.1471 27.3215 35.5442 27.2129 35.9441 27.239C38.5691 27.1666 41.1941 27.1594 43.8334 27.2028ZM42.2641 42.9065C41.5508 40.3158 40.7661 37.7467 39.9815 35.1777H39.8531C39.0161 37.7491 38.21 40.3278 37.4349 42.9138C39.368 42.8776 40.3595 42.8776 42.2641 42.9065Z" fill="white"/>
<path d="M73.7429 54.4925C72.51 55.4865 71.0274 56.1107 69.463 56.2944C67.7325 56.495 65.9821 56.4316 64.2701 56.1063C61.1885 55.5418 58.1284 54.753 55.4106 53.0089C55.2536 52.9392 55.113 52.8362 54.9983 52.707C54.8836 52.5777 54.7973 52.4251 54.7453 52.2594C54.6934 52.0936 54.6768 51.9186 54.6968 51.7459C54.7169 51.5731 54.773 51.4066 54.8614 51.2576C55.5248 49.9261 55.8672 49.2603 56.552 47.936C56.6171 47.7547 56.7229 47.5913 56.861 47.4587C56.999 47.326 57.1656 47.2277 57.3476 47.1716C57.5295 47.1154 57.7218 47.103 57.9093 47.1352C58.0968 47.1674 58.2744 47.2433 58.428 47.3571C60.0891 48.2897 61.8966 48.9238 63.7707 49.2314C66.353 49.6222 67.751 49.3834 67.9365 48.3485C68.015 47.9071 67.7867 47.4728 67.2232 47.0459C66.3243 46.4057 65.3692 45.8509 64.3699 45.3886C63.3927 44.911 62.5724 44.4913 61.9232 44.1367C61.1756 43.7087 60.4603 43.2249 59.7833 42.6894C59.0687 42.169 58.4382 41.5392 57.9144 40.8223C57.427 40.0978 57.0629 39.2954 56.8373 38.4487C56.5665 37.4307 56.4891 36.3698 56.6091 35.3224C57.2582 28.8094 64.2843 28.2594 69.2918 29.2363C72.4019 29.837 75.7117 30.7344 78.2796 32.7968C79.05 33.383 79.1856 33.9981 78.7148 34.6276C77.8445 35.7783 77.4165 36.3572 76.5748 37.5223C76.4667 37.6893 76.3256 37.8318 76.1605 37.9408C75.9954 38.0498 75.8098 38.1229 75.6155 38.1555C75.4211 38.1882 75.2222 38.1796 75.0313 38.1305C74.8404 38.0813 74.6616 37.9924 74.5062 37.8697C72.8333 36.9628 71.0266 36.3371 69.1563 36.0171C68.3423 35.8488 67.5091 35.7977 66.6811 35.8652C66.4316 35.8724 66.1932 35.9708 66.0096 36.1424C65.8261 36.314 65.7099 36.547 65.6824 36.7987C65.6111 37.2473 65.8679 37.6888 66.3958 38.1375C67.3298 38.8039 68.3068 39.4059 69.3203 39.9395C70.0337 40.3085 70.3333 40.5039 71.0038 40.8874C71.3105 41.0611 71.8027 41.3578 72.4732 41.792C72.9796 42.0938 73.4572 42.4427 73.8999 42.8341L74.9912 43.9197C75.3804 44.2817 75.6934 44.7198 75.9114 45.2077C76.0755 45.5985 76.2395 46.0617 76.4107 46.59C76.579 47.1348 76.6467 47.7064 76.6105 48.2761C76.5721 48.9203 76.4766 49.5597 76.3251 50.1866C75.985 51.8832 75.0717 53.4062 73.7429 54.4925Z" fill="white"/>
<path d="M7.48273 27.7167C6.73851 27.7175 6.00371 27.5478 5.33313 27.2204C4.66256 26.8929 4.07351 26.4161 3.60994 25.8254C3.14637 25.2348 2.82024 24.5455 2.65588 23.8092C2.49152 23.0728 2.49316 22.3083 2.66069 21.5727C5.59243 9.07488 20.672 0 38.5335 0C56.1952 0 71.2534 8.95185 74.3349 21.2905C74.5553 22.1793 74.5317 23.1123 74.2667 23.9886C74.0018 24.8648 73.5055 25.6508 72.8317 26.2614C72.1578 26.8719 71.3322 27.2838 70.4441 27.4523C69.5561 27.6208 68.6396 27.5395 67.7938 27.2173C51.7941 21.1167 27.1346 21.2109 9.08055 27.4489C8.56611 27.6268 8.02624 27.7173 7.48273 27.7167ZM38.5335 5.73876C24.1886 5.73876 11.6414 12.4616 8.5741 21.5871C18.4594 18.5223 28.739 16.9664 39.0756 16.9702C49.8966 16.9123 60.2612 18.4609 68.4643 21.3122C67.0377 17.2958 63.6637 13.6123 58.8773 10.8117C53.1993 7.55518 46.0019 5.73876 38.5335 5.73876Z" fill="white"/>
<path d="M21.5208 66.6936C21.528 66.7438 21.5235 66.7949 21.5078 66.843C21.4921 66.8911 21.4655 66.9348 21.4301 66.9707C21.3948 67.0065 21.3517 67.0335 21.3043 67.0495C21.2569 67.0654 21.2065 67.07 21.157 67.0627H19.6733C19.6239 67.07 19.5735 67.0654 19.526 67.0495C19.4786 67.0335 19.4355 67.0065 19.4002 66.9707C19.3649 66.9348 19.3383 66.8911 19.3226 66.843C19.3068 66.7949 19.3024 66.7438 19.3095 66.6936V64.3923L17.0983 60.2819C17.0706 60.2349 17.056 60.181 17.056 60.1263C17.056 60.0715 17.0706 60.0177 17.0983 59.9707C17.1213 59.9228 17.1583 59.8833 17.2042 59.8574C17.2502 59.8316 17.3028 59.8206 17.355 59.826H18.8887C18.9938 59.8226 19.0973 59.853 19.1844 59.9127C19.2715 59.9725 19.3377 60.0586 19.3737 60.1589L20.087 61.7871L20.408 62.6772H20.4508L20.7718 61.7871L21.4852 60.1589C21.5212 60.0586 21.5874 59.9725 21.6745 59.9127C21.7616 59.853 21.8651 59.8226 21.9702 59.826H23.5038C23.5561 59.8206 23.6087 59.8316 23.6547 59.8574C23.7006 59.8833 23.7376 59.9228 23.7606 59.9707C23.7869 60.0182 23.8007 60.0718 23.8007 60.1263C23.8007 60.1807 23.7869 60.2344 23.7606 60.2819L21.5422 64.3923L21.5208 66.6936Z" fill="white"/>
<path d="M24.6665 60.1951C24.6594 60.1449 24.6638 60.0937 24.6796 60.0456C24.6953 59.9975 24.7219 59.9538 24.7572 59.918C24.7926 59.8821 24.8356 59.8551 24.8831 59.8392C24.9305 59.8232 24.9809 59.8187 25.0303 59.826H26.4998C26.5492 59.8187 26.5996 59.8232 26.6471 59.8392C26.6945 59.8551 26.7376 59.8821 26.7729 59.918C26.8082 59.9538 26.8348 59.9975 26.8505 60.0456C26.8663 60.0937 26.8707 60.1449 26.8636 60.1951V66.7081C26.8707 66.7583 26.8663 66.8094 26.8505 66.8575C26.8348 66.9056 26.8082 66.9493 26.7729 66.9851C26.7376 67.021 26.6945 67.048 26.6471 67.0639C26.5996 67.0799 26.5492 67.0845 26.4998 67.0772H25.0303C24.9809 67.0845 24.9305 67.0799 24.8831 67.0639C24.8356 67.048 24.7926 67.021 24.7572 66.9851C24.7219 66.9493 24.6953 66.9056 24.6796 66.8575C24.6638 66.8094 24.6594 66.7583 24.6665 66.7081V60.1951Z" fill="white"/>
<path d="M33.0765 66.2305C32.8166 66.5677 32.4642 66.8195 32.0636 66.9541C31.6164 67.099 31.1491 67.1699 30.6798 67.164C29.8278 67.203 28.9797 67.0264 28.2117 66.6502C28.1673 66.6362 28.1264 66.6126 28.0918 66.5811C28.0572 66.5495 28.0299 66.5108 28.0116 66.4674C27.9932 66.424 27.9844 66.3772 27.9857 66.33C27.987 66.2829 27.9984 66.2365 28.0191 66.1942L28.3686 65.2463C28.4613 65.0075 28.6183 64.9351 28.8323 65.0291C29.284 65.2229 29.7685 65.3261 30.2589 65.3331C30.9366 65.3331 31.2718 65.1956 31.2718 64.9062C31.2657 64.8371 31.2412 64.771 31.201 64.7149C31.1608 64.6589 31.1064 64.6149 31.0436 64.5877C30.7934 64.4602 30.5334 64.3537 30.266 64.2693C30.0021 64.1825 29.7881 64.1028 29.6098 64.0305C29.4072 63.9422 29.2116 63.8382 29.0249 63.7193C28.8318 63.6006 28.6585 63.4516 28.5113 63.2779C28.3705 63.093 28.2619 62.8848 28.1903 62.6627C28.1011 62.3923 28.0577 62.1085 28.0619 61.8233C28.0619 60.4146 28.9773 59.7078 30.8081 59.7029C31.5607 59.6732 32.3086 59.8349 32.9838 60.1733C33.0277 60.1891 33.068 60.214 33.1019 60.2465C33.1358 60.2789 33.1627 60.3182 33.1809 60.3618C33.199 60.4054 33.2079 60.4523 33.2072 60.4996C33.2064 60.5469 33.1959 60.5935 33.1764 60.6365L32.834 61.5338C32.8209 61.5813 32.7978 61.6253 32.7663 61.6628C32.7348 61.7003 32.6957 61.7304 32.6516 61.7511C32.6075 61.7717 32.5595 61.7824 32.5109 61.7823C32.4624 61.7823 32.4144 61.7716 32.3703 61.7509C31.9428 61.605 31.4946 61.5317 31.0436 61.5338C30.846 61.5248 30.6483 61.5492 30.4586 61.6062C30.3965 61.6244 30.3427 61.664 30.3062 61.7181C30.2698 61.7723 30.253 61.8376 30.2589 61.9029C30.2639 61.9723 30.287 62.039 30.3259 62.0962C30.3647 62.1535 30.4179 62.1991 30.48 62.2285C30.7276 62.3643 30.9852 62.4804 31.2504 62.5759L31.6998 62.7424L32.0921 62.9088C32.2266 62.9637 32.3556 63.0315 32.4773 63.1114C32.5558 63.1621 32.6628 63.2345 32.7912 63.3358C32.9065 63.4088 33.0059 63.5049 33.0836 63.618C33.1478 63.7121 33.212 63.8279 33.2834 63.9581C33.3573 64.0925 33.4057 64.2398 33.426 64.3923C33.4558 64.5643 33.4701 64.7388 33.4688 64.9134C33.4894 65.3849 33.351 65.8494 33.0765 66.2305Z" fill="white"/>
<path d="M37.4135 59.826C38.22 59.7673 39.0234 59.9755 39.7033 60.4193C39.975 60.669 40.1856 60.9795 40.3181 61.3263C40.4506 61.6731 40.5014 62.0465 40.4665 62.4167C40.5027 62.8702 40.3975 63.3238 40.1659 63.7133C39.9342 64.1029 39.5877 64.4087 39.1754 64.5877L40.3881 66.614C40.4206 66.6593 40.4421 66.7118 40.4508 66.7671C40.4595 66.8225 40.4551 66.8791 40.438 66.9324C40.4149 66.9803 40.378 67.0199 40.332 67.0457C40.2861 67.0716 40.2335 67.0826 40.1812 67.0772H38.7118C38.6096 67.0798 38.5087 67.0534 38.4205 67.0009C38.3323 66.9485 38.2602 66.8721 38.2125 66.7804L37.171 64.9278H36.6574V66.7081C36.6646 66.7583 36.6602 66.8094 36.6444 66.8575C36.6287 66.9056 36.6021 66.9493 36.5667 66.9851C36.5314 67.021 36.4883 67.048 36.4409 67.0639C36.3935 67.0799 36.3431 67.0845 36.2936 67.0772H34.867C34.8175 67.0845 34.7671 67.0799 34.7197 67.0639C34.6723 67.048 34.6292 67.021 34.5939 66.9851C34.5586 66.9493 34.532 66.9056 34.5162 66.8575C34.5005 66.8094 34.496 66.7583 34.5032 66.7081V60.195C34.496 60.1449 34.5005 60.0937 34.5162 60.0456C34.532 59.9975 34.5586 59.9538 34.5939 59.9179C34.6292 59.8821 34.6723 59.8551 34.7197 59.8391C34.7671 59.8232 34.8175 59.8187 34.867 59.826H37.4135ZM37.4135 63.1766C37.6534 63.2 37.8937 63.1358 38.0912 62.9957C38.1655 62.9205 38.2226 62.8296 38.2584 62.7296C38.2941 62.6295 38.3077 62.5227 38.2981 62.4167C38.3108 62.3089 38.2994 62.1996 38.2648 62.0969C38.2303 61.9942 38.1733 61.9007 38.0983 61.8233C37.8846 61.6914 37.6336 61.6353 37.385 61.664H36.6717V63.1766H37.4135Z" fill="white"/>
<path d="M47.0362 60.6147C47.5981 61.4469 47.8988 62.432 47.8988 63.4407C47.8988 64.4494 47.5981 65.4345 47.0362 66.2667C46.364 66.8549 45.5058 67.1785 44.6181 67.1785C43.7303 67.1785 42.8721 66.8549 42.1999 66.2667C41.6333 65.4364 41.3297 64.4505 41.3297 63.4407C41.3297 62.4309 41.6333 61.445 42.1999 60.6147C42.8721 60.0265 43.7303 59.7028 44.6181 59.7028C45.5058 59.7028 46.364 60.0265 47.0362 60.6147ZM45.4098 64.8554C45.6248 64.4059 45.716 63.9059 45.6738 63.4081C45.7178 62.9103 45.6265 62.4097 45.4098 61.9608C45.3297 61.8223 45.2132 61.7091 45.0735 61.6337C44.9337 61.5584 44.776 61.5238 44.6181 61.5338C44.4591 61.524 44.3006 61.5586 44.1597 61.6339C44.0189 61.7092 43.9011 61.8223 43.8191 61.9608C43.6062 62.4109 43.5151 62.9104 43.5552 63.4081C43.5168 63.9057 43.6078 64.4047 43.8191 64.8554C43.9022 64.9929 44.0203 65.105 44.1608 65.1802C44.3014 65.2553 44.4594 65.2906 44.6181 65.2824C44.7758 65.2908 44.9328 65.2556 45.0723 65.1804C45.2118 65.1051 45.3285 64.9928 45.4098 64.8554Z" fill="white"/>
<path d="M51.1235 64.2693V65.2173H53.5987C53.6481 65.21 53.6986 65.2146 53.746 65.2306C53.7934 65.2465 53.8365 65.2735 53.8718 65.3094C53.9071 65.3452 53.9337 65.3889 53.9495 65.437C53.9652 65.4851 53.9697 65.5362 53.9625 65.5864V66.6936C53.9697 66.7438 53.9652 66.7949 53.9495 66.843C53.9337 66.8911 53.9071 66.9348 53.8718 66.9707C53.8365 67.0065 53.7934 67.0335 53.746 67.0495C53.6986 67.0654 53.6481 67.07 53.5987 67.0627H49.3188C49.2694 67.07 49.2189 67.0654 49.1715 67.0495C49.1241 67.0335 49.081 67.0065 49.0457 66.9707C49.0104 66.9348 48.9838 66.8911 48.968 66.843C48.9523 66.7949 48.9478 66.7438 48.955 66.6936V60.1806C48.9478 60.1304 48.9523 60.0792 48.968 60.0311C48.9838 59.983 49.0104 59.9393 49.0457 59.9035C49.081 59.8676 49.1241 59.8406 49.1715 59.8247C49.2189 59.8087 49.2694 59.8042 49.3188 59.8115H53.5274C53.5768 59.8042 53.6273 59.8087 53.6747 59.8247C53.7221 59.8406 53.7652 59.8676 53.8005 59.9035C53.8358 59.9393 53.8624 59.983 53.8781 60.0311C53.8939 60.0792 53.8983 60.1304 53.8911 60.1806V61.2806C53.8983 61.3307 53.8939 61.3819 53.8781 61.43C53.8624 61.4781 53.8358 61.5218 53.8005 61.5576C53.7652 61.5934 53.7221 61.6204 53.6747 61.6364C53.6273 61.6524 53.5768 61.6569 53.5274 61.6497H51.1092V62.518H53.3776C53.613 62.518 53.7271 62.6411 53.7271 62.8871V63.9219C53.7344 63.9702 53.7303 64.0195 53.7153 64.0659C53.7003 64.1123 53.6748 64.1544 53.6407 64.189C53.6067 64.2235 53.5652 64.2494 53.5195 64.2647C53.4737 64.2799 53.4251 64.284 53.3776 64.2766L51.1235 64.2693Z" fill="white"/>
<path d="M57.2295 65.0943H59.4408C59.4903 65.0871 59.5407 65.0915 59.5881 65.1075C59.6355 65.1235 59.6786 65.1505 59.7139 65.1863C59.7493 65.2221 59.7759 65.2658 59.7916 65.3139C59.8073 65.3621 59.8118 65.4132 59.8046 65.4633V66.6936C59.8118 66.7438 59.8073 66.7949 59.7916 66.843C59.7759 66.8911 59.7493 66.9348 59.7139 66.9707C59.6786 67.0065 59.6355 67.0335 59.5881 67.0495C59.5407 67.0654 59.4903 67.07 59.4408 67.0627H55.3963C55.3469 67.07 55.2964 67.0654 55.249 67.0495C55.2016 67.0335 55.1585 67.0065 55.1232 66.9707C55.0879 66.9348 55.0613 66.8911 55.0455 66.843C55.0298 66.7949 55.0253 66.7438 55.0325 66.6936V60.1806C55.0253 60.1304 55.0298 60.0792 55.0455 60.0311C55.0613 59.983 55.0879 59.9393 55.1232 59.9035C55.1585 59.8676 55.2016 59.8406 55.249 59.8247C55.2964 59.8087 55.3469 59.8042 55.3963 59.8115H56.8657C56.9152 59.8042 56.9656 59.8087 57.013 59.8247C57.0604 59.8406 57.1035 59.8676 57.1389 59.9035C57.1742 59.9393 57.2007 59.983 57.2165 60.0311C57.2322 60.0792 57.2367 60.1304 57.2295 60.1806V65.0943Z" fill="white"/>
</g>
<defs>
<clipPath id="clip0_14:3">
<rect width="79" height="76" fill="white"/>
</clipPath>
</defs>
</svg>
