<svg width="947" height="911" viewBox="0 0 947 911" fill="none" xmlns="http://www.w3.org/2000/svg">
<path d="M625.027 756.35H306.625C280.008 756.335 254.484 745.619 235.658 726.556C216.832 707.492 206.241 681.638 206.211 654.671C206.887 649.111 209.546 643.994 213.687 640.283C217.829 636.572 223.166 634.523 228.695 634.523C234.224 634.523 239.561 636.572 243.703 640.283C247.844 643.994 250.503 649.111 251.179 654.671C251.194 669.565 257.041 683.845 267.435 694.377C277.83 704.909 291.924 710.831 306.625 710.847H625.027C639.728 710.831 653.822 704.909 664.217 694.377C674.612 683.845 680.458 669.565 680.473 654.671C680.047 651.429 680.31 648.132 681.243 645.002C682.177 641.872 683.759 638.98 685.886 636.52C688.012 634.059 690.633 632.088 693.572 630.737C696.511 629.387 699.702 628.688 702.929 628.688C706.157 628.688 709.347 629.387 712.286 630.737C715.225 632.088 717.846 634.059 719.973 636.52C722.099 638.98 723.681 641.872 724.615 645.002C725.548 648.132 725.811 651.429 725.385 654.671C725.355 681.628 714.772 707.473 695.958 726.535C677.144 745.597 651.635 756.32 625.027 756.35Z" fill="#777DFD"/>
<path d="M216.688 609.569C215.329 610.118 213.863 610.34 212.405 610.218C210.947 610.096 209.537 609.634 208.286 608.866C207.034 608.099 205.976 607.047 205.193 605.795C204.41 604.543 203.925 603.124 203.775 601.65L160.279 418.029C158.637 411.143 161.922 406.553 170.077 404.716C198.621 398.022 227.373 392.284 256.332 387.502C282.101 382.739 312.967 381.764 336.244 394.904C355.727 405.749 365.355 429.677 367.167 451.253C368.979 472.828 364.279 497.158 348.534 512.422C330.751 529.636 304.415 535.374 280.968 539.907C272.247 541.342 267.942 542.087 259.221 543.694L267.206 588.108C267.665 589.513 267.794 591.007 267.583 592.472C267.372 593.936 266.827 595.331 265.992 596.545C265.156 597.759 264.053 598.759 262.769 599.466C261.486 600.173 260.058 600.567 258.598 600.617C244.609 603.543 230.563 606.241 216.688 609.569ZM271.51 487.231C279.064 486.682 286.22 483.592 291.842 478.451C293.823 475.767 295.199 472.675 295.874 469.394C296.55 466.112 296.507 462.721 295.75 459.458C295.633 456.067 294.743 452.749 293.152 449.763C291.56 446.777 289.31 444.204 286.575 442.244C279.464 439.004 271.48 438.296 263.921 440.236C254.916 441.785 250.386 442.588 241.267 444.252L249.706 490.961C258.428 489.469 262.789 488.78 271.51 487.231Z" fill="#777DFD"/>
<path d="M507.907 369.426C511.085 369.193 514.251 370.035 516.906 371.822C519.561 373.608 521.555 376.237 522.575 379.296C544.04 442.416 562.673 506.052 578.474 570.836C579.057 572.325 579.268 573.936 579.09 575.527C578.912 577.118 578.351 578.64 577.455 579.959C576.48 581.096 575.235 581.962 573.837 582.474C572.439 582.986 570.936 583.128 569.469 582.886C554.517 581.681 539.509 580.762 524.558 580.246C521.565 580.392 518.622 579.43 516.278 577.541C513.933 575.651 512.347 572.962 511.815 569.975C509.436 560.794 508.19 556.146 505.755 547.022C486.385 546.563 467.016 546.563 447.647 547.022C445.325 556.203 444.192 560.851 441.984 569.975C441.516 572.999 439.975 575.746 437.649 577.701C435.324 579.656 432.374 580.683 429.354 580.59C414.402 581.164 399.394 582.14 384.442 583.402C382.975 583.644 381.472 583.502 380.074 582.99C378.677 582.478 377.431 581.612 376.457 580.476C375.547 579.163 374.972 577.644 374.784 576.051C374.597 574.459 374.802 572.844 375.381 571.352C391.012 506.587 409.437 442.683 430.657 379.64C431.673 376.586 433.656 373.957 436.298 372.162C438.941 370.367 442.094 369.507 445.268 369.713C466.11 369.14 486.952 369.082 507.907 369.426ZM495.447 493.944C489.784 473.402 483.554 453.031 477.324 432.661H476.304C469.659 453.05 463.259 473.498 457.105 494.002C472.453 493.715 480.326 493.715 495.447 493.944Z" fill="#777DFD"/>
<path d="M745.376 585.813C735.587 593.695 723.816 598.644 711.395 600.101C697.655 601.691 683.758 601.188 670.165 598.609C645.698 594.133 621.402 587.878 599.824 574.049C598.577 573.496 597.461 572.68 596.55 571.655C595.639 570.63 594.954 569.42 594.541 568.106C594.129 566.792 593.997 565.404 594.156 564.034C594.315 562.664 594.761 561.344 595.463 560.163C600.73 549.605 603.448 544.326 608.885 533.825C609.403 532.388 610.242 531.092 611.339 530.04C612.435 528.988 613.758 528.209 615.202 527.764C616.647 527.319 618.174 527.22 619.662 527.475C621.151 527.73 622.561 528.333 623.78 529.235C636.969 536.63 651.32 541.658 666.2 544.096C686.702 547.195 697.802 545.302 699.275 537.096C699.898 533.596 698.085 530.153 693.611 526.767C686.474 521.691 678.891 517.292 670.957 513.626C663.198 509.839 656.685 506.511 651.531 503.7C645.595 500.306 639.916 496.47 634.541 492.223C628.868 488.097 623.862 483.103 619.703 477.419C615.832 471.675 612.942 465.312 611.151 458.598C609.001 450.526 608.386 442.114 609.339 433.809C614.492 382.166 670.278 377.805 710.036 385.551C734.729 390.314 761.007 397.43 781.396 413.783C787.512 418.431 788.589 423.308 784.851 428.3C777.941 437.424 774.543 442.014 767.86 451.253C767.001 452.577 765.881 453.707 764.57 454.571C763.259 455.435 761.786 456.015 760.243 456.274C758.7 456.532 757.121 456.465 755.605 456.075C754.09 455.685 752.67 454.98 751.436 454.007C738.154 446.816 723.809 441.855 708.96 439.318C702.497 437.983 695.881 437.578 689.307 438.113C687.327 438.17 685.433 438.951 683.976 440.311C682.519 441.671 681.596 443.519 681.378 445.515C680.812 449.072 682.851 452.573 687.042 456.131C694.457 461.415 702.215 466.188 710.262 470.419C715.926 473.345 718.304 474.894 723.628 477.935C726.063 479.313 729.971 481.665 735.295 485.108C739.315 487.501 743.107 490.268 746.622 493.371L755.287 501.979C758.377 504.849 760.862 508.323 762.593 512.192C763.896 515.291 765.198 518.963 766.557 523.152C767.893 527.472 768.431 532.004 768.143 536.522C767.838 541.63 767.08 546.7 765.878 551.67C763.177 565.123 755.926 577.199 745.376 585.813Z" fill="#777DFD"/>
<path d="M219.294 373.501C213.385 373.508 207.551 372.162 202.227 369.566C196.902 366.969 192.226 363.188 188.545 358.505C184.864 353.822 182.275 348.357 180.97 342.518C179.665 336.679 179.678 330.617 181.008 324.784C204.285 225.686 324.012 153.73 465.826 153.73C606.055 153.73 725.612 224.711 750.078 322.546C751.828 329.594 751.641 336.993 749.537 343.94C747.433 350.888 743.492 357.121 738.143 361.962C732.793 366.803 726.237 370.069 719.187 371.405C712.136 372.741 704.859 372.096 698.144 369.541C571.111 321.169 375.323 321.915 231.98 371.378C227.895 372.789 223.609 373.506 219.294 373.501ZM465.826 199.234C351.933 199.234 252.312 252.54 227.959 324.898C306.445 300.597 388.062 288.26 470.131 288.29C556.046 287.831 638.337 300.11 703.467 322.719C692.14 290.872 665.352 261.665 627.35 239.458C582.268 213.636 525.123 199.234 465.826 199.234Z" fill="#777DFD"/>
<path d="M330.75 682.558C330.807 682.956 330.771 683.361 330.646 683.743C330.521 684.124 330.31 684.471 330.03 684.755C329.749 685.039 329.407 685.253 329.031 685.38C328.654 685.506 328.254 685.542 327.861 685.485H316.081C315.689 685.542 315.288 685.506 314.912 685.38C314.535 685.253 314.193 685.039 313.913 684.755C313.632 684.471 313.421 684.124 313.296 683.743C313.171 683.361 313.136 682.956 313.193 682.558V664.31L295.636 631.718C295.417 631.345 295.301 630.918 295.301 630.484C295.301 630.05 295.417 629.624 295.636 629.25C295.819 628.871 296.113 628.558 296.477 628.352C296.842 628.147 297.26 628.06 297.675 628.103H309.851C310.686 628.076 311.507 628.317 312.199 628.791C312.891 629.265 313.417 629.948 313.703 630.742L319.366 643.653L321.915 650.711H322.254L324.803 643.653L330.467 630.742C330.752 629.948 331.279 629.265 331.97 628.791C332.662 628.317 333.483 628.076 334.318 628.103H346.494C346.909 628.06 347.327 628.147 347.692 628.352C348.056 628.558 348.35 628.871 348.533 629.25C348.742 629.627 348.851 630.052 348.851 630.484C348.851 630.916 348.742 631.341 348.533 631.718L330.92 664.31L330.75 682.558Z" fill="#777DFD"/>
<path d="M355.729 631.029C355.672 630.632 355.707 630.226 355.832 629.844C355.957 629.463 356.168 629.116 356.449 628.832C356.729 628.548 357.071 628.334 357.448 628.207C357.824 628.081 358.225 628.045 358.617 628.103H370.284C370.676 628.045 371.077 628.081 371.453 628.207C371.83 628.334 372.172 628.548 372.452 628.832C372.733 629.116 372.944 629.463 373.069 629.844C373.194 630.226 373.229 630.632 373.172 631.029V682.673C373.229 683.07 373.194 683.476 373.069 683.857C372.944 684.239 372.733 684.585 372.452 684.869C372.172 685.154 371.83 685.368 371.453 685.494C371.077 685.621 370.676 685.657 370.284 685.599H358.617C358.225 685.657 357.824 685.621 357.448 685.494C357.071 685.368 356.729 685.154 356.449 684.869C356.168 684.585 355.957 684.239 355.832 683.857C355.707 683.476 355.672 683.07 355.729 682.673V631.029Z" fill="#777DFD"/>
<path d="M422.499 678.885C420.436 681.559 417.638 683.556 414.457 684.623C410.907 685.772 407.197 686.334 403.47 686.288C396.706 686.597 389.972 685.196 383.874 682.213C383.521 682.102 383.197 681.916 382.922 681.665C382.648 681.415 382.431 681.108 382.285 680.764C382.14 680.42 382.07 680.048 382.08 679.675C382.09 679.301 382.181 678.933 382.345 678.598L385.12 671.081C385.856 669.188 387.102 668.614 388.801 669.36C392.388 670.896 396.235 671.714 400.128 671.77C405.509 671.77 408.171 670.68 408.171 668.385C408.122 667.837 407.928 667.313 407.609 666.868C407.289 666.423 406.857 666.075 406.358 665.859C404.372 664.848 402.308 664.004 400.185 663.335C398.09 662.646 396.39 662.015 394.975 661.441C393.366 660.741 391.813 659.916 390.33 658.974C388.797 658.032 387.421 656.851 386.253 655.474C385.135 654.007 384.273 652.357 383.704 650.596C382.996 648.451 382.651 646.201 382.685 643.94C382.685 632.77 389.953 627.165 404.489 627.127C410.464 626.891 416.402 628.173 421.763 630.857C422.112 630.982 422.431 631.18 422.701 631.437C422.97 631.694 423.184 632.005 423.328 632.351C423.472 632.696 423.543 633.069 423.537 633.444C423.531 633.819 423.447 634.189 423.292 634.529L420.574 641.645C420.47 642.021 420.287 642.37 420.037 642.667C419.787 642.965 419.476 643.203 419.126 643.367C418.775 643.531 418.394 643.615 418.009 643.615C417.623 643.615 417.242 643.53 416.892 643.366C413.498 642.209 409.939 641.628 406.358 641.645C404.79 641.573 403.22 641.766 401.714 642.218C401.221 642.363 400.794 642.676 400.504 643.106C400.215 643.535 400.082 644.053 400.128 644.571C400.168 645.121 400.351 645.65 400.66 646.104C400.969 646.558 401.391 646.92 401.884 647.153C403.85 648.229 405.895 649.15 408.001 649.907L411.569 651.228L414.684 652.547C415.752 652.982 416.776 653.52 417.742 654.153C418.365 654.555 419.215 655.129 420.234 655.933C421.149 656.512 421.939 657.273 422.556 658.17C423.066 658.916 423.575 659.834 424.142 660.867C424.728 661.933 425.113 663.101 425.274 664.31C425.51 665.674 425.624 667.057 425.614 668.442C425.777 672.181 424.679 675.864 422.499 678.885Z" fill="#777DFD"/>
<path d="M456.932 628.103C463.335 627.638 469.714 629.288 475.112 632.808C477.27 634.787 478.941 637.25 479.993 639.999C481.045 642.749 481.449 645.709 481.172 648.645C481.459 652.241 480.624 655.837 478.785 658.926C476.945 662.015 474.195 664.44 470.921 665.859L480.549 681.927C480.808 682.286 480.978 682.702 481.047 683.14C481.116 683.579 481.081 684.028 480.946 684.451C480.762 684.831 480.469 685.145 480.104 685.35C479.74 685.555 479.322 685.642 478.907 685.599H467.24C466.429 685.62 465.627 685.41 464.927 684.995C464.227 684.579 463.655 683.973 463.275 683.246L455.007 668.556H450.929V682.673C450.986 683.07 450.951 683.476 450.826 683.857C450.701 684.238 450.489 684.585 450.209 684.869C449.929 685.153 449.586 685.367 449.21 685.494C448.834 685.621 448.433 685.657 448.041 685.599H436.714C436.321 685.657 435.921 685.621 435.544 685.494C435.168 685.367 434.826 685.153 434.545 684.869C434.265 684.585 434.054 684.238 433.929 683.857C433.804 683.476 433.768 683.07 433.825 682.673V631.029C433.768 630.631 433.804 630.225 433.929 629.844C434.054 629.463 434.265 629.116 434.545 628.832C434.826 628.548 435.168 628.334 435.544 628.207C435.921 628.08 436.321 628.045 436.714 628.103H456.932ZM456.932 654.67C458.837 654.856 460.745 654.347 462.313 653.236C462.903 652.64 463.356 651.919 463.64 651.126C463.924 650.333 464.031 649.485 463.955 648.645C464.056 647.79 463.966 646.924 463.691 646.109C463.417 645.295 462.965 644.554 462.369 643.94C460.672 642.894 458.68 642.449 456.706 642.677H451.042V654.67H456.932Z" fill="#777DFD"/>
<path d="M533.334 634.357C537.795 640.956 540.182 648.767 540.182 656.765C540.182 664.763 537.795 672.574 533.334 679.173C527.997 683.837 521.183 686.403 514.135 686.403C507.086 686.403 500.272 683.837 494.935 679.173C490.437 672.589 488.026 664.772 488.026 656.765C488.026 648.758 490.437 640.941 494.935 634.357C500.272 629.693 507.086 627.126 514.135 627.126C521.183 627.126 527.997 629.693 533.334 634.357ZM520.421 667.983C522.128 664.419 522.852 660.453 522.517 656.506C522.866 652.559 522.142 648.59 520.421 645.03C519.785 643.932 518.86 643.035 517.75 642.437C516.641 641.839 515.389 641.565 514.135 641.645C512.873 641.567 511.614 641.842 510.496 642.438C509.377 643.035 508.442 643.932 507.792 645.03C506.101 648.6 505.378 652.56 505.696 656.506C505.391 660.452 506.114 664.409 507.792 667.983C508.451 669.072 509.388 669.962 510.505 670.558C511.621 671.153 512.875 671.433 514.135 671.368C515.387 671.435 516.634 671.155 517.742 670.559C518.849 669.963 519.775 669.072 520.421 667.983Z" fill="#777DFD"/>
<path d="M565.788 663.335V670.852H585.44C585.832 670.794 586.233 670.83 586.609 670.957C586.986 671.084 587.328 671.298 587.608 671.582C587.889 671.866 588.1 672.212 588.225 672.594C588.35 672.975 588.385 673.381 588.328 673.778V682.558C588.385 682.956 588.35 683.361 588.225 683.742C588.1 684.124 587.889 684.47 587.608 684.754C587.328 685.039 586.986 685.253 586.609 685.379C586.233 685.506 585.832 685.542 585.44 685.484H551.459C551.066 685.542 550.666 685.506 550.289 685.379C549.913 685.253 549.571 685.039 549.29 684.754C549.01 684.47 548.799 684.124 548.674 683.742C548.549 683.361 548.513 682.956 548.57 682.558V630.914C548.513 630.517 548.549 630.111 548.674 629.729C548.799 629.348 549.01 629.001 549.29 628.717C549.571 628.433 549.913 628.219 550.289 628.092C550.666 627.966 551.066 627.93 551.459 627.988H584.874C585.266 627.93 585.667 627.966 586.043 628.092C586.419 628.219 586.762 628.433 587.042 628.717C587.322 629.001 587.533 629.348 587.658 629.729C587.783 630.111 587.819 630.517 587.762 630.914V639.637C587.819 640.034 587.783 640.44 587.658 640.821C587.533 641.202 587.322 641.549 587.042 641.833C586.762 642.117 586.419 642.331 586.043 642.458C585.667 642.585 585.266 642.621 584.874 642.563H565.674V649.449H583.684C585.553 649.449 586.459 650.424 586.459 652.375V660.58C586.517 660.963 586.485 661.354 586.366 661.722C586.247 662.09 586.044 662.424 585.774 662.698C585.504 662.971 585.174 663.177 584.811 663.298C584.448 663.419 584.062 663.451 583.684 663.393L565.788 663.335Z" fill="#777DFD"/>
<path d="M614.267 669.877H631.824C632.216 669.819 632.617 669.854 632.993 669.981C633.37 670.108 633.712 670.322 633.992 670.606C634.273 670.89 634.484 671.237 634.609 671.618C634.734 672 634.769 672.405 634.712 672.803V682.558C634.769 682.956 634.734 683.361 634.609 683.742C634.484 684.124 634.273 684.47 633.992 684.754C633.712 685.039 633.37 685.253 632.993 685.379C632.617 685.506 632.216 685.542 631.824 685.484H599.712C599.319 685.542 598.919 685.506 598.542 685.379C598.166 685.253 597.824 685.039 597.543 684.754C597.263 684.47 597.052 684.124 596.927 683.742C596.802 683.361 596.766 682.956 596.823 682.558V630.914C596.766 630.517 596.802 630.111 596.927 629.729C597.052 629.348 597.263 629.001 597.543 628.717C597.824 628.433 598.166 628.219 598.542 628.092C598.919 627.966 599.319 627.93 599.712 627.988H611.379C611.771 627.93 612.172 627.966 612.548 628.092C612.925 628.219 613.267 628.433 613.547 628.717C613.828 629.001 614.038 629.348 614.163 629.729C614.288 630.111 614.324 630.517 614.267 630.914V669.877Z" fill="#777DFD"/>
</svg>
