<?xml version="1.0" encoding="UTF-8" standalone="no"?>
<svg
   xmlns:dc="http://purl.org/dc/elements/1.1/"
   xmlns:cc="http://creativecommons.org/ns#"
   xmlns:rdf="http://www.w3.org/1999/02/22-rdf-syntax-ns#"
   xmlns:svg="http://www.w3.org/2000/svg"
   xmlns="http://www.w3.org/2000/svg"
   xmlns:sodipodi="http://sodipodi.sourceforge.net/DTD/sodipodi-0.dtd"
   xmlns:inkscape="http://www.inkscape.org/namespaces/inkscape"
   width="19"
   height="132"
   viewBox="0 0 19 132"
   fill="none"
   version="1.1"
   id="svg4"
   sodipodi:docname="part-arrow-decorator-1.svg"
   inkscape:version="1.0.1 (3bc2e813f5, 2020-09-07)">
  <metadata
     id="metadata10">
    <rdf:RDF>
      <cc:Work
         rdf:about="">
        <dc:format>image/svg+xml</dc:format>
        <dc:type
           rdf:resource="http://purl.org/dc/dcmitype/StillImage" />
        <dc:title></dc:title>
      </cc:Work>
    </rdf:RDF>
  </metadata>
  <defs
     id="defs8" />
  <sodipodi:namedview
     pagecolor="#ffffff"
     bordercolor="#666666"
     borderopacity="1"
     objecttolerance="10"
     gridtolerance="10"
     guidetolerance="10"
     inkscape:pageopacity="0"
     inkscape:pageshadow="2"
     inkscape:window-width="2400"
     inkscape:window-height="1271"
     id="namedview6"
     showgrid="false"
     inkscape:zoom="3.487395"
     inkscape:cx="9.5"
     inkscape:cy="119"
     inkscape:window-x="2391"
     inkscape:window-y="-9"
     inkscape:window-maximized="1"
     inkscape:current-layer="svg4" />
  <path
     fill-rule="evenodd"
     clip-rule="evenodd"
     d="m 17.94,20.6579 c 0.2888,2.0823 -0.2537,4.1946 -1.51,5.88 0.2267,0 0.4567,0.02 0.69,0.06 0.78,0.06 0.76,0.39 0.82,0.82 0.1702,1.2256 0.0538,2.474 -0.3401,3.647 -0.3939,1.1729 -1.0545,2.2386 -1.9299,3.113 -1.409,1.4446 -3.323,2.287 -5.34,2.35 -0.44444,0.0091 -0.88895,-0.0143 -1.32999,-0.07 -0.35858,0.0417 -0.71905,0.065 -1.08,0.07 C 6.86945,36.5305 5.82888,36.3241 4.85888,35.9206 3.88888,35.5172 3.00884,34.9248 2.27001,34.1779 0.490008,32.3879 0.210008,29.9279 8.23859e-6,27.3879 0.0345306,27.183 0.13205,26.9939 0.279009,26.8469 0.425968,26.7 0.615064,26.6025 0.820008,26.5679 c 0.233332,0 0.463332,-0.02 0.690002,-0.06 C 0.270008,24.8679 0.160008,22.7779 8.23859e-6,20.6579 0.0600082,20.4479 0.390008,19.8979 0.820008,19.8379 c 0.220002,0 0.460002,0 0.690002,-0.06 C 0.270008,18.1079 0.160008,16.0279 8.23859e-6,13.9079 0.0345306,13.703 0.13205,13.5139 0.279009,13.3669 0.425968,13.22 0.615064,13.1225 0.820008,13.0879 1.18463,13.0393 1.55217,13.016 1.92001,13.0179 c 1.16819,-0.0023 2.32243,0.2538 3.38,0.75 -0.06015,-0.3904 -0.09024,-0.7849 -0.09,-1.18 C 5.16976,11.3983 5.4411,10.2188 5.99714,9.1664 6.55318,8.11396 7.37461,7.22511 8.38001,6.58794 c 0.34,-0.63 0.82,-0.63 1.16,0 1.00729,0.63595 1.83069,1.52427 2.38849,2.57679 0.5578,1.05257 0.8307,2.23267 0.7915,3.42317 -0.0031,0.3954 -0.0365,0.7898 -0.1,1.18 1.1188,-0.5142 2.3389,-0.7705 3.57,-0.75 0.3078,0.0045 0.6151,0.0279 0.92,0.07 0.78,0.06 0.76,0.39 0.82,0.82 0.2927,2.0794 -0.2503,4.19 -1.51,5.87 l 0.69,0.06 c 0.8,0.06 0.77,0.61 0.83,0.82 z m -8.93999,10.09 c 0.13088,-0.3418 0.32798,-0.6545 0.58,-0.92 -0.18872,-0.0618 -0.38295,-0.1053 -0.58,-0.13 -0.22787,0.0154 -0.45293,0.0591 -0.67,0.13 0.24917,0.287 0.47333,0.5948 0.67,0.92 z m 0.58,-7.75 c -0.19419,-0.0045 -0.3879,-0.0212 -0.58,-0.05 -0.25,0 -0.46,0 -0.67,0.05 0.23,0.32 0.44,0.65 0.67,1 0.15647,-0.3575 0.35811,-0.6936 0.6,-1 z m -6,9.83 c 0.56207,0.5682 1.23198,1.0183 1.97039,1.3239 0.73841,0.3057 1.53044,0.4608 2.32961,0.4561 h 0.52 c -0.32779,-1.6356 -1.09135,-3.1524 -2.21,-4.39 -0.57263,-0.5791 -1.25717,-1.0355 -2.0119,-1.3415 -0.75473,-0.3061 -1.56386,-0.4552 -2.3781,-0.4385 0.02,1.64 1.05,3.21 1.83,4.39 z m 0,-6.75 c 0.56625,0.5653 1.23835,1.0135 1.97788,1.3189 0.73953,0.3054 1.532,0.4621 2.33212,0.4611 h 0.51 c -0.32348,-1.6371 -1.0876,-3.155 -2.21,-4.39 C 5.62019,22.8991 4.94322,22.4488 4.19826,22.1433 3.45331,21.8378 2.65517,21.683 1.85001,21.6879 c 0.12966,1.6112 0.75101,3.1436 1.78,4.39 z m -1.73,-11.15 c 0.12775,1.6116 0.74932,3.1446 1.78,4.39 0.63397,0.6177 1.39062,1.0953 2.22094,1.402 0.83032,0.3066 1.71579,0.4354 2.59906,0.378 -0.30472,-1.6112 -1.07274,-3.0986 -2.21,-4.28 C 5.68827,16.2044 5.01013,15.7178 4.25227,15.3915 3.49442,15.0652 2.67485,14.9071 1.85001,14.9279 Z m 7.15,-6.69996 c -0.58207,0.56821 -1.04462,1.2471 -1.36043,1.99676 -0.3158,0.7496 -0.4785,1.5548 -0.4785,2.3682 0,0.8135 0.1627,1.6187 0.4785,2.3683 0.31581,0.7496 0.77836,1.4285 1.36043,1.9967 0.58559,-0.5671 1.05109,-1.2463 1.36899,-1.997 0.3178,-0.7507 0.4814,-1.5577 0.481,-2.373 0.0036,-0.8142 -0.1585,-1.6207 -0.4766,-2.3702 C 10.0554,9.46811 9.58808,8.79112 9.00001,8.22794 Z M 16.23,14.9279 c -0.8403,-0.026 -1.6763,0.1293 -2.4511,0.4554 -0.7748,0.3262 -1.4702,0.8155 -2.0389,1.4346 -0.5825,0.547 -1.0423,1.2113 -1.3491,1.9491 -0.3069,0.7378 -0.45371,1.5322 -0.43089,2.3309 H 10.34 c 1.5123,-0.0583 2.9443,-0.6956 4,-1.78 0.5749,-0.5757 1.0286,-1.2608 1.3343,-2.0148 0.3058,-0.754 0.4573,-1.5616 0.4457,-2.3752 z m -4.49,8.54 c -0.5791,0.5727 -1.0356,1.2572 -1.3416,2.0119 -0.306,0.7548 -0.45517,1.5639 -0.43839,2.3781 0.81989,0.0568 1.64179,-0.075 2.40279,-0.3853 0.761,-0.3103 1.4408,-0.7908 1.9872,-1.4047 0.5697,-0.576 1.018,-1.2604 1.3186,-2.0127 0.3006,-0.7523 0.4473,-1.5573 0.4314,-2.3673 -0.8135,-0.011 -1.6209,0.1408 -2.3748,0.4465 -0.754,0.3057 -1.4391,0.7591 -2.0152,1.3335 z m 0,6.75 c -0.5763,0.5748 -1.0309,1.2597 -1.3367,2.0139 -0.3058,0.7542 -0.4566,1.5624 -0.44329,2.3761 H 10.35 c 1.5123,-0.0583 2.9443,-0.6956 4,-1.78 0.5745,-0.576 1.0279,-1.2612 1.3336,-2.0151 0.3056,-0.7539 0.4574,-1.5614 0.4464,-2.3749 -0.8199,-0.0257 -1.6361,0.1193 -2.397,0.4257 -0.7609,0.3064 -1.4498,0.7676 -2.023,1.3543 z M 17,11.3879 c -0.53,0 -0.66,-0.43 -0.66,-1 V 8.16794 c 0,-0.53 0.13,-0.55 0.66,-0.55 0.53,0 1,0 1,0.55 v 2.21996 c 0.0161,0.1352 0.0013,0.2723 -0.0433,0.401 -0.0446,0.1286 -0.1177,0.2455 -0.214,0.3417 -0.0963,0.0963 -0.2131,0.1695 -0.3418,0.214 C 17.2723,11.3892 17.1352,11.404 17,11.3879 Z M 9.00001,4.29794 c -0.53,0 -0.53,-0.43 -0.53,-1 v -2.21 c 0,-0.530001 0,-0.700001 0.53,-0.700001 0.77,0 0.99999,0.17 0.99999,0.700001 v 2.3 c -0.06999,0.48 -0.25999,0.91 -0.99999,0.91 z m -7.91,7.08996 C 0.951322,11.4005 0.811546,11.3839 0.679634,11.3393 0.547721,11.2947 0.42658,11.223 0.323969,11.1289 0.221358,11.0347 0.13954,10.9202 0.0837533,10.7926 0.027967,10.665 -5.56982e-4,10.5272 8.23859e-6,10.3879 V 8.16794 c 0,-0.53 0.42999976141,-0.55 1.09000176141,-0.55 0.66,0 0.82,0 0.82,0.55 v 2.21996 c 0,0.56 -0.05,1 -0.82,1 z m 7.07,214.4401 V 39.6779 c -8e-5,-0.1089 0.02183,-0.2167 0.0644,-0.317 0.04257,-0.1003 0.10493,-0.191 0.18335,-0.2666 0.07842,-0.0756 0.17129,-0.1346 0.27305,-0.1735 0.10177,-0.0389 0.21033,-0.0569 0.3192,-0.0529 0.21575,0 0.42282,0.085 0.57632,0.2367 0.15349,0.1516 0.24105,0.3576 0.24368,0.5733 V 225.828 c 0,0.108 -0.02121,0.214 -0.06242,0.314 -0.04121,0.099 -0.10161,0.19 -0.17775,0.266 -0.07615,0.076 -0.16654,0.136 -0.26603,0.178 -0.09949,0.041 -0.20612,0.062 -0.3138,0.062 -0.10936,0.003 -0.21814,-0.017 -0.31995,-0.057 -0.1018,-0.04 -0.19458,-0.1 -0.27285,-0.176 -0.07828,-0.076 -0.14047,-0.168 -0.18293,-0.269 -0.04245,-0.1 -0.0643,-0.209 -0.06427,-0.318 z m -4.09,0.91 c 0.07529,-0.076 0.16487,-0.136 0.26356,-0.177 0.09868,-0.041 0.20453,-0.063 0.31144,-0.063 0.1069,0 0.21275,0.022 0.31144,0.063 0.09869,0.041 0.18826,0.101 0.26356,0.177 l 3.78,3.75 3.74999,-3.75 c 0.1566,-0.132 0.3569,-0.201 0.5615,-0.192 0.2047,0.008 0.3988,0.092 0.5442,0.237 0.1454,0.144 0.2317,0.337 0.2417,0.542 0.0101,0.204 -0.0568,0.405 -0.1874,0.563 l -4.32999,4.33 c -0.0753,0.076 -0.16487,0.136 -0.26356,0.177 -0.09869,0.041 -0.20454,0.062 -0.31144,0.062 -0.10691,0 -0.21276,-0.021 -0.31144,-0.062 -0.09869,-0.041 -0.18826,-0.101 -0.26356,-0.177 l -4.36,-4.33 c -0.07589,-0.075 -0.13613,-0.165 -0.17723,-0.264 -0.04111,-0.098 -0.06227,-0.204 -0.06227,-0.311 0,-0.107 0.02116,-0.213 0.06227,-0.312 0.0411,-0.098 0.10134,-0.188 0.17723,-0.263 z m 0,5.14 c 0.07529,-0.076 0.16487,-0.136 0.26356,-0.177 0.09868,-0.041 0.20453,-0.063 0.31144,-0.063 0.1069,0 0.21275,0.022 0.31144,0.063 0.09869,0.041 0.18826,0.101 0.26356,0.177 l 3.75,4 3.74999,-4 c 0.0726,-0.088 0.1627,-0.159 0.2645,-0.21 0.1018,-0.051 0.2132,-0.081 0.3269,-0.086 0.1137,-0.006 0.2274,0.012 0.3337,0.053 0.1063,0.041 0.203,0.103 0.2838,0.184 0.0809,0.08 0.1442,0.176 0.1858,0.282 0.0417,0.106 0.0609,0.219 0.0563,0.333 -0.0046,0.114 -0.0329,0.225 -0.083,0.328 -0.0501,0.102 -0.1209,0.193 -0.208,0.266 l -4.32999,4.36 c -0.07618,0.076 -0.16661,0.136 -0.26613,0.178 -0.09952,0.041 -0.20617,0.062 -0.31387,0.062 -0.10618,0 -0.21127,-0.022 -0.30913,-0.063 -0.09786,-0.041 -0.18654,-0.101 -0.26087,-0.177 l -4.33,-4.33 c -0.08052,-0.076 -0.14469,-0.167 -0.18854,-0.269 -0.04386,-0.101 -0.06649,-0.211 -0.06649,-0.321 0,-0.111 0.02263,-0.22 0.06649,-0.321 0.04385,-0.102 0.10802,-0.193 0.18854,-0.269 z"
     fill="#c6c8f7"
     id="path2"
     inkscape:transform-center-y="-50.46747" />
</svg>
