<?xml version="1.0" encoding="UTF-8" standalone="no"?>
<svg
   width="878"
   height="19"
   viewBox="0 0 878 19"
   fill="none"
   version="1.1"
   id="svg916"
   sodipodi:docname="scrollbar.svg"
   inkscape:version="1.1 (c68e22c387, 2021-05-23)"
   xmlns:inkscape="http://www.inkscape.org/namespaces/inkscape"
   xmlns:sodipodi="http://sodipodi.sourceforge.net/DTD/sodipodi-0.dtd"
   xmlns="http://www.w3.org/2000/svg"
   xmlns:svg="http://www.w3.org/2000/svg">
  <defs
     id="defs920">
    <clipPath
       clipPathUnits="userSpaceOnUse"
       id="clipPath1122">
      <path
         id="path1124"
         style="fill:#ff0000;fill-opacity:1;fill-rule:nonzero;stroke:none"
         d="m 37.326172,0 c 0.0031,0.04748271 0.0048,0.09511757 0.0078,0.14257812 0.01344,0.21272277 0.02729,0.42401464 0.04102,0.63671876 0.03022,0.42089902 0.04562,0.58628602 0.05859,1.04882812 0.0039,0.1390096 -1.51e-4,0.2769515 0,0.4160156 5.46e-4,0.5033911 10e-4,1.0063744 0,1.5097656 -0.0046,0.902164 -0.01201,1.8050504 0.01367,2.7070313 0.0072,0.4138386 0.01621,0.5911523 -0.002,1.0390625 -0.01801,0.4441524 -0.09267,0.8850343 -0.125,1.328125 0.0023,0.4381804 0.0096,0.8767104 -0.01367,1.314453 4.26e-4,0.0014 0.0015,0.0045 0.002,0.0059 0.02575,0.08303 0.03461,0.171492 0.04492,0.257812 0.05645,0.472476 0.02897,0.499146 0.01172,1.050781 -0.08394,0.505719 -0.101984,0.679502 -0.248046,1.222657 -0.02901,0.107873 -0.07534,0.209386 -0.113282,0.314453 -0.04516,0.125057 -0.08832,0.250412 -0.134765,0.375 -0.0046,0.01247 -0.01653,0.04812 -0.01953,0.03516 -0.01731,-0.07433 -0.01649,-0.150763 -0.02539,-0.226563 0.0084,0.08922 0.02399,0.177979 0.02539,0.267578 0.0055,0.346193 -0.07517,0.675841 -0.179687,1 -0.110084,1.112975 -0.208951,2.109132 -0.38086,3.351563 -0.0066,0.04782 -0.01802,0.09488 -0.02539,0.142578 0.03308,0.02451 0.05967,0.05043 0.08789,0.07617 H 877.24023 V 0 Z" />
    </clipPath>
  </defs>
  <sodipodi:namedview
     id="namedview918"
     pagecolor="#ffffff"
     bordercolor="#666666"
     borderopacity="1.0"
     inkscape:pageshadow="2"
     inkscape:pageopacity="0.0"
     inkscape:pagecheckerboard="0"
     showgrid="false"
     inkscape:zoom="17.898338"
     inkscape:cx="37.349836"
     inkscape:cy="8.6320862"
     inkscape:window-width="2400"
     inkscape:window-height="1271"
     inkscape:window-x="2391"
     inkscape:window-y="-9"
     inkscape:window-maximized="1"
     inkscape:current-layer="svg916" />
  <path
     fill-rule="evenodd"
     clip-rule="evenodd"
     d="M20.27 0.0761042C22.3523 -0.212668 24.4645 0.329764 26.15 1.5861C26.15 1.35944 26.17 1.12944 26.21 0.896104C26.27 0.116103 26.6 0.136103 27.03 0.0761039C28.2556 -0.0940717 29.5039 0.0223586 30.6769 0.416243C31.8499 0.810128 32.9155 1.47072 33.79 2.3461C35.2346 3.7551 36.0769 5.66913 36.14 7.6861C36.149 8.13055 36.1256 8.57506 36.07 9.0161C36.1116 9.37468 36.135 9.73515 36.14 10.0961C36.1426 11.1467 35.9362 12.1872 35.5327 13.1572C35.1293 14.1272 34.5369 15.0073 33.79 15.7461C32 17.5261 29.54 17.8061 27 18.0161C26.7951 17.9816 26.606 17.8841 26.459 17.7371C26.312 17.5901 26.2145 17.401 26.18 17.1961C26.18 16.9628 26.16 16.7328 26.12 16.5061C24.48 17.7461 22.39 17.8561 20.27 18.0161C20.06 17.9561 19.51 17.6261 19.45 17.1961C19.45 16.9761 19.45 16.7361 19.39 16.5061C17.72 17.7461 15.64 17.8561 13.52 18.0161C13.3151 17.9816 13.126 17.8841 12.979 17.7371C12.832 17.5901 12.7345 17.401 12.7 17.1961C12.6514 16.8315 12.628 16.4639 12.63 16.0961C12.6277 14.9279 12.8838 13.7737 13.38 12.7161C12.9895 12.7763 12.5951 12.8063 12.2 12.8061C11.0104 12.8464 9.8309 12.575 8.77846 12.019C7.72602 11.4629 6.83717 10.6415 6.2 9.6361C5.57 9.2961 5.57 8.8161 6.2 8.4761C6.83595 7.46885 7.72427 6.64544 8.77679 6.0876C9.82932 5.52977 11.0094 5.2569 12.2 5.2961C12.5953 5.29918 12.9898 5.33261 13.38 5.3961C12.8658 4.2773 12.6095 3.05726 12.63 1.8261C12.6345 1.51829 12.6579 1.21105 12.7 0.906104C12.76 0.126104 13.09 0.146104 13.52 0.0861048C15.5994 -0.20657 17.71 0.336368 19.39 1.5961L19.45 0.906104C19.51 0.106105 20.06 0.136104 20.27 0.0761042ZM30.36 9.0161C30.0181 8.88523 29.7055 8.68812 29.44 8.4361C29.3782 8.62483 29.3347 8.81905 29.31 9.0161C29.3253 9.24397 29.369 9.46903 29.44 9.6861C29.727 9.43693 30.0348 9.21278 30.36 9.0161ZM22.61 8.4361C22.6055 8.63029 22.5888 8.824 22.56 9.0161C22.56 9.2661 22.56 9.4761 22.61 9.6861C22.93 9.4561 23.26 9.2461 23.61 9.0161C23.2524 8.85963 22.9163 8.65799 22.61 8.4161L22.61 8.4361ZM32.44 14.4361C33.0081 13.874 33.4582 13.2041 33.7639 12.4657C34.0696 11.7273 34.2246 10.9353 34.22 10.1361L34.22 9.6161C32.5843 9.94389 31.0676 10.7075 29.83 11.8261C29.2509 12.3987 28.7944 13.0833 28.4884 13.838C28.1824 14.5927 28.0332 15.4019 28.05 16.2161C29.69 16.1961 31.26 15.1661 32.44 14.3861L32.44 14.4361ZM25.69 14.4361C26.2553 13.8698 26.7034 13.1977 27.0089 12.4582C27.3143 11.7187 27.471 10.9262 27.47 10.1261L27.47 9.6161C25.8328 9.93959 24.315 10.7037 23.08 11.8261C22.5111 12.3959 22.0609 13.0729 21.7554 13.8178C21.4498 14.5628 21.2951 15.3609 21.3 16.1661C22.9111 16.0364 24.4435 15.4151 25.69 14.3861L25.69 14.4361ZM14.54 16.1661C16.1516 16.0384 17.6845 15.4168 18.93 14.3861C19.5477 13.7521 20.0253 12.9955 20.3319 12.1652C20.6386 11.3348 20.7674 10.4494 20.71 9.5661C19.0988 9.87082 17.6114 10.6388 16.43 11.7761C15.8165 12.3278 15.3298 13.006 15.0036 13.7638C14.6773 14.5217 14.5191 15.3413 14.54 16.1661ZM7.84 9.0161C8.40821 9.59817 9.0871 10.0607 9.83673 10.3765C10.5864 10.6923 11.3916 10.855 12.205 10.855C13.0184 10.855 13.8236 10.6923 14.5733 10.3765C15.3229 10.0607 16.0018 9.59817 16.57 9.0161C16.0028 8.43051 15.3237 7.96497 14.5729 7.64715C13.8222 7.32934 13.0152 7.16575 12.2 7.1661C11.3858 7.16249 10.5793 7.32464 9.82973 7.64269C9.08017 7.96074 8.40318 8.42803 7.84 9.0161ZM14.54 1.78611C14.5139 2.62637 14.6692 3.46238 14.9954 4.2372C15.3215 5.01202 15.8109 5.70744 16.43 6.2761C16.977 6.85857 17.6413 7.3184 18.3791 7.62523C19.1168 7.93207 19.9113 8.07892 20.71 8.0561L20.71 7.6761C20.6516 6.16383 20.0144 4.7318 18.93 3.6761C18.3543 3.1012 17.6692 2.64749 16.9152 2.34176C16.1612 2.03604 15.3535 1.88451 14.54 1.8961L14.54 1.78611ZM23.08 6.2761C23.6526 6.85521 24.3372 7.31167 25.0919 7.61769C25.8466 7.92371 26.6558 8.07288 27.47 8.0561C27.5267 7.23625 27.3949 6.41429 27.0846 5.6533C26.7743 4.89232 26.2938 4.21253 25.68 3.6661C25.104 3.09644 24.4196 2.64807 23.6672 2.34748C22.9149 2.0469 22.11 1.90022 21.3 1.9161C21.289 2.72957 21.4408 3.53703 21.7464 4.29095C22.0521 5.04487 22.5056 5.73003 23.08 6.3061L23.08 6.2761ZM29.83 6.2761C30.4047 6.85239 31.0896 7.30701 31.8439 7.61283C32.5981 7.91865 33.4062 8.06941 34.22 8.0561L34.22 7.6661C34.1616 6.15382 33.5244 4.7218 32.44 3.6661C31.8639 3.09166 31.1788 2.63824 30.4248 2.33255C29.6709 2.02686 28.8635 1.87507 28.05 1.88611C28.0243 2.70596 28.1692 3.52222 28.4757 4.2831C28.7821 5.04398 29.2433 5.73288 29.83 6.3061L29.83 6.2761ZM11 1.01611C11 1.54611 10.57 1.67611 10 1.67611L7.78 1.67611C7.25 1.67611 7.23 1.54611 7.23 1.01611C7.23 0.486105 7.23 0.0161053 7.78 0.0161053L10 0.0161052C10.1352 2.43525e-05 10.2723 0.0148254 10.4009 0.0593944C10.5296 0.103963 10.6464 0.177139 10.7427 0.27341C10.839 0.369682 10.9121 0.486539 10.9567 0.615184C11.0013 0.743829 11.0161 0.88091 11 1.01611ZM3.91 9.0161C3.91 9.5461 3.48 9.5461 2.91 9.5461L0.699999 9.5461C0.169999 9.5461 -3.70236e-07 9.5461 -3.93403e-07 9.0161C-4.27061e-07 8.24611 0.169999 8.0161 0.699999 8.0161L3 8.0161C3.48 8.0861 3.91 8.2761 3.91 9.0161ZM11 16.9261C11.0125 17.0648 10.996 17.2046 10.9514 17.3365C10.9067 17.4684 10.8351 17.5895 10.7409 17.6921C10.6468 17.7948 10.5323 17.8766 10.4047 17.9324C10.2771 17.9881 10.1393 18.0167 10 18.0161L7.78 18.0161C7.25 18.0161 7.23 17.5861 7.23 16.9261C7.23 16.2661 7.23 16.1061 7.78 16.1061L10 16.1061C10.56 16.1061 11 16.1561 11 16.9261ZM865.44 9.85607L39.29 9.8561C39.1811 9.85618 39.0732 9.83427 38.9729 9.79171C38.8727 9.74914 38.782 9.68677 38.7064 9.60835C38.6307 9.52993 38.5717 9.43706 38.5328 9.3353C38.4939 9.23354 38.476 9.12497 38.48 9.0161C38.48 8.80035 38.565 8.59328 38.7166 8.43978C38.8682 8.28629 39.0743 8.19873 39.29 8.1961L865.44 8.19607C865.548 8.19607 865.654 8.21728 865.754 8.25849C865.853 8.2997 865.944 8.3601 866.02 8.43624C866.096 8.51238 866.156 8.60278 866.198 8.70227C866.239 8.80175 866.26 8.90838 866.26 9.01607C866.263 9.12542 866.243 9.23421 866.203 9.33601C866.163 9.43782 866.103 9.53059 866.027 9.60887C865.951 9.68714 865.859 9.74934 865.758 9.79179C865.658 9.83425 865.549 9.8561 865.44 9.85607ZM866.35 13.9461C866.274 13.8708 866.214 13.7812 866.173 13.6825C866.132 13.5838 866.11 13.478 866.11 13.3711C866.11 13.2642 866.132 13.1583 866.173 13.0596C866.214 12.961 866.274 12.8714 866.35 12.7961L870.1 9.01607L866.35 5.26607C866.218 5.10946 866.149 4.90915 866.158 4.70454C866.166 4.49992 866.251 4.3058 866.395 4.16037C866.539 4.01494 866.732 3.92872 866.937 3.91867C867.141 3.90862 867.342 3.97547 867.5 4.10607L871.83 8.43607C871.906 8.51136 871.966 8.60094 872.007 8.69963C872.048 8.79831 872.069 8.90416 872.069 9.01107C872.069 9.11797 872.048 9.22382 872.007 9.32251C871.966 9.4212 871.906 9.51077 871.83 9.58607L867.5 13.9461C867.425 14.022 867.335 14.0822 867.236 14.1233C867.138 14.1644 867.032 14.1856 866.925 14.1856C866.818 14.1856 866.712 14.1644 866.614 14.1233C866.515 14.0822 866.425 14.022 866.35 13.9461ZM871.49 13.9461C871.414 13.8708 871.354 13.7812 871.313 13.6825C871.272 13.5838 871.25 13.478 871.25 13.3711C871.25 13.2642 871.272 13.1583 871.313 13.0596C871.354 12.961 871.414 12.8714 871.49 12.7961L875.49 9.04607L871.49 5.29607C871.402 5.22345 871.331 5.13337 871.28 5.03155C871.229 4.92973 871.2 4.81842 871.194 4.70469C871.188 4.59096 871.206 4.47732 871.247 4.371C871.288 4.26467 871.35 4.168 871.431 4.08714C871.511 4.00628 871.607 3.943 871.713 3.90133C871.819 3.85966 871.932 3.84052 872.046 3.84512C872.16 3.84972 872.271 3.87797 872.374 3.92806C872.476 3.97815 872.567 4.04899 872.64 4.13607L877 8.46607C877.076 8.54224 877.137 8.63267 877.178 8.73219C877.219 8.83171 877.24 8.93836 877.24 9.04607C877.24 9.15225 877.219 9.25733 877.177 9.3552C877.136 9.45306 877.076 9.54174 877 9.61607L872.67 13.9461C872.594 14.0266 872.503 14.0908 872.401 14.1346C872.3 14.1785 872.191 14.2011 872.08 14.2011C871.969 14.2011 871.86 14.1785 871.759 14.1346C871.657 14.0908 871.566 14.0266 871.49 13.9461Z"
     fill="#C6C8F7"
     id="path914"
     clip-path="url(#clipPath1122)" />
</svg>
