<svg width="95" height="96" viewBox="0 0 95 96" fill="none" xmlns="http://www.w3.org/2000/svg">
<path d="M47.079 17.9951C39.1355 17.9951 31.5174 21.1506 25.9006 26.7675C20.2837 32.3844 17.1282 40.0025 17.1282 47.9459C17.1282 55.8893 20.2837 63.5074 25.9006 69.1243C31.5174 74.7412 39.1355 77.8967 47.079 77.8967C47.2689 77.8974 47.4572 77.8603 47.6326 77.7873C47.808 77.7143 47.967 77.607 48.1004 77.4716L49.1218 76.4502H49.1698V76.4091L76.1865 49.3924H76.2277V49.3581L76.6116 48.981C76.8805 48.7092 77.0308 48.342 77.0297 47.9596C77.0243 40.0166 73.8675 32.4002 68.2522 26.7824C62.6369 21.1645 55.022 18.0042 47.079 17.9951ZM22.0983 58.3454H25.5259C25.9095 58.3454 26.2775 58.193 26.5487 57.9217C26.82 57.6505 26.9724 57.2825 26.9724 56.8989C26.9724 56.5153 26.82 56.1474 26.5487 55.8761C26.2775 55.6048 25.9095 55.4524 25.5259 55.4524H21.0905C20.0254 51.7832 19.7493 47.93 20.2806 44.1465C20.8119 40.3629 22.1384 36.7347 24.1729 33.5008C26.2074 30.2668 28.9038 27.5004 32.0844 25.3836C35.2651 23.2668 38.8581 21.8476 42.6267 21.2194C46.3954 20.5912 50.2544 20.7682 53.9498 21.7389C57.6451 22.7096 61.093 24.4518 64.0665 26.851C67.0399 29.2502 69.4716 32.2519 71.2014 35.6586C72.9312 39.0653 73.9199 42.7996 74.1025 46.616C71.4096 46.8014 68.7547 47.355 66.2121 48.2612C66.0709 48.2124 65.9227 48.1869 65.7733 48.1858H46.7293C46.3638 48.211 46.0215 48.374 45.7714 48.6419C45.5214 48.9097 45.3824 49.2625 45.3824 49.6289C45.3824 49.9953 45.5214 50.348 45.7714 50.6159C46.0215 50.8837 46.3638 51.0467 46.7293 51.0719H60.3919C56.2888 53.6323 52.8659 57.1472 50.4152 61.3168C47.9645 65.4865 46.5588 70.187 46.318 75.0175C41.1047 74.8639 36.0465 73.2092 31.7503 70.2519C27.4542 67.2946 24.1028 63.1604 22.0983 58.3454ZM49.5537 71.9394C50.4986 66.4051 53.1382 61.3006 57.1081 57.3307C61.0781 53.3607 66.1826 50.7211 71.7169 49.7763L49.5537 71.9394Z" fill="#C6C8F7"/>
<path d="M11.0065 67.0929L12.7409 66.3731L9.73831 59.1064L8.00392 59.8262L9.08706 62.445L2.72534 65.0774L3.55483 67.0792L9.91655 64.4536L11.0065 67.0929Z" fill="#C6C8F7"/>
<path d="M16.6827 73.9892C16.7644 73.3624 16.7192 72.7256 16.5496 72.1167C16.38 71.5078 16.0895 70.9393 15.6956 70.445C15.3474 69.9184 14.8987 69.4656 14.3752 69.1127C13.8517 68.7598 13.2637 68.5137 12.645 68.3884C12.0455 68.2841 11.4308 68.3065 10.8405 68.4541C10.2501 68.6017 9.69723 68.8712 9.21732 69.2453C8.71266 69.5786 8.2831 70.0135 7.95612 70.5223C7.62914 71.031 7.41194 71.6024 7.31841 72.1999C7.23788 72.8282 7.28437 73.4663 7.45512 74.0763C7.62588 74.6863 7.91741 75.2558 8.31242 75.751C8.6564 76.28 9.10303 76.7345 9.62585 77.0878C10.1487 77.441 10.7371 77.6858 11.3562 77.8076C11.9557 77.9097 12.5699 77.8863 13.1599 77.7388C13.7499 77.5913 14.3029 77.3229 14.7838 76.9507C15.2875 76.6148 15.7163 76.1782 16.0431 75.6686C16.3699 75.1589 16.5877 74.5871 16.6827 73.9892ZM14.6261 73.4819C14.5556 73.8146 14.42 74.13 14.227 74.41C14.0341 74.69 13.7876 74.9291 13.5019 75.1134C13.2349 75.3264 12.9285 75.4844 12.6003 75.5785C12.2721 75.6727 11.9285 75.701 11.5893 75.6619C11.2547 75.6084 10.9352 75.4849 10.6517 75.2994C10.3682 75.114 10.127 74.8707 9.94398 74.5856C9.73162 74.3209 9.57782 74.0142 9.49274 73.6856C9.40765 73.3571 9.39322 73.0143 9.4504 72.6798C9.59326 72.0063 9.99763 71.417 10.5747 71.0414C11.1156 70.6152 11.8032 70.4204 12.4873 70.4998C12.8228 70.5528 13.1432 70.6769 13.4269 70.8637C13.7107 71.0504 13.9513 71.2957 14.1326 71.583C14.34 71.8486 14.4888 72.1552 14.5691 72.4825C14.6495 72.8098 14.6596 73.1504 14.5987 73.4819H14.6261Z" fill="#C6C8F7"/>
<path d="M23.2911 81.1325L24.525 79.7203L18.6089 74.5377L17.3749 75.9499L19.5138 77.8214L14.9756 83.004L16.6071 84.4299L21.1454 79.2473L23.2911 81.1325Z" fill="#C6C8F7"/>
<path d="M19.5067 86.9525L21.4399 88.0494L22.9275 86.6783L26.266 88.5704L25.8684 90.5379L27.8496 91.6621L29.6114 82.5926L26.3894 80.7622L19.5067 86.9525ZM27.3149 83.4632L26.6294 86.7469L24.2986 85.4238L26.7733 83.1616L27.3149 83.4632Z" fill="#C6C8F7"/>
<path d="M35.0891 84.8342L33.0051 84.2103L30.5029 92.6081L37.0703 94.5618L37.605 92.7657L33.1217 91.4358L35.0891 84.8342Z" fill="#C6C8F7"/>
<path d="M42.7327 86.4795L40.5665 86.2944L39.8124 95.0212L46.6403 95.6107L46.7979 93.7461L42.1432 93.3416L42.7327 86.4795Z" fill="#C6C8F7"/>
<path d="M52.8993 86.3356L51.2746 89.873L51.069 89.8935L48.8204 86.7195L46.3114 86.9595L50.2943 92.2586L50.5891 95.3572L52.7485 95.1447L52.4537 92.0392L55.3467 86.0957L52.8993 86.3356Z" fill="#C6C8F7"/>
<path d="M65.6707 86.5137L66.7607 89.0708C66.3828 89.3395 65.9785 89.5692 65.5542 89.7563C64.9024 90.08 64.1507 90.1389 63.4565 89.9208C63.1427 89.8045 62.8578 89.6218 62.6211 89.3851C62.3845 89.1485 62.2018 88.8635 62.0854 88.5498C61.3999 86.9411 62.0169 85.7254 63.9363 84.9028C64.8412 84.5189 65.6707 84.2172 66.418 83.9567L65.7324 82.38C64.7556 82.5372 63.8021 82.8159 62.8943 83.2095C61.5962 83.6665 60.5268 84.6105 59.9123 85.8419C59.6698 86.4133 59.5518 87.0298 59.566 87.6503C59.5801 88.2708 59.7262 88.8812 59.9946 89.441C60.2102 89.9866 60.5348 90.4826 60.9485 90.8987C61.3622 91.3147 61.8563 91.6421 62.4008 91.8609C62.9282 92.0805 63.4957 92.1879 64.067 92.1761C64.6382 92.1643 65.2008 92.0336 65.7187 91.7923C66.0752 91.6639 66.4028 91.4664 66.6828 91.2111C66.9627 90.9559 67.1896 90.6478 67.3503 90.3047L67.5354 90.2225L67.885 90.7435L69.5097 90.0579L67.6314 85.6911L65.6707 86.5137Z" fill="#C6C8F7"/>
<path d="M74.1367 77.4649C72.8706 77.4102 71.6259 77.8047 70.6224 78.5786C69.6189 79.3526 68.9212 80.4562 68.6524 81.6946C68.534 82.9012 68.8801 84.1076 69.6201 85.068C70.3601 86.0283 71.4384 86.6704 72.6353 86.8635C73.9002 86.9171 75.1434 86.5231 76.1465 85.7508C77.1495 84.9784 77.8482 83.8772 78.1196 82.6407C78.2313 81.4335 77.882 80.2288 77.1419 79.2687C76.4017 78.3085 75.3256 77.6641 74.1298 77.4649H74.1367ZM74.9661 84.2037C74.7071 84.4236 74.4051 84.5872 74.0793 84.6839C73.7535 84.7807 73.4112 84.8086 73.0741 84.7658C72.3958 84.643 71.7928 84.259 71.3945 83.6964C71.1742 83.4364 71.0075 83.1353 70.9039 82.8106C70.8004 82.4859 70.7621 82.1439 70.7913 81.8043C70.913 81.1375 71.2774 80.5394 71.8142 80.1254C72.351 79.7114 73.022 79.5109 73.6979 79.5626C74.3635 79.7137 74.9555 80.0921 75.3722 80.6326C75.7888 81.1732 76.004 81.842 75.9807 82.5241C75.9372 82.8563 75.8244 83.1756 75.6496 83.4613C75.4748 83.7471 75.242 83.993 74.9661 84.1831V84.2037Z" fill="#C6C8F7"/>
<path d="M84.2414 70.3902C83.7746 70.006 83.2335 69.7224 82.6519 69.5573C82.0703 69.3921 81.4608 69.3489 80.8618 69.4304C79.6252 69.7008 78.524 70.3994 77.7525 71.4029C76.9811 72.4064 76.5891 73.6502 76.6458 74.9147C76.8405 76.113 77.4852 77.1917 78.4484 77.9307C79.4116 78.6696 80.6206 79.013 81.8284 78.8908C83.0636 78.6179 84.1633 77.9187 84.9343 76.9158C85.7053 75.9129 86.0983 74.6704 86.0444 73.4065C85.9684 72.8065 85.7689 72.2288 85.4586 71.7096C85.1483 71.1905 84.7339 70.7413 84.2414 70.3902ZM83.3982 75.7305C83.2053 76.0108 82.9553 76.2473 82.6647 76.4245C82.3741 76.6017 82.0494 76.7156 81.7118 76.7588C81.0289 76.7867 80.3579 76.5742 79.8155 76.1584C79.2731 75.7425 78.8937 75.1496 78.7435 74.4828C78.7 74.1467 78.7275 73.8052 78.8243 73.4805C78.9212 73.1557 79.0851 72.8549 79.3056 72.5976C79.4958 72.3176 79.7433 72.0812 80.0316 71.9039C80.32 71.7267 80.6426 71.6126 80.9783 71.5693C81.6606 71.544 82.3304 71.7575 82.8722 72.173C83.414 72.5884 83.794 73.1798 83.9467 73.8453C83.9925 74.1804 83.9673 74.5214 83.8728 74.8462C83.7784 75.1709 83.6167 75.4722 83.3982 75.7305Z" fill="#C6C8F7"/>
<path d="M88.6289 60.4775C88.0946 60.2254 87.5131 60.0889 86.9224 60.0771C86.3318 60.0653 85.7452 60.1784 85.2013 60.409C84.6384 60.6759 84.1337 61.0513 83.7161 61.5136C83.2985 61.9759 82.9762 62.516 82.7677 63.1031L81.2252 66.7707L89.3008 70.164L90.8501 66.4965C91.3956 65.3631 91.4744 64.0608 91.0694 62.87C90.8541 62.3218 90.5253 61.8254 90.1048 61.4131C89.6842 61.0008 89.1813 60.6819 88.6289 60.4775ZM89.0745 65.8452L88.389 67.4288L83.7891 65.4956L84.4746 63.9189C84.5923 63.5978 84.7747 63.3043 85.0106 63.0566C85.2465 62.809 85.5307 62.6124 85.8457 62.4792C86.312 62.2774 86.8289 62.2228 87.3272 62.3227C87.8254 62.4225 88.2813 62.6721 88.6339 63.0381C88.9864 63.4041 89.2188 63.869 89.3 64.3706C89.3812 64.8722 89.3073 65.3867 89.0882 65.8452H89.0745Z" fill="#C6C8F7"/>
<path d="M7.16058 43.1883C8.1919 42.3774 8.8619 41.1926 9.02522 39.8909C9.19376 39.093 9.2239 38.2722 9.11434 37.4641L7.44165 37.1625C7.3731 37.848 7.28398 38.5335 7.18115 39.1299C7.10445 39.9618 6.72659 40.737 6.11858 41.3099C5.83599 41.522 5.50994 41.6689 5.16383 41.7401C4.81772 41.8112 4.46016 41.8048 4.11683 41.7212C3.76603 41.6812 3.42828 41.5647 3.12742 41.3799C2.82656 41.1952 2.56991 40.9466 2.37559 40.6518C2.0054 39.9208 1.91519 39.0797 2.12194 38.2867C2.22477 37.704 2.36873 37.0185 2.55382 36.333L0.881131 36.0382C0.496928 36.7535 0.24167 37.5309 0.127049 38.3347C-0.16626 39.6097 0.0528378 40.9489 0.73717 42.064C1.07482 42.5693 1.51466 42.9981 2.02831 43.3228C2.54196 43.6475 3.11799 43.8609 3.71922 43.9492C4.31406 44.0723 4.92822 44.0682 5.52134 43.9371C6.11446 43.8059 6.67311 43.5507 7.16058 43.1883Z" fill="#C6C8F7"/>
<path d="M12.4051 29.6835L10.6776 28.9706L8.89518 33.2963L2.52661 30.6776L1.70398 32.6862L9.80694 36.0178L12.4051 29.6835Z" fill="#C6C8F7"/>
<path d="M17.0941 22.739L15.6065 21.7039L12.7959 25.7485L11.3768 24.7614L13.9613 21.0458L12.5285 20.0518L9.95091 23.7742L8.57985 22.8213L11.3837 18.7904L9.88921 17.7552L5.85144 23.5754L13.0495 28.5729L17.0941 22.739Z" fill="#C6C8F7"/>
<path d="M19.3012 20.4493L18.5265 18.5983L21.3989 16.055L23.1196 17.0696L24.8128 15.5614L16.8058 10.9684L14.0637 13.4226L17.6422 21.9369L19.3012 20.4493ZM16.8675 13.402L19.7536 15.0816L17.7519 16.8571L16.4151 13.7859L16.8675 13.402Z" fill="#C6C8F7"/>
<path d="M27.7403 14.026L26.5132 11.654L27.3907 11.2016C27.9983 11.8552 28.7737 12.3295 29.6324 12.5726C30.379 12.6426 31.1284 12.472 31.7712 12.0859C32.2108 11.8688 32.6024 11.5658 32.9229 11.1947L32.1688 9.70712C31.8329 9.89907 31.5587 10.0499 31.3393 10.1596C31.0384 10.3392 30.7011 10.4493 30.3522 10.4818C30.0206 10.4577 29.7024 10.3413 29.4336 10.1459L29.3581 10.0156C30.7292 8.97361 31.0445 7.7328 30.2973 6.28633C29.3833 4.45825 27.8043 4.12691 25.5603 5.29231L21.7968 7.23236L25.8071 15.02L27.7403 14.026ZM24.58 7.85619L26.2664 6.98557C26.6559 6.74746 27.1056 6.62611 27.5621 6.63595C27.7372 6.67061 27.9009 6.74829 28.0385 6.86197C28.1761 6.97566 28.2833 7.12179 28.3504 7.2872C28.4458 7.43838 28.5019 7.61092 28.5139 7.78925C28.5259 7.96758 28.4932 8.14608 28.419 8.30864C28.1725 8.69488 27.8137 8.99634 27.3907 9.17241L25.7043 10.043L24.58 7.85619Z" fill="#C6C8F7"/>
<path d="M41.0532 9.22715L40.5939 7.4105L36.0625 8.56219L34.3624 1.88513L32.2578 2.41984L34.4104 10.9136L41.0532 9.22715Z" fill="#C6C8F7"/>
<path d="M43.6856 9.07641L45.8519 8.94616L45.6737 5.83386L48.786 0L46.3318 0.143961L44.5768 3.6196L44.3712 3.63331L42.2392 0.383896L39.7233 0.527858L43.5074 5.97096L43.6856 9.07641Z" fill="#C6C8F7"/>
<path d="M61.4612 8.74746C61.6078 8.3546 61.6089 7.92224 61.4643 7.52864C61.3197 7.13505 61.0389 6.80624 60.6729 6.60175L60.714 6.44408C61.1015 6.41855 61.4686 6.2611 61.7542 5.99794C62.0398 5.73478 62.2267 5.38176 62.2839 4.99761C62.6815 3.44832 61.8474 2.41088 59.7817 1.88531L55.2435 0.71991L53.0635 9.20676L57.6017 10.3722C59.7542 10.9206 61.0408 10.379 61.4612 8.74746ZM56.9162 2.92046L59.0139 3.46203C59.356 3.52723 59.675 3.68086 59.9393 3.90762C60.0257 4.01061 60.0833 4.13464 60.1062 4.2671C60.129 4.39955 60.1164 4.53571 60.0696 4.6617C60.0468 4.79467 59.99 4.91948 59.9048 5.024C59.8195 5.12851 59.7086 5.20916 59.5829 5.25811C59.2366 5.32972 58.8777 5.31083 58.5409 5.20327L56.4843 4.66856L56.9162 2.92046ZM56.0524 6.27955L58.2255 6.83483C58.5826 6.90183 58.9146 7.06543 59.1853 7.30785C59.2775 7.41302 59.34 7.54083 59.3665 7.67817C59.393 7.8155 59.3825 7.95742 59.3361 8.08935C59.3136 8.22505 59.2563 8.3526 59.1698 8.45954C59.0833 8.56648 58.9705 8.64915 58.8425 8.69947C58.4975 8.78069 58.1366 8.76407 57.8005 8.65148L55.5931 8.0825L56.0524 6.27955Z" fill="#C6C8F7"/>
<path d="M68.4953 15.1433L69.3453 13.5392L64.9922 11.2358L65.8011 9.70705L69.8046 11.8253L70.6135 10.2829L66.6169 8.17147L67.3915 6.69758L71.731 8.9941L72.581 7.38996L66.3153 4.07886L62.2227 11.8253L68.4953 15.1433Z" fill="#C6C8F7"/>
<path d="M71.5591 17.5633L73.2112 18.9687L77.674 13.7312L79.8471 15.5821L81.0674 14.1562L75.0827 9.05591L73.8693 10.4818L76.0287 12.319L71.5591 17.5633Z" fill="#C6C8F7"/>
<path d="M77.6333 23.6712L78.9358 25.4056L84.4406 21.2719L86.1544 23.5547L87.6557 22.4304L82.9324 16.1441L81.4311 17.2684L83.1381 19.5375L77.6333 23.6712Z" fill="#C6C8F7"/>
<path d="M84.1523 35.2638L85.8112 34.5234L83.7889 30.0332L85.3657 29.3202L87.2234 33.4471L88.807 32.7342L86.9492 28.6073L88.4711 27.9218L90.4866 32.4051L92.1387 31.6579L89.2252 25.1934L81.2388 28.7924L84.1523 35.2638Z" fill="#C6C8F7"/>
<path d="M94.0651 39.3083L93.2493 35.154L84.6459 36.7924L85.0503 38.9313L87.6896 38.424L87.8747 39.3974C87.0961 39.7952 86.4381 40.3941 85.9689 41.1318C85.6961 41.831 85.6481 42.5978 85.8318 43.3255C85.9028 43.81 86.0682 44.2758 86.3186 44.6966L87.9638 44.3812C87.8747 44.011 87.8062 43.6957 87.765 43.4626C87.6915 43.1192 87.6915 42.764 87.765 42.4206C87.8837 42.1096 88.0852 41.8369 88.3477 41.6322H88.4986C89.1018 43.241 90.2055 43.8945 91.8097 43.5929C93.7703 43.1884 94.5381 41.7762 94.0651 39.3083ZM92.1867 40.837C92.1053 40.9957 91.9855 41.1315 91.8383 41.2321C91.691 41.3327 91.5209 41.3948 91.3435 41.4129C91.1705 41.4623 90.9879 41.4682 90.8121 41.4299C90.6362 41.3916 90.4726 41.3104 90.3358 41.1935C90.0415 40.8428 89.8558 40.4141 89.8011 39.9596L89.4446 38.0949L91.8782 37.6356L92.2278 39.5002C92.3438 39.9404 92.3295 40.4048 92.1867 40.837Z" fill="#C6C8F7"/>
<path d="M28.7548 35.1266H46.4003C46.784 35.1266 47.1519 34.9742 47.4231 34.703C47.6944 34.4317 47.8468 34.0638 47.8468 33.6802C47.8468 33.2965 47.6944 32.9286 47.4231 32.6574C47.1519 32.3861 46.784 32.2337 46.4003 32.2337H28.7548C28.3712 32.2337 28.0033 32.3861 27.732 32.6574C27.4607 32.9286 27.3083 33.2965 27.3083 33.6802C27.3083 34.0638 27.4607 34.4317 27.732 34.703C28.0033 34.9742 28.3712 35.1266 28.7548 35.1266Z" fill="#C6C8F7"/>
<path d="M51.3225 33.6801C51.3234 33.8727 51.3625 34.0632 51.4377 34.2405C51.5128 34.4179 51.6225 34.5785 51.7603 34.7131C51.898 34.8477 52.0612 34.9536 52.2403 35.0245C52.4193 35.0955 52.6107 35.1302 52.8033 35.1266H59.2404C59.624 35.1266 59.9919 34.9742 60.2632 34.7029C60.5344 34.4316 60.6868 34.0637 60.6868 33.6801C60.6868 33.2965 60.5344 32.9285 60.2632 32.6573C59.9919 32.386 59.624 32.2336 59.2404 32.2336H52.8033C52.6104 32.2291 52.4187 32.2631 52.2392 32.3337C52.0597 32.4044 51.8962 32.5102 51.7582 32.645C51.6203 32.7797 51.5106 32.9408 51.4358 33.1185C51.361 33.2963 51.3225 33.4872 51.3225 33.6801Z" fill="#C6C8F7"/>
<path d="M41.8346 49.598C41.8346 49.4083 41.7972 49.2206 41.7244 49.0455C41.6516 48.8703 41.545 48.7113 41.4106 48.5776C41.2762 48.4438 41.1166 48.3379 40.9412 48.266C40.7657 48.194 40.5778 48.1574 40.3882 48.1583H26.8695C26.504 48.1836 26.1617 48.3465 25.9116 48.6144C25.6616 48.8822 25.5226 49.235 25.5226 49.6014C25.5226 49.9678 25.6616 50.3205 25.9116 50.5884C26.1617 50.8562 26.504 51.0192 26.8695 51.0444H40.3607C40.5532 51.049 40.7447 51.0149 40.9238 50.9442C41.1029 50.8735 41.266 50.7676 41.4034 50.6327C41.5408 50.4978 41.6498 50.3368 41.7239 50.159C41.7979 49.9813 41.8356 49.7905 41.8346 49.598Z" fill="#C6C8F7"/>
<path d="M33.9031 56.8989C33.9049 57.2819 34.0579 57.6488 34.3287 57.9197C34.5996 58.1906 34.9665 58.3435 35.3495 58.3453H45.9478C46.3315 58.3453 46.6994 58.1929 46.9706 57.9217C47.2419 57.6504 47.3943 57.2825 47.3943 56.8989C47.3943 56.5152 47.2419 56.1473 46.9706 55.8761C46.6994 55.6048 46.3315 55.4524 45.9478 55.4524H35.3495C34.9659 55.4524 34.598 55.6048 34.3267 55.8761C34.0555 56.1473 33.9031 56.5152 33.9031 56.8989Z" fill="#C6C8F7"/>
<path d="M34.7737 41.7076C34.7746 41.5179 34.738 41.33 34.6661 41.1546C34.5941 40.9791 34.4882 40.8196 34.3545 40.6852C34.2207 40.5508 34.0617 40.4441 33.8866 40.3713C33.7115 40.2986 33.5237 40.2611 33.3341 40.2611H25.238C24.8543 40.2611 24.4864 40.4135 24.2152 40.6848C23.9439 40.956 23.7915 41.3239 23.7915 41.7076C23.7915 42.0912 23.9439 42.4591 24.2152 42.7304C24.4864 43.0016 24.8543 43.154 25.238 43.154H33.3341C33.7165 43.1522 34.0827 42.999 34.3524 42.728C34.6222 42.4569 34.7737 42.09 34.7737 41.7076Z" fill="#C6C8F7"/>
<path d="M40.6487 40.2611C40.2651 40.2611 39.8972 40.4135 39.6259 40.6848C39.3547 40.956 39.2023 41.3239 39.2023 41.7076C39.2023 42.0912 39.3547 42.4591 39.6259 42.7304C39.8972 43.0016 40.2651 43.154 40.6487 43.154H65.7734C66.157 43.154 66.5249 43.0016 66.7962 42.7304C67.0675 42.4591 67.2199 42.0912 67.2199 41.7076C67.2199 41.3239 67.0675 40.956 66.7962 40.6848C66.5249 40.4135 66.157 40.2611 65.7734 40.2611H40.6487Z" fill="#C6C8F7"/>
<path d="M36.8027 63.8777H31.5036C31.12 63.8777 30.7521 64.0301 30.4808 64.3013C30.2095 64.5726 30.0571 64.9405 30.0571 65.3242C30.0571 65.7078 30.2095 66.0757 30.4808 66.347C30.7521 66.6182 31.12 66.7706 31.5036 66.7706H36.8027C37.1864 66.7706 37.5543 66.6182 37.8255 66.347C38.0968 66.0757 38.2492 65.7078 38.2492 65.3242C38.2492 64.9405 38.0968 64.5726 37.8255 64.3013C37.5543 64.0301 37.1864 63.8777 36.8027 63.8777Z" fill="#C6C8F7"/>
<path d="M42.0954 27.7572H50.7467C50.9446 27.7708 51.1432 27.7436 51.3301 27.6773C51.517 27.611 51.6883 27.5069 51.8333 27.3716C51.9782 27.2362 52.0939 27.0725 52.1729 26.8906C52.2519 26.7087 52.2927 26.5125 52.2927 26.3141C52.2927 26.1158 52.2519 25.9196 52.1729 25.7377C52.0939 25.5558 51.9782 25.3921 51.8333 25.2567C51.6883 25.1214 51.517 25.0173 51.3301 24.951C51.1432 24.8847 50.9446 24.8575 50.7467 24.8711H42.0954C41.7298 24.8963 41.3875 25.0593 41.1375 25.3271C40.8875 25.595 40.7484 25.9477 40.7484 26.3141C40.7484 26.6805 40.8875 27.0333 41.1375 27.3011C41.3875 27.569 41.7298 27.732 42.0954 27.7572Z" fill="#C6C8F7"/>
</svg>
