<svg width="124" height="48" viewBox="0 0 124 48" fill="none" xmlns="http://www.w3.org/2000/svg">
<path d="M8.51965 47.4101C7.23847 47.4115 5.97349 47.1213 4.81908 46.5612C3.66467 46.001 2.65061 45.1854 1.85257 44.1751C1.05453 43.1647 0.493096 41.9858 0.21014 40.7262C-0.0728165 39.4666 -0.0699834 38.159 0.218422 36.9007C5.26546 15.5228 31.2252 0 61.9741 0C92.3791 0 118.302 15.3124 123.607 36.4179C123.986 37.9383 123.946 39.5343 123.49 41.0331C123.033 42.5319 122.179 43.8764 121.019 44.9208C119.859 45.9651 118.438 46.6696 116.909 46.9578C115.38 47.246 113.802 47.107 112.346 46.5559C84.8025 36.1207 42.3508 36.2817 11.2703 46.9521C10.3847 47.2564 9.45531 47.4111 8.51965 47.4101ZM61.9741 9.81629C37.2792 9.81629 15.6788 21.3159 10.3985 36.9253C27.4162 31.6829 45.1128 29.0214 62.9074 29.0279C81.536 28.9289 99.3787 31.5779 113.501 36.4551C111.045 29.5849 105.236 23.2842 96.9964 18.4937C87.2216 12.9233 74.8312 9.81629 61.9741 9.81629Z" fill="#C6C8F7"/>
</svg>
