<svg width="113" height="28" viewBox="0 0 113 28" fill="none" xmlns="http://www.w3.org/2000/svg">
<path d="M90.8099 27.5399H21.7723C16.001 27.5367 10.4669 25.225 6.38486 21.1125C2.30282 17 0.00650556 11.4227 0 5.60512C0.14654 4.40581 0.723075 3.30193 1.62103 2.50141C2.51899 1.70088 3.67638 1.25886 4.87513 1.25886C6.07387 1.25886 7.23123 1.70088 8.12918 2.50141C9.02714 3.30193 9.60371 4.40581 9.75025 5.60512C9.7535 8.81818 11.0211 11.8987 13.275 14.1707C15.5289 16.4427 18.5848 17.7204 21.7723 17.7237H90.8099C93.9974 17.7204 97.0534 16.4427 99.3072 14.1707C101.561 11.8987 102.829 8.81818 102.832 5.60512C102.74 4.90586 102.797 4.19469 102.999 3.51941C103.201 2.84412 103.544 2.22023 104.006 1.68951C104.467 1.1588 105.035 0.733511 105.672 0.442136C106.309 0.15076 107.001 0 107.701 0C108.401 0 109.092 0.15076 109.73 0.442136C110.367 0.733511 110.935 1.1588 111.396 1.68951C111.857 2.22023 112.201 2.84412 112.403 3.51941C112.605 4.19469 112.662 4.90586 112.57 5.60512C112.563 11.4206 110.269 16.996 106.189 21.1081C102.11 25.2203 96.579 27.5334 90.8099 27.5399Z" fill="#C6C8F7"/>
</svg>
