<svg width="117" height="116" viewBox="0 0 117 116" fill="none" xmlns="http://www.w3.org/2000/svg">
<path fill-rule="evenodd" clip-rule="evenodd" d="M103.939 50.6391L108.647 49.5648L107.429 44.3407L103.027 45.415L102.054 42.483L113.898 39.7682L114.565 42.7002L109.946 43.7551L111.133 48.983L115.752 47.9281L116.419 50.8563L104.571 53.5711L103.939 50.6391ZM108.007 32.4343C107.721 31.9006 107.372 31.4032 106.968 30.9528C106.832 30.8311 106.66 30.757 106.478 30.7416C106.296 30.7262 106.114 30.7704 105.959 30.8674C105.789 30.9382 105.645 31.0595 105.547 31.2149C105.448 31.3703 105.4 31.5524 105.409 31.7362C105.495 32.3735 105.673 32.9952 105.936 33.5823L106.456 34.8544C106.898 35.9946 107.293 36.9603 106.805 37.7437C106.588 38.5194 105.955 39.2019 104.897 39.7643C102.619 40.9588 100.597 39.8755 98.8309 36.5143C98.0091 35.1839 97.4251 33.7206 97.1051 32.19L99.0442 31.1738C99.7397 32.7096 100.413 34.0968 101.065 35.3353C101.335 35.9207 101.717 36.4476 102.19 36.8866C102.334 37.0196 102.517 37.103 102.713 37.1246C102.908 37.1462 103.105 37.105 103.275 37.0068C103.464 36.9329 103.632 36.8157 103.767 36.6648C103.901 36.5139 103.999 36.3335 104.051 36.1381C103.785 35.5332 103.552 34.9143 103.353 34.2842L102.845 33.0044C102.174 30.7395 102.438 29.0873 104.326 28.11C106.529 26.9491 108.494 28.0053 110.222 31.2786C110.904 32.5228 111.412 33.8553 111.73 35.2383L109.791 36.204C109.167 34.9048 108.565 33.5435 107.988 32.4343H108.007ZM95.9067 17.0646L94.301 18.7206L98.8076 23.0643L97.1283 24.8212L92.6916 20.6248L90.9386 22.1762L95.8407 26.9038L94.1071 28.6995L87.0409 21.8969L95.4878 13.1862L102.546 19.9927L101.127 21.8L95.9067 17.0646ZM82.608 19.0968L80.0095 17.6075L82.2628 14.117L81.8982 4.69663L84.9349 6.43411V11.8133L85.1793 11.9568L89.8526 9.24201L92.8079 10.9291L84.772 15.3465L82.608 19.0968ZM73.4823 64.919C73.0486 64.6294 72.6762 64.2572 72.3865 63.8236C72.0968 63.3901 71.8953 62.9036 71.7938 62.3921C71.6922 61.8806 71.6924 61.3541 71.7945 60.8427C71.8966 60.3314 72.0985 59.8451 72.3886 59.4118C73.6064 57.589 76.0808 57.0848 78.1634 58.3065C79.7147 59.5204 80.374 61.9909 79.0011 63.8137C78.414 64.6898 77.5039 65.2978 76.4697 65.5049C75.4356 65.712 74.3616 65.5014 73.4823 64.919ZM76.5229 60.3697C76.3563 60.2591 76.1684 60.1846 75.9712 60.1509C75.7741 60.1172 75.5721 60.125 75.3782 60.174C75.1843 60.2229 75.0028 60.3118 74.8453 60.435C74.6877 60.5582 74.5577 60.713 74.4635 60.8894C74.3593 61.0425 74.2871 61.2151 74.2514 61.3968C74.2156 61.5785 74.217 61.7655 74.2554 61.9467C74.2938 62.1279 74.3684 62.2994 74.4749 62.4509C74.5813 62.6025 74.7172 62.7309 74.8746 62.8286C75.5611 63.2823 76.4919 63.3211 76.9495 62.4136C77.1596 62.0847 77.2326 61.6867 77.1528 61.3047C77.0731 60.9227 76.847 60.5871 76.5229 60.3697ZM79.6953 55.9291L79.42 55.8903C78.8499 55.5878 78.6947 54.8781 79.42 54.0287C79.7419 53.4586 80.4749 53.3035 80.8123 53.6835L81.0877 53.8658C81.223 53.9561 81.3393 54.0722 81.4297 54.2074C81.5201 54.3427 81.583 54.4945 81.6147 54.6541C81.6464 54.8137 81.6463 54.9779 81.6144 55.1375C81.5826 55.297 81.5195 55.4487 81.4289 55.5839C81.0566 56.4837 80.281 56.3092 79.6953 55.9291ZM81.7431 68.9873C81.3553 69.4954 80.7464 69.6467 80.0211 69.2705L79.7458 69.0843C79.1757 68.6965 79.0244 67.9208 79.4045 67.5601C79.469 67.4 79.5683 67.2562 79.6952 67.1392C79.8222 67.0222 79.9735 66.9349 80.1384 66.8837C80.3032 66.8325 80.4774 66.8186 80.6483 66.843C80.8192 66.8674 80.9825 66.9296 81.1264 67.0249L81.7237 67.2072C81.884 67.4757 81.9703 67.7819 81.9737 68.0946C81.9771 68.4074 81.8975 68.7154 81.7431 68.9873ZM68.1264 59.4467L68.4017 59.7957C69.0998 60.0983 69.1231 60.8157 68.743 61.3471C68.3629 61.8784 67.5795 62.0723 67.2886 61.6922L66.7457 61.51C66.6102 61.4193 66.4939 61.3028 66.4034 61.1672C66.313 61.0316 66.2501 60.8796 66.2184 60.7197C66.1867 60.5598 66.1868 60.3952 66.2187 60.2353C66.2506 60.0755 66.3137 59.9235 66.4044 59.788C66.495 59.6525 66.6115 59.5362 66.7471 59.4458C66.8827 59.3553 67.0348 59.2924 67.1947 59.2607C67.3546 59.229 67.5192 59.2291 67.679 59.261C67.8389 59.293 67.9909 59.356 68.1264 59.4467ZM76.1118 44.0227L76.3872 43.9218C76.6676 44.0972 76.8736 44.3697 76.9659 44.6874C77.0582 45.005 77.0302 45.3455 76.8875 45.6438C76.5617 46.2139 75.8364 46.3652 75.0065 45.9851L74.7311 45.8028C74.4748 45.6061 74.302 45.3199 74.2474 45.0015C74.1928 44.683 74.2602 44.3556 74.4364 44.0847C74.5192 43.9386 74.6381 43.8161 74.7817 43.7288C74.9253 43.6416 75.0889 43.5925 75.2568 43.5863C75.4247 43.5801 75.5914 43.6169 75.741 43.6933C75.8907 43.7697 76.0183 43.8831 76.1118 44.0227ZM62.2313 52.3572L61.9598 52.1749C61.3897 51.787 61.5449 51.0114 61.8706 50.4568C61.934 50.3274 62.0252 50.2136 62.1379 50.1237C62.2505 50.0339 62.3817 49.9701 62.5219 49.9371C62.6622 49.9041 62.808 49.9026 62.9489 49.9328C63.0898 49.963 63.2222 50.024 63.3366 50.1116L63.612 50.2939C64.186 50.6817 64.6475 51.4574 63.9572 52.012C63.7733 52.2857 63.4887 52.4756 63.1654 52.5403C62.8421 52.6049 62.5063 52.5391 62.2313 52.3572ZM64.3799 38.9266L64.1045 38.7443C63.7555 38.3565 63.3832 37.5808 63.7633 37.0262C64.1433 36.4716 64.9268 36.301 65.8032 36.681L65.7606 36.8633C66.0342 37.0464 66.2239 37.3307 66.2879 37.6536C66.3519 37.9765 66.285 38.3117 66.1019 38.5853C65.9188 38.8589 65.6345 39.0486 65.3116 39.1126C64.9886 39.1766 64.6535 39.1097 64.3799 38.9266ZM63.2358 44.1545C63.2338 43.3545 63.4353 42.567 63.8214 41.8663C65.0392 39.9931 67.7385 39.5781 69.8444 40.9394C71.9504 42.3007 72.6717 44.9263 71.4501 46.8034C71.0002 47.4976 70.3447 48.1259 69.5924 48.2694C69.6723 47.7177 69.6255 47.1551 69.4555 46.6242C69.2855 46.0933 68.9967 45.6082 68.6111 45.2056C68.2233 46.4776 67.6959 47.7342 67.6959 47.7342C67.4198 48.1574 66.9874 48.4541 66.4933 48.5595C65.9991 48.6648 65.4833 48.5703 65.0586 48.2966C64.1782 47.7303 64.1782 46.5474 64.5001 45.8416C65.0902 45.1102 65.7387 44.4279 66.4393 43.8016C65.3717 43.4942 64.2258 43.621 63.2513 44.1545H63.2358ZM41.6453 44.8216L41.3699 44.6393C40.7998 44.2515 40.8153 43.4758 41.1372 42.9212C41.4591 42.3666 42.1805 42.5334 42.7506 42.8437L43.0259 42.7583C43.5961 43.1462 43.9102 43.9218 43.5883 44.4764C43.2664 45.031 42.545 45.2017 41.6608 44.8216H41.6453ZM54.688 34.8311L54.9634 35.0134C55.1094 35.0993 55.2364 35.2142 55.3365 35.3509C55.4366 35.4876 55.5078 35.6433 55.5456 35.8085C55.5834 35.9737 55.5871 36.1449 55.5564 36.3116C55.5258 36.4782 55.4614 36.6369 55.3673 36.7778C55.2732 36.9187 55.1513 37.0389 55.0091 37.1311C54.8668 37.2233 54.7073 37.2854 54.5402 37.3137C54.3731 37.3421 54.202 37.336 54.0374 37.2959C53.8728 37.2558 53.718 37.1825 53.5827 37.0805L53.3073 36.8943C53.175 36.811 53.0607 36.7019 52.9715 36.5734C52.8823 36.4449 52.8198 36.2998 52.788 36.1466C52.7561 35.9935 52.7555 35.8355 52.7861 35.6821C52.8167 35.5287 52.8779 35.383 52.966 35.2538C53.046 35.1053 53.1562 34.9753 53.2896 34.8721C53.4231 34.769 53.5767 34.6951 53.7406 34.6553C53.9044 34.6154 54.0749 34.6104 54.2408 34.6407C54.4067 34.671 54.5643 34.7359 54.7035 34.8311H54.688ZM53.2802 48.506L53.5517 48.6883C53.8253 48.8714 54.0149 49.1556 54.079 49.4786C54.143 49.8015 54.0761 50.1366 53.893 50.4102C53.7099 50.6838 53.4256 50.8735 53.1027 50.9375C52.7797 51.0015 52.4446 50.9346 52.171 50.7515L52.0934 50.5693C51.9381 50.5019 51.7994 50.4015 51.6869 50.275C51.5744 50.1485 51.4909 49.999 51.4421 49.8368C51.3934 49.6747 51.3806 49.5039 51.4047 49.3364C51.4287 49.1688 51.4891 49.0085 51.5815 48.8667C51.7628 48.5937 52.0441 48.4028 52.3647 48.3354C52.6854 48.2679 53.0198 48.3292 53.2957 48.506H53.2802ZM47.0284 45.5352C46.3749 45.0987 45.8655 44.4783 45.5644 43.7525C45.2634 43.0266 45.1842 42.2277 45.337 41.4569C45.4897 40.686 45.8675 39.9778 46.4226 39.4215C46.9777 38.8653 47.6852 38.486 48.4557 38.3317C49.2263 38.1774 50.0253 38.2549 50.7518 38.5545C51.4783 38.854 52.0997 39.3622 52.5375 40.0148C52.9753 40.6673 53.2099 41.435 53.2117 42.2209C53.2134 43.0067 52.9822 43.7754 52.5472 44.4299C52.2589 44.8644 51.8877 45.2377 51.4549 45.5285C51.0221 45.8193 50.5361 46.0219 50.0249 46.1246C49.5137 46.2272 48.9872 46.228 48.4757 46.1269C47.9641 46.0258 47.4776 45.8247 47.0439 45.5352H47.0284ZM50.4801 43.057C50.5906 42.8959 50.6682 42.7145 50.7085 42.5234C50.7488 42.3322 50.751 42.135 50.715 41.9429C50.679 41.7509 50.6054 41.5679 50.4985 41.4044C50.3917 41.2408 50.2536 41.0999 50.0922 40.9898C49.9208 40.8744 49.726 40.7983 49.5217 40.7669C49.3175 40.7355 49.1088 40.7495 48.9106 40.808C48.7124 40.8666 48.5296 40.9681 48.3752 41.1055C48.2208 41.2428 48.0986 41.4126 48.0173 41.6026C47.5597 42.0874 47.742 43.0143 48.6417 43.472C48.7753 43.6079 48.9415 43.7073 49.1244 43.7609C49.3073 43.8145 49.5008 43.8203 49.6866 43.778C49.8724 43.7356 50.0443 43.6464 50.1859 43.5188C50.3275 43.3913 50.4341 43.2296 50.4956 43.0492L50.4801 43.057ZM35.7308 62.1538L36.1381 62.4369C36.5763 62.9449 36.7276 63.484 36.3475 64.0541C36.2572 64.1899 36.1409 64.3066 36.0055 64.3975C35.87 64.4883 35.718 64.5516 35.5581 64.5837C35.3981 64.6157 35.2335 64.6159 35.0734 64.5843C34.9134 64.5527 34.7612 64.4898 34.6255 64.3993L34.3502 64.217C34.0766 64.0339 33.8869 63.7496 33.8229 63.4267C33.7589 63.1038 33.8258 62.7687 34.0089 62.495C34.192 62.2214 34.4762 62.0318 34.7992 61.9678C35.1221 61.9038 35.4572 61.9707 35.7308 62.1538ZM36.0799 50.162L36.3553 50.3443C36.9254 51.0269 37.0805 51.7444 36.7004 52.0624C36.6123 52.2012 36.4969 52.3208 36.3612 52.4138C36.2256 52.5068 36.0725 52.5714 35.9112 52.6037C35.75 52.636 35.5838 52.6352 35.4228 52.6015C35.2619 52.5678 35.1094 52.5018 34.9746 52.4076L34.6992 52.2253C34.4267 52.0423 34.2377 51.7587 34.1737 51.4367C34.1098 51.1147 34.176 50.7805 34.3579 50.5072C34.7419 50.1426 35.5098 49.782 36.0683 50.162H36.0799ZM44.0227 58.5159C43.8598 59.5475 42.8592 60.265 42.1611 60.1021C41.1996 59.8355 40.2586 59.4998 39.3454 59.0977C39.7333 60.2224 40.0978 61.223 40.9743 61.8745C40.2628 62.2573 39.4445 62.3937 38.6473 62.2623C36.4367 61.9172 34.9629 59.9625 35.3547 57.1507C35.7425 54.6725 37.8562 52.9428 40.0668 53.2724C40.8851 53.6137 41.6181 54.0714 42.1572 54.3622C41.5918 54.5619 41.0804 54.89 40.6632 55.3207C40.246 55.7513 39.9343 56.2729 39.7527 56.8444C40.6164 56.532 41.5227 56.3528 42.4403 56.313C42.6899 56.3516 42.9293 56.4395 43.1445 56.5716C43.3597 56.7037 43.5464 56.8774 43.6937 57.0825C43.841 57.2875 43.946 57.5199 44.0025 57.7661C44.059 58.0122 44.0658 58.2671 44.0227 58.5159ZM46.1208 59.8229L45.8455 59.9082C45.2754 59.6057 45.1241 58.4926 45.5042 57.9225C45.5945 57.7867 45.7107 57.67 45.8462 57.5792C45.9817 57.4883 46.1337 57.4251 46.2936 57.393C46.4535 57.3609 46.6182 57.3607 46.7782 57.3923C46.9382 57.424 47.0905 57.4869 47.2262 57.5774L47.5015 57.7596C47.637 57.8503 47.7533 57.9667 47.8438 58.1023C47.9342 58.2379 47.9971 58.39 48.0288 58.5499C48.0605 58.7098 48.0604 58.8744 48.0285 59.0343C47.9965 59.1941 47.9335 59.3461 47.8428 59.4816C47.7521 59.6171 47.6357 59.7334 47.5001 59.8238C47.3645 59.9143 47.2124 59.9772 47.0525 60.0089C46.8926 60.0406 46.728 60.0405 46.5682 60.0085C46.4083 59.9766 46.2563 59.9136 46.1208 59.8229ZM88.5456 44.0498C88.5728 44.0847 88.5922 44.3407 88.6116 44.1623C88.631 44.205 88.6504 44.2437 88.6659 44.2864C91.3279 49.7293 92.514 55.7757 92.1056 61.8209C91.6973 67.8661 89.7087 73.6981 86.3389 78.7335C86.3389 78.7568 86.304 78.7684 86.2885 78.7878C82.8411 83.915 78.0902 88.0314 72.5244 90.7136C67.1764 93.3207 61.2421 94.4915 55.3047 94.111H55.1263H54.9789C54.6848 94.0892 54.4114 93.9515 54.2187 93.7283C54.026 93.5051 53.9298 93.2145 53.9511 92.9204L56.2355 59.4506C56.2517 59.2332 56.3243 59.0237 56.446 58.8429C56.5677 58.662 56.7344 58.5159 56.9297 58.4189C57.1249 58.3229 57.342 58.2798 57.5592 58.2941C57.7763 58.3084 57.9859 58.3795 58.1669 58.5004L80.7153 73.5017C82.6229 70.3502 83.8672 66.8425 84.3721 63.1934C84.8769 59.5443 84.6316 55.8306 83.6512 52.2796C83.5645 51.9623 83.6072 51.6235 83.7701 51.3377C83.933 51.0519 84.2027 50.8424 84.52 50.7554C84.8613 50.6862 85.216 50.7339 85.5269 50.8908C85.8379 51.0477 86.087 51.3046 86.2342 51.6203C87.2334 55.5338 87.4429 59.6072 86.8502 63.6026C86.2576 67.5979 84.8747 71.4352 82.7825 74.8901L84.9427 76.55C90.6748 67.0831 91.2605 55.7933 86.909 46.4001L62.7471 58.3375C62.4524 58.4825 62.1122 58.5046 61.8013 58.3987C61.4904 58.2929 61.2342 58.0679 61.0892 57.7732C60.9441 57.4785 60.9221 57.1383 61.0279 56.8274C61.1338 56.5164 61.3588 56.2603 61.6535 56.1152L81.2622 46.4195C79.1633 42.6251 76.1823 39.3913 72.5709 36.9913C69.8871 35.4167 66.9473 33.9274 63.8369 33.1867C63.548 33.064 63.3045 32.8542 63.1405 32.5865C62.9764 32.3189 62.8999 32.0067 62.9217 31.6935C62.9595 31.5348 63.0282 31.3851 63.1239 31.253C63.2197 31.1208 63.3405 31.0089 63.4796 30.9235C63.6186 30.8381 63.7731 30.781 63.9343 30.7554C64.0954 30.7298 64.26 30.7363 64.4187 30.7744C67.824 31.5474 71.0554 32.9481 73.9477 34.9048C77.9209 37.5462 81.1945 41.1113 83.4883 45.2948L85.8153 44.1313C83.3305 39.5348 79.753 35.6203 75.3982 32.7329C70.8916 29.9134 66.1872 28.0247 61.0484 27.5166L59.0666 54.3467C59.024 55.0332 58.4306 55.549 58.0621 55.5102C57.0615 55.4714 56.5418 54.8781 56.5884 54.1955L58.0272 32.4188C54.205 32.3457 50.4105 33.0824 46.8932 34.5803C43.376 36.0783 40.2155 38.3036 37.6196 41.1101C37.3869 41.591 36.4328 41.7034 35.9131 41.3117C35.3197 40.8618 35.2577 40.0125 35.7502 39.7953C38.5362 36.6103 41.9901 34.0786 45.866 32.3806C49.7419 30.6826 53.9445 29.8601 58.1746 29.9716L58.3453 27.3925C53.1128 27.27 47.9288 28.4189 43.2381 30.7406C38.5474 33.0623 34.49 36.4875 31.4143 40.7222L53.8076 55.6227C53.9516 55.7184 54.074 55.8433 54.1668 55.9892C54.2595 56.1352 54.3207 56.2989 54.3463 56.4699C54.3718 56.641 54.3613 56.8155 54.3153 56.9822C54.2693 57.1489 54.1888 57.3041 54.0791 57.4377C53.8735 57.6771 53.5864 57.8318 53.2734 57.8719C52.9604 57.912 52.6437 57.8347 52.3843 57.6549L34.2493 45.5779C32.3123 48.7724 31.0583 52.3336 30.5664 56.0369C30.0744 59.7402 30.3552 63.5053 31.391 67.0947C31.4379 67.2523 31.4531 67.4177 31.4357 67.5812C31.4183 67.7447 31.3687 67.9032 31.2897 68.0474C31.2107 68.1917 31.104 68.3188 30.9756 68.4216C30.8472 68.5243 30.6997 68.6006 30.5417 68.646C30.2522 68.7322 29.9423 68.719 29.6612 68.6087C29.3801 68.4983 29.1439 68.2971 28.9903 68.0371C26.8755 59.9843 28.0254 51.4222 32.19 44.2127L30.0297 42.7739C27.2929 47.2264 25.6831 52.2792 25.3398 57.4944C24.9965 62.7096 25.93 67.9298 28.0596 72.7028L52.2175 60.7692C52.3642 60.6893 52.5255 60.6398 52.6917 60.6237C52.858 60.6076 53.0258 60.6252 53.1851 60.6755C53.3443 60.7258 53.4918 60.8078 53.6187 60.9164C53.7455 61.0251 53.8491 61.1582 53.9233 61.3078C53.9975 61.4575 54.0407 61.6206 54.0503 61.7873C54.06 61.9541 54.0359 62.1211 53.9794 62.2783C53.923 62.4355 53.8354 62.5797 53.7219 62.7022C53.6084 62.8248 53.4714 62.9232 53.319 62.9915L27.9238 75.7821C27.6313 75.808 27.3373 75.7529 27.074 75.623C26.8106 75.493 26.5881 75.2932 26.4307 75.0452L26.3686 74.9328C26.6285 74.894 26.4578 74.8513 26.3143 74.8087C23.6732 69.3528 22.5052 63.3009 22.9262 57.254C23.3473 51.2071 25.3428 45.3755 28.7145 40.3382C32.0863 35.301 36.717 31.2333 42.1469 28.5392C47.5768 25.845 53.617 24.6181 59.6678 24.9802H59.8035C59.8461 24.9762 59.8889 24.9762 59.9315 24.9802C65.9579 25.3757 71.7754 27.3444 76.8036 30.6897C81.8318 34.0351 85.8952 38.6402 88.5883 44.0459L88.5456 44.0498ZM58.5624 61.7582L58.3608 64.7057C58.3647 64.7573 58.3647 64.8092 58.3608 64.8608L57.0383 86.622C64.4614 86.7539 72.0163 83.7831 76.9417 78.3612C77.4188 78.1208 78.2061 77.9734 78.6986 78.3263C78.9349 78.5548 79.0708 78.8677 79.0767 79.1964C79.0825 79.525 78.9577 79.8426 78.7296 80.0793C75.8763 83.0105 72.4582 85.3326 68.6819 86.9052C64.9055 88.4777 60.8495 89.268 56.759 89.2282L56.5884 91.6871C61.82 91.8044 67.0024 90.6549 71.6937 88.3365C76.385 86.0182 80.4462 82.5998 83.531 78.3728L58.5624 61.7582ZM74.5023 78.0122L74.2153 78.1712C74.0153 78.2817 73.7889 78.3354 73.5606 78.3265C73.3323 78.3177 73.1107 78.2465 72.9199 78.1208C72.7609 78.016 72.6252 78.1712 72.5321 77.6903C72.1986 77.3761 72.4158 76.3367 73.0169 76.0071L73.3039 75.8442C73.905 75.7821 74.6613 75.7278 74.991 76.3251C75.0707 76.4671 75.1217 76.6235 75.1409 76.7852C75.1601 76.947 75.1472 77.111 75.1029 77.2677C75.0585 77.4245 74.9837 77.5709 74.8826 77.6987C74.7816 77.8264 74.6563 77.9329 74.5139 78.0122H74.5023ZM68.4521 79.9125C66.2725 81.1652 63.6004 80.6145 62.4873 78.6792C62.086 77.9739 61.9266 77.1566 62.0335 76.3522C62.9828 76.9402 64.1267 77.1271 65.2137 76.8719C64.2519 75.9528 63.3793 74.9056 63.3793 74.9056C63.1273 74.4675 63.0597 73.9471 63.1913 73.4591C63.323 72.971 63.6431 72.5553 64.0813 72.3033C64.5195 72.0513 65.0398 71.9837 65.5278 72.1153C66.0159 72.247 66.4316 72.5671 66.6836 73.0053C66.6836 73.0053 67.149 74.2851 67.4593 75.5805C68.2349 74.9638 68.6499 73.6413 68.6228 72.5709C69.3848 72.8514 70.0162 73.404 70.3952 74.1222C71.5082 76.0769 70.6434 78.6598 68.4638 79.9125H68.4521ZM62.9837 69.2588L62.6928 69.4217C62.4935 69.5326 62.2674 69.5862 62.0394 69.5766C61.8115 69.5671 61.5907 69.4946 61.4014 69.3674C61.2424 69.2627 61.1027 69.1192 61.0135 69.1386C60.68 68.3397 60.9011 67.5873 61.4983 67.2537L61.7892 67.0947C62.5649 66.7612 63.1466 66.9784 63.4763 67.5756C63.802 68.4638 63.581 69.0339 62.9837 69.2588ZM62.7239 81.0566C62.8033 81.1988 62.8537 81.3553 62.8723 81.5171C62.8909 81.6789 62.8773 81.8427 62.8322 81.9992C62.7871 82.1557 62.7115 82.3017 62.6097 82.4288C62.5079 82.556 62.3819 82.6616 62.2391 82.7398L61.9482 83.0617C61.5062 83.1533 61.0458 83.0773 60.6567 82.8484C60.4799 82.7302 60.3366 82.5685 60.2405 82.3788C60.1444 82.1891 60.0988 81.9778 60.1082 81.7654C60.1175 81.5529 60.1815 81.3465 60.2939 81.1659C60.4063 80.9854 60.5633 80.8369 60.7498 80.7347H61.0368C61.6379 80.2383 62.6696 80.4516 62.7239 81.0566ZM71.5354 12.2283C70.1896 13.4538 68.5297 13.3724 66.5595 13.004L61.1299 12.0111L63.3522 0.0930794L68.7818 1.41946C70.752 1.53193 72.2063 2.27657 73.1488 3.5758C74.0912 4.87503 74.6264 6.4186 74.064 8.22977C73.9462 9.0362 73.6601 9.80887 73.2245 10.4977C72.7889 11.1865 72.2134 11.7761 71.5354 12.2283ZM70.5852 5.0418C69.9965 4.28182 69.1359 3.77991 68.1845 3.64173L65.8575 3.21512L64.5971 10.2465L66.9241 10.4326C67.3657 10.5435 67.8254 10.5624 68.2746 10.4882C68.7239 10.4141 69.1531 10.2484 69.5356 10.0015C69.9182 9.75456 70.2459 9.43168 70.4985 9.05286C70.7511 8.67404 70.9232 8.24735 71.0041 7.79928C71.2112 6.85998 71.0619 5.87722 70.5852 5.0418ZM50.4723 4.90218L50.3094 5.04956L50.8058 12.8643L47.8195 13.1862L46.5824 1.12083L50.5111 0.705852L55.7545 8.17159L56.2277 8.12118L55.7041 0.193915L58.3957 0L59.6367 12.2555L55.6809 12.3563L50.4723 4.90218ZM44.267 14.4312L42.4675 12.364L37.5381 14.3032L37.7204 17.0839L35.1995 18.2474L34.3269 5.48393L38.8335 3.54477L47.1796 13.2405L44.267 14.4312ZM37.7786 6.7754L37.0029 7.08955L37.3326 11.7125L40.7688 10.3124L37.7786 6.7754ZM27.3072 24.3752L21.1019 17.1499L18.1117 19.7096L16.4246 17.9023L24.7048 10.6498L26.3919 12.6161L23.3823 15.1952L29.5876 22.4205L27.3072 24.3752ZM12.9031 27.792C13.0415 27.9138 13.2141 27.9899 13.3973 28.01C13.5805 28.0302 13.7655 27.9933 13.927 27.9044C14.4628 27.5438 14.9435 27.1075 15.3542 26.6091L16.2889 25.5968C17.1214 24.6945 17.9372 24.1644 18.7361 24.0067C19.5389 23.8477 20.4193 24.1192 21.3889 24.8212C23.4599 26.3298 23.3784 28.8313 21.129 31.6935C20.0004 33.2449 19.058 34.3851 18.0031 35.1297L16.2501 33.8344C17.2895 32.5312 18.228 31.4143 19.0696 30.1771C19.4767 29.6774 19.7824 29.103 19.9694 28.4862C20.0664 28.0479 19.9423 27.7105 19.5816 27.7803C19.2131 27.1869 18.868 27.1443 18.7594 27.3188C18.228 27.4894 17.7549 27.9238 17.1188 28.6995L16.1881 29.6031C14.5398 31.4182 12.8527 31.9301 11.1463 30.4486C9.13729 29.2386 9.2071 26.7603 11.41 23.7663C12.218 22.6111 13.1751 21.5678 14.2567 20.6636L16.029 21.9473C15.0401 23.2039 14.1752 24.2278 13.4306 25.2323C13.045 25.7037 12.748 26.2412 12.5541 26.8185C12.4942 26.9964 12.4961 27.1892 12.5595 27.3659C12.6228 27.5425 12.7439 27.6926 12.9031 27.792ZM16.0058 37.2822C16.4712 38.487 16.3652 39.9479 15.6878 41.6647C15.0129 43.3789 14.0938 44.8487 12.9342 45.0814C11.7707 45.6438 10.6653 45.6128 8.80764 44.9922L2.13695 42.386L3.25778 39.5587L9.80048 42.1145C11.441 42.7545 12.5812 42.2736 13.2134 40.6602C13.8456 39.0468 13.3453 38.213 11.7009 37.2822L5.15815 34.7225L6.25571 31.934L12.9225 34.5402C14.5178 35.1607 15.5456 36.0747 16.0058 37.2822ZM5.2745 47.1098C7.52392 47.3399 8.72878 48.6417 8.88908 51.0153L9.09851 51.0385C9.32611 50.9843 9.54006 50.8836 9.72692 50.7428C9.91379 50.6019 10.0695 50.424 10.1844 50.2202C10.3706 50.0728 10.4986 49.4678 10.5723 48.8318C10.611 48.4944 10.6421 48.0561 10.677 47.5325L13.004 47.7691C13.3453 48.2733 13.194 48.9326 13.1087 49.7587C12.9768 51.023 12.6226 51.9732 12.046 52.6092C11.472 53.2414 10.3822 53.7727 8.78437 54.242L8.64087 55.549L12.3485 55.9368L12.0228 58.9193L0 57.845L0.531328 51.9034C0.892011 48.4052 2.47436 46.8926 5.2745 47.1098ZM3.63785 50.577C3.44668 50.8271 3.32218 51.1216 3.27605 51.433C3.22992 51.7444 3.26367 52.0624 3.37413 52.3572L2.7885 54.9556L6.17427 55.3008L6.44963 52.6868C6.54982 52.3825 6.5823 52.0599 6.54478 51.7417C6.50727 51.4235 6.40067 51.1173 6.23244 50.8446C6.12252 50.659 5.97248 50.5004 5.79331 50.3802C5.61414 50.2601 5.41037 50.1816 5.19693 50.1504C4.38637 50.0883 3.93648 50.2318 3.63785 50.577ZM2.93588 61.5449C2.77308 62.5154 2.77308 63.5063 2.93588 64.4769C3.14143 65.6791 3.59519 66.6797 4.30492 67.2731C4.68975 67.575 5.13614 67.7888 5.61259 67.8993C6.08904 68.0099 6.58394 68.0146 7.0624 67.913C7.55162 67.8713 8.0255 67.7216 8.44998 67.4748C8.87446 67.228 9.23899 66.8903 9.51737 66.4858C10.3512 65.7102 10.1767 64.6087 9.97113 63.2009C9.84702 62.3632 9.67638 61.4673 9.45531 60.4861L11.7823 60.1409C12.2586 61.1799 12.6477 62.2566 12.9458 63.3599C13.0117 65.4464 12.6704 67.1257 11.7009 68.5064C11.2133 69.1923 10.5865 69.7676 9.86136 70.1946C9.13625 70.6217 8.32917 70.8909 7.49289 70.9847C5.65457 71.5393 4.07222 70.8761 2.74972 69.8444C1.42722 68.8128 0.655434 67.2848 0.352926 65.2331C0.155132 63.8718 0.147376 62.7588 0.562355 61.89L2.93588 61.5449ZM19.5001 84.2291L49.5337 69.4489C49.7395 69.3528 49.9664 69.3113 50.1928 69.3284C50.4193 69.3455 50.6374 69.4205 50.8264 69.5464C51.0154 69.6722 51.1688 69.8446 51.2718 70.0469C51.3749 70.2493 51.4241 70.4747 51.4147 70.7015C50.9532 77.6825 49.5415 98.8852 49.4019 103.997C49.3474 104.322 49.1711 104.614 48.9088 104.814C48.6465 105.013 48.318 105.105 47.9902 105.071C47.9902 105.071 47.8622 105.071 47.8157 105.071C41.7619 104.674 35.9182 102.696 30.8674 99.3351C25.6434 95.8756 22.0249 91.2294 19.0774 86.0984C19.0706 86.024 19.0495 85.9516 19.0153 85.8851C19.0153 85.8851 18.9843 85.8153 19.0968 85.7145C18.709 85.1482 19.1937 84.5006 19.5001 84.2291ZM32.2365 97.2757C36.5727 100.163 41.5448 101.954 46.7259 102.496L48.7309 73.4086C48.7542 73.0208 48.3703 72.7803 48.2655 72.9432L26.3725 83.628C28.4455 87.4397 31.4302 90.6788 35.0599 93.0561C37.7648 94.8137 40.709 96.1721 43.8016 97.0896C44.4687 97.0236 44.8798 97.6946 44.7169 98.3616C44.8759 99.0248 43.8869 99.4359 43.2199 99.2769C39.8485 98.4926 36.6543 97.0823 33.8033 95.1194C29.7636 92.5187 26.4406 88.9464 24.1386 84.7294L21.8116 85.8929C24.3022 90.4834 27.882 94.3922 32.2365 97.2757ZM43.6271 80.2112L43.3517 79.994C43.2164 79.9037 43.1001 79.7876 43.0097 79.6523C42.9192 79.5171 42.8564 79.3653 42.8247 79.2057C42.793 79.0461 42.7931 78.8819 42.8249 78.7223C42.8568 78.5627 42.9198 78.411 43.0104 78.2759C43.6814 77.7058 44.4144 77.5506 44.7324 77.9268L45.0078 78.113C45.1431 78.2033 45.2594 78.3194 45.3498 78.4546C45.4402 78.5899 45.5031 78.7416 45.5348 78.9012C45.5665 79.0608 45.5664 79.2251 45.5345 79.3847C45.5027 79.5442 45.4396 79.6959 45.3491 79.8311C45.1637 80.1011 44.8821 80.29 44.562 80.3593C44.2419 80.4285 43.9074 80.3727 43.6271 80.2034V80.2112ZM43.2393 87.6149C42.9681 88.0861 42.6032 88.4966 42.1669 88.8211C41.7307 89.1455 41.2325 89.3769 40.7032 89.501C40.1738 89.625 39.6247 89.6391 39.0897 89.5423C38.5548 89.4455 38.0454 89.2398 37.5931 88.9382C37.1408 88.6365 36.7553 88.2451 36.4605 87.7884C36.1656 87.3316 35.9676 86.8192 35.8788 86.2829C35.7901 85.7465 35.8124 85.1976 35.9443 84.6702C36.0763 84.1429 36.3152 83.6482 36.6461 83.2169C36.9172 82.7456 37.2822 82.3351 37.7185 82.0106C38.1547 81.6862 38.6529 81.4548 39.1822 81.3307C39.7115 81.2067 40.2607 81.1926 40.7957 81.2894C41.3306 81.3862 41.84 81.5919 42.2923 81.8935C42.7445 82.1952 43.1301 82.5866 43.4249 83.0433C43.7198 83.5 43.9178 84.0125 44.0065 84.5488C44.0953 85.0852 44.073 85.6341 43.941 86.1615C43.8091 86.6889 43.5702 87.1835 43.2393 87.6149ZM40.7533 84.1593C40.5075 83.9952 40.2186 83.9076 39.9231 83.9078C39.6276 83.908 39.3388 83.9959 39.0932 84.1603C38.8477 84.3247 38.6564 84.5583 38.5437 84.8315C38.431 85.1047 38.4019 85.4051 38.4601 85.6949C38.5182 85.9846 38.661 86.2505 38.8705 86.4591C39.0799 86.6676 39.3464 86.8092 39.6364 86.8662C39.9264 86.9231 40.2267 86.8927 40.4994 86.7788C40.7721 86.6649 41.0049 86.4727 41.1682 86.2264C41.6259 85.5477 41.622 84.6208 40.7533 84.1593ZM43.5456 90.9269L43.821 91.1092C44.3911 91.497 44.7324 92.2727 44.4105 92.8273C44.0886 93.3819 43.0104 93.5525 42.4403 93.1725L42.165 93.3082C41.9216 93.0334 41.7702 92.6894 41.732 92.3243C41.6937 91.9593 41.7705 91.5914 41.9517 91.2721C42.2736 90.7097 43.3207 90.5546 43.5456 90.9347V90.9269ZM31.8021 86.2768L31.5306 86.0984C31.28 85.8985 31.1082 85.6163 31.0458 85.3018C30.9833 84.9873 31.0342 84.6609 31.1894 84.3803C31.5772 83.8102 32.3528 83.6551 33.1285 84.0352L33.1828 84.2174C33.4392 84.4074 33.6126 84.6887 33.667 85.0031C33.7213 85.3175 33.6526 85.6408 33.4749 85.9058C33.2972 86.1708 33.0243 86.3572 32.7128 86.4263C32.4013 86.4954 32.0752 86.4419 31.8021 86.2768ZM77.3528 113.425L67.8316 115.857L67.215 113.425L73.8081 111.742L73.4862 109.512L67.1607 111.063L66.5712 108.736L72.6485 107.185L72.1443 104.858L65.4464 106.545L64.8298 104.113L74.3627 101.681L77.3528 113.425ZM82.86 100.212L76.837 103.427L75.6735 101.216L84.3571 96.5621L90.0698 107.243L81.5647 111.897L80.374 109.958L86.2264 106.467L85.1405 104.439L79.6061 107.398L78.4698 105.273L84.008 102.659L82.86 100.212ZM95.8407 97.1089C95.1936 97.3191 94.5913 97.6479 94.0645 98.0785L92.963 98.8968C91.9663 99.6105 91.0627 100.188 90.2482 100.13C89.4338 100.072 88.6232 99.5057 87.8204 98.6215C86.0984 96.7237 86.6479 94.4976 89.4687 91.943C90.892 90.861 92.1447 89.744 93.2306 89.2088L94.7005 90.8261C93.3819 91.8862 92.2029 92.8868 91.1635 93.8279C90.5275 94.4019 90.1164 94.8944 90.2405 95.4645C89.7557 96.0579 89.8061 96.1859 90.0892 96.3876C90.3956 96.725 90.7253 97.1089 91.179 96.7327C91.7299 96.4584 92.2567 96.1379 92.7536 95.7748L93.8667 94.9642C95.8524 93.5215 97.5601 93.5862 98.9899 95.1582C100.663 96.9965 100.124 99.1619 97.3727 101.654C96.3475 102.614 95.1999 103.435 93.9598 104.094L92.4899 102.48C93.696 101.794 94.7664 100.623 95.6972 99.785C96.3178 99.2265 96.7095 98.765 96.8607 98.6215C96.9531 98.428 96.9865 98.2115 96.9569 97.9992C96.9272 97.7868 96.8358 97.5878 96.694 97.427C96.6042 97.2908 96.4738 97.1865 96.3213 97.1287C96.1689 97.0709 96.0021 97.0626 95.8446 97.1051L95.8407 97.1089ZM95.4529 86.0247L100.285 77.954L110.737 83.9848L109.205 86.5793L100.983 81.747L97.9661 87.324L95.4529 86.0247ZM103.21 77.8803L100.735 77.1046L103.628 68.0682L115.186 71.7487L114.267 74.6148L105.172 71.7332L103.21 77.8803ZM104.206 64.3489L106.902 63.6236L107.204 58.322L104.61 57.5463L104.784 54.2187L116.737 58.9813L116.392 64.0929L104.016 67.4826L104.206 64.3489ZM113.902 61.7621L114.03 60.9321L109.62 59.2567L109.407 62.9527L113.902 61.7621Z" fill="#C6C8F6"/>
</svg>
