<svg width="41" height="39" viewBox="0 0 41 39" fill="none" xmlns="http://www.w3.org/2000/svg">
<g clip-path="url(#clip0_132:1545)">
<path d="M30.4048 39H9.59198C7.85212 38.999 6.18375 38.3055 4.95314 37.0718C3.72252 35.838 3.03025 34.1648 3.02829 32.4195C3.07247 32.0597 3.24628 31.7286 3.51698 31.4884C3.78769 31.2483 4.13661 31.1157 4.498 31.1157C4.85938 31.1157 5.20829 31.2483 5.479 31.4884C5.74971 31.7286 5.92353 32.0597 5.9677 32.4195C5.96868 33.3835 6.35084 34.3076 7.03031 34.9892C7.70978 35.6708 8.63106 36.0541 9.59198 36.0551H30.4048C31.3657 36.0541 32.287 35.6708 32.9665 34.9892C33.646 34.3076 34.0281 33.3835 34.0291 32.4195C34.0013 32.2098 34.0184 31.9964 34.0794 31.7938C34.1404 31.5912 34.2439 31.4041 34.3829 31.2449C34.5219 31.0856 34.6932 30.9581 34.8853 30.8706C35.0775 30.7832 35.286 30.738 35.497 30.738C35.7079 30.738 35.9165 30.7832 36.1086 30.8706C36.3007 30.9581 36.472 31.0856 36.611 31.2449C36.75 31.4041 36.8535 31.5912 36.9145 31.7938C36.9755 31.9964 36.9927 32.2098 36.9648 32.4195C36.9629 34.1642 36.2711 35.8368 35.0413 37.0704C33.8115 38.3041 32.144 38.998 30.4048 39Z" fill="#6369F4"/>
<path d="M3.71314 29.5007C3.62433 29.5362 3.5285 29.5506 3.43321 29.5427C3.33791 29.5348 3.24574 29.5049 3.16394 29.4552C3.08213 29.4055 3.01293 29.3375 2.96177 29.2565C2.9106 29.1754 2.87888 29.0836 2.86908 28.9882L0.0259105 17.1047C-0.0814484 16.6591 0.133273 16.362 0.666366 16.2432C2.53219 15.8099 4.41159 15.4386 6.30456 15.1291C7.98899 14.8209 10.0066 14.7578 11.5281 15.6082C12.8016 16.31 13.431 17.8586 13.5494 19.2549C13.6679 20.6512 13.3606 22.2258 12.3315 23.2136C11.169 24.3276 9.44758 24.699 7.91494 24.9924C7.34483 25.0852 7.06347 25.1335 6.49336 25.2374L7.01535 28.1118C7.04531 28.2027 7.05375 28.2994 7.03997 28.3942C7.02618 28.489 6.99057 28.5793 6.93596 28.6578C6.88135 28.7364 6.80923 28.8011 6.72534 28.8469C6.64144 28.8926 6.54808 28.9181 6.45264 28.9213C5.53824 29.1107 4.62014 29.2853 3.71314 29.5007ZM7.29671 21.5833C7.79045 21.5478 8.25821 21.3478 8.62573 21.0151C8.7552 20.8414 8.84516 20.6413 8.88929 20.4289C8.93342 20.2166 8.93065 19.9971 8.88118 19.7859C8.87348 19.5665 8.81535 19.3517 8.71132 19.1585C8.6073 18.9652 8.46018 18.7987 8.28145 18.6719C7.81661 18.4622 7.29472 18.4164 6.80063 18.5419C6.21201 18.6422 5.91585 18.6941 5.31982 18.8018L5.87142 21.8247C6.44153 21.7281 6.72659 21.6836 7.29671 21.5833Z" fill="#6369F4"/>
<path d="M22.749 13.9593C22.9568 13.9442 23.1637 13.9987 23.3372 14.1143C23.5108 14.2299 23.6411 14.4001 23.7078 14.5981C25.1109 18.683 26.3289 22.8014 27.3617 26.994C27.3998 27.0903 27.4136 27.1946 27.402 27.2976C27.3904 27.4006 27.3537 27.4991 27.2951 27.5844C27.2314 27.658 27.15 27.714 27.0586 27.7472C26.9673 27.7803 26.869 27.7895 26.7731 27.7738C25.7958 27.6959 24.8147 27.6364 23.8374 27.603C23.6418 27.6124 23.4494 27.5502 23.2962 27.4279C23.1429 27.3056 23.0392 27.1316 23.0044 26.9383C22.849 26.3441 22.7675 26.0433 22.6083 25.4529C21.3422 25.4232 20.0761 25.4232 18.81 25.4529C18.6583 26.047 18.5842 26.3478 18.4398 26.9383C18.4093 27.134 18.3085 27.3118 18.1565 27.4383C18.0045 27.5648 17.8117 27.6313 17.6143 27.6253C16.6369 27.6624 15.6559 27.7256 14.6786 27.8073C14.5827 27.8229 14.4844 27.8137 14.393 27.7806C14.3017 27.7475 14.2203 27.6914 14.1566 27.6179C14.0971 27.5329 14.0595 27.4346 14.0473 27.3315C14.035 27.2285 14.0484 27.124 14.0862 27.0274C15.108 22.836 16.3124 18.7003 17.6994 14.6203C17.7659 14.4227 17.8955 14.2525 18.0682 14.1364C18.2409 14.0202 18.447 13.9645 18.6545 13.9779C20.0169 13.9408 21.3792 13.937 22.749 13.9593ZM21.9346 22.0178C21.5644 20.6883 21.1571 19.37 20.7499 18.0517H20.6833C20.2489 19.3712 19.8306 20.6945 19.4283 22.0215C20.4315 22.0029 20.9461 22.0029 21.9346 22.0178Z" fill="#6369F4"/>
<path d="M38.2716 27.9633C37.6317 28.4734 36.8623 28.7937 36.0504 28.8879C35.1523 28.9909 34.2438 28.9583 33.3553 28.7914C31.7561 28.5017 30.1679 28.0969 28.7574 27.202C28.6759 27.1662 28.6029 27.1133 28.5434 27.047C28.4838 26.9807 28.4391 26.9024 28.4121 26.8173C28.3851 26.7323 28.3766 26.6424 28.3869 26.5538C28.3973 26.4652 28.4264 26.3797 28.4723 26.3032C28.8166 25.6199 28.9943 25.2783 29.3497 24.5987C29.3835 24.5057 29.4384 24.4219 29.5101 24.3538C29.5817 24.2857 29.6682 24.2353 29.7626 24.2065C29.8571 24.1777 29.9569 24.1713 30.0542 24.1878C30.1515 24.2043 30.2436 24.2433 30.3234 24.3017C31.1854 24.7803 32.1235 25.1056 33.0962 25.2635C34.4363 25.464 35.1619 25.3415 35.2582 24.8104C35.2989 24.5839 35.1804 24.3611 34.888 24.142C34.4214 23.8135 33.9257 23.5288 33.4071 23.2915C32.9 23.0464 32.4742 22.8311 32.1373 22.6491C31.7493 22.4295 31.3781 22.1812 31.0267 21.9064C30.6559 21.6394 30.3287 21.3161 30.0568 20.9483C29.8038 20.5765 29.6149 20.1648 29.4978 19.7302C29.3573 19.2078 29.3171 18.6634 29.3794 18.126C29.7162 14.7838 33.3627 14.5015 35.9616 15.0029C37.5756 15.3111 39.2934 15.7716 40.6261 16.83C41.0259 17.1308 41.0963 17.4464 40.8519 17.7695C40.4003 18.3599 40.1782 18.657 39.7413 19.2549C39.6852 19.3406 39.612 19.4137 39.5263 19.4696C39.4406 19.5255 39.3443 19.5631 39.2434 19.5798C39.1426 19.5966 39.0394 19.5922 38.9403 19.5669C38.8412 19.5417 38.7484 19.4961 38.6677 19.4331C37.7996 18.9677 36.8619 18.6467 35.8912 18.4825C35.4688 18.3961 35.0363 18.3699 34.6066 18.4045C34.4772 18.4082 34.3534 18.4587 34.2581 18.5468C34.1629 18.6348 34.1026 18.7544 34.0883 18.8835C34.0513 19.1138 34.1846 19.3403 34.4585 19.5706C34.9433 19.9125 35.4503 20.2215 35.9764 20.4953C36.3466 20.6846 36.5021 20.7849 36.85 20.9817C37.0092 21.0708 37.2647 21.2231 37.6127 21.4459C37.8754 21.6008 38.1233 21.7798 38.3531 21.9807L38.9195 22.5377C39.1215 22.7235 39.2839 22.9483 39.397 23.1987C39.4822 23.3992 39.5673 23.6369 39.6562 23.908C39.7435 24.1876 39.7787 24.4809 39.7598 24.7733C39.7399 25.1038 39.6903 25.432 39.6118 25.7536C39.4352 26.6243 38.9613 27.4058 38.2716 27.9633Z" fill="#6369F4"/>
<path d="M3.88343 14.223C3.49719 14.2235 3.11583 14.1364 2.76781 13.9684C2.41979 13.8003 2.11408 13.5556 1.8735 13.2525C1.63291 12.9494 1.46366 12.5957 1.37835 12.2179C1.29305 11.84 1.2939 11.4477 1.38085 11.0702C2.90239 4.65685 10.7285 0 19.9984 0C29.1646 0 36.9796 4.59371 38.5789 10.9254C38.6932 11.3815 38.681 11.8603 38.5435 12.3099C38.406 12.7596 38.1484 13.1629 37.7987 13.4762C37.449 13.7895 37.0205 14.0009 36.5596 14.0873C36.0987 14.1738 35.6231 14.1321 35.1841 13.9668C26.8805 10.8362 14.0825 10.8845 4.71268 14.0856C4.44569 14.1769 4.1655 14.2233 3.88343 14.223ZM19.9984 2.94489C12.5536 2.94489 6.04171 6.39477 4.44984 11.0776C9.58017 9.50488 14.9152 8.70643 20.2797 8.70837C25.8957 8.67866 31.2748 9.47337 35.5321 10.9365C34.7917 8.87548 33.0406 6.98526 30.5566 5.54811C27.6098 3.877 23.8744 2.94489 19.9984 2.94489Z" fill="#6369F4"/>
<path d="M11.169 34.2244C11.1727 34.2501 11.1704 34.2763 11.1623 34.301C11.1541 34.3257 11.1403 34.3481 11.1219 34.3665C11.1036 34.3849 11.0812 34.3988 11.0566 34.407C11.032 34.4152 11.0059 34.4175 10.9802 34.4138H10.2102C10.1845 34.4175 10.1583 34.4152 10.1337 34.407C10.1091 34.3988 10.0868 34.3849 10.0684 34.3665C10.0501 34.3481 10.0363 34.3257 10.0281 34.301C10.02 34.2763 10.0176 34.2501 10.0214 34.2244V33.0434L8.87375 30.9341C8.85941 30.91 8.85184 30.8824 8.85184 30.8543C8.85184 30.8262 8.85941 30.7986 8.87375 30.7744C8.88573 30.7499 8.90492 30.7296 8.92875 30.7163C8.95258 30.703 8.9799 30.6974 9.00702 30.7002H9.80296C9.8575 30.6984 9.91121 30.714 9.95641 30.7447C10.0016 30.7754 10.036 30.8196 10.0547 30.871L10.4249 31.7066L10.5915 32.1633H10.6137L10.7803 31.7066L11.1505 30.871C11.1692 30.8196 11.2036 30.7754 11.2488 30.7447C11.294 30.714 11.3477 30.6984 11.4022 30.7002H12.1982C12.2253 30.6974 12.2526 30.703 12.2764 30.7163C12.3003 30.7296 12.3195 30.7499 12.3315 30.7744C12.3451 30.7988 12.3522 30.8263 12.3522 30.8543C12.3522 30.8822 12.3451 30.9097 12.3315 30.9341L11.1801 33.0434L11.169 34.2244Z" fill="#6369F4"/>
<path d="M12.8016 30.8896C12.7979 30.8638 12.8002 30.8375 12.8084 30.8129C12.8166 30.7882 12.8304 30.7657 12.8487 30.7474C12.867 30.729 12.8894 30.7151 12.914 30.7069C12.9386 30.6987 12.9648 30.6964 12.9904 30.7002H13.7531C13.7787 30.6964 13.8049 30.6987 13.8295 30.7069C13.8541 30.7151 13.8765 30.729 13.8948 30.7474C13.9131 30.7657 13.9269 30.7882 13.9351 30.8129C13.9433 30.8375 13.9456 30.8638 13.9418 30.8896V34.2318C13.9456 34.2575 13.9433 34.2838 13.9351 34.3084C13.9269 34.3331 13.9131 34.3556 13.8948 34.3739C13.8765 34.3923 13.8541 34.4062 13.8295 34.4144C13.8049 34.4226 13.7787 34.4249 13.7531 34.4212H12.9904C12.9648 34.4249 12.9386 34.4226 12.914 34.4144C12.8894 34.4062 12.867 34.3923 12.8487 34.3739C12.8304 34.3556 12.8166 34.3331 12.8084 34.3084C12.8002 34.2838 12.7979 34.2575 12.8016 34.2318V30.8896Z" fill="#6369F4"/>
<path d="M17.1664 33.9867C17.0315 34.1598 16.8486 34.289 16.6407 34.358C16.4086 34.4324 16.1661 34.4688 15.9225 34.4658C15.4803 34.4858 15.0401 34.3951 14.6416 34.2021C14.6185 34.1949 14.5973 34.1828 14.5793 34.1666C14.5614 34.1504 14.5472 34.1305 14.5377 34.1083C14.5282 34.086 14.5236 34.062 14.5243 34.0378C14.525 34.0136 14.5309 33.9898 14.5416 33.9681L14.723 33.4816C14.7711 33.3591 14.8526 33.3219 14.9636 33.3702C15.1981 33.4696 15.4495 33.5226 15.704 33.5262C16.0557 33.5262 16.2297 33.4557 16.2297 33.3071C16.2266 33.2717 16.2139 33.2378 16.193 33.209C16.1721 33.1802 16.1439 33.1577 16.1113 33.1437C15.9815 33.0782 15.8465 33.0236 15.7078 32.9803C15.5708 32.9358 15.4597 32.8949 15.3672 32.8577C15.262 32.8124 15.1605 32.7591 15.0636 32.6981C14.9634 32.6372 14.8734 32.5607 14.7971 32.4716C14.724 32.3767 14.6676 32.2699 14.6305 32.1559C14.5842 32.0171 14.5616 31.8715 14.5638 31.7251C14.5638 31.0022 15.0389 30.6395 15.9891 30.637C16.3797 30.6218 16.7678 30.7048 17.1182 30.8784C17.141 30.8865 17.1619 30.8993 17.1795 30.916C17.1971 30.9326 17.2111 30.9528 17.2205 30.9751C17.2299 30.9975 17.2346 31.0216 17.2342 31.0458C17.2338 31.0701 17.2283 31.0941 17.2182 31.1161L17.0405 31.5766C17.0337 31.6009 17.0217 31.6235 17.0054 31.6428C16.989 31.662 16.9687 31.6775 16.9458 31.6881C16.9229 31.6986 16.898 31.7041 16.8728 31.7041C16.8476 31.7041 16.8227 31.6986 16.7998 31.688C16.578 31.6131 16.3453 31.5755 16.1113 31.5766C16.0087 31.5719 15.9061 31.5845 15.8077 31.6137C15.7755 31.6231 15.7475 31.6434 15.7286 31.6711C15.7097 31.6989 15.701 31.7325 15.704 31.766C15.7066 31.8016 15.7186 31.8358 15.7388 31.8652C15.759 31.8945 15.7866 31.918 15.8188 31.9331C15.9473 32.0027 16.081 32.0623 16.2186 32.1113L16.4519 32.1968L16.6555 32.2822C16.7253 32.3103 16.7922 32.3451 16.8554 32.3861C16.8961 32.4121 16.9516 32.4493 17.0183 32.5013C17.0781 32.5388 17.1297 32.588 17.17 32.6461C17.2034 32.6944 17.2367 32.7538 17.2737 32.8206C17.3121 32.8896 17.3372 32.9652 17.3478 33.0434C17.3632 33.1317 17.3706 33.2212 17.37 33.3108C17.3806 33.5528 17.3088 33.7911 17.1664 33.9867Z" fill="#6369F4"/>
<path d="M19.4172 30.7002C19.8357 30.6701 20.2526 30.7769 20.6055 31.0047C20.7465 31.1328 20.8558 31.2921 20.9246 31.4701C20.9933 31.648 21.0197 31.8396 21.0016 32.0296C21.0204 32.2623 20.9658 32.4951 20.8456 32.695C20.7253 32.8949 20.5455 33.0518 20.3316 33.1437L20.9609 34.1835C20.9778 34.2068 20.9889 34.2337 20.9934 34.2621C20.9979 34.2905 20.9957 34.3195 20.9868 34.3469C20.9748 34.3715 20.9556 34.3918 20.9318 34.405C20.908 34.4183 20.8807 34.424 20.8535 34.4212H20.0909C20.0379 34.4225 19.9855 34.409 19.9397 34.3821C19.894 34.3552 19.8566 34.316 19.8318 34.2689L19.2913 33.3182H19.0247V34.2318C19.0285 34.2575 19.0262 34.2838 19.018 34.3084C19.0098 34.3331 18.996 34.3556 18.9777 34.374C18.9593 34.3923 18.937 34.4062 18.9124 34.4144C18.8878 34.4226 18.8616 34.4249 18.8359 34.4212H18.0955C18.0699 34.4249 18.0437 34.4226 18.0191 34.4144C17.9945 34.4062 17.9721 34.3923 17.9538 34.374C17.9355 34.3556 17.9217 34.3331 17.9135 34.3084C17.9053 34.2838 17.903 34.2575 17.9067 34.2318V30.8896C17.903 30.8638 17.9053 30.8375 17.9135 30.8129C17.9217 30.7882 17.9355 30.7658 17.9538 30.7474C17.9721 30.729 17.9945 30.7151 18.0191 30.7069C18.0437 30.6987 18.0699 30.6964 18.0955 30.7002H19.4172ZM19.4172 32.4196C19.5417 32.4316 19.6664 32.3987 19.7689 32.3267C19.8074 32.2882 19.837 32.2415 19.8556 32.1902C19.8742 32.1388 19.8812 32.084 19.8762 32.0296C19.8828 31.9743 19.8769 31.9182 19.859 31.8655C19.841 31.8128 19.8115 31.7648 19.7725 31.7251C19.6616 31.6574 19.5314 31.6286 19.4023 31.6434H19.0321V32.4196H19.4172Z" fill="#6369F4"/>
<path d="M24.4112 31.1049C24.7028 31.532 24.8588 32.0375 24.8588 32.5551C24.8588 33.0727 24.7028 33.5782 24.4112 34.0052C24.0623 34.3071 23.6169 34.4732 23.1562 34.4732C22.6955 34.4732 22.2501 34.3071 21.9012 34.0052C21.6071 33.5792 21.4496 33.0733 21.4496 32.5551C21.4496 32.0369 21.6071 31.531 21.9012 31.1049C22.2501 30.803 22.6955 30.637 23.1562 30.637C23.6169 30.637 24.0623 30.803 24.4112 31.1049ZM23.5671 33.2811C23.6787 33.0504 23.726 32.7938 23.7041 32.5384C23.7269 32.2829 23.6796 32.026 23.5671 31.7956C23.5255 31.7246 23.4651 31.6665 23.3925 31.6278C23.32 31.5891 23.2382 31.5714 23.1562 31.5766C23.0737 31.5715 22.9914 31.5893 22.9183 31.6279C22.8452 31.6665 22.7841 31.7246 22.7416 31.7956C22.6311 32.0266 22.5838 32.283 22.6046 32.5384C22.5847 32.7937 22.6319 33.0498 22.7416 33.2811C22.7847 33.3516 22.8459 33.4092 22.9189 33.4477C22.9919 33.4863 23.0738 33.5044 23.1562 33.5002C23.2381 33.5045 23.3196 33.4864 23.392 33.4478C23.4643 33.4092 23.5249 33.3516 23.5671 33.2811Z" fill="#6369F4"/>
<path d="M26.5325 32.9803V33.4668H27.8171C27.8427 33.463 27.8689 33.4654 27.8935 33.4736C27.9181 33.4818 27.9405 33.4956 27.9588 33.514C27.9771 33.5324 27.9909 33.5548 27.9991 33.5795C28.0073 33.6042 28.0096 33.6304 28.0059 33.6562V34.2244C28.0096 34.2501 28.0073 34.2763 27.9991 34.301C27.9909 34.3257 27.9771 34.3481 27.9588 34.3665C27.9405 34.3849 27.9181 34.3988 27.8935 34.407C27.8689 34.4152 27.8427 34.4175 27.8171 34.4138H25.5958C25.5702 34.4175 25.544 34.4152 25.5194 34.407C25.4948 34.3988 25.4724 34.3849 25.4541 34.3665C25.4358 34.3481 25.422 34.3257 25.4138 34.301C25.4056 34.2763 25.4033 34.2501 25.407 34.2244V30.8821C25.4033 30.8564 25.4056 30.8301 25.4138 30.8054C25.422 30.7808 25.4358 30.7583 25.4541 30.7399C25.4724 30.7215 25.4948 30.7077 25.5194 30.6995C25.544 30.6913 25.5702 30.689 25.5958 30.6928H27.7801C27.8057 30.689 27.8319 30.6913 27.8565 30.6995C27.8811 30.7077 27.9035 30.7215 27.9218 30.7399C27.9401 30.7583 27.9539 30.7808 27.9621 30.8054C27.9702 30.8301 27.9726 30.8564 27.9688 30.8821V31.4466C27.9726 31.4724 27.9702 31.4986 27.9621 31.5233C27.9539 31.548 27.9401 31.5704 27.9218 31.5888C27.9035 31.6072 27.8811 31.621 27.8565 31.6292C27.8319 31.6374 27.8057 31.6398 27.7801 31.636H26.5251V32.0816H27.7023C27.8245 32.0816 27.8837 32.1448 27.8837 32.271V32.802C27.8875 32.8268 27.8854 32.8521 27.8776 32.8759C27.8698 32.8997 27.8565 32.9214 27.8389 32.9391C27.8212 32.9568 27.7997 32.9701 27.7759 32.9779C27.7522 32.9857 27.727 32.9878 27.7023 32.984L26.5325 32.9803Z" fill="#6369F4"/>
<path d="M29.7014 33.4037H30.849C30.8747 33.3999 30.9008 33.4022 30.9254 33.4104C30.9501 33.4186 30.9724 33.4325 30.9907 33.4509C31.0091 33.4693 31.0229 33.4917 31.0311 33.5164C31.0392 33.5411 31.0415 33.5673 31.0378 33.593V34.2244C31.0415 34.2501 31.0392 34.2763 31.0311 34.301C31.0229 34.3257 31.0091 34.3481 30.9907 34.3665C30.9724 34.3849 30.9501 34.3988 30.9254 34.407C30.9008 34.4152 30.8747 34.4175 30.849 34.4138H28.75C28.7243 34.4175 28.6981 34.4152 28.6735 34.407C28.6489 34.3988 28.6265 34.3849 28.6082 34.3665C28.5899 34.3481 28.5761 34.3257 28.5679 34.301C28.5597 34.2763 28.5574 34.2501 28.5611 34.2244V30.8821C28.5574 30.8564 28.5597 30.8301 28.5679 30.8054C28.5761 30.7808 28.5899 30.7583 28.6082 30.7399C28.6265 30.7215 28.6489 30.7077 28.6735 30.6995C28.6981 30.6913 28.7243 30.689 28.75 30.6928H29.5126C29.5382 30.689 29.5644 30.6913 29.589 30.6995C29.6136 30.7077 29.636 30.7215 29.6543 30.7399C29.6726 30.7583 29.6864 30.7808 29.6946 30.8054C29.7028 30.8301 29.7051 30.8564 29.7014 30.8821V33.4037Z" fill="#6369F4"/>
</g>
<defs>
<clipPath id="clip0_132:1545">
<rect width="41" height="39" fill="white"/>
</clipPath>
</defs>
</svg>
