<svg width="132" height="25" viewBox="0 0 132 25" fill="none" xmlns="http://www.w3.org/2000/svg">
<g clip-path="url(#clip0_1_11249)">
<path d="M2.51787 5.54428C1.67801 5.54428 0.996094 4.86236 0.996094 4.02227C0.996094 3.18252 1.67801 2.50049 2.51787 2.50049H20.4927C21.3325 2.50049 22.0145 3.18252 22.0145 4.02227C22.0145 4.86236 21.3326 5.54428 20.4927 5.54428H2.51787ZM19.4525 17.8975C20.0622 17.3235 21.0234 17.3521 21.5973 17.9622C22.1712 18.5723 22.1426 19.5331 21.5326 20.107C20.127 21.4264 18.5382 22.4774 16.8258 23.1915C15.1506 23.8891 13.359 24.2675 11.5054 24.2675C9.65146 24.2675 7.86006 23.8891 6.1847 23.1915C4.47227 22.4774 2.88357 21.4264 1.47795 20.107C0.867882 19.5331 0.839301 18.5723 1.41321 17.9622C1.98712 17.3521 2.94831 17.3235 3.55803 17.8975C4.69781 18.9676 5.9774 19.8158 7.34951 20.3875C8.65102 20.9293 10.0494 21.2241 11.5054 21.2241C12.9611 21.2241 14.3595 20.9293 15.661 20.3875C17.0331 19.8159 18.3128 18.9676 19.4525 17.8975ZM19.8504 10.1385C20.6075 9.78386 21.5111 10.1121 21.8658 10.8696C22.2204 11.6267 21.8922 12.5303 21.1351 12.8849C19.7532 13.5333 18.2064 14.0474 16.5512 14.3913C14.9518 14.7245 13.2514 14.9054 11.5054 14.9054C9.75924 14.9054 8.05886 14.7245 6.45926 14.3913C4.80445 14.0473 3.25604 13.532 1.87555 12.8849C1.11845 12.5303 0.790175 11.6267 1.14474 10.8696C1.49941 10.1121 2.40298 9.78386 3.16042 10.1385C4.32489 10.6851 5.64683 11.1224 7.07748 11.4195C8.45314 11.7059 9.94393 11.8618 11.5054 11.8618C13.0666 11.8618 14.5574 11.7059 15.933 11.4195C17.3637 11.1223 18.6865 10.6838 19.8504 10.1385Z" fill="#FB4247"/>
<path d="M42.8759 9.85119C42.2332 9.46139 41.5272 9.1501 40.7577 8.9164C39.9886 8.68282 39.2529 8.56563 38.5517 8.56563C37.7338 8.56563 37.0762 8.71634 36.5796 9.01856C36.0829 9.32055 35.8346 9.78324 35.8346 10.4063C35.8346 11.0297 36.1121 11.5021 36.6672 11.8233C37.2223 12.145 38.065 12.4711 39.1944 12.8023C40.2659 13.114 41.1423 13.4257 41.824 13.7371C42.506 14.0488 43.0855 14.5063 43.5625 15.1105C44.0398 15.7144 44.2783 16.5128 44.2783 17.5061C44.2783 18.9669 43.7282 20.0775 42.6277 20.8369C41.5273 21.5966 40.1585 21.9766 38.5226 21.9766C37.3734 21.9766 36.258 21.7915 35.1771 21.4212C34.0962 21.0513 33.1855 20.5255 32.4453 19.8435L33.4679 17.8568C34.1105 18.4411 34.9044 18.9088 35.8493 19.2591C36.7938 19.6098 37.7143 19.7852 38.61 19.7852C39.5064 19.7852 40.2267 19.6196 40.7721 19.2883C41.3177 18.9572 41.5903 18.4509 41.5903 17.7692C41.5903 17.0676 41.303 16.5419 40.7284 16.1912C40.1538 15.8407 39.2818 15.49 38.1135 15.1397C37.0811 14.8471 36.2387 14.5501 35.586 14.2485C34.9337 13.9465 34.3782 13.5034 33.9207 12.9191C33.463 12.3347 33.2339 11.5753 33.2339 10.6399C33.2339 9.19842 33.76 8.11763 34.8115 7.39692C35.8634 6.6762 37.1782 6.31579 38.7559 6.31579C39.691 6.31579 40.6115 6.44721 41.517 6.71006C42.4229 6.97291 43.2069 7.32897 43.8691 7.77662L42.8759 9.85119ZM61.225 9.76338C61.7313 8.65321 62.452 7.81082 63.3866 7.23588C64.3218 6.66162 65.4323 6.36457 66.7174 6.34506V8.97471C65.1397 8.91652 63.8639 9.32514 62.8901 10.2017C61.9163 11.0783 61.3612 12.2568 61.2248 13.7371V21.8888H58.5074V6.43263H61.2248V9.76338H61.225ZM110.603 6.43263H113.32V21.8888H110.603V6.43263ZM111.947 0.267578C112.433 0.267578 112.838 0.433553 113.159 0.764699C113.48 1.09562 113.641 1.51434 113.641 2.02064C113.641 2.52729 113.48 2.94636 113.159 3.27716C112.838 3.60842 112.433 3.77371 111.947 3.77371C111.46 3.77371 111.055 3.60842 110.734 3.27716C110.413 2.94625 110.252 2.52718 110.252 2.02064C110.252 1.51434 110.413 1.09562 110.734 0.764699C111.055 0.433553 111.46 0.267578 111.947 0.267578ZM129.448 10.5524C128.221 9.36417 126.75 8.7704 125.036 8.7704C124.023 8.7704 123.123 8.99422 122.334 9.44233C121.545 9.89044 120.926 10.5236 120.478 11.3412C120.03 12.1595 119.806 13.104 119.806 14.1755C119.806 15.2465 120.025 16.1914 120.464 17.0098C120.902 17.8277 121.506 18.4658 122.275 18.9233C123.045 19.3814 123.926 19.6102 124.919 19.6102C125.913 19.6102 126.809 19.4446 127.607 19.1136C128.406 18.7821 129.068 18.3051 129.594 17.6816L131.143 19.2593C130.441 20.1358 129.55 20.8077 128.469 21.2752C127.388 21.7431 126.166 21.9766 124.803 21.9766C123.303 21.9766 121.968 21.6452 120.8 20.983C119.631 20.3209 118.72 19.4004 118.068 18.2219C117.415 17.0434 117.089 15.6947 117.089 14.1753C117.089 12.6558 117.415 11.3023 118.068 10.114C118.72 8.92581 119.631 8.00079 120.8 7.33838C121.968 6.6762 123.303 6.34506 124.803 6.34506C126.108 6.34506 127.281 6.54489 128.323 6.9441C129.365 7.34332 130.237 7.92285 130.938 8.68282L129.448 10.5524ZM55.2057 20.8666C54.0178 21.626 52.8296 22.006 51.6413 22.006C50.3946 22.006 49.3866 21.5772 48.6174 20.7201C47.8479 19.863 47.463 18.6264 47.463 17.0097V2.80966H50.1805V6.95868H54.9429V9.03325H50.1805V16.5128C50.1805 18.4998 50.8234 19.4929 52.1086 19.4929C52.8296 19.4929 53.6186 19.2499 54.4753 18.7627L55.2057 20.8666ZM84.0438 6.43263V21.8888H81.3264V18.8795C80.742 19.8921 79.9631 20.6713 78.989 21.2169C78.0152 21.7622 76.8757 22.0348 75.5703 22.0348C74.1097 22.0348 72.8193 21.6991 71.699 21.0269C70.5791 20.355 69.7078 19.4203 69.0841 18.2219C68.461 17.0243 68.1493 15.6557 68.1493 14.1171C68.1493 12.5976 68.461 11.2487 69.0841 10.0702C69.7078 8.89172 70.5844 7.97152 71.7137 7.30911C72.8434 6.64693 74.1292 6.31579 75.5703 6.31579C76.8757 6.31579 78.0152 6.58392 78.989 7.11938C79.9631 7.65495 80.742 8.42927 81.3264 9.44222V6.43263H84.0438ZM76.1257 19.6974C77.567 19.6974 78.7602 19.2448 79.7051 18.3391C80.6493 17.4332 81.19 16.2498 81.3264 14.789V13.6203C81.19 12.1593 80.6493 10.9715 79.7051 10.0558C78.7602 9.14034 77.567 8.68282 76.1257 8.68282C75.1129 8.68282 74.2119 8.92099 73.423 9.39837C72.6343 9.87564 72.0157 10.5332 71.5677 11.3708C71.1201 12.2082 70.8959 13.1531 70.8959 14.2048C70.8959 15.2566 71.1201 16.2012 71.5677 17.0387C72.0157 17.8762 72.6343 18.5289 73.423 18.9964C74.212 19.4638 75.1129 19.6974 76.1257 19.6974ZM96.6658 20.8666C95.4776 21.626 94.2894 22.006 93.1015 22.006C91.8548 22.006 90.8468 21.5772 90.0773 20.7201C89.3078 19.863 88.9232 18.6264 88.9232 17.0097V2.80966H91.6404V6.95868H96.4027V9.03325H91.6404V16.5128C91.6404 18.4998 92.2832 19.4929 93.5688 19.4929C94.2895 19.4929 95.0785 19.2499 95.9352 18.7627L96.6658 20.8666ZM107.301 20.8666C106.113 21.626 104.925 22.006 103.737 22.006C102.49 22.006 101.482 21.5772 100.712 20.7201C99.943 19.863 99.5585 18.6264 99.5585 17.0097V2.80966H102.276V6.95868H107.038V9.03325H102.276V16.5128C102.276 18.4998 102.918 19.4929 104.204 19.4929C104.925 19.4929 105.714 19.2499 106.57 18.7627L107.301 20.8666Z" fill="black"/>
</g>
<defs>
<clipPath id="clip0_1_11249">
<rect width="130.147" height="24" fill="white" transform="translate(0.996094 0.267578)"/>
</clipPath>
</defs>
</svg>
