<?xml version="1.0" encoding="UTF-8" standalone="no"?>
<svg
   xmlns:dc="http://purl.org/dc/elements/1.1/"
   xmlns:cc="http://creativecommons.org/ns#"
   xmlns:rdf="http://www.w3.org/1999/02/22-rdf-syntax-ns#"
   xmlns:svg="http://www.w3.org/2000/svg"
   xmlns="http://www.w3.org/2000/svg"
   xmlns:sodipodi="http://sodipodi.sourceforge.net/DTD/sodipodi-0.dtd"
   xmlns:inkscape="http://www.inkscape.org/namespaces/inkscape"
   width="19"
   height="36"
   viewBox="0 0 19 36"
   fill="none"
   version="1.1"
   id="svg4"
   sodipodi:docname="part-arrow-decorator-2.svg"
   inkscape:version="1.0.1 (3bc2e813f5, 2020-09-07)">
  <metadata
     id="metadata10">
    <rdf:RDF>
      <cc:Work
         rdf:about="">
        <dc:format>image/svg+xml</dc:format>
        <dc:type
           rdf:resource="http://purl.org/dc/dcmitype/StillImage" />
        <dc:title></dc:title>
      </cc:Work>
    </rdf:RDF>
  </metadata>
  <defs
     id="defs8" />
  <sodipodi:namedview
     pagecolor="#ffffff"
     bordercolor="#666666"
     borderopacity="1"
     objecttolerance="10"
     gridtolerance="10"
     guidetolerance="10"
     inkscape:pageopacity="0"
     inkscape:pageshadow="2"
     inkscape:window-width="2400"
     inkscape:window-height="1271"
     id="namedview6"
     showgrid="false"
     inkscape:zoom="3.487395"
     inkscape:cx="9.5"
     inkscape:cy="119"
     inkscape:window-x="2391"
     inkscape:window-y="-9"
     inkscape:window-maximized="1"
     inkscape:current-layer="svg4" />
  <path
     fill-rule="evenodd"
     clip-rule="evenodd"
     d="m 17.94,-181.3421 c 0.2888,2.0823 -0.2537,4.1946 -1.51,5.88 0.2267,0 0.4567,0.02 0.69,0.06 0.78,0.06 0.76,0.39 0.82,0.82 0.1702,1.2256 0.0538,2.474 -0.3401,3.647 -0.3939,1.1729 -1.0545,2.2386 -1.9299,3.113 -1.409,1.4446 -3.323,2.287 -5.34,2.35 -0.44444,0.009 -0.88895,-0.0143 -1.32999,-0.07 -0.35858,0.0417 -0.71905,0.065 -1.08,0.07 -1.05056,0.003 -2.09113,-0.2038 -3.06113,-0.6073 -0.97,-0.4034 -1.85004,-0.9958 -2.58887,-1.7427 -1.780002,-1.79 -2.060002,-4.25 -2.2700018,-6.79 0.034522,-0.2049 0.1320418,-0.394 0.2790008,-0.541 0.146959,-0.1469 0.336055,-0.2444 0.540999,-0.279 0.233332,0 0.463332,-0.02 0.690002,-0.06 -1.240002,-1.64 -1.350002,-3.73 -1.5100018,-5.85 0.06,-0.21 0.3899998,-0.76 0.8199998,-0.82 0.220002,0 0.460002,0 0.690002,-0.06 -1.240002,-1.67 -1.350002,-3.75 -1.5100018,-5.87 0.034522,-0.2049 0.1320418,-0.394 0.2790008,-0.541 0.146959,-0.1469 0.336055,-0.2444 0.540999,-0.279 0.364622,-0.0486 0.732162,-0.0719 1.100002,-0.07 1.16819,-0.002 2.32243,0.2538 3.38,0.75 -0.06015,-0.3904 -0.09024,-0.7849 -0.09,-1.18 -0.04025,-1.1896 0.23109,-2.3691 0.78713,-3.4215 0.55604,-1.05244 1.37747,-1.94129 2.38287,-2.57846 0.34,-0.63 0.82,-0.63 1.16,0 1.00729,0.63595 1.83069,1.52427 2.38849,2.57679 0.5578,1.05257 0.8307,2.23267 0.7915,3.42317 -0.0031,0.3954 -0.0365,0.7898 -0.1,1.18 1.1188,-0.5142 2.3389,-0.7705 3.57,-0.75 0.3078,0.005 0.6151,0.0279 0.92,0.07 0.78,0.06 0.76,0.39 0.82,0.82 0.2927,2.0794 -0.2503,4.19 -1.51,5.87 l 0.69,0.06 c 0.8,0.06 0.77,0.61 0.83,0.82 z m -8.93999,10.09 c 0.13088,-0.3418 0.32798,-0.6545 0.58,-0.92 -0.18872,-0.0618 -0.38295,-0.1053 -0.58,-0.13 -0.22787,0.0154 -0.45293,0.0591 -0.67,0.13 0.24917,0.287 0.47333,0.5948 0.67,0.92 z m 0.58,-7.75 c -0.19419,-0.005 -0.3879,-0.0212 -0.58,-0.05 -0.25,0 -0.46,0 -0.67,0.05 0.23,0.32 0.44,0.65 0.67,1 0.15647,-0.3575 0.35811,-0.6936 0.6,-1 z m -6,9.83 c 0.56207,0.5682 1.23198,1.0183 1.97039,1.3239 0.73841,0.3057 1.53044,0.4608 2.32961,0.4561 h 0.52 c -0.32779,-1.6356 -1.09135,-3.1524 -2.21,-4.39 -0.57263,-0.5791 -1.25717,-1.0355 -2.0119,-1.3415 -0.75473,-0.3061 -1.56386,-0.4552 -2.3781,-0.4385 0.02,1.64 1.05,3.21 1.83,4.39 z m 0,-6.75 c 0.56625,0.5653 1.23835,1.0135 1.97788,1.3189 0.73953,0.3054 1.532,0.4621 2.33212,0.4611 h 0.51 c -0.32348,-1.6371 -1.0876,-3.155 -2.21,-4.39 -0.56982,-0.5688 -1.24679,-1.0191 -1.99175,-1.3246 -0.74495,-0.3055 -1.54309,-0.4603 -2.34825,-0.4554 0.12966,1.6112 0.75101,3.1436 1.78,4.39 z m -1.73,-11.15 c 0.12775,1.6116 0.74932,3.1446 1.78,4.39 0.63397,0.6177 1.39062,1.0953 2.22094,1.402 0.83032,0.3066 1.71579,0.4354 2.59906,0.378 -0.30472,-1.6112 -1.07274,-3.0986 -2.21,-4.28 -0.55174,-0.6135 -1.22988,-1.1001 -1.98774,-1.4264 -0.75785,-0.3263 -1.57742,-0.4844 -2.40226,-0.4636 z m 7.15,-6.69996 c -0.58207,0.56821 -1.04462,1.2471 -1.36043,1.99676 -0.3158,0.7496 -0.4785,1.5548 -0.4785,2.3682 0,0.8135 0.1627,1.6187 0.4785,2.3683 0.31581,0.7496 0.77836,1.4285 1.36043,1.9967 0.58559,-0.5671 1.05109,-1.2463 1.36899,-1.997 0.3178,-0.7507 0.4814,-1.5577 0.481,-2.373 0.0036,-0.8142 -0.1585,-1.6207 -0.4766,-2.3702 -0.318,-0.74959 -0.78532,-1.42658 -1.37339,-1.98976 z m 7.22999,6.69996 c -0.8403,-0.026 -1.6763,0.1293 -2.4511,0.4554 -0.7748,0.3262 -1.4702,0.8155 -2.0389,1.4346 -0.5825,0.547 -1.0423,1.2113 -1.3491,1.9491 -0.3069,0.7378 -0.45371,1.5322 -0.43089,2.3309 H 10.34 c 1.5123,-0.0583 2.9443,-0.6956 4,-1.78 0.5749,-0.5757 1.0286,-1.2608 1.3343,-2.0148 0.3058,-0.754 0.4573,-1.5616 0.4457,-2.3752 z m -4.49,8.54 c -0.5791,0.5727 -1.0356,1.2572 -1.3416,2.0119 -0.306,0.7548 -0.45517,1.5639 -0.43839,2.3781 0.81989,0.0568 1.64179,-0.075 2.40279,-0.3853 0.761,-0.3103 1.4408,-0.7908 1.9872,-1.4047 0.5697,-0.576 1.018,-1.2604 1.3186,-2.0127 0.3006,-0.7523 0.4473,-1.5573 0.4314,-2.3673 -0.8135,-0.011 -1.6209,0.1408 -2.3748,0.4465 -0.754,0.3057 -1.4391,0.7591 -2.0152,1.3335 z m 0,6.75 c -0.5763,0.5748 -1.0309,1.2597 -1.3367,2.0139 -0.3058,0.7542 -0.4566,1.5624 -0.44329,2.3761 H 10.35 c 1.5123,-0.0583 2.9443,-0.6956 4,-1.78 0.5745,-0.576 1.0279,-1.2612 1.3336,-2.0151 0.3056,-0.7539 0.4574,-1.5614 0.4464,-2.3749 -0.8199,-0.0257 -1.6361,0.1193 -2.397,0.4257 -0.7609,0.3064 -1.4498,0.7676 -2.023,1.3543 z m 5.26,-18.83 c -0.53,0 -0.66,-0.43 -0.66,-1 v -2.21996 c 0,-0.53 0.13,-0.55 0.66,-0.55 0.53,0 1,0 1,0.55 v 2.21996 c 0.0161,0.1352 0.0013,0.2723 -0.0433,0.401 -0.0446,0.1286 -0.1177,0.2455 -0.214,0.3417 -0.0963,0.0963 -0.2131,0.1695 -0.3418,0.214 -0.1286,0.0446 -0.2657,0.0594 -0.4009,0.0433 z m -7.99999,-7.08996 c -0.53,0 -0.53,-0.43 -0.53,-1 v -2.21 c 0,-0.53 0,-0.7 0.53,-0.7 0.77,0 0.99999,0.17 0.99999,0.7 v 2.3 c -0.06999,0.48 -0.25999,0.91 -0.99999,0.91 z m -7.91,7.08996 c -0.138688,0.0126 -0.278464,-0.004 -0.410376,-0.0486 -0.131913,-0.0446 -0.253054,-0.1163 -0.355665,-0.2104 -0.102611,-0.0942 -0.184429,-0.2087 -0.2402157,-0.3363 -0.055786,-0.1276 -0.08431,-0.2654 -0.083745,-0.4047 v -2.21996 c 0,-0.53 0.4299998,-0.55 1.0900018,-0.55 0.66,0 0.82,0 0.82,0.55 v 2.21996 c 0,0.56 -0.05,1 -0.8200001,1 z m 7.07,214.4401 v -186.1501 c -8e-5,-0.1089 0.02183,-0.2167 0.0644,-0.317 0.04257,-0.1003 0.10493,-0.191 0.18335,-0.2666 0.07842,-0.0756 0.17129,-0.1346 0.27305,-0.1735 0.10177,-0.0389 0.21033,-0.0569 0.3192,-0.0529 0.21575,0 0.42282,0.085 0.57632,0.2367 0.15349,0.1516 0.24105,0.3576 0.24368,0.5733 V 23.828 c 0,0.108 -0.02121,0.214 -0.06242,0.314 -0.04121,0.099 -0.10161,0.19 -0.17775,0.266 C 9.50369,24.484 9.4133,24.544 9.31381,24.586 9.21432,24.627 9.10769,24.648 9.00001,24.648 8.89065,24.651 8.78187,24.631 8.68006,24.591 8.57826,24.551 8.48548,24.491 8.40721,24.415 8.32893,24.339 8.26674,24.247 8.22428,24.146 8.18183,24.046 8.15998,23.937 8.16001,23.828 Z m -4.09,0.91 C 4.1453,24.662 4.23488,24.602 4.33357,24.561 4.43225,24.52 4.5381,24.498 4.64501,24.498 c 0.1069,0 0.21275,0.022 0.31144,0.063 0.09869,0.041 0.18826,0.101 0.26356,0.177 l 3.78,3.75 3.74999,-3.75 c 0.1566,-0.132 0.3569,-0.201 0.5615,-0.192 0.2047,0.008 0.3988,0.092 0.5442,0.237 0.1454,0.144 0.2317,0.337 0.2417,0.542 0.0101,0.204 -0.0568,0.405 -0.1874,0.563 l -4.32999,4.33 C 9.50471,30.294 9.41514,30.354 9.31645,30.395 9.21776,30.436 9.11191,30.457 9.00501,30.457 8.8981,30.457 8.79225,30.436 8.69357,30.395 8.59488,30.354 8.50531,30.294 8.43001,30.218 l -4.36,-4.33 C 3.99412,25.813 3.93388,25.723 3.89278,25.624 3.85167,25.526 3.83051,25.42 3.83051,25.313 c 0,-0.107 0.02116,-0.213 0.06227,-0.312 0.0411,-0.098 0.10134,-0.188 0.17723,-0.263 z m 0,5.14 C 4.1453,29.802 4.23488,29.742 4.33357,29.701 4.43225,29.66 4.5381,29.638 4.64501,29.638 c 0.1069,0 0.21275,0.022 0.31144,0.063 0.09869,0.041 0.18826,0.101 0.26356,0.177 l 3.75,4 3.74999,-4 c 0.0726,-0.088 0.1627,-0.159 0.2645,-0.21 0.1018,-0.051 0.2132,-0.081 0.3269,-0.086 0.1137,-0.006 0.2274,0.012 0.3337,0.053 0.1063,0.041 0.203,0.103 0.2838,0.184 0.0809,0.08 0.1442,0.176 0.1858,0.282 0.0417,0.106 0.0609,0.219 0.0563,0.333 -0.0046,0.114 -0.0329,0.225 -0.083,0.328 -0.0501,0.102 -0.1209,0.193 -0.208,0.266 l -4.32999,4.36 C 9.47383,35.464 9.3834,35.524 9.28388,35.566 9.18436,35.607 9.07771,35.628 8.97001,35.628 8.86383,35.628 8.75874,35.606 8.66088,35.565 8.56302,35.524 8.47434,35.464 8.40001,35.388 l -4.33,-4.33 C 3.98949,30.982 3.92532,30.891 3.88147,30.789 3.83761,30.688 3.81498,30.578 3.81498,30.468 c 0,-0.111 0.02263,-0.22 0.06649,-0.321 0.04385,-0.102 0.10802,-0.193 0.18854,-0.269 z"
     fill="#c6c8f7"
     id="path2"
     inkscape:transform-center-y="-50.46747" />
</svg>
