<svg width="232" height="325" viewBox="0 0 232 325" fill="none" xmlns="http://www.w3.org/2000/svg">
<path d="M115.758 0.000825988C87.875 0.000443597 60.9328 10.0848 39.9027 28.3932C18.8726 46.7015 5.17389 71.9983 1.33432 99.6156C-2.50525 127.233 3.77341 155.307 19.0118 178.658C34.2501 202.008 57.4198 219.06 84.2454 226.665L85.1286 227.266C85.1286 227.266 102.793 239.631 101.203 260.121C101.069 267.461 98.5931 274.566 94.1373 280.399L92.9714 282.06L92.0176 283.508C91.8599 283.752 91.7296 284.013 91.629 284.285C89.6319 287.979 88.504 292.079 88.3315 296.275C88.1589 300.47 88.9461 304.649 90.6331 308.495C92.3202 312.34 94.8625 315.749 98.0665 318.463C101.27 321.176 105.052 323.123 109.122 324.155C113.192 325.186 117.444 325.275 121.554 324.414C125.663 323.554 129.523 321.767 132.837 319.189C136.152 316.612 138.834 313.312 140.68 309.54C142.527 305.769 143.488 301.626 143.491 297.427C143.501 292.654 142.285 287.958 139.958 283.791L138.933 282.625L138.297 281.706L137.485 280.541C132.985 274.718 130.45 267.618 130.243 260.262C128.723 239.772 146.175 227.549 146.352 227.407L147.2 226.807C174.14 219.301 197.442 202.278 212.783 178.896C228.124 155.514 234.463 127.36 230.623 99.6595C226.783 71.9588 213.025 46.5915 191.901 28.2645C170.778 9.93746 143.723 -0.104875 115.758 0.000825988ZM142.643 220.589L132.398 223.203L137.626 225.394C132.735 229.83 128.901 235.307 126.407 241.421C123.912 247.535 122.821 254.13 123.212 260.722C123.502 269.335 126.465 277.644 131.691 284.497L132.503 285.699L133.069 286.476L133.351 287.006C134.98 289.716 135.961 292.767 136.216 295.919C136.472 299.071 135.996 302.239 134.825 305.177C133.654 308.115 131.82 310.742 129.467 312.854C127.113 314.967 124.303 316.506 121.256 317.353C118.209 318.201 115.008 318.332 111.902 317.738C108.796 317.144 105.869 315.84 103.35 313.928C100.831 312.017 98.7873 309.549 97.3792 306.717C95.9712 303.885 95.2365 300.767 95.2324 297.604C95.2365 294.134 96.111 290.721 97.7761 287.677L97.988 287.253L98.7652 286.052L99.7544 284.639C104.994 277.777 107.969 269.456 108.268 260.828C108.652 254.237 107.557 247.644 105.063 241.531C102.569 235.418 98.7396 229.941 93.8546 225.5L99.1538 223.203L88.8734 220.589C63.285 214.033 40.969 198.363 26.1134 176.521C11.2578 154.679 4.88399 128.167 8.18816 101.959C11.4923 75.7519 24.2473 51.6511 44.0593 34.18C63.8713 16.709 89.3783 7.06893 115.793 7.06893C142.208 7.06893 167.715 16.709 187.527 34.18C207.339 51.6511 220.094 75.7519 223.399 101.959C226.703 128.167 220.329 154.679 205.473 176.521C190.618 198.363 168.302 214.033 142.713 220.589H142.643Z" fill="#6369F4"/>
<path d="M27.2613 80.1594L44.3601 88.6734C44.6324 88.8107 44.9476 88.8357 45.2382 88.7433C45.5288 88.6508 45.7716 88.4482 45.9145 88.1789L47.363 85.3526C47.4876 85.0653 47.4985 84.7414 47.3936 84.4463C47.2887 84.1513 47.0757 83.907 46.7977 83.7628L42.629 81.7492L44.0775 78.8876C44.0775 78.8876 47.6103 71.3274 40.8273 67.8652C34.0443 64.4031 29.9816 71.8573 29.9816 71.8573L26.6254 78.605C26.5073 78.8958 26.5077 79.2213 26.6265 79.5118C26.7454 79.8023 26.9732 80.0348 27.2613 80.1594ZM34.6449 74.189C34.7901 73.8714 35 73.5877 35.2611 73.356C35.5223 73.1242 35.829 72.9496 36.1615 72.8431C36.494 72.7367 36.8451 72.7009 37.1923 72.738C37.5395 72.7751 37.8751 72.8842 38.1777 73.0585C38.5111 73.1852 38.8131 73.3825 39.0631 73.6369C39.3131 73.8914 39.505 74.1969 39.6259 74.5324C39.7467 74.868 39.7935 75.2258 39.763 75.5812C39.7326 75.9365 39.6256 76.2811 39.4495 76.5913L38.001 79.5235L33.0198 77.0152L34.6449 74.189Z" fill="#6369F4"/>
<path d="M53.2274 72.3169C53.3465 72.4134 53.484 72.4847 53.6315 72.5264C53.779 72.5682 53.9334 72.5795 54.0854 72.5596C54.2374 72.5398 54.3838 72.4893 54.5157 72.4111C54.6475 72.3329 54.7621 72.2288 54.8525 72.1049L56.7602 69.5613C56.942 69.3127 57.018 69.0022 56.9717 68.6978C56.9254 68.3933 56.7604 68.1195 56.5129 67.9362L41.3218 56.5253C41.0689 56.346 40.7578 56.2683 40.4503 56.3076C40.1428 56.3468 39.8612 56.5002 39.6614 56.7372L37.7537 59.3162C37.5926 59.5744 37.5323 59.8829 37.5845 60.1827C37.6366 60.4826 37.7975 60.7527 38.0363 60.9413L53.2274 72.3169Z" fill="#6369F4"/>
<path d="M46.6914 53.8761C46.9149 54.0899 47.2123 54.2092 47.5216 54.2092C47.8309 54.2092 48.1283 54.0899 48.3518 53.8761L53.757 48.7889L55.3114 63.1674C55.3314 63.4051 55.431 63.6292 55.5941 63.8033L57.7137 66.029C57.8192 66.1379 57.9454 66.2246 58.085 66.2838C58.2246 66.343 58.3747 66.3735 58.5263 66.3735C58.6779 66.3735 58.828 66.343 58.9676 66.2838C59.1071 66.2246 59.2334 66.1379 59.3388 66.029L69.7606 56.2078C69.9721 55.9902 70.0904 55.6987 70.0904 55.3952C70.0904 55.0918 69.9721 54.8003 69.7606 54.5827L67.8529 52.5337C67.7444 52.4236 67.6152 52.3363 67.4726 52.2766C67.3301 52.217 67.1772 52.1863 67.0227 52.1863C66.8682 52.1863 66.7152 52.217 66.5727 52.2766C66.4302 52.3363 66.3009 52.4236 66.1925 52.5337L60.2927 58.1861L58.7736 43.7016C58.7413 43.4602 58.6294 43.2365 58.4556 43.0657L56.4419 40.9107C56.2184 40.697 55.921 40.5776 55.6117 40.5776C55.3024 40.5776 55.005 40.697 54.7815 40.9107L44.8543 50.2373C44.6406 50.4609 44.5212 50.7582 44.5212 51.0675C44.5212 51.3768 44.6406 51.6742 44.8543 51.8977L46.6914 53.8761Z" fill="#6369F4"/>
<path d="M62.766 39.6036C62.9278 39.8725 63.1884 40.0675 63.4921 40.1468C63.7959 40.226 64.1185 40.1832 64.3911 40.0275L70.8915 36.3181L69.1251 50.6612C69.0404 50.877 69.0404 51.1167 69.1251 51.3325L70.6442 53.9821C70.811 54.2358 71.0677 54.4169 71.3626 54.489C71.6576 54.5611 71.9689 54.5188 72.2339 54.3707L84.6341 47.3051C84.769 47.2313 84.888 47.1315 84.9842 47.0115C85.0805 46.8914 85.152 46.7536 85.1947 46.6058C85.2373 46.458 85.2504 46.3033 85.233 46.1504C85.2156 45.9976 85.1681 45.8497 85.0933 45.7153L83.7155 43.313C83.5605 43.0465 83.3061 42.8522 83.0082 42.7727C82.7102 42.6933 82.393 42.7351 82.1258 42.8891L75.0602 47.0224L76.8972 32.538C76.9675 32.3197 76.9675 32.085 76.8972 31.8667L75.4134 29.2878C75.2457 29.0255 74.9852 28.8362 74.6839 28.7576C74.3827 28.679 74.0628 28.7169 73.7884 28.8638L62.0241 35.6822C61.8892 35.756 61.7702 35.8557 61.6739 35.9758C61.5777 36.0958 61.5062 36.2336 61.4635 36.3814C61.4208 36.5292 61.4078 36.684 61.4252 36.8368C61.4426 36.9896 61.4901 37.1375 61.5649 37.2719L62.766 39.6036Z" fill="#6369F4"/>
<path d="M87.1069 45.9276L90.6397 45.0091C90.8667 44.9305 91.0668 44.7893 91.2168 44.6017C91.3669 44.4141 91.4607 44.1879 91.4876 43.9492L91.6995 41.0876L98.7651 39.1093L100.426 41.4763C100.558 41.6726 100.748 41.8225 100.97 41.9049C101.192 41.9873 101.434 41.998 101.662 41.9355L105.195 41.017C105.344 40.9762 105.483 40.9063 105.605 40.8111C105.727 40.716 105.829 40.5976 105.904 40.4628C105.98 40.328 106.028 40.1796 106.046 40.026C106.063 39.8725 106.05 39.717 106.007 39.5685L93.8192 22.5758C93.6559 22.4001 93.4485 22.2715 93.2187 22.2031C92.9888 22.1348 92.7448 22.1293 92.5121 22.1872L88.3434 23.3176C88.1102 23.3861 87.9007 23.5183 87.7384 23.6993C87.5761 23.8802 87.4676 24.1029 87.4248 24.3422L85.6584 45.0797C85.749 45.3773 85.9483 45.6299 86.2168 45.787C86.4852 45.9442 86.8031 45.9944 87.1069 45.9276ZM92.4061 29.9593L95.6209 34.6933L92.0881 35.7178L92.4061 29.9593Z" fill="#6369F4"/>
<path d="M123.459 41.6526C125.845 41.9147 128.252 41.4085 130.33 40.2075C132.408 39.0065 134.048 37.1736 135.012 34.9756C135.006 34.6728 134.893 34.382 134.692 34.1554C134.491 33.9287 134.216 33.7811 133.916 33.7391L130.384 33.3858C130.182 33.3777 129.981 33.4223 129.801 33.5152C129.622 33.6081 129.469 33.7461 129.359 33.9157C128.809 34.8167 128.018 35.5457 127.075 36.0202C126.133 36.4947 125.076 36.6958 124.025 36.6007C123.248 36.5174 122.495 36.2807 121.811 35.9043C121.126 35.5279 120.523 35.0192 120.037 34.408C119.551 33.7967 119.19 33.0949 118.977 32.3433C118.764 31.5917 118.703 30.8053 118.796 30.0297C118.94 28.4981 119.68 27.0844 120.856 26.0932C122.032 25.1019 123.551 24.6125 125.084 24.7304C126.116 24.8317 127.1 25.2149 127.929 25.838C128.758 26.4611 129.399 27.3001 129.783 28.2633C129.856 28.4575 129.98 28.6287 130.141 28.7591C130.303 28.8895 130.496 28.9744 130.702 29.0051L134.234 29.3584C134.567 29.3985 134.901 29.306 135.166 29.101C135.43 28.896 135.603 28.595 135.648 28.2633C135.118 25.9195 133.851 23.8072 132.032 22.2366C130.214 20.6661 127.94 19.72 125.544 19.5372C124.068 19.358 122.571 19.4763 121.142 19.8852C119.712 20.294 118.379 20.9851 117.221 21.9177C116.064 22.8503 115.104 24.0055 114.4 25.3149C113.696 26.6244 113.262 28.0617 113.123 29.5418C112.983 31.022 113.142 32.5151 113.589 33.9329C114.037 35.3507 114.764 36.6645 115.727 37.7967C116.691 38.9289 117.871 39.8566 119.199 40.5249C120.527 41.1932 121.976 41.5887 123.459 41.6879V41.6526Z" fill="#6369F4"/>
<path d="M139.499 44.6199C139.785 44.7237 140.1 44.7117 140.377 44.5863C140.654 44.4609 140.872 44.232 140.982 43.9486L142.643 39.6739L144.197 40.2745L146.352 46.8102C146.408 46.9826 146.5 47.1411 146.621 47.2752C146.743 47.4092 146.892 47.5157 147.059 47.5874L150.592 48.9299C150.735 48.9867 150.889 49.0144 151.043 49.0114C151.198 49.0083 151.35 48.9746 151.492 48.9122C151.633 48.8497 151.76 48.7598 151.867 48.6476C151.973 48.5354 152.056 48.4032 152.111 48.2586L150.026 41.405C151.44 41.3301 152.799 40.832 153.927 39.9753C155.055 39.1185 155.899 37.9427 156.35 36.6004C159.212 29.2875 151.369 26.1786 151.369 26.1786L144.303 23.4231C144.013 23.321 143.694 23.3381 143.416 23.4704C143.138 23.6028 142.923 23.8398 142.819 24.1296L135.754 41.7936C135.646 42.0802 135.652 42.397 135.77 42.6793C135.889 42.9616 136.11 43.1882 136.39 43.3127L139.499 44.6199ZM146.564 29.7468L149.602 30.9479C149.952 31.0541 150.273 31.2375 150.542 31.4845C150.811 31.7315 151.022 32.0358 151.157 32.375C151.293 32.7142 151.351 33.0795 151.326 33.444C151.302 33.8085 151.195 34.1628 151.015 34.4807C150.937 34.8497 150.772 35.1949 150.535 35.4885C150.299 35.7821 149.996 36.0157 149.652 36.1705C149.308 36.3253 148.932 36.397 148.555 36.3796C148.178 36.3622 147.811 36.2563 147.483 36.0705L144.409 34.9047L146.564 29.7468Z" fill="#6369F4"/>
<path d="M158.894 55.1129C159.823 55.8331 160.889 56.3574 162.026 56.6539C163.164 56.9505 164.35 57.0131 165.512 56.8381C166.675 56.663 167.79 56.2539 168.79 55.6356C169.789 55.0172 170.653 54.2024 171.329 53.2405L178.395 43.4899C178.568 43.2384 178.639 42.9303 178.593 42.6285C178.547 42.3266 178.388 42.0535 178.148 41.8648L175.533 40.0278C175.408 39.9396 175.267 39.8769 175.117 39.8434C174.968 39.8098 174.813 39.8061 174.662 39.8323C174.511 39.8586 174.367 39.9143 174.238 39.9963C174.108 40.0784 173.996 40.1851 173.908 40.3104L166.843 50.0256C166.603 50.4656 166.272 50.8495 165.872 51.1519C165.473 51.4542 165.013 51.668 164.524 51.7792C164.036 51.8903 163.529 51.8962 163.038 51.7964C162.547 51.6967 162.082 51.4936 161.676 51.2006C161.269 50.9077 160.93 50.5315 160.679 50.0972C160.429 49.6629 160.275 49.1804 160.225 48.6817C160.176 48.1829 160.233 47.6794 160.394 47.2046C160.554 46.7298 160.813 46.2944 161.155 45.9276L168.22 36.2124C168.396 35.9553 168.468 35.6415 168.422 35.3338C168.376 35.026 168.216 34.7468 167.973 34.5519L165.359 32.7149C165.103 32.5456 164.792 32.4806 164.49 32.5331C164.188 32.5857 163.917 32.7518 163.734 32.9975L156.668 42.748C155.972 43.6952 155.475 44.7742 155.21 45.9194C154.944 47.0646 154.914 48.2519 155.123 49.4089C155.331 50.566 155.773 51.6684 156.421 52.6491C157.069 53.6297 157.911 54.468 158.894 55.1129Z" fill="#6369F4"/>
<path d="M179.526 65.6399C179.066 66.0285 178.042 66.3112 176.558 64.5801C175.482 63.3018 174.95 61.6534 175.074 59.9874C175.074 59.7307 174.987 59.4815 174.827 59.2809C174.631 59.0501 174.374 58.8788 174.085 58.7863L171.541 58.1857C171.339 58.1363 171.127 58.1362 170.924 58.1854C170.721 58.2346 170.533 58.3316 170.376 58.4683C170.155 58.6312 170.004 58.8707 169.952 59.1396C169.69 60.6726 169.794 62.2456 170.254 63.7311C170.715 65.2165 171.519 66.5725 172.601 67.689C176.699 72.5642 181.151 71.5044 182.882 70.0206C188.464 65.3573 180.727 57.4085 182.882 55.6068C183.588 55.0062 184.648 55.3948 185.355 56.2427C186.34 57.1609 186.923 58.4301 186.98 59.7755C186.944 60.1018 187.032 60.4298 187.227 60.694C187.416 60.919 187.679 61.0693 187.969 61.1179L190.654 61.6832C190.977 61.6902 191.292 61.5769 191.537 61.3652C191.726 61.1763 191.839 60.9251 191.855 60.6587C192.03 59.2723 191.899 57.8644 191.472 56.5339C191.045 55.2035 190.331 53.9826 189.382 52.9572C188.894 52.1468 188.241 51.4475 187.467 50.9043C186.692 50.361 185.812 49.9859 184.884 49.8029C183.956 49.6199 183 49.6331 182.077 49.8417C181.154 50.0503 180.285 50.4497 179.526 51.0141C173.696 56.1014 181.469 64.0148 179.526 65.6399Z" fill="#6369F4"/>
<path d="M181.751 80.6188L183.199 83.445C183.349 83.7169 183.598 83.9202 183.894 84.0124C184.191 84.1046 184.511 84.0785 184.789 83.9396L198.355 77.1213L200.686 81.6786C200.824 81.954 201.062 82.1662 201.351 82.2714C201.64 82.3766 201.959 82.3667 202.241 82.2439L204.714 80.972C204.983 80.8291 205.186 80.5863 205.278 80.2957C205.371 80.0052 205.346 79.6899 205.208 79.4176L198.143 65.2864C198.006 65.0109 197.766 64.8005 197.475 64.7013C197.184 64.602 196.865 64.6219 196.588 64.7565L194.115 65.993C193.843 66.1427 193.64 66.3919 193.548 66.6882C193.456 66.9846 193.482 67.3052 193.621 67.5827L195.917 72.14L182.316 78.9583C182.169 79.0299 182.038 79.1296 181.931 79.252C181.823 79.3743 181.74 79.5167 181.688 79.671C181.635 79.8253 181.614 79.9885 181.625 80.1511C181.635 80.3138 181.678 80.4727 181.751 80.6188Z" fill="#6369F4"/>
<path d="M42.9115 140.324C43.2121 140.256 43.4751 140.075 43.6461 139.819C43.8171 139.562 43.8829 139.25 43.83 138.946L43.1588 135.413C43.0988 135.185 42.973 134.98 42.7971 134.823C42.6212 134.666 42.403 134.564 42.1696 134.53L33.6555 132.057L40.5445 126.44C40.7497 126.321 40.9138 126.142 41.0148 125.928C41.1158 125.713 41.1489 125.473 41.1097 125.239L40.4032 121.706C40.3355 121.408 40.1531 121.147 39.8953 120.982C39.6375 120.817 39.325 120.76 39.0254 120.823L27.6144 130.715L21.6793 131.916C21.375 131.968 21.1036 132.138 20.9248 132.39C20.746 132.642 20.6743 132.954 20.7255 133.258L21.3614 136.403C21.4369 136.704 21.6264 136.964 21.8899 137.129C22.1534 137.294 22.4705 137.35 22.7745 137.286L28.7096 136.085L42.9115 140.324Z" fill="#6369F4"/>
<path d="M49.0937 149.332C48.0574 147.403 46.475 145.823 44.5446 144.789C42.6143 143.755 40.4218 143.313 38.2417 143.52C36.0616 143.726 33.9909 144.571 32.2888 145.949C30.5868 147.327 29.329 149.176 28.6731 151.265C28.0171 153.354 27.9922 155.591 28.6013 157.694C29.2105 159.798 30.4267 161.674 32.0976 163.09C33.7685 164.505 35.8199 165.396 37.9948 165.651C40.1697 165.906 42.3715 165.514 44.3244 164.523C45.6407 163.845 46.8093 162.912 47.7628 161.779C48.7162 160.646 49.4355 159.336 49.879 157.923C50.3226 156.51 50.4816 155.023 50.3468 153.549C50.212 152.074 49.7861 150.641 49.0937 149.332ZM41.7455 159.507C41.0705 159.848 40.3349 160.052 39.5808 160.109C38.8266 160.166 38.0687 160.073 37.3503 159.837C35.8993 159.36 34.6973 158.326 34.0087 156.963C33.6677 156.288 33.463 155.552 33.4063 154.798C33.3495 154.044 33.4419 153.286 33.6781 152.568C34.1551 151.117 35.189 149.915 36.5523 149.226C37.9156 148.537 39.4966 148.419 40.9475 148.896C42.3984 149.373 43.6005 150.406 44.2891 151.77C44.9778 153.133 45.0967 154.714 44.6197 156.165C44.1426 157.616 43.1088 158.818 41.7455 159.507Z" fill="#6369F4"/>
<path d="M67.0409 173.108L64.8505 170.811C64.7421 170.701 64.6128 170.614 64.4703 170.554C64.3278 170.495 64.1748 170.464 64.0203 170.464C63.8658 170.464 63.7129 170.495 63.5704 170.554C63.4278 170.614 63.2986 170.701 63.1901 170.811L54.5701 179.078C54.2738 179.504 53.8873 179.86 53.438 180.12C52.9887 180.38 52.4877 180.537 51.9705 180.582C51.4534 180.626 50.9328 180.556 50.4459 180.376C49.9589 180.196 49.5176 179.911 49.1532 179.542C48.7889 179.172 48.5104 178.727 48.3377 178.237C48.165 177.748 48.1023 177.226 48.154 176.71C48.2057 176.193 48.3706 175.695 48.6369 175.249C48.9032 174.804 49.2644 174.422 49.6948 174.132L58.3149 166.042C58.4249 165.934 58.5122 165.804 58.5719 165.662C58.6315 165.519 58.6622 165.366 58.6622 165.212C58.6622 165.057 58.6315 164.904 58.5719 164.762C58.5122 164.619 58.4249 164.49 58.3149 164.382L56.1245 162.085C55.901 161.872 55.6036 161.752 55.2943 161.752C54.985 161.752 54.6876 161.872 54.4641 162.085L45.8441 170.387C44.9897 171.193 44.3091 172.165 43.8439 173.243C43.3786 174.322 43.1387 175.484 43.1387 176.658C43.1387 177.833 43.3786 178.994 43.8439 180.073C44.3091 181.151 44.9897 182.123 45.8441 182.929C46.6178 183.808 47.5626 184.52 48.6207 185.022C49.6788 185.524 50.8281 185.805 51.9984 185.848C53.1687 185.891 54.3355 185.695 55.4275 185.272C56.5196 184.849 57.514 184.208 58.3502 183.388L67.0055 175.086C67.1754 174.984 67.3165 174.841 67.4157 174.67C67.5148 174.498 67.5687 174.305 67.5722 174.107C67.5758 173.909 67.5288 173.713 67.4359 173.538C67.3429 173.364 67.207 173.215 67.0409 173.108Z" fill="#6369F4"/>
<path d="M75.9438 180.174C76.1152 179.913 76.1813 179.596 76.1289 179.288C76.0765 178.98 75.9094 178.703 75.6612 178.514L72.9056 176.641C72.7038 176.536 72.4796 176.481 72.252 176.481C72.0244 176.481 71.8002 176.536 71.5985 176.641L67.0765 180.174C66.898 180.442 66.8314 180.77 66.8908 181.086C66.9502 181.403 67.1309 181.684 67.3944 181.87L69.6907 183.459C69.8569 183.593 70.0525 183.685 70.2614 183.728C70.4703 183.771 70.6864 183.764 70.8919 183.707L75.9438 180.174Z" fill="#6369F4"/>
<path d="M85.023 202.042L77.2155 198.509L83.3979 184.59C83.4634 184.451 83.5007 184.3 83.5076 184.147C83.5146 183.993 83.4912 183.84 83.4387 183.695C83.3861 183.551 83.3055 183.418 83.2015 183.305C83.0975 183.192 82.9722 183.1 82.8326 183.036L79.9357 181.764C79.6493 181.643 79.3273 181.639 79.0374 181.751C78.7476 181.863 78.5124 182.083 78.3813 182.364L70.6091 199.816C70.4863 200.099 70.4764 200.417 70.5816 200.706C70.6868 200.996 70.899 201.233 71.1744 201.371L82.9386 206.635C83.0799 206.699 83.2326 206.735 83.3877 206.739C83.5428 206.744 83.6973 206.717 83.8421 206.661C83.9869 206.605 84.1191 206.521 84.2308 206.413C84.3426 206.306 84.4318 206.177 84.4931 206.034L85.6236 203.49C85.7215 203.218 85.7142 202.918 85.6032 202.65C85.4921 202.382 85.2853 202.166 85.023 202.042Z" fill="#6369F4"/>
<path d="M105.089 206.67L96.716 204.904L99.6129 189.96C99.6762 189.66 99.619 189.348 99.4537 189.09C99.2885 188.832 99.0284 188.65 98.7297 188.582L95.6209 188.123C95.4722 188.092 95.3189 188.092 95.17 188.122C95.0212 188.152 94.8799 188.212 94.7547 188.297C94.6294 188.383 94.5226 188.493 94.4408 188.621C94.359 188.749 94.3038 188.892 94.2784 189.042L90.7456 207.836C90.6914 208.135 90.7524 208.443 90.9162 208.699C91.0801 208.954 91.3347 209.138 91.6288 209.214L104.276 211.687C104.584 211.741 104.901 211.676 105.164 211.506C105.426 211.335 105.614 211.072 105.689 210.768L106.219 208.048C106.239 207.883 106.225 207.715 106.178 207.556C106.131 207.396 106.053 207.247 105.947 207.119C105.842 206.99 105.711 206.884 105.564 206.807C105.416 206.73 105.255 206.683 105.089 206.67Z" fill="#6369F4"/>
<path d="M132.221 205.822L123.883 206.705L122.364 191.55C122.351 191.396 122.307 191.247 122.236 191.111C122.165 190.974 122.067 190.853 121.949 190.755C121.831 190.656 121.694 190.582 121.547 190.537C121.4 190.491 121.246 190.475 121.092 190.49L117.913 190.808C117.607 190.852 117.329 191.012 117.138 191.256C116.947 191.499 116.858 191.807 116.888 192.115L118.831 211.121C118.845 211.275 118.888 211.424 118.96 211.56C119.031 211.697 119.128 211.818 119.247 211.916C119.365 212.015 119.501 212.089 119.648 212.134C119.795 212.18 119.95 212.196 120.103 212.181L132.927 210.874C133.23 210.831 133.506 210.677 133.702 210.442C133.897 210.207 133.999 209.908 133.987 209.602L133.705 206.847C133.685 206.677 133.629 206.514 133.541 206.368C133.453 206.222 133.335 206.096 133.194 205.999C133.054 205.902 132.894 205.836 132.727 205.806C132.559 205.775 132.386 205.781 132.221 205.822Z" fill="#6369F4"/>
<path d="M150.238 184.201C150.126 183.908 149.907 183.668 149.625 183.53C149.343 183.392 149.019 183.367 148.719 183.459L145.751 184.555C145.459 184.666 145.221 184.887 145.089 185.171C144.957 185.454 144.941 185.778 145.045 186.074L149.143 197.273C149.303 197.709 149.375 198.172 149.356 198.636C149.337 199.1 149.227 199.556 149.032 199.978C148.837 200.399 148.56 200.778 148.219 201.093C147.877 201.408 147.477 201.652 147.041 201.812C146.605 201.972 146.141 202.045 145.677 202.026C145.213 202.007 144.757 201.897 144.336 201.702C143.914 201.506 143.535 201.23 143.22 200.888C142.906 200.547 142.661 200.146 142.501 199.71L138.438 188.476C138.334 188.185 138.121 187.946 137.845 187.808C137.569 187.67 137.25 187.643 136.955 187.734L133.952 188.829C133.666 188.947 133.436 189.171 133.311 189.454C133.186 189.737 133.175 190.057 133.28 190.348L137.378 201.618C138.218 203.836 139.898 205.634 142.054 206.621C144.21 207.608 146.668 207.705 148.896 206.892C151.123 206.078 152.94 204.419 153.952 202.274C154.963 200.129 155.089 197.672 154.301 195.436L150.238 184.201Z" fill="#6369F4"/>
<path d="M174.438 187.664C174.254 187.418 173.984 187.252 173.682 187.199C173.379 187.147 173.069 187.212 172.813 187.381L165.747 192.186L157.198 179.573C157.116 179.446 157.009 179.337 156.884 179.252C156.759 179.167 156.618 179.108 156.47 179.079C156.322 179.049 156.169 179.049 156.021 179.08C155.873 179.11 155.733 179.17 155.608 179.255L152.958 181.022C152.833 181.11 152.726 181.222 152.644 181.351C152.562 181.481 152.507 181.625 152.48 181.776C152.454 181.927 152.458 182.081 152.491 182.231C152.525 182.38 152.588 182.522 152.676 182.647L163.274 198.474C163.447 198.731 163.713 198.911 164.016 198.977C164.319 199.043 164.635 198.989 164.899 198.827L175.498 191.585C175.747 191.413 175.919 191.151 175.978 190.854C176.038 190.558 175.979 190.25 175.816 189.995L174.438 187.664Z" fill="#6369F4"/>
<path d="M172.495 164.099C171.115 165.797 170.266 167.863 170.055 170.04C169.843 172.217 170.277 174.409 171.304 176.34C172.33 178.272 173.903 179.858 175.826 180.901C177.749 181.944 179.937 182.396 182.116 182.203C184.295 182.009 186.368 181.178 188.077 179.812C189.786 178.447 191.055 176.608 191.724 174.525C192.394 172.443 192.435 170.209 191.843 168.103C191.25 165.998 190.05 164.113 188.393 162.686C187.261 161.724 185.949 160.997 184.534 160.547C183.118 160.096 181.627 159.932 180.148 160.064C178.668 160.195 177.23 160.62 175.916 161.313C174.602 162.005 173.439 162.953 172.495 164.099ZM185.566 175.298C184.826 176.251 183.817 176.96 182.67 177.334C181.523 177.708 180.29 177.73 179.13 177.398C177.97 177.065 176.937 176.392 176.163 175.467C175.389 174.541 174.909 173.405 174.787 172.205C174.664 171.004 174.904 169.795 175.475 168.732C176.046 167.669 176.922 166.801 177.991 166.241C179.059 165.68 180.271 165.453 181.47 165.587C182.669 165.722 183.801 166.213 184.719 166.996C185.319 167.485 185.818 168.088 186.186 168.77C186.554 169.452 186.784 170.2 186.862 170.971C186.941 171.742 186.867 172.521 186.645 173.264C186.422 174.006 186.056 174.697 185.566 175.298Z" fill="#6369F4"/>
<path d="M189.629 137.356C189.345 137.241 189.03 137.236 188.743 137.34C188.456 137.444 188.218 137.651 188.074 137.921L186.626 141.136C186.528 141.355 186.502 141.6 186.553 141.836C186.604 142.071 186.728 142.283 186.908 142.443L196.977 152.158L183.022 151.028C182.786 150.997 182.546 151.042 182.336 151.156C182.127 151.271 181.959 151.448 181.856 151.663L180.408 154.878C180.288 155.165 180.283 155.487 180.395 155.777C180.507 156.066 180.727 156.302 181.009 156.433L201.781 157.952C202.022 157.951 202.256 157.881 202.457 157.749C202.658 157.617 202.816 157.43 202.912 157.21L204.714 153.289C204.805 153.067 204.833 152.824 204.796 152.588C204.759 152.351 204.657 152.129 204.502 151.946L189.629 137.356Z" fill="#6369F4"/>
<path d="M211.143 124.037L208.423 123.649C208.12 123.607 207.812 123.682 207.563 123.859C207.313 124.036 207.141 124.302 207.081 124.602L205.632 133.01L202.7 132.516L204.007 124.885C204.038 124.734 204.039 124.579 204.009 124.428C203.98 124.277 203.92 124.133 203.835 124.005C203.75 123.877 203.64 123.767 203.512 123.681C203.383 123.596 203.24 123.537 203.089 123.507L200.333 123.048C200.034 123.007 199.731 123.083 199.487 123.261C199.243 123.439 199.078 123.705 199.026 124.002L197.683 131.633L194.539 131.032L195.988 122.624C196.041 122.32 195.975 122.008 195.804 121.752C195.633 121.495 195.37 121.314 195.069 121.246L192.314 120.787C192.015 120.746 191.711 120.822 191.468 121C191.224 121.178 191.058 121.444 191.006 121.741L188.816 134.424C188.774 134.727 188.849 135.035 189.027 135.284C189.204 135.534 189.47 135.706 189.77 135.766L208.6 139.016C208.903 139.069 209.216 139.003 209.472 138.832C209.729 138.661 209.91 138.398 209.978 138.098L212.203 125.415C212.228 125.254 212.22 125.09 212.18 124.933C212.139 124.776 212.067 124.628 211.968 124.499C211.869 124.37 211.745 124.263 211.603 124.184C211.461 124.104 211.305 124.054 211.143 124.037Z" fill="#6369F4"/>
<path d="M88.2724 139.476H87.7072C87.1544 139.476 86.6242 139.696 86.2333 140.087C85.8424 140.477 85.6228 141.008 85.6228 141.56C85.6228 142.113 85.8424 142.643 86.2333 143.034C86.6242 143.425 87.1544 143.645 87.7072 143.645H88.2724C88.8252 143.645 89.3554 143.425 89.7463 143.034C90.1372 142.643 90.3568 142.113 90.3568 141.56C90.3568 141.008 90.1372 140.477 89.7463 140.087C89.3554 139.696 88.8252 139.476 88.2724 139.476Z" fill="#6369F4"/>
<path d="M100.073 122.306H99.5429C99.0323 122.373 98.5633 122.623 98.2235 123.01C97.8837 123.396 97.6963 123.894 97.6963 124.409C97.6963 124.923 97.8837 125.421 98.2235 125.807C98.5633 126.194 99.0323 126.444 99.5429 126.511H100.073C100.372 126.549 100.675 126.524 100.964 126.436C101.252 126.348 101.518 126.2 101.745 126.001C101.971 125.802 102.153 125.557 102.277 125.282C102.401 125.008 102.466 124.71 102.466 124.409C102.466 124.107 102.401 123.809 102.277 123.535C102.153 123.26 101.971 123.015 101.745 122.816C101.518 122.617 101.252 122.469 100.964 122.381C100.675 122.293 100.372 122.268 100.073 122.306Z" fill="#6369F4"/>
<path d="M77.4979 122.306H76.968C76.669 122.268 76.3653 122.293 76.077 122.381C75.7886 122.469 75.5224 122.617 75.2959 122.816C75.0695 123.015 74.888 123.26 74.7638 123.535C74.6395 123.809 74.5752 124.107 74.5752 124.409C74.5752 124.71 74.6395 125.008 74.7638 125.282C74.888 125.557 75.0695 125.802 75.2959 126.001C75.5224 126.2 75.7886 126.348 76.077 126.436C76.3653 126.524 76.669 126.549 76.968 126.511H77.4979C77.7968 126.549 78.1005 126.524 78.3889 126.436C78.6772 126.348 78.9435 126.2 79.1699 126.001C79.3964 125.802 79.5778 125.557 79.7021 125.282C79.8264 125.008 79.8906 124.71 79.8906 124.409C79.8906 124.107 79.8264 123.809 79.7021 123.535C79.5778 123.26 79.3964 123.015 79.1699 122.816C78.9435 122.617 78.6772 122.469 78.3889 122.381C78.1005 122.293 77.7968 122.268 77.4979 122.306Z" fill="#6369F4"/>
<path d="M88.5556 87.6147H89.0855C89.3622 87.6194 89.6371 87.569 89.894 87.4663C90.151 87.3637 90.385 87.2109 90.5823 87.0169C90.7796 86.8229 90.9363 86.5915 91.0432 86.3363C91.1502 86.0811 91.2053 85.8071 91.2052 85.5304C91.1959 84.9744 90.9685 84.4443 90.572 84.0543C90.1755 83.6644 89.6416 83.446 89.0855 83.446H88.5556C88.0028 83.446 87.4726 83.6656 87.0818 84.0565C86.6909 84.4474 86.4713 84.9776 86.4713 85.5304C86.4665 85.8054 86.5171 86.0786 86.6202 86.3337C86.7232 86.5887 86.8766 86.8204 87.0711 87.0149C87.2656 87.2094 87.4973 87.3628 87.7523 87.4658C88.0074 87.5689 88.2806 87.6195 88.5556 87.6147Z" fill="#6369F4"/>
<path d="M106.22 75.9558H105.654C105.144 76.0221 104.675 76.272 104.335 76.6589C103.995 77.0457 103.808 77.5429 103.808 78.0578C103.808 78.5727 103.995 79.07 104.335 79.4568C104.675 79.8436 105.144 80.0935 105.654 80.1598H106.22C106.73 80.0935 107.199 79.8436 107.539 79.4568C107.879 79.07 108.066 78.5727 108.066 78.0578C108.066 77.5429 107.879 77.0457 107.539 76.6589C107.199 76.272 106.73 76.0221 106.22 75.9558Z" fill="#6369F4"/>
<path d="M143.244 108.105C144.573 108.105 145.872 107.71 146.976 106.971C148.081 106.232 148.941 105.181 149.448 103.953C149.955 102.724 150.086 101.373 149.824 100.07C149.562 98.7667 148.92 97.5707 147.977 96.6334C147.035 95.6961 145.836 95.0596 144.531 94.8046C143.227 94.5496 141.876 94.6876 140.65 95.2011C139.425 95.7145 138.379 96.5804 137.645 97.6888C136.912 98.7973 136.524 100.099 136.531 101.428C136.531 102.307 136.705 103.179 137.043 103.991C137.381 104.803 137.876 105.541 138.499 106.161C139.123 106.782 139.863 107.273 140.678 107.607C141.492 107.94 142.364 108.109 143.244 108.105ZM143.244 98.9193C143.738 98.9263 144.22 99.0793 144.627 99.3591C145.035 99.6389 145.351 100.033 145.536 100.492C145.72 100.951 145.765 101.454 145.664 101.938C145.563 102.422 145.322 102.866 144.97 103.213C144.617 103.561 144.17 103.796 143.685 103.89C143.199 103.984 142.697 103.932 142.24 103.741C141.784 103.551 141.395 103.229 141.12 102.817C140.846 102.406 140.7 101.922 140.7 101.428C140.7 101.095 140.766 100.766 140.894 100.459C141.023 100.153 141.21 99.8747 141.447 99.6414C141.684 99.408 141.965 99.2239 142.273 99.1C142.581 98.976 142.911 98.9146 143.244 98.9193Z" fill="#6369F4"/>
<path d="M87.9898 92.2069C86.6608 92.1999 85.3596 92.5876 84.2511 93.3209C83.1426 94.0542 82.2768 95.1 81.7633 96.3259C81.2499 97.5518 81.1119 98.9025 81.3669 100.207C81.6219 101.511 82.2584 102.711 83.1957 103.653C84.133 104.595 85.3289 105.238 86.632 105.5C87.935 105.762 89.2864 105.631 90.515 105.124C91.7436 104.617 92.794 103.757 93.5331 102.652C94.2722 101.547 94.6668 100.248 94.6668 98.9192C94.6669 97.1451 93.9645 95.4431 92.7134 94.1853C91.4622 92.9275 89.7639 92.2162 87.9898 92.2069ZM87.9898 101.427C87.4838 101.434 86.9872 101.29 86.5636 101.014C86.1399 100.737 85.8084 100.34 85.6115 99.8737C85.4146 99.4075 85.3613 98.8932 85.4583 98.3965C85.5553 97.8998 85.7983 97.4434 86.1561 97.0855C86.514 96.7277 86.9704 96.4847 87.4671 96.3877C87.9638 96.2907 88.4781 96.344 88.9443 96.5409C89.4105 96.7378 89.8074 97.0693 90.0842 97.4929C90.361 97.9166 90.5051 98.4132 90.4981 98.9192C90.4981 99.5844 90.2339 100.222 89.7635 100.693C89.2931 101.163 88.6551 101.427 87.9898 101.427Z" fill="#6369F4"/>
<path d="M127.063 80.1602H127.593C127.892 80.199 128.196 80.1736 128.484 80.0858C128.773 79.9979 129.039 79.8496 129.265 79.6506C129.492 79.4517 129.673 79.2067 129.798 78.9321C129.922 78.6575 129.986 78.3596 129.986 78.0582C129.986 77.7567 129.922 77.4588 129.798 77.1842C129.673 76.9096 129.492 76.6646 129.265 76.4657C129.039 76.2668 128.773 76.1184 128.484 76.0305C128.196 75.9427 127.892 75.9173 127.593 75.9561H127.063C126.553 76.0225 126.084 76.2724 125.744 76.6592C125.404 77.046 125.217 77.5433 125.217 78.0582C125.217 78.573 125.404 79.0703 125.744 79.4571C126.084 79.8439 126.553 80.0938 127.063 80.1602Z" fill="#6369F4"/>
<path d="M125.65 154.526H126.215C126.726 154.459 127.195 154.21 127.534 153.823C127.874 153.436 128.062 152.939 128.062 152.424C128.062 151.909 127.874 151.412 127.534 151.025C127.195 150.638 126.726 150.388 126.215 150.322H125.65C125.139 150.388 124.67 150.638 124.33 151.025C123.991 151.412 123.803 151.909 123.803 152.424C123.803 152.939 123.991 153.436 124.33 153.823C124.67 154.21 125.139 154.459 125.65 154.526Z" fill="#6369F4"/>
<path d="M108.692 145.94C108.685 147.269 109.073 148.571 109.806 149.679C110.54 150.788 111.585 151.653 112.811 152.167C114.037 152.68 115.388 152.818 116.692 152.563C117.997 152.308 119.196 151.672 120.138 150.735C121.081 149.797 121.723 148.601 121.985 147.298C122.247 145.995 122.116 144.644 121.609 143.415C121.102 142.187 120.242 141.136 119.137 140.397C118.033 139.658 116.734 139.263 115.405 139.263C113.63 139.263 111.928 139.966 110.671 141.217C109.413 142.468 108.702 144.166 108.692 145.94ZM117.913 145.94C117.92 146.446 117.776 146.943 117.499 147.367C117.222 147.79 116.825 148.122 116.359 148.319C115.893 148.516 115.379 148.569 114.882 148.472C114.385 148.375 113.929 148.132 113.571 147.774C113.213 147.416 112.97 146.96 112.873 146.463C112.776 145.966 112.829 145.452 113.026 144.986C113.223 144.52 113.555 144.123 113.978 143.846C114.402 143.569 114.899 143.425 115.405 143.432C116.07 143.432 116.708 143.696 117.178 144.167C117.649 144.637 117.913 145.275 117.913 145.94Z" fill="#6369F4"/>
<path d="M113.038 133.047C113.033 133.323 113.084 133.598 113.186 133.855C113.289 134.112 113.442 134.346 113.636 134.544C113.83 134.741 114.061 134.898 114.316 135.004C114.572 135.111 114.846 135.166 115.122 135.166H115.687C116.198 135.1 116.667 134.85 117.007 134.463C117.347 134.077 117.534 133.579 117.534 133.064C117.534 132.55 117.347 132.052 117.007 131.665C116.667 131.279 116.198 131.029 115.687 130.962H115.122C114.569 130.962 114.039 131.182 113.648 131.573C113.257 131.964 113.038 132.494 113.038 133.047Z" fill="#6369F4"/>
<path d="M115.122 101.003H115.687C116.198 100.937 116.667 100.687 117.007 100.3C117.347 99.9135 117.534 99.4162 117.534 98.9013C117.534 98.3865 117.347 97.8892 117.007 97.5024C116.667 97.1156 116.198 96.8656 115.687 96.7993H115.122C114.612 96.8656 114.143 97.1156 113.803 97.5024C113.463 97.8892 113.276 98.3865 113.276 98.9013C113.276 99.4162 113.463 99.9135 113.803 100.3C114.143 100.687 114.612 100.937 115.122 101.003Z" fill="#6369F4"/>
<path d="M130.596 109.518H131.126C131.679 109.518 132.209 109.298 132.6 108.907C132.99 108.516 133.21 107.986 133.21 107.433C133.21 106.88 132.99 106.35 132.6 105.959C132.209 105.568 131.679 105.349 131.126 105.349H130.596C130.043 105.349 129.513 105.568 129.122 105.959C128.731 106.35 128.511 106.88 128.511 107.433C128.511 107.986 128.731 108.516 129.122 108.907C129.513 109.298 130.043 109.518 130.596 109.518Z" fill="#6369F4"/>
<path d="M155.926 108.104H156.456C156.733 108.109 157.008 108.059 157.265 107.956C157.522 107.853 157.756 107.701 157.953 107.507C158.15 107.313 158.307 107.081 158.414 106.826C158.521 106.571 158.576 106.297 158.576 106.02C158.567 105.464 158.339 104.934 157.943 104.544C157.546 104.154 157.012 103.936 156.456 103.936H155.926C155.652 103.936 155.381 103.99 155.129 104.094C154.876 104.199 154.646 104.353 154.452 104.546C154.259 104.74 154.105 104.97 154.001 105.222C153.896 105.475 153.842 105.746 153.842 106.02C153.837 106.295 153.888 106.568 153.991 106.823C154.094 107.078 154.247 107.31 154.442 107.505C154.636 107.699 154.868 107.853 155.123 107.956C155.378 108.059 155.651 108.109 155.926 108.104Z" fill="#6369F4"/>
<path d="M115.864 92.6664C116.285 92.6618 116.7 92.5738 117.087 92.4076C117.473 92.2413 117.822 92 118.115 91.6977C118.407 91.3954 118.637 91.0381 118.79 90.6465C118.944 90.2549 119.018 89.8367 119.008 89.4162C118.718 87.9266 118.353 86.4527 117.913 85.0002C118.827 85.2703 119.677 85.7225 120.412 86.3297C121.146 86.9368 121.75 87.6863 122.188 88.533C122.976 87.4418 123.408 86.134 123.424 84.7882C123.22 82.8832 122.314 81.1225 120.881 79.8501C119.449 78.5777 117.594 77.8849 115.678 77.907C113.762 77.9291 111.923 78.6644 110.521 79.9695C109.118 81.2746 108.252 83.0556 108.092 84.9649C108.099 86.3237 108.559 87.6414 109.399 88.7096C109.825 87.8735 110.412 87.1305 111.128 86.5239C111.844 85.9174 112.673 85.4594 113.568 85.1768C113.175 86.6317 112.857 88.1056 112.614 89.5928C112.651 90.4269 113.01 91.214 113.617 91.7876C114.223 92.3612 115.029 92.6763 115.864 92.6664Z" fill="#6369F4"/>
<path d="M91.6639 125.062C90.4356 125.927 89.2562 126.858 88.1311 127.853C87.9965 126.931 88.0458 125.991 88.2762 125.087C88.5066 124.184 88.9136 123.335 89.4736 122.589C88.1441 122.288 86.7522 122.437 85.5168 123.013C83.8781 124.004 82.6649 125.567 82.1118 127.4C81.5587 129.233 81.705 131.206 82.5224 132.937C83.3398 134.669 84.7703 136.036 86.5371 136.774C88.304 137.512 90.2817 137.568 92.0878 136.932C93.3218 136.345 94.3365 135.38 94.9847 134.177C93.104 134.05 91.3448 133.202 90.0741 131.81C92.2998 131.457 94.5255 130.891 94.5255 130.891C94.9344 130.732 95.3064 130.492 95.6187 130.184C95.931 129.875 96.1769 129.507 96.3414 129.1C96.5058 128.693 96.5853 128.257 96.5749 127.819C96.5645 127.38 96.4645 126.948 96.2809 126.55C96.0974 126.151 95.8343 125.795 95.5077 125.502C95.1812 125.209 94.7982 124.986 94.3822 124.847C93.9662 124.707 93.5262 124.654 93.0891 124.692C92.652 124.729 92.2271 124.855 91.8405 125.062H91.6639Z" fill="#6369F4"/>
<path d="M145.08 166.043C153.916 160.933 161.252 153.587 166.349 144.744C171.447 135.901 174.127 125.872 174.12 115.665C174.133 105.418 171.459 95.3475 166.363 86.4579C161.267 77.5683 153.929 70.171 145.08 65.0045H144.904H144.692C135.86 59.9341 125.854 57.2661 115.67 57.2661C105.486 57.2661 95.4797 59.9341 86.6477 65.0045H86.4711H86.2591C77.4243 70.1466 70.093 77.5165 64.9973 86.3783C59.9017 95.24 57.22 105.284 57.22 115.506C57.22 125.728 59.9017 135.772 64.9973 144.633C70.093 153.495 77.4243 160.865 86.2591 166.007H86.4711H86.6477C95.4958 171.087 105.52 173.76 115.723 173.76C125.925 173.76 135.95 171.087 144.798 166.007L145.08 166.043ZM115.758 169.787C106.939 169.789 98.2546 167.63 90.4632 163.499L92.6182 159.719C98.787 162.979 105.57 164.911 112.53 165.392C119.491 165.873 126.475 164.891 133.033 162.51C133.553 162.318 133.976 161.927 134.208 161.423C134.44 160.92 134.462 160.345 134.27 159.825C134.078 159.305 133.687 158.882 133.184 158.651C132.68 158.419 132.105 158.396 131.585 158.588C125.621 160.789 119.264 161.721 112.919 161.325C106.575 160.93 100.382 159.216 94.7379 156.292L113.144 124.497C113.313 124.039 113.316 123.536 113.152 123.076C112.988 122.616 112.668 122.228 112.248 121.98C111.827 121.732 111.333 121.639 110.851 121.718C110.369 121.797 109.93 122.043 109.611 122.413L86.8244 161.415C79.3696 156.714 73.1711 150.269 68.7641 142.637C64.3571 135.005 61.8741 126.414 61.5295 117.608H65.9102C66.1967 124.51 67.9149 131.278 70.9557 137.481C73.9966 143.685 78.2936 149.188 83.5742 153.642C84.0071 153.931 84.5309 154.049 85.0457 153.977C85.5606 153.904 86.0307 153.644 86.3666 153.247C86.7025 152.85 86.8808 152.343 86.8675 151.824C86.8542 151.304 86.6502 150.807 86.2945 150.428C81.4826 146.366 77.5617 141.355 74.7774 135.707C71.9931 130.06 70.4055 123.898 70.1142 117.608H106.891C107.401 117.542 107.87 117.292 108.21 116.905C108.55 116.518 108.737 116.021 108.737 115.506C108.737 114.991 108.55 114.494 108.21 114.107C107.87 113.72 107.401 113.47 106.891 113.404H61.5295C61.8801 104.599 64.3656 96.0108 68.7721 88.3796C73.1785 80.7484 79.3738 74.3025 86.8244 69.5971L89.0147 73.3772C83.0359 77.1567 77.9326 82.1686 74.0457 88.0781C70.1588 93.9876 67.5779 100.659 66.4755 107.645C66.3911 108.194 66.528 108.753 66.8559 109.2C67.1839 109.647 67.6761 109.946 68.2242 110.03C68.7723 110.114 69.3315 109.977 69.7787 109.65C70.2259 109.322 70.5245 108.829 70.6088 108.281C71.6089 101.914 73.9535 95.8326 77.4865 90.4417C81.0195 85.0509 85.6599 80.4741 91.0991 77.016L109.505 108.811C109.611 109.098 109.778 109.357 109.995 109.572C110.212 109.786 110.474 109.951 110.761 110.053C111.049 110.155 111.355 110.193 111.659 110.164C111.963 110.135 112.257 110.04 112.519 109.884C112.782 109.729 113.008 109.518 113.18 109.267C113.353 109.015 113.468 108.728 113.517 108.427C113.567 108.126 113.549 107.817 113.466 107.524C113.384 107.23 113.237 106.958 113.038 106.727L90.4632 67.5128C98.2624 63.4068 106.944 61.2612 115.758 61.2612C124.572 61.2612 133.254 63.4068 141.053 67.5128L138.863 71.2929C132.687 68.0625 125.904 66.161 118.949 65.7107C111.995 65.2605 105.023 66.2715 98.4826 68.6786C97.9675 68.877 97.5501 69.2685 97.3192 69.77C97.0883 70.2714 97.0621 70.8431 97.2462 71.3635C97.3365 71.6244 97.4787 71.8643 97.6641 72.0688C97.8496 72.2734 98.0744 72.4384 98.3252 72.5538C98.5759 72.6693 98.8474 72.733 99.1234 72.7409C99.3994 72.7488 99.6741 72.7009 99.9311 72.6C105.898 70.4127 112.253 69.4874 118.596 69.8827C124.938 70.2779 131.129 71.9851 136.778 74.8963L118.372 106.692C118.232 106.928 118.14 107.19 118.102 107.462C118.064 107.734 118.079 108.011 118.148 108.277C118.217 108.543 118.338 108.792 118.504 109.011C118.67 109.23 118.877 109.414 119.114 109.553C119.598 109.823 120.169 109.893 120.704 109.748C121.238 109.603 121.695 109.254 121.976 108.776L144.656 69.5971C152.111 74.3007 158.312 80.7453 162.725 88.3763C167.137 96.0073 169.629 104.596 169.987 113.404H165.606C165.316 106.595 163.637 99.9179 160.673 93.7819C157.708 87.6459 153.52 82.1809 148.366 77.7226C148.159 77.5416 147.919 77.4031 147.659 77.315C147.399 77.2268 147.125 77.1907 146.851 77.2088C146.297 77.2452 145.781 77.4999 145.416 77.9169C145.051 78.3338 144.866 78.8788 144.902 79.432C144.939 79.9853 145.193 80.5013 145.61 80.8668C150.313 84.9269 154.139 89.9029 156.854 95.4911C159.569 101.079 161.116 107.162 161.402 113.369H115.723C115.355 113.367 114.994 113.465 114.677 113.651C114.36 113.838 114.099 114.106 113.921 114.428C113.731 114.743 113.63 115.103 113.63 115.471C113.63 115.838 113.731 116.198 113.921 116.513L140.947 163.57C133.177 167.65 124.534 169.783 115.758 169.787ZM142.466 157.635C148.283 153.949 153.272 149.099 157.121 143.39C160.97 137.68 163.594 131.236 164.829 124.462C164.936 123.913 164.822 123.345 164.511 122.881C164.199 122.417 163.716 122.096 163.168 121.989C162.62 121.881 162.052 121.995 161.588 122.307C161.124 122.618 160.803 123.101 160.695 123.649C159.58 129.823 157.199 135.7 153.703 140.911C150.208 146.121 145.672 150.552 140.382 153.925L121.976 122.13V121.918L119.503 117.608H169.81C169.444 126.41 166.953 134.992 162.548 142.621C158.143 150.25 151.955 156.698 144.515 161.415L142.466 157.635Z" fill="#6369F4"/>
<path d="M156.068 122.695C155.57 122.447 154.995 122.405 154.467 122.576C153.938 122.748 153.498 123.121 153.242 123.614L152.994 124.109C152.866 124.349 152.787 124.613 152.762 124.884C152.738 125.156 152.767 125.43 152.849 125.69C152.932 125.949 153.065 126.19 153.241 126.398C153.418 126.606 153.634 126.776 153.877 126.899C154.168 127.064 154.497 127.149 154.831 127.147C155.217 127.146 155.595 127.041 155.925 126.842C156.254 126.642 156.524 126.357 156.704 126.016L156.951 125.522C157.08 125.278 157.159 125.012 157.184 124.738C157.21 124.464 157.181 124.187 157.098 123.924C157.016 123.662 156.883 123.418 156.706 123.207C156.529 122.996 156.312 122.822 156.068 122.695Z" fill="#6369F4"/>
<path d="M143.279 140.783C143.036 140.655 142.769 140.575 142.495 140.55C142.221 140.525 141.944 140.554 141.682 140.636C141.419 140.718 141.175 140.851 140.964 141.028C140.753 141.205 140.579 141.422 140.453 141.667L140.205 142.161C140.076 142.404 139.997 142.671 139.972 142.945C139.946 143.219 139.976 143.496 140.058 143.758C140.14 144.021 140.273 144.265 140.45 144.476C140.627 144.687 140.844 144.861 141.088 144.987C141.379 145.152 141.708 145.237 142.042 145.235C142.429 145.238 142.808 145.134 143.139 144.935C143.469 144.735 143.738 144.448 143.915 144.104L144.162 143.61C144.291 143.366 144.37 143.1 144.396 142.826C144.421 142.552 144.392 142.275 144.309 142.012C144.227 141.75 144.094 141.506 143.917 141.295C143.74 141.084 143.523 140.91 143.279 140.783Z" fill="#6369F4"/>
<path d="M131.691 121.176C131.194 120.928 130.619 120.885 130.09 121.057C129.561 121.228 129.121 121.601 128.865 122.094L128.618 122.589C128.489 122.832 128.409 123.098 128.384 123.373C128.359 123.647 128.388 123.923 128.47 124.186C128.552 124.449 128.686 124.693 128.863 124.904C129.039 125.115 129.256 125.288 129.501 125.415C129.8 125.552 130.125 125.624 130.455 125.627C130.842 125.635 131.223 125.533 131.554 125.332C131.886 125.132 132.154 124.843 132.327 124.496L132.574 124.002C132.703 123.759 132.783 123.492 132.808 123.218C132.833 122.944 132.804 122.667 132.722 122.405C132.64 122.142 132.506 121.898 132.329 121.687C132.153 121.476 131.936 121.302 131.691 121.176Z" fill="#6369F4"/>
<path d="M147.553 123.931C146.325 123.337 144.938 123.151 143.597 123.401C144.137 124.162 144.521 125.021 144.727 125.931C144.933 126.84 144.957 127.782 144.798 128.7C143.67 127.675 142.491 126.708 141.265 125.804C140.501 125.424 139.618 125.364 138.81 125.635C138.002 125.907 137.335 126.488 136.955 127.252C136.576 128.016 136.515 128.899 136.787 129.707C137.058 130.515 137.64 131.183 138.404 131.562C138.404 131.562 140.629 132.198 142.82 132.587C142.185 133.271 141.422 133.824 140.573 134.212C139.724 134.6 138.806 134.816 137.874 134.848C138.501 136.059 139.489 137.046 140.7 137.674C142.476 138.281 144.412 138.222 146.148 137.508C147.883 136.794 149.3 135.473 150.134 133.792C150.968 132.111 151.163 130.183 150.682 128.369C150.2 126.555 149.076 124.978 147.518 123.931H147.553Z" fill="#6369F4"/>
</svg>
