<?xml version="1.0" encoding="UTF-8" standalone="no"?>
<svg
   width="218"
   height="19"
   viewBox="0 0 218 19"
   fill="none"
   version="1.1"
   id="svg19"
   sodipodi:docname="scrollbar-m.svg"
   inkscape:version="1.1 (c68e22c387, 2021-05-23)"
   xmlns:inkscape="http://www.inkscape.org/namespaces/inkscape"
   xmlns:sodipodi="http://sodipodi.sourceforge.net/DTD/sodipodi-0.dtd"
   xmlns="http://www.w3.org/2000/svg"
   xmlns:svg="http://www.w3.org/2000/svg">
  <defs
     id="defs23">
    <clipPath
       clipPathUnits="userSpaceOnUse"
       id="clipPath165">
      <path
         id="path167"
         style="fill:#ff0000;fill-opacity:1;fill-rule:nonzero;stroke:none"
         d="m 36.412109,0 c -0.03272,0.23116452 -0.06737,0.46010148 -0.109375,0.69335938 0.393832,0.11849108 0.807664,0.28757801 1.240235,0.51953122 0.01769,0.00229 0.0351,0.00418 0.05273,0.00781 0.867819,-0.4790883 1.098613,0.6222006 0.689453,0.40625 -0.0262,-0.013827 -0.05216,-0.028704 -0.07813,-0.042969 0.2902,0.2545402 0.686698,0.6766807 1.216797,1.234375 0.01638,-0.1449823 0.03996,-0.2903139 0.07227,-0.4335938 0.08808,-0.3906886 0.695336,0.6973333 0.542968,1.0761719 0.02675,0.027499 0.0429,0.044193 0.07031,0.072266 0.188999,0.1935595 0.07165,1.2087769 0.03516,1.5585938 0.0065,-0.023449 0.01297,-0.046895 0.01953,-0.070312 0.0021,-0.012408 0.0024,-0.016983 0.0039,-0.025391 h 0.002 c -0.0024,0.00835 -0.0035,0.017034 -0.0059,0.025391 -0.01154,0.06831 -0.03193,0.1854967 -0.02734,0.1386718 0.0014,-0.014216 0.0059,-0.050259 0.0078,-0.068359 -0.120072,0.4361848 -0.224635,0.8780129 -0.36914,1.3066406 -0.0545,0.1616498 -0.155622,0.3047084 -0.232422,0.4570313 -0.04738,0.093962 0.0949,-0.1893932 0.142578,-0.2832032 0.03386,-0.2130356 0.203971,-0.8285221 0.101562,-0.6386718 -0.360872,0.6690016 -0.592177,1.3996925 -0.888671,2.0996093 -0.178813,0.1639319 -0.365114,0.3211173 -0.53711,0.4921875 -0.01234,0.012272 0.04113,-0.02273 0.05273,-0.00977 0.0064,0.00714 -0.09747,0.1730286 -0.154296,0.2128906 -0.141819,0.099479 -0.285266,0.1963762 -0.427735,0.2949219 -0.06489,0.1546748 -0.1297,0.3101937 -0.203125,0.4609375 -0.191591,0.3933487 -0.404849,0.561931 -0.222656,0.4101562 0.205156,-0.369544 -0.346569,0.8015128 -0.355469,0.8203128 -0.122929,0.261038 -0.254436,0.49694 -0.390625,0.71875 -0.136475,0.334384 -0.252585,0.677077 -0.412109,1 0.114585,0.370213 0.09272,0.874187 0.119141,1.242187 0.06685,0.93124 -0.420647,1.660632 -0.869141,2.390625 -0.01471,0.01975 -0.267583,0.358335 -0.271485,0.365235 -0.05853,0.103934 -0.09227,0.186045 -0.136718,0.279297 -0.182423,0.429735 -0.345606,0.86813 -0.511719,1.304687 H 217.24023 V 0 Z m 1.794922,1.5839844 c -0.23586,-0.2068777 -0.4235,-0.3246216 -0.611328,-0.3632813 -0.0064,0.00353 -0.01307,0.00606 -0.01953,0.00977 0.05294,0.028712 0.104747,0.053438 0.158203,0.083984 0.157385,0.089935 0.313794,0.1822443 0.472656,0.2695313 z m 1.248047,2.9648437 c -0.480787,0.783386 -1.065319,1.507049 -1.728516,2.1367188 0.112604,0.01522 0.225232,0.030282 0.337891,0.044922 0.499804,-0.2465213 0.962718,-0.7383709 1.460938,-0.9941407 -0.0035,-0.393627 -0.03694,-0.7906757 -0.07031,-1.1875 z m -0.80664,2.3183594 c -0.02525,-0.00574 -0.06238,0.014932 -0.113282,0.068359 -0.117207,0.1230298 -0.221862,0.2356797 -0.328125,0.3496093 -0.139775,0.6112265 -0.336786,1.2052641 -0.5625,1.7890626 0.0827,-0.1040765 0.17655,-0.2216616 0.320313,-0.390625 0.01178,-0.013855 0.0364,-0.063642 0.0293,-0.046875 -0.03778,0.089747 -0.07597,0.1795413 -0.113282,0.2695312 0.0859,-0.07541 0.167786,-0.1563153 0.236329,-0.25 0.304996,-0.4168807 0.708023,-1.7488702 0.53125,-1.7890625 z" />
    </clipPath>
  </defs>
  <sodipodi:namedview
     id="namedview21"
     pagecolor="#ffffff"
     bordercolor="#666666"
     borderopacity="1.0"
     inkscape:pageshadow="2"
     inkscape:pageopacity="0.0"
     inkscape:pagecheckerboard="0"
     showgrid="false"
     inkscape:zoom="6.3715596"
     inkscape:cx="109"
     inkscape:cy="9.1814255"
     inkscape:window-width="2400"
     inkscape:window-height="1271"
     inkscape:window-x="2391"
     inkscape:window-y="-9"
     inkscape:window-maximized="1"
     inkscape:current-layer="svg19" />
  <path
     fill-rule="evenodd"
     clip-rule="evenodd"
     d="m 20.27,0.0761042 c 2.0823,-0.2887722 4.1945,0.2536598 5.88,1.5099958 0,-0.22666 0.02,-0.45666 0.06,-0.689996 0.06,-0.780001 0.39,-0.760001 0.82,-0.8200001 1.2256,-0.1701756 2.4739,-0.0537453 3.6469,0.3401391 1.173,0.393885 2.2386,1.054477 3.1131,1.929857 1.4446,1.409 2.2869,3.32303 2.35,5.34 0.009,0.44445 -0.0144,0.88896 -0.07,1.33 0.0416,0.35858 0.065,0.71905 0.07,1.08 0.0026,1.0506 -0.2038,2.0911 -0.6073,3.0611 -0.4034,0.97 -0.9958,1.8501 -1.7427,2.5889 -1.79,1.78 -4.25,2.06 -6.79,2.27 -0.2049,-0.0345 -0.394,-0.132 -0.541,-0.279 -0.147,-0.147 -0.2445,-0.3361 -0.279,-0.541 0,-0.2333 -0.02,-0.4633 -0.06,-0.69 -1.64,1.24 -3.73,1.35 -5.85,1.51 -0.21,-0.06 -0.76,-0.39 -0.82,-0.82 0,-0.22 0,-0.46 -0.06,-0.69 -1.67,1.24 -3.75,1.35 -5.87,1.51 -0.2049,-0.0345 -0.394,-0.132 -0.541,-0.279 -0.147,-0.147 -0.2445,-0.3361 -0.279,-0.541 -0.0486,-0.3646 -0.072,-0.7322 -0.07,-1.1 -0.0023,-1.1682 0.2538,-2.3224 0.75,-3.38 -0.3905,0.0602 -0.7849,0.0902 -1.18,0.09 C 11.0104,12.8464 9.8309,12.575 8.77846,12.019 7.72602,11.4629 6.83717,10.6415 6.2,9.6361 5.57,9.2961 5.57,8.8161 6.2,8.4761 6.83595,7.46885 7.72427,6.64544 8.77679,6.0876 9.82932,5.52977 11.0094,5.2569 12.2,5.2961 c 0.3953,0.00308 0.7898,0.03651 1.18,0.1 -0.5142,-1.1188 -0.7705,-2.33884 -0.75,-3.57 0.0045,-0.30781 0.0279,-0.61505 0.07,-0.919996 0.06,-0.78 0.39,-0.76 0.82,-0.8199992 C 15.5994,-0.20657 17.71,0.336368 19.39,1.5961 l 0.06,-0.689996 c 0.06,-0.799999 0.61,-0.77 0.82,-0.8299998 z M 30.36,9.0161 c -0.3419,-0.13087 -0.6545,-0.32798 -0.92,-0.58 -0.0618,0.18873 -0.1053,0.38295 -0.13,0.58 0.0153,0.22787 0.059,0.45293 0.13,0.67 0.287,-0.24917 0.5948,-0.47332 0.92,-0.67 z m -7.75,-0.58 c -0.0045,0.19419 -0.0212,0.3879 -0.05,0.58 0,0.25 0,0.46 0.05,0.67 0.32,-0.23 0.65,-0.44 1,-0.67 -0.3576,-0.15647 -0.6937,-0.35811 -1,-0.6 z m 9.83,6 c 0.5681,-0.5621 1.0182,-1.232 1.3239,-1.9704 0.3057,-0.7384 0.4607,-1.5304 0.4561,-2.3296 v -0.52 c -1.6357,0.32779 -3.1524,1.0914 -4.39,2.21 -0.5791,0.5726 -1.0356,1.2572 -1.3416,2.0119 -0.306,0.7547 -0.4552,1.5639 -0.4384,2.3781 1.64,-0.02 3.21,-1.05 4.39,-1.83 z m -6.75,0 c 0.5653,-0.5663 1.0134,-1.2384 1.3189,-1.9779 0.3054,-0.7395 0.4621,-1.532 0.4611,-2.3321 v -0.51 c -1.6372,0.32349 -3.155,1.0876 -4.39,2.21 -0.5689,0.5698 -1.0191,1.2468 -1.3246,1.9917 -0.3056,0.745 -0.4603,1.5431 -0.4554,2.3483 1.6111,-0.1297 3.1435,-0.751 4.39,-1.78 z m -11.15,1.73 c 1.6116,-0.1277 3.1445,-0.7493 4.39,-1.78 0.6177,-0.634 1.0953,-1.3906 1.4019,-2.2209 0.3067,-0.8304 0.4355,-1.7158 0.3781,-2.5991 -1.6112,0.30472 -3.0986,1.0727 -4.28,2.21 -0.6135,0.5517 -1.1002,1.2299 -1.4264,1.9877 -0.3263,0.7579 -0.4845,1.5775 -0.4636,2.4023 z m -6.7,-7.15 c 0.56821,0.58207 1.2471,1.0446 1.99673,1.3604 0.74967,0.3158 1.55487,0.4785 2.36827,0.4785 0.8134,0 1.6186,-0.1627 2.3683,-0.4785 C 15.3229,10.0607 16.0018,9.59817 16.57,9.0161 16.0028,8.43051 15.3237,7.96497 14.5729,7.64715 13.8222,7.32934 13.0152,7.16575 12.2,7.1661 11.3858,7.16249 10.5793,7.32464 9.82973,7.64269 9.08017,7.96074 8.40318,8.42803 7.84,9.0161 Z m 6.7,-7.22999 c -0.0261,0.84026 0.1292,1.67627 0.4554,2.45109 0.3261,0.77482 0.8155,1.47024 1.4346,2.0389 0.547,0.58247 1.2113,1.0423 1.9491,1.34913 0.7377,0.30684 1.5322,0.45369 2.3309,0.43087 v -0.38 C 20.6516,6.16383 20.0144,4.7318 18.93,3.6761 18.3543,3.1012 17.6692,2.64749 16.9152,2.34176 16.1612,2.03604 15.3535,1.88451 14.54,1.8961 Z m 8.54,4.48999 c 0.5726,0.57911 1.2572,1.03557 2.0119,1.34159 C 25.8466,7.92371 26.6558,8.07288 27.47,8.0561 27.5267,7.23625 27.3949,6.41429 27.0846,5.6533 26.7743,4.89232 26.2938,4.21253 25.68,3.6661 25.104,3.09644 24.4196,2.64807 23.6672,2.34748 22.9149,2.0469 22.11,1.90022 21.3,1.9161 c -0.011,0.81347 0.1408,1.62093 0.4464,2.37485 0.3057,0.75392 0.7592,1.43908 1.3336,2.01515 z m 6.75,0 c 0.5747,0.57629 1.2596,1.03091 2.0139,1.33673 0.7542,0.30582 1.5623,0.45658 2.3761,0.44327 v -0.39 C 34.1616,6.15382 33.5244,4.7218 32.44,3.6661 31.8639,3.09166 31.1788,2.63824 30.4248,2.33255 29.6709,2.02686 28.8635,1.87507 28.05,1.88611 c -0.0257,0.81985 0.1192,1.63611 0.4257,2.39699 0.3064,0.76088 0.7676,1.44978 1.3543,2.023 z M 11,1.01611 c 0,0.53 -0.43,0.66 -1,0.66 H 7.78 c -0.53,0 -0.55,-0.13 -0.55,-0.66 0,-0.530005 0,-1.0000047 0.55,-1.0000047 l 2.22,-10e-8 C 10.1352,2.43525e-5 10.2723,0.0148254 10.4009,0.0593944 10.5296,0.103963 10.6464,0.177139 10.7427,0.27341 10.839,0.369682 10.9121,0.486539 10.9567,0.615184 11.0013,0.743829 11.0161,0.88091 11,1.01611 Z M 3.91,9.0161 c 0,0.53 -0.43,0.53 -1,0.53 H 0.699999 c -0.53,0 -0.699999370236,0 -0.699999393403,-0.53 C -4.27061e-7,8.24611 0.169999,8.0161 0.699999,8.0161 H 3 c 0.48,0.07 0.91,0.26 0.91,1 z m 7.09,7.91 c 0.0125,0.1387 -0.004,0.2785 -0.0486,0.4104 -0.0447,0.1319 -0.1163,0.253 -0.2105,0.3556 -0.0941,0.1027 -0.2086,0.1845 -0.3362,0.2403 C 10.2771,17.9881 10.1393,18.0167 10,18.0161 H 7.78 c -0.53,0 -0.55,-0.43 -0.55,-1.09 0,-0.66 0,-0.82 0.55,-0.82 H 10 c 0.56,0 1,0.05 1,0.82 z m 194.44,-7.07 H 39.29 C 39.1811,9.85618 39.0732,9.83427 38.9729,9.79171 38.8727,9.74914 38.782,9.68677 38.7064,9.60835 38.6307,9.52993 38.5717,9.43706 38.5328,9.3353 38.4939,9.23354 38.476,9.12497 38.48,9.0161 38.48,8.80035 38.565,8.59328 38.7166,8.43978 38.8682,8.28629 39.0743,8.19873 39.29,8.1961 h 166.15 c 0.108,0 0.214,0.02121 0.314,0.06241 0.099,0.04121 0.19,0.10161 0.266,0.17776 0.076,0.07614 0.136,0.16654 0.178,0.26602 0.041,0.09949 0.062,0.20612 0.062,0.31381 0.003,0.10935 -0.017,0.21814 -0.057,0.31994 -0.04,0.10181 -0.1,0.19458 -0.176,0.27286 -0.076,0.07827 -0.168,0.14047 -0.269,0.18292 -0.1,0.04245 -0.209,0.06431 -0.318,0.06428 z m 0.91,4.09 c -0.076,-0.0753 -0.136,-0.1649 -0.177,-0.2636 -0.041,-0.0987 -0.063,-0.2045 -0.063,-0.3114 0,-0.1069 0.022,-0.2128 0.063,-0.3115 0.041,-0.0986 0.101,-0.1882 0.177,-0.2635 l 3.75,-3.78 -3.75,-3.75 c -0.132,-0.15661 -0.201,-0.35692 -0.192,-0.56154 0.008,-0.20461 0.093,-0.39873 0.237,-0.54416 0.144,-0.14543 0.337,-0.23165 0.542,-0.2417 0.204,-0.01005 0.405,0.0568 0.563,0.1874 l 4.33,4.33 c 0.076,0.07529 0.136,0.16487 0.177,0.26355 0.041,0.09869 0.062,0.20454 0.062,0.31145 0,0.1069 -0.021,0.21275 -0.062,0.31144 -0.041,0.09868 -0.101,0.18826 -0.177,0.26356 l -4.33,4.36 c -0.075,0.0759 -0.165,0.1361 -0.264,0.1772 -0.098,0.0411 -0.204,0.0623 -0.311,0.0623 -0.107,0 -0.213,-0.0212 -0.311,-0.0623 -0.099,-0.0411 -0.189,-0.1013 -0.264,-0.1772 z m 5.14,0 c -0.076,-0.0753 -0.136,-0.1649 -0.177,-0.2636 -0.041,-0.0987 -0.063,-0.2045 -0.063,-0.3114 0,-0.1069 0.022,-0.2128 0.063,-0.3115 0.041,-0.0986 0.101,-0.1882 0.177,-0.2635 l 4,-3.75 -4,-3.75 c -0.088,-0.07262 -0.159,-0.1627 -0.21,-0.26452 -0.051,-0.10182 -0.081,-0.21313 -0.086,-0.32686 -0.006,-0.11373 0.012,-0.22737 0.053,-0.3337 0.041,-0.10632 0.103,-0.20299 0.184,-0.28385 0.08,-0.08086 0.176,-0.14415 0.282,-0.18581 0.106,-0.04167 0.219,-0.06081 0.333,-0.05621 0.114,0.0046 0.225,0.03285 0.328,0.08294 0.102,0.05009 0.193,0.12093 0.266,0.20801 l 4.36,4.33 c 0.076,0.07617 0.137,0.1666 0.178,0.26612 0.041,0.09952 0.062,0.20617 0.062,0.31387 0,0.10619 -0.021,0.21127 -0.063,0.30914 -0.041,0.09786 -0.101,0.18654 -0.177,0.26087 l -4.33,4.33 c -0.076,0.0805 -0.167,0.1447 -0.269,0.1885 -0.101,0.0439 -0.21,0.0665 -0.321,0.0665 -0.111,0 -0.22,-0.0226 -0.321,-0.0665 -0.102,-0.0438 -0.193,-0.108 -0.269,-0.1885 z"
     fill="#c6c8f6"
     id="path17"
     clip-path="url(#clipPath165)"
     transform="matrix(1.0721004,0,0,1,-15.663101,0)" />
</svg>
