<svg width="258" height="19" viewBox="0 0 258 19" fill="none" xmlns="http://www.w3.org/2000/svg">
<path fill-rule="evenodd" clip-rule="evenodd" d="M20.27 0.0759833C22.3523 -0.212789 24.4645 0.329644 26.15 1.58598C26.15 1.35932 26.17 1.12932 26.21 0.895983C26.27 0.115982 26.6 0.135983 27.03 0.0759834C28.2556 -0.0941922 29.5039 0.0222381 30.6769 0.416123C31.8499 0.810007 32.9155 1.4706 33.79 2.34598C35.2346 3.75498 36.0769 5.66901 36.14 7.68598C36.149 8.13043 36.1256 8.57494 36.07 9.01598C36.1116 9.37456 36.135 9.73503 36.14 10.096C36.1426 11.1465 35.9362 12.1871 35.5327 13.1571C35.1293 14.1271 34.5369 15.0071 33.79 15.746C32 17.526 29.54 17.806 27 18.016C26.7951 17.9815 26.606 17.8839 26.459 17.737C26.312 17.59 26.2145 17.4009 26.18 17.196C26.18 16.9627 26.16 16.7326 26.12 16.506C24.48 17.746 22.39 17.856 20.27 18.016C20.06 17.956 19.51 17.626 19.45 17.196C19.45 16.976 19.45 16.736 19.39 16.506C17.72 17.746 15.64 17.856 13.52 18.016C13.3151 17.9815 13.126 17.8839 12.979 17.737C12.832 17.59 12.7345 17.4009 12.7 17.196C12.6514 16.8314 12.628 16.4638 12.63 16.096C12.6277 14.9278 12.8838 13.7735 13.38 12.716C12.9895 12.7761 12.5951 12.8062 12.2 12.806C11.0104 12.8462 9.8309 12.5749 8.77846 12.0189C7.72602 11.4628 6.83717 10.6414 6.2 9.63598C5.57 9.29598 5.57 8.81598 6.2 8.47598C6.83595 7.46873 7.72427 6.64532 8.77679 6.08748C9.82932 5.52964 11.0094 5.25678 12.2 5.29598C12.5953 5.29905 12.9898 5.33249 13.38 5.39598C12.8658 4.27718 12.6095 3.05714 12.63 1.82598C12.6345 1.51817 12.6579 1.21093 12.7 0.905983C12.76 0.125982 13.09 0.145983 13.52 0.0859834C15.5994 -0.206692 17.71 0.336247 19.39 1.59598L19.45 0.905983C19.51 0.105984 20.06 0.135983 20.27 0.0759833ZM30.36 9.01598C30.0181 8.88511 29.7055 8.688 29.44 8.43598C29.3782 8.62471 29.3347 8.81893 29.31 9.01598C29.3253 9.24385 29.369 9.46891 29.44 9.68598C29.727 9.43681 30.0348 9.21266 30.36 9.01598ZM22.61 8.43598C22.6055 8.63017 22.5888 8.82388 22.56 9.01598C22.56 9.26598 22.56 9.47598 22.61 9.68598C22.93 9.45598 23.26 9.24598 23.61 9.01598C23.2524 8.85951 22.9163 8.65787 22.61 8.41598L22.61 8.43598ZM32.44 14.436C33.0081 13.8739 33.4582 13.204 33.7639 12.4656C34.0696 11.7272 34.2246 10.9351 34.22 10.136L34.22 9.61598C32.5843 9.94377 31.0676 10.7073 29.83 11.826C29.2509 12.3986 28.7944 13.0831 28.4884 13.8379C28.1824 14.5926 28.0332 15.4017 28.05 16.216C29.69 16.196 31.26 15.166 32.44 14.386L32.44 14.436ZM25.69 14.436C26.2553 13.8697 26.7034 13.1976 27.0089 12.4581C27.3143 11.7186 27.471 10.9261 27.47 10.126L27.47 9.61598C25.8328 9.93946 24.315 10.7036 23.08 11.826C22.5111 12.3958 22.0609 13.0728 21.7554 13.8177C21.4498 14.5627 21.2951 15.3608 21.3 16.166C22.9111 16.0363 24.4435 15.415 25.69 14.386L25.69 14.436ZM14.54 16.166C16.1516 16.0382 17.6845 15.4167 18.93 14.386C19.5477 13.752 20.0253 12.9954 20.3319 12.165C20.6386 11.3347 20.7674 10.4493 20.71 9.56598C19.0988 9.8707 17.6114 10.6387 16.43 11.776C15.8165 12.3277 15.3298 13.0059 15.0036 13.7637C14.6773 14.5216 14.5191 15.3411 14.54 16.166ZM7.84 9.01598C8.40821 9.59805 9.0871 10.0606 9.83673 10.3764C10.5864 10.6922 11.3916 10.8549 12.205 10.8549C13.0184 10.8549 13.8236 10.6922 14.5733 10.3764C15.3229 10.0606 16.0018 9.59805 16.57 9.01598C16.0028 8.43039 15.3237 7.96485 14.5729 7.64703C13.8222 7.32922 13.0152 7.16562 12.2 7.16598C11.3858 7.16237 10.5793 7.32452 9.82973 7.64257C9.08017 7.96062 8.40318 8.42791 7.84 9.01598ZM14.54 1.78598C14.5139 2.62625 14.6692 3.46226 14.9954 4.23708C15.3215 5.0119 15.8109 5.70732 16.43 6.27598C16.977 6.85845 17.6413 7.31828 18.3791 7.62511C19.1168 7.93194 19.9113 8.0788 20.71 8.05598L20.71 7.67598C20.6516 6.1637 20.0144 4.73168 18.93 3.67598C18.3543 3.10108 17.6692 2.64737 16.9152 2.34164C16.1612 2.03592 15.3535 1.88438 14.54 1.89598L14.54 1.78598ZM23.08 6.27598C23.6526 6.85509 24.3372 7.31155 25.0919 7.61757C25.8466 7.92359 26.6558 8.07276 27.47 8.05598C27.5267 7.23613 27.3949 6.41417 27.0846 5.65318C26.7743 4.8922 26.2938 4.21241 25.68 3.66598C25.104 3.09632 24.4196 2.64795 23.6672 2.34736C22.9149 2.04678 22.11 1.9001 21.3 1.91598C21.289 2.72945 21.4408 3.5369 21.7465 4.29083C22.0521 5.04475 22.5056 5.72991 23.08 6.30598L23.08 6.27598ZM29.83 6.27598C30.4047 6.85227 31.0896 7.30689 31.8439 7.61271C32.5981 7.91853 33.4062 8.06929 34.22 8.05598L34.22 7.66598C34.1616 6.1537 33.5244 4.72168 32.44 3.66598C31.8639 3.09154 31.1788 2.63812 30.4248 2.33243C29.6709 2.02674 28.8635 1.87495 28.05 1.88598C28.0243 2.70584 28.1692 3.5221 28.4757 4.28298C28.7821 5.04386 29.2433 5.73276 29.83 6.30598L29.83 6.27598ZM11 1.01598C11 1.54598 10.57 1.67598 10 1.67598L7.78 1.67598C7.25 1.67598 7.23 1.54598 7.23 1.01598C7.23 0.485983 7.23 0.0159837 7.78 0.0159837L10 0.0159837C10.1352 -9.71539e-05 10.2723 0.0147039 10.4009 0.0592729C10.5296 0.103842 10.6464 0.177017 10.7427 0.273289C10.839 0.36956 10.9121 0.486418 10.9567 0.615063C11.0013 0.743708 11.0161 0.880789 11 1.01598ZM3.91 9.01598C3.91 9.54598 3.48 9.54598 2.91 9.54598L0.7 9.54598C0.17 9.54598 1.01004e-07 9.54598 1.07324e-07 9.01598C1.16506e-07 8.24598 0.17 8.01598 0.7 8.01598L3 8.01598C3.48 8.08598 3.91 8.27598 3.91 9.01598ZM11 16.926C11.0125 17.0647 10.996 17.2044 10.9514 17.3364C10.9067 17.4683 10.8351 17.5894 10.7409 17.692C10.6468 17.7946 10.5323 17.8765 10.4047 17.9322C10.2771 17.988 10.1393 18.0165 10 18.016L7.78 18.016C7.25 18.016 7.23 17.586 7.23 16.926C7.23 16.266 7.23 16.106 7.78 16.106L10 16.106C10.56 16.106 11 16.156 11 16.926ZM245.44 9.85599L39.29 9.85598C39.1811 9.85606 39.0732 9.83415 38.9729 9.79159C38.8727 9.74902 38.782 9.68665 38.7064 9.60823C38.6307 9.52981 38.5717 9.43694 38.5328 9.33518C38.4939 9.23342 38.476 9.12485 38.48 9.01598C38.48 8.80023 38.565 8.59316 38.7166 8.43966C38.8682 8.28617 39.0743 8.19861 39.29 8.19598L245.44 8.19599C245.548 8.19599 245.654 8.2172 245.754 8.2584C245.853 8.29961 245.944 8.36001 246.02 8.43616C246.096 8.5123 246.156 8.6027 246.198 8.70218C246.239 8.80167 246.26 8.9083 246.26 9.01599C246.263 9.12534 246.243 9.23413 246.203 9.33593C246.163 9.43774 246.103 9.53051 246.027 9.60879C245.951 9.68706 245.859 9.74926 245.758 9.79171C245.658 9.83416 245.549 9.85602 245.44 9.85599ZM246.35 13.946C246.274 13.8707 246.214 13.7811 246.173 13.6824C246.132 13.5837 246.111 13.4779 246.111 13.371C246.111 13.2641 246.132 13.1582 246.173 13.0595C246.214 12.9609 246.274 12.8713 246.35 12.796L250.1 9.01599L246.35 5.26599C246.218 5.10938 246.149 4.90907 246.158 4.70445C246.166 4.49984 246.251 4.30572 246.395 4.16029C246.539 4.01486 246.732 3.92864 246.937 3.91859C247.141 3.90854 247.342 3.97539 247.5 4.10599L251.83 8.43599C251.906 8.51128 251.966 8.60086 252.007 8.69954C252.048 8.79823 252.069 8.90408 252.069 9.01099C252.069 9.11789 252.048 9.22374 252.007 9.32243C251.966 9.42111 251.906 9.51069 251.83 9.58599L247.5 13.946C247.425 14.0219 247.335 14.0821 247.236 14.1232C247.138 14.1643 247.032 14.1855 246.925 14.1855C246.818 14.1855 246.712 14.1643 246.614 14.1232C246.515 14.0821 246.425 14.0219 246.35 13.946ZM251.49 13.946C251.414 13.8707 251.354 13.7811 251.313 13.6824C251.272 13.5837 251.251 13.4779 251.251 13.371C251.251 13.2641 251.272 13.1582 251.313 13.0595C251.354 12.9609 251.414 12.8713 251.49 12.796L255.49 9.04599L251.49 5.29599C251.402 5.22337 251.331 5.13329 251.28 5.03147C251.229 4.92965 251.2 4.81834 251.194 4.70461C251.188 4.59088 251.206 4.47724 251.247 4.37091C251.288 4.26459 251.35 4.16792 251.431 4.08706C251.511 4.0062 251.607 3.94292 251.713 3.90125C251.819 3.85958 251.932 3.84044 252.046 3.84504C252.16 3.84964 252.271 3.87789 252.374 3.92798C252.476 3.97807 252.567 4.04891 252.64 4.13599L257 8.46599C257.076 8.54216 257.137 8.63259 257.178 8.73211C257.219 8.83163 257.24 8.93828 257.24 9.04599C257.24 9.15217 257.219 9.25725 257.177 9.35512C257.136 9.45298 257.076 9.54166 257 9.61599L252.67 13.946C252.594 14.0265 252.503 14.0907 252.401 14.1345C252.3 14.1784 252.191 14.201 252.08 14.201C251.969 14.201 251.86 14.1784 251.759 14.1345C251.657 14.0907 251.566 14.0265 251.49 13.946Z" fill="#C6C8F7"/>
</svg>
