<?xml version="1.0" standalone="no"?>
<!DOCTYPE svg PUBLIC "-//W3C//DTD SVG 20010904//EN"
 "http://www.w3.org/TR/2001/REC-SVG-20010904/DTD/svg10.dtd">
<svg version="1.0" xmlns="http://www.w3.org/2000/svg"
 width="656.000000pt" height="656.000000pt" viewBox="0 0 656.000000 656.000000"
 preserveAspectRatio="xMidYMid meet">
<metadata>
Created by potrace 1.14, written by Peter Selinger 2001-2017
</metadata>
<g transform="translate(0.000000,656.000000) scale(0.100000,-0.100000)"
fill="#000000" stroke="none">
<path d="M2938 6395 c-1 -2 -43 -6 -93 -10 -49 -3 -101 -8 -115 -10 -14 -2
-50 -7 -80 -10 -53 -7 -249 -39 -300 -50 -14 -2 -35 -7 -48 -9 -13 -3 -31 -7
-40 -10 -9 -3 -28 -7 -42 -10 -51 -10 -188 -49 -295 -84 -60 -20 -112 -36
-115 -37 -5 -2 -52 -20 -80 -32 -8 -3 -21 -7 -29 -9 -8 -1 -28 -9 -45 -18
-267 -128 -378 -185 -463 -239 -282 -179 -493 -370 -671 -604 -34 -45 -62 -84
-62 -87 0 -3 -13 -24 -29 -48 -55 -83 -128 -236 -165 -348 -37 -112 -46 -149
-53 -217 -18 -189 111 -369 301 -422 89 -25 161 -19 306 27 165 53 353 106
392 112 4 1 38 10 75 21 38 11 79 21 93 24 14 2 68 14 120 25 123 26 412 80
458 85 21 2 82 10 137 19 55 8 127 17 159 21 33 3 73 8 90 10 53 8 149 16 351
30 330 24 953 24 1200 0 22 -2 74 -6 115 -9 41 -3 91 -8 110 -10 19 -3 60 -7
90 -10 30 -4 66 -8 80 -10 14 -2 50 -7 80 -11 55 -6 90 -10 145 -19 17 -3 48
-7 70 -11 22 -3 51 -8 65 -11 13 -3 40 -7 59 -10 19 -2 63 -11 98 -19 34 -8
78 -17 96 -20 112 -20 558 -143 632 -174 100 -43 154 -56 240 -56 132 0 206
31 297 128 94 98 128 220 103 367 -14 80 -117 350 -137 358 -4 2 -8 9 -8 15 0
26 -163 277 -195 299 -5 4 -7 8 -4 8 14 0 -170 194 -261 275 -129 114 -311
244 -475 337 -74 42 -309 158 -320 158 -3 0 -24 9 -48 19 -199 89 -560 191
-816 231 -36 6 -79 13 -96 16 -60 10 -81 13 -155 19 -41 4 -86 9 -100 12 -30
5 -617 13 -622 8z m572 -478 c134 -14 181 -20 330 -42 23 -4 146 -28 196 -39
144 -31 387 -108 543 -173 149 -61 439 -217 471 -253 3 -3 19 -14 35 -24 136
-86 343 -293 463 -464 29 -42 132 -242 132 -258 0 -8 -12 -7 -42 3 -24 8 -63
21 -88 28 -25 7 -70 20 -100 29 -30 9 -63 19 -72 21 -10 3 -26 7 -35 10 -55
15 -303 75 -328 79 -16 3 -41 8 -55 11 -38 9 -171 34 -210 40 -19 3 -62 10
-95 16 -33 6 -73 12 -90 14 -16 2 -48 7 -70 10 -22 3 -56 8 -75 10 -106 13
-138 17 -165 20 -16 2 -59 6 -95 10 -67 6 -92 8 -245 20 -191 14 -271 16 -600
17 -303 1 -563 -5 -680 -17 -22 -2 -78 -7 -125 -10 -118 -10 -197 -18 -290
-30 -19 -2 -59 -7 -89 -10 -30 -4 -61 -8 -70 -10 -9 -1 -41 -6 -71 -10 -30 -4
-64 -9 -75 -11 -11 -2 -40 -7 -65 -10 -25 -3 -90 -15 -145 -26 -55 -10 -111
-21 -125 -23 -14 -2 -79 -16 -145 -30 -155 -34 -135 -29 -255 -59 -58 -15
-114 -28 -125 -31 -11 -2 -76 -20 -145 -40 -69 -20 -132 -38 -140 -40 -8 -2
-15 -4 -15 -5 0 -1 -8 -3 -17 -5 -27 -5 -22 17 23 112 44 93 111 201 168 273
52 66 225 240 279 280 26 19 49 37 52 41 3 3 28 20 55 39 28 19 52 36 55 39 3
4 44 30 92 59 112 68 298 160 413 204 50 19 99 39 110 43 11 5 22 9 25 10 3 0
44 13 92 28 81 25 287 79 351 92 62 12 74 14 107 19 19 3 44 7 55 10 11 2 47
7 80 11 33 4 74 9 90 11 17 2 65 6 109 8 43 3 80 7 82 9 5 5 475 -1 534 -6z"/>
<path d="M2933 4155 c-64 -22 -106 -81 -129 -180 -2 -5 -25 -76 -53 -158 -27
-81 -50 -150 -51 -152 -1 -5 -3 -13 -21 -70 -7 -22 -14 -42 -14 -45 -1 -3 -15
-51 -33 -107 -18 -57 -33 -105 -33 -108 0 -3 -7 -26 -15 -52 -8 -27 -17 -55
-19 -63 -2 -8 -8 -28 -14 -45 -11 -37 -61 -204 -67 -225 -4 -17 -16 -61 -39
-145 -10 -33 -19 -67 -20 -75 -2 -8 -14 -49 -25 -90 -12 -41 -23 -82 -25 -90
-2 -8 -29 -112 -60 -230 -72 -278 -75 -293 -61 -319 25 -45 50 -53 144 -46
150 11 174 13 317 20 199 10 212 19 250 176 15 57 30 121 36 142 l10 37 299 0
c329 0 311 3 324 -61 7 -38 46 -181 57 -210 19 -49 65 -72 149 -76 194 -9 393
-21 441 -27 42 -6 89 22 97 58 9 42 10 35 -48 256 -29 107 -56 211 -60 230 -5
19 -13 52 -19 73 -14 47 -30 108 -35 127 -2 8 -16 56 -30 105 -15 50 -29 101
-32 115 -9 37 -10 44 -17 60 -3 8 -15 49 -27 90 -12 41 -25 86 -30 100 -5 14
-18 59 -30 100 -12 41 -25 82 -28 90 -3 8 -6 20 -7 25 -12 50 -206 636 -226
685 -12 28 -33 55 -56 70 l-37 25 -367 0 c-231 1 -377 -3 -396 -10z m422 -762
c21 -65 43 -136 50 -158 14 -45 29 -96 54 -185 6 -25 16 -56 21 -70 6 -14 11
-34 13 -45 1 -11 6 -26 11 -33 4 -7 5 -16 2 -19 -7 -7 -385 -8 -392 -1 -2 3 2
24 10 47 9 23 15 42 15 44 0 1 2 9 5 17 3 8 19 62 36 120 17 58 34 112 37 120
4 8 7 17 8 20 2 11 27 86 32 100 3 8 7 20 9 27 3 18 36 117 41 126 2 4 6 7 8
7 2 0 20 -53 40 -117z"/>
<path d="M5298 4025 c-2 -2 -24 -6 -48 -9 -65 -8 -96 -15 -127 -27 -16 -6 -30
-10 -33 -10 -3 0 -25 -9 -49 -20 -24 -10 -45 -19 -47 -19 -17 0 -119 -79 -158
-121 -90 -99 -138 -237 -139 -399 0 -192 78 -365 220 -486 75 -63 240 -174
260 -174 7 0 13 -4 13 -10 0 -5 5 -10 11 -10 20 0 270 -130 340 -176 81 -54
89 -63 96 -112 4 -31 1 -43 -18 -64 -86 -90 -467 -34 -737 109 -123 64 -144
51 -251 -157 -46 -89 -85 -175 -88 -191 -9 -61 37 -101 211 -183 96 -46 266
-104 376 -129 118 -27 165 -37 200 -41 19 -3 56 -9 82 -14 70 -14 312 -12 396
3 193 35 364 150 456 306 29 49 57 114 55 129 0 3 4 17 10 33 25 64 39 220 27
282 -9 46 -51 153 -73 188 -22 35 -133 151 -179 187 -47 37 -315 200 -328 200
-4 0 -94 52 -151 87 -11 7 -28 16 -37 19 -10 3 -18 10 -18 14 0 5 -8 11 -18
14 -27 9 -76 57 -88 86 -12 26 -11 54 0 82 38 88 388 39 664 -94 57 -27 111
-51 121 -53 36 -7 95 31 131 83 19 29 38 52 43 52 4 0 7 4 7 10 0 9 85 127
101 140 18 15 30 55 24 81 -21 93 -283 240 -560 314 -77 20 -76 20 -170 40
-82 17 -87 18 -190 34 -56 8 -330 13 -337 6z"/>
<path d="M1338 4015 c-2 -2 -46 -5 -98 -8 -52 -3 -104 -8 -115 -10 -18 -4 -44
-8 -147 -23 -16 -2 -40 -6 -55 -8 -16 -2 -80 -14 -143 -26 -63 -12 -126 -24
-140 -26 -14 -2 -36 -7 -50 -10 -14 -3 -36 -8 -50 -10 -28 -5 -63 -12 -230
-48 -63 -14 -126 -27 -140 -30 -71 -14 -131 -39 -150 -64 -26 -33 -24 -58 20
-237 17 -71 43 -177 56 -235 14 -58 29 -121 34 -140 4 -19 11 -46 14 -60 3
-14 9 -38 13 -55 4 -16 7 -32 8 -35 0 -3 7 -30 15 -60 8 -30 13 -59 12 -63 -1
-4 2 -16 7 -25 5 -9 11 -30 14 -47 3 -16 19 -88 37 -160 17 -71 33 -137 35
-145 8 -38 47 -199 55 -230 17 -66 81 -335 87 -364 2 -16 9 -40 14 -53 5 -13
9 -34 9 -45 0 -35 40 -106 63 -115 28 -9 69 -11 82 -4 6 3 15 6 20 7 6 1 111
23 235 48 189 39 229 50 249 71 26 25 31 68 17 135 -4 19 -9 44 -11 55 -1 11
-8 48 -14 82 -7 35 -14 75 -17 90 -2 16 -7 44 -11 63 -9 47 -11 60 -18 97 -5
29 -3 33 21 39 15 4 36 8 48 9 11 1 21 3 21 5 0 1 9 3 20 4 32 4 115 17 138
22 12 2 31 6 42 8 321 62 540 162 665 304 59 67 58 65 95 145 33 71 47 115 62
192 9 46 9 306 0 350 -3 17 -9 42 -12 57 -3 15 -17 60 -31 99 -75 206 -207
335 -414 402 -88 29 -123 35 -240 43 -47 3 -93 7 -102 8 -9 2 -18 3 -20 1z
m-69 -585 c83 -20 128 -73 150 -179 19 -89 -1 -174 -52 -222 -43 -41 -130 -76
-207 -84 -14 -2 -41 -6 -60 -10 -19 -4 -48 -9 -65 -11 -16 -2 -44 -6 -62 -9
-34 -5 -36 -3 -47 65 -3 19 -8 46 -11 60 -3 14 -7 39 -10 55 -3 17 -7 41 -10
55 -9 46 -17 95 -20 115 -10 62 -17 101 -20 105 -10 17 21 27 125 44 63 11
126 22 140 26 34 9 85 6 149 -10z"/>
<path d="M2450 1483 c-25 -8 -60 -30 -79 -49 -28 -30 -34 -44 -38 -92 -9 -113
36 -168 184 -222 73 -26 88 -40 70 -63 -19 -26 -118 -25 -190 2 -15 6 -28 7
-31 3 -18 -30 -43 -111 -37 -120 24 -39 210 -68 301 -48 109 25 163 107 145
218 -9 51 -63 106 -131 132 -133 52 -153 67 -117 94 18 13 70 12 154 -3 35 -7
36 -7 57 44 12 29 19 58 16 66 -16 41 -217 67 -304 38z"/>
<path d="M3625 1488 c-114 -25 -185 -132 -190 -287 -4 -103 39 -221 94 -260
76 -55 198 -70 284 -36 70 28 102 59 126 122 13 32 26 65 30 73 8 15 6 152 -2
180 -3 8 -8 29 -12 45 -12 52 -58 108 -112 138 -57 31 -146 41 -218 25z m136
-164 c23 -20 32 -62 31 -140 -1 -107 -39 -155 -109 -138 -35 9 -50 29 -59 79
-18 100 -6 174 34 206 30 23 73 20 103 -7z"/>
<path d="M1423 1474 c-6 -16 14 -64 49 -116 10 -14 18 -33 18 -42 0 -9 5 -16
10 -16 6 0 10 -4 10 -9 0 -5 21 -46 47 -92 46 -82 46 -82 47 -183 1 -56 4
-106 8 -112 8 -12 145 -13 164 -1 6 3 11 51 12 107 l1 101 53 97 c28 53 60
113 70 132 10 19 30 54 44 78 34 59 24 70 -69 71 -40 0 -77 -3 -83 -7 -16 -10
-54 -88 -47 -96 4 -3 2 -6 -3 -6 -6 0 -16 -17 -23 -37 -8 -21 -18 -49 -23 -63
l-9 -25 -14 30 c-7 17 -28 64 -45 105 -18 41 -39 80 -47 87 -8 6 -48 11 -89
12 -60 1 -76 -2 -81 -15z"/>
<path d="M2054 1478 c-7 -11 -7 -565 0 -577 3 -5 43 -8 88 -7 l83 1 3 275 c1
151 0 285 -3 298 -5 21 -10 22 -85 21 -44 -1 -83 -5 -86 -11z"/>
<path d="M2873 1477 c-12 -19 -10 -567 2 -577 16 -13 145 -9 158 5 8 8 12 40
12 89 -1 71 0 76 20 76 16 0 33 -20 69 -85 53 -94 62 -99 166 -93 52 3 55 4
51 28 -1 14 -11 36 -21 50 -27 38 -70 118 -70 129 0 6 6 11 13 11 31 0 93 97
84 131 -3 11 -2 21 3 24 13 8 -12 109 -37 143 -48 64 -84 74 -285 79 -117 2
-159 0 -165 -10z m288 -158 c22 -22 25 -57 6 -84 -10 -13 -28 -18 -68 -19
l-53 -1 -1 61 -1 60 49 1 c36 1 53 -3 68 -18z"/>
<path d="M4073 1478 c-11 -15 -11 -557 -1 -574 10 -16 383 -13 399 3 15 15 15
111 0 126 -7 7 -50 12 -114 13 -56 1 -105 2 -108 3 -3 0 -5 18 -4 38 l1 38
104 0 105 0 0 70 0 70 -102 0 c-57 0 -103 2 -104 5 0 3 -2 13 -4 24 -8 40 2
44 111 44 58 0 108 2 111 6 10 10 11 120 0 134 -7 9 -59 12 -197 12 -138 0
-190 -3 -197 -12z"/>
<path d="M4577 1483 c-4 -3 -7 -136 -7 -294 0 -265 1 -288 18 -292 29 -9 360
-2 369 6 12 13 12 137 -1 144 -6 4 -51 8 -101 9 -49 1 -93 2 -96 3 -4 0 -7 93
-7 206 0 112 -3 209 -7 215 -7 11 -157 14 -168 3z"/>
<path d="M5608 1471 c-15 -5 -42 -20 -60 -32 -75 -53 -99 -104 -104 -218 -2
-47 -5 -95 -8 -106 -12 -57 -41 -143 -58 -174 -24 -44 -89 -128 -120 -157 -30
-27 -148 -106 -148 -99 0 3 -13 -1 -30 -10 -87 -45 -60 -45 -1905 -41 -957 1
-1751 5 -1765 8 -44 11 -134 47 -165 68 -16 11 -39 25 -49 32 -47 32 -101 88
-140 148 -64 98 -89 170 -101 299 -3 35 -14 80 -25 100 -20 39 -53 81 -64 81
-4 0 -14 7 -22 15 -23 23 -94 38 -152 32 -82 -9 -155 -61 -189 -137 -23 -52
-20 -187 7 -295 6 -22 13 -49 15 -59 39 -168 174 -381 321 -506 60 -51 75 -62
119 -90 117 -75 254 -129 390 -154 116 -22 3559 -23 3675 -1 157 29 155 29
292 94 141 67 282 183 384 316 77 99 160 284 185 410 28 139 30 294 5 347 -20
41 -83 108 -102 108 -7 0 -14 5 -16 11 -4 13 -135 21 -170 10z"/>
</g>
</svg>
